<svg width="70" height="70" viewBox="0 0 70 70" fill="none" xmlns="http://www.w3.org/2000/svg">
<path d="M49.4201 57.869C49.2601 57.869 49.1001 57.8091 48.9701 57.6991L47.1201 56.019C46.0401 56.019 42.0401 56.0091 41.1901 55.9391C40.2201 55.8591 32.6601 52.869 31.7401 51.959C31.1401 51.359 30.8801 50.5691 31.0101 49.7491C31.1301 48.9491 31.6401 48.199 32.3101 47.869C33.3001 47.359 34.5101 47.8991 35.3901 48.2791C35.6201 48.3791 35.9201 48.5091 36.0201 48.5291C36.3601 48.5591 36.5801 48.1791 36.6601 48.0091C37.0401 47.2091 36.9201 45.889 35.9601 44.929L29.8001 38.769C29.2601 38.229 28.8501 37.3691 28.7301 36.5091C28.5601 35.3691 28.8901 34.3191 29.6701 33.5391C30.0001 33.2191 30.4001 33.0391 30.8301 33.0391C30.8401 33.0391 30.8401 33.0391 30.8501 33.0391C31.8301 33.0591 32.6501 33.9291 33.3201 34.6391C33.4201 34.7491 33.5201 34.8491 33.6201 34.9491L39.4201 40.7491C40.8401 39.9391 44.9001 37.7191 46.7901 37.4691C49.1101 37.1691 50.2601 39.4091 51.5901 42.0091C51.7601 42.3291 51.9401 42.6691 52.1201 43.0091C53.4201 45.4891 53.4001 47.8691 53.3401 48.7191L55.4401 51.0591C55.6701 51.3191 55.6701 51.7191 55.4201 51.9691L51.7001 55.869C51.4401 56.139 51.0201 56.1491 50.7501 55.8891C50.4801 55.6291 50.4701 55.2091 50.7301 54.9391L54.0201 51.489L52.1401 49.399C52.0101 49.249 51.9501 49.0491 51.9701 48.8491C51.9701 48.8291 52.3101 46.2591 50.9201 43.6391C50.7401 43.2891 50.5601 42.949 50.3901 42.619C49.1201 40.149 48.2801 38.6391 46.9601 38.8091C45.3401 39.0191 41.1301 41.2991 39.6401 42.1691C39.3801 42.3191 39.0401 42.2791 38.8301 42.0591L32.6601 35.899C32.5601 35.799 32.4601 35.6791 32.3401 35.5591C31.9201 35.1191 31.2301 34.3891 30.8301 34.3891C30.8001 34.3891 30.7301 34.3891 30.6201 34.4991C30.1401 34.9791 29.9501 35.5891 30.0601 36.3091C30.1601 36.9591 30.4801 37.5491 30.7501 37.8091L36.9101 43.9791C38.3801 45.4491 38.4401 47.399 37.8801 48.5891C37.4601 49.469 36.7101 49.949 35.8801 49.869C35.5901 49.839 35.2701 49.6991 34.8501 49.5091C34.2901 49.2691 33.3501 48.8491 32.9201 49.0691C32.6801 49.1891 32.4001 49.5291 32.3301 49.9691C32.2701 50.3591 32.3901 50.7091 32.7001 51.0091C33.3901 51.6491 40.4501 54.5091 41.3001 54.5991C42.0301 54.6591 45.5901 54.679 47.3801 54.679C47.5401 54.679 47.7101 54.7391 47.8301 54.8491L49.8701 56.6991C50.1501 56.9491 50.1701 57.369 49.9201 57.649C49.7901 57.799 49.6101 57.869 49.4201 57.869Z" fill="#1F57C3"/>
<path d="M36.0501 23.84H27.5001C27.1301 23.84 26.8301 23.54 26.8301 23.17C26.8301 22.8 27.1301 22.5 27.5001 22.5H36.0501C36.4301 22.5 36.7301 22.8 36.7301 23.17C36.7301 23.54 36.4301 23.84 36.0501 23.84Z" fill="#1F57C3"/>
<path d="M27 50.31H15.36C15.17 50.31 14.99 50.23 14.86 50.09C14.73 49.95 14.67 49.76 14.69 49.57L17.31 23.1C17.34 22.76 17.6301 22.5 17.9801 22.5H24.47C24.84 22.5 25.1401 22.8 25.1401 23.17C25.1401 23.54 24.84 23.84 24.47 23.84H18.59L16.1001 48.97H27C27.37 48.97 27.6701 49.27 27.6701 49.64C27.6701 50.01 27.37 50.31 27 50.31Z" fill="#1F57C3"/>
<path d="M43.8302 39.89C43.4902 39.89 43.2002 39.64 43.1602 39.3L41.4202 23.84H38.8502C38.4802 23.84 38.1802 23.54 38.1802 23.17C38.1802 22.8 38.4802 22.5 38.8502 22.5H42.0202C42.3602 22.5 42.6502 22.75 42.6902 23.09L44.5002 39.14C44.5402 39.51 44.2702 39.85 43.9102 39.89C43.8802 39.89 43.8502 39.89 43.8302 39.89Z" fill="#1F57C3"/>
<path d="M36.05 28.0099C35.68 28.0099 35.3801 27.7099 35.3801 27.3399V19.3599C35.3801 16.8299 33.3201 14.7699 30.7901 14.7699H29.7301C27.2001 14.7699 25.1401 16.8299 25.1401 19.3599V27.3399C25.1401 27.7099 24.8401 28.0099 24.4701 28.0099C24.1001 28.0099 23.8 27.7099 23.8 27.3399V19.3599C23.8 16.0799 26.4601 13.4199 29.7301 13.4199H30.7901C34.0601 13.4199 36.7301 16.0799 36.7301 19.3599V27.3399C36.7301 27.7099 36.43 28.0099 36.05 28.0099Z" fill="#1F57C3"/>
<path d="M24.4702 27.0392C23.5402 27.0392 22.7902 27.7992 22.7902 28.7192C22.7902 29.6392 23.5402 30.3992 24.4702 30.3992C25.3902 30.3992 26.1502 29.6392 26.1502 28.7192C26.1502 27.7992 25.3902 27.0392 24.4702 27.0392ZM24.4702 31.7392C22.8002 31.7392 21.4502 30.3892 21.4502 28.7192C21.4502 27.0492 22.8002 25.6992 24.4702 25.6992C26.1302 25.6992 27.4902 27.0492 27.4902 28.7192C27.4902 30.3892 26.1302 31.7392 24.4702 31.7392Z" fill="#1F57C3"/>
<path d="M36.05 27.0392C35.13 27.0392 34.38 27.7992 34.38 28.7192C34.38 29.6392 35.13 30.3992 36.05 30.3992C36.98 30.3992 37.73 29.6392 37.73 28.7192C37.73 27.7992 36.98 27.0392 36.05 27.0392ZM36.05 31.7392C34.39 31.7392 33.03 30.3892 33.03 28.7192C33.03 27.0492 34.39 25.6992 36.05 25.6992C37.72 25.6992 39.08 27.0492 39.08 28.7192C39.08 30.3892 37.72 31.7392 36.05 31.7392Z" fill="#1F57C3"/>
<path d="M35 68.39C44.22 68.39 52.57 64.65 58.61 58.61C64.65 52.57 68.39 44.22 68.39 35C68.39 25.78 64.65 17.43 58.61 11.39C52.57 5.35001 44.22 1.60999 35 1.60999C25.78 1.60999 17.43 5.35001 11.39 11.39C5.35001 17.43 1.60999 25.78 1.60999 35C1.60999 44.22 5.35001 52.57 11.39 58.61C17.43 64.65 25.78 68.39 35 68.39ZM59.75 59.75C53.42 66.08 44.66 70 35 70C25.34 70 16.58 66.08 10.25 59.75C3.92 53.42 0 44.66 0 35C0 25.34 3.92 16.58 10.25 10.25C16.58 3.92 25.34 0 35 0C44.66 0 53.42 3.92 59.75 10.25C66.08 16.58 70 25.34 70 35C70 44.66 66.08 53.42 59.75 59.75Z" fill="#213479"/>
</svg>
