<svg width="27" height="27" viewBox="0 0 27 27" fill="none" xmlns="http://www.w3.org/2000/svg">
<path d="M24.426 27C23.778 27 23.157 26.739 22.698 26.28L17.244 20.826C12.816 23.598 7.02001 22.95 3.30301 19.233C1.17001 17.109 0 14.274 0 11.259C0 8.25301 1.17001 5.42701 3.30301 3.30301C5.42701 1.17001 8.25299 0 11.268 0C14.283 0 17.109 1.17001 19.242 3.30301C23.04 7.11001 23.625 13.104 20.619 17.568C20.475 17.775 20.196 17.82 19.98 17.685C19.773 17.541 19.71 17.262 19.854 17.037C22.617 12.96 22.086 7.45201 18.585 3.95101C16.632 1.99801 14.031 0.91799 11.268 0.91799C8.50499 0.91799 5.90401 1.99801 3.95101 3.95101C1.99801 5.90401 0.91799 8.50501 0.91799 11.259C0.91799 14.031 1.99801 16.641 3.95101 18.585C7.44301 22.086 12.951 22.626 17.046 19.854C17.226 19.737 17.469 19.755 17.631 19.917L23.346 25.632C23.634 25.92 24.021 26.082 24.426 26.082C24.84 26.082 25.218 25.92 25.506 25.632L25.632 25.506C26.226 24.912 26.226 23.94 25.632 23.355L21.555 19.269C21.375 19.089 21.375 18.81 21.555 18.621C21.735 18.441 22.023 18.441 22.203 18.621L26.28 22.698C26.748 23.157 27 23.778 27 24.426C27 25.083 26.748 25.695 26.28 26.154L26.154 26.28C25.695 26.739 25.083 27 24.426 27Z" fill="#5E5E5E"/>
</svg>
