<svg width="29" height="31" viewBox="0 0 29 31" fill="none" xmlns="http://www.w3.org/2000/svg">
<path d="M25.6974 29.1145H0.412325C0.182911 29.1145 0 28.9316 0 28.7053V3.44812C0 3.2249 0.182911 3.04199 0.412325 3.04199H25.6974C25.9268 3.04199 26.1098 3.2249 26.1098 3.44812V8.86104C26.1098 9.08735 25.9268 9.26716 25.6974 9.26716C25.4835 9.26716 25.2975 9.08735 25.2975 8.86104V3.85734H0.821549V28.2961H25.2975V19.7582C25.2975 19.535 25.4835 19.349 25.6974 19.349C25.9268 19.349 26.1098 19.535 26.1098 19.7582V28.7053C26.1098 28.9316 25.9268 29.1145 25.6974 29.1145Z" fill="#EC6A1F"/>
<path d="M0.412894 3.85409C0.205182 3.85409 0.0315702 3.70838 0.00986893 3.50377C-0.0211329 3.27745 0.130777 3.07284 0.357091 3.04184L21.9933 0.00365709C22.1111 -0.0118438 22.232 0.0222574 22.3188 0.0997621C22.4056 0.177267 22.4583 0.291974 22.4583 0.409781V3.44486C22.4583 3.67117 22.2754 3.85409 22.046 3.85409C21.8197 3.85409 21.6461 3.67117 21.6461 3.44486V0.877909L0.465596 3.85098C0.443895 3.85408 0.431495 3.85409 0.412894 3.85409Z" fill="#EC6A1F"/>
<path d="M22.1748 20.0151C22.1221 20.0151 22.0663 20.0058 22.0136 19.9872C21.8183 19.919 21.6757 19.7361 21.6323 19.4974L21.1983 16.4778C21.1983 16.4313 21.1239 16.3259 21.0805 16.3042C20.8852 16.2019 20.8108 15.9539 20.9193 15.7524C21.0154 15.5571 21.2634 15.4765 21.4587 15.5819C21.7408 15.7276 21.9702 16.0531 22.0136 16.36L22.3825 18.9084L24.2117 17.1072C24.4411 16.8902 24.8193 16.7693 25.1355 16.8251L27.6591 17.2653L26.5213 14.9587C26.3818 14.6828 26.3911 14.2829 26.5337 14.007L27.7366 11.7315L25.1882 12.1066C24.8844 12.1531 24.5062 12.0229 24.2892 11.7997L22.4911 9.95195L22.0663 12.491C22.0136 12.7948 21.7749 13.1203 21.4928 13.2567L19.1832 14.3914L20.0295 14.8347C20.2341 14.937 20.3116 15.1851 20.2031 15.3866C20.1039 15.585 19.8559 15.6656 19.6482 15.5571L18.3802 14.8905C18.1663 14.7789 18.0361 14.5867 18.0454 14.3728C18.0454 14.1651 18.1756 13.9729 18.3926 13.8675L21.1332 12.522C21.1766 12.5003 21.2541 12.4011 21.2541 12.3546L21.7625 9.34431C21.8059 9.1056 21.9485 8.92889 22.1531 8.86378C22.3608 8.80178 22.5748 8.86688 22.7484 9.04049L24.8751 11.2323C24.9061 11.2664 25.027 11.3036 25.0704 11.2974L28.0931 10.8541C28.3318 10.8169 28.5364 10.9006 28.6666 11.0711C28.7875 11.2447 28.7968 11.4772 28.679 11.6881L27.2591 14.3883C27.2374 14.4317 27.225 14.5526 27.2467 14.5929L28.6139 17.3304C28.71 17.5474 28.7007 17.7768 28.5798 17.9473C28.4527 18.1147 28.2357 18.1922 27.997 18.1519L24.9929 17.6311C24.9402 17.6218 24.8193 17.659 24.7883 17.69L22.6089 19.826C22.4786 19.95 22.3267 20.0151 22.1748 20.0151Z" fill="#EC6A1F"/>
<path d="M14.459 25.7494C14.3939 25.7494 14.3164 25.7308 14.2513 25.6904C14.056 25.5695 13.9909 25.3184 14.1118 25.1262C14.1862 25.0084 14.2637 24.8875 14.3381 24.7697C14.4683 24.5806 14.7194 24.531 14.9147 24.655C15.0977 24.7759 15.1535 25.0301 15.0232 25.2192C14.9581 25.3308 14.8806 25.4455 14.8062 25.5571C14.7287 25.6812 14.5985 25.7494 14.459 25.7494Z" fill="#EC6A1F"/>
<path d="M13.1907 28.3925C13.1473 28.3925 13.0915 28.3863 13.0481 28.3677C12.8435 28.2933 12.735 28.0577 12.8001 27.8469C12.8745 27.6361 12.9613 27.4253 13.0481 27.2207C13.1349 27.013 13.3736 26.9138 13.5814 26.9975C13.786 27.0843 13.8945 27.323 13.8077 27.5307C13.7209 27.726 13.6434 27.9275 13.5814 28.1228C13.5163 28.2933 13.3519 28.3925 13.1907 28.3925Z" fill="#EC6A1F"/>
<path d="M12.505 30.9993C12.4833 30.9993 12.4616 30.9962 12.4399 30.9931C12.2136 30.9528 12.0617 30.7451 12.1051 30.5219C12.1268 30.3824 12.1485 30.2459 12.1826 30.1064C12.226 29.8863 12.4399 29.7406 12.6569 29.784C12.8863 29.8305 13.0258 30.0444 12.9824 30.2676C12.9514 30.3979 12.9297 30.5281 12.908 30.6583C12.8739 30.8567 12.7003 30.9993 12.505 30.9993Z" fill="#EC6A1F"/>
<path d="M15.6617 24.1157C15.5625 24.1157 15.4664 24.0847 15.3889 24.0196C15.2184 23.8739 15.206 23.6135 15.3455 23.4429C16.8305 21.7006 18.5232 20.3862 20.2562 19.6421C20.4639 19.5522 20.7026 19.6483 20.7894 19.856C20.8762 20.0637 20.7894 20.3025 20.5817 20.3924C18.5449 21.2697 16.9514 22.8229 15.9655 23.9731C15.888 24.0661 15.7702 24.1157 15.6617 24.1157Z" fill="#EC6A1F"/>
<path d="M11.975 21.6888C11.8665 21.6888 11.758 21.6485 11.6836 21.5648C11.5317 21.3974 11.5317 21.1401 11.7053 20.9851C11.8014 20.889 11.9006 20.796 12.0091 20.703C12.1704 20.551 12.4308 20.5634 12.5827 20.7309C12.7346 20.8983 12.7222 21.1587 12.5486 21.3106C12.4525 21.3974 12.3533 21.4873 12.2572 21.5803C12.1827 21.6516 12.0835 21.6888 11.975 21.6888Z" fill="#EC6A1F"/>
<path d="M9.66578 24.417C9.59137 24.417 9.51387 24.3953 9.43946 24.3488C9.25655 24.2217 9.20075 23.9675 9.33096 23.7815C9.48287 23.5551 9.64408 23.3319 9.80839 23.118C9.93859 22.9351 10.199 22.8979 10.3726 23.0343C10.5555 23.1676 10.5896 23.4218 10.4594 23.6047C10.3075 23.8125 10.1556 24.0233 10.013 24.2403C9.92619 24.355 9.79598 24.417 9.66578 24.417ZM8.01958 27.5854C7.96378 27.5854 7.91108 27.5761 7.86767 27.5575C7.66306 27.4738 7.55455 27.2382 7.62896 27.0273C7.72816 26.7731 7.83667 26.522 7.94518 26.274C8.04128 26.0694 8.27999 25.9764 8.48461 26.0694C8.69232 26.1624 8.78842 26.4042 8.69232 26.6088C8.59311 26.8413 8.48461 27.0831 8.3978 27.325C8.3327 27.4862 8.18079 27.5854 8.01958 27.5854Z" fill="#EC6A1F"/>
<path d="M7.15099 30.6554C7.11999 30.6554 7.09829 30.6523 7.07659 30.6492C6.84717 30.6089 6.70766 30.395 6.73867 30.1748C6.77277 30.0353 6.79447 29.8989 6.82547 29.7625C6.86887 29.5424 7.08589 29.3998 7.3029 29.4463C7.53231 29.4897 7.67182 29.7067 7.62842 29.9268C7.59742 30.057 7.57572 30.1872 7.55402 30.3206C7.51061 30.519 7.337 30.6554 7.15099 30.6554Z" fill="#EC6A1F"/>
<path d="M13.5918 20.3577C13.4616 20.3577 13.3438 20.2988 13.257 20.1934C13.1268 20.0105 13.1578 19.7562 13.3438 19.6198C15.3248 18.1535 17.3307 17.1521 19.4667 16.5662C19.693 16.5073 19.91 16.6344 19.9751 16.8514C20.0309 17.0715 19.9007 17.2947 19.6837 17.3567C17.6469 17.9147 15.7279 18.8696 13.8306 20.274C13.7531 20.3298 13.6693 20.3577 13.5918 20.3577Z" fill="#EC6A1F"/>
<path d="M10.4161 17.4995C10.2734 17.4995 10.1432 17.4282 10.0688 17.298C9.94792 17.1057 10.013 16.8546 10.2083 16.7368C10.3292 16.6655 10.447 16.5973 10.568 16.526C10.7726 16.4175 11.0206 16.4857 11.1198 16.6841C11.2376 16.8794 11.1632 17.1305 10.9679 17.2422C10.847 17.3073 10.7416 17.3724 10.6331 17.4406C10.5556 17.4809 10.4905 17.4995 10.4161 17.4995Z" fill="#EC6A1F"/>
<path d="M7.75085 19.5604C7.65164 19.5604 7.54314 19.5201 7.46873 19.4426C7.30442 19.2814 7.30442 19.0241 7.46873 18.8629C7.64234 18.683 7.83765 18.5032 8.02986 18.3327C8.19417 18.1839 8.45459 18.1994 8.6065 18.3668C8.75841 18.5373 8.73671 18.7947 8.5724 18.9435C8.38949 19.1047 8.21588 19.2721 8.04227 19.4426C7.95546 19.5232 7.85936 19.5604 7.75085 19.5604ZM5.68923 22.2266C5.62412 22.2266 5.55902 22.2111 5.48462 22.1708C5.2893 22.0591 5.2242 21.8111 5.342 21.6158C5.47221 21.3926 5.60242 21.1694 5.74503 20.9555C5.87524 20.7695 6.12325 20.7137 6.31856 20.8408C6.50457 20.9648 6.55728 21.219 6.42707 21.405C6.29686 21.6065 6.16666 21.8142 6.04885 22.025C5.97134 22.1553 5.83183 22.2266 5.68923 22.2266Z" fill="#EC6A1F"/>
<path d="M4.50705 25.0145C4.47605 25.0145 4.43265 25.0083 4.39854 24.999C4.18153 24.937 4.05132 24.7107 4.11643 24.4937C4.15053 24.3572 4.19393 24.2208 4.23733 24.0906C4.30244 23.8736 4.54115 23.7558 4.74576 23.824C4.96278 23.8953 5.08058 24.1247 5.01548 24.3386C4.97518 24.4658 4.94108 24.5898 4.89767 24.7169C4.84497 24.8967 4.68066 25.0145 4.50705 25.0145Z" fill="#EC6A1F"/>
<path d="M12.0972 16.6512C11.9453 16.6512 11.7934 16.5582 11.7283 16.4063C11.629 16.2017 11.7283 15.9599 11.9329 15.87C13.2132 15.312 14.9152 14.6516 16.6916 14.4687C16.918 14.447 17.1133 14.6113 17.135 14.8345C17.1567 15.0578 16.9955 15.2593 16.7785 15.281C15.1106 15.4515 13.483 16.0839 12.2584 16.6171C12.2026 16.6419 12.1499 16.6512 12.0972 16.6512Z" fill="#EC6A1F"/>
</svg>
