<svg width="21" height="20" viewBox="0 0 21 20" fill="none" xmlns="http://www.w3.org/2000/svg">
<path d="M16.1933 20C16.08 20 15.9667 19.9667 15.8733 19.9L9.25332 14.9933H0.539998C0.239998 14.9933 0 14.7533 0 14.4533V3.44C0 3.14 0.239998 2.9 0.539998 2.9C0.839998 2.9 1.08 3.14 1.08 3.44V13.9133H9.43333C9.54666 13.9133 9.66665 13.9467 9.75332 14.02L15.54 18.3L15.1733 14.5C15.1667 14.3467 15.2133 14.2 15.3133 14.0867C15.42 13.9733 15.5667 13.9133 15.7133 13.9133H18.9333V1.08H3.96665C3.67332 1.08 3.42666 0.839998 3.42666 0.539998C3.42666 0.239998 3.67332 0 3.96665 0H19.4867C19.7867 0 20.0267 0.239998 20.0267 0.539998V14.4533C20.0267 14.7533 19.7867 14.9933 19.4867 14.9933H16.3133L16.7333 19.4133C16.76 19.62 16.64 19.8267 16.46 19.9333C16.38 19.9867 16.2867 20 16.1933 20Z" fill="#1F57C3"/>
<path fill-rule="evenodd" clip-rule="evenodd" d="M6.52675 8.00738C6.67342 7.30071 6.17344 6.75403 5.60677 6.6407C4.14677 6.3607 3.64009 8.56736 5.15342 8.90736C5.84675 9.06069 6.42008 8.54738 6.52675 8.00738Z" fill="#1F57C3"/>
<path fill-rule="evenodd" clip-rule="evenodd" d="M10.2401 6.64027C8.7334 6.38693 8.30007 8.60027 9.81341 8.9136C10.4934 9.0536 11.0601 8.54695 11.1667 8.00695C11.3134 7.30695 10.8067 6.74027 10.2401 6.64027Z" fill="#1F57C3"/>
<path fill-rule="evenodd" clip-rule="evenodd" d="M14.88 6.64218C14.18 6.52218 13.6267 7.01551 13.5267 7.57551C13.4 8.28218 13.9067 8.80885 14.4734 8.91552C15.1667 9.04885 15.7134 8.52886 15.8134 7.96886C15.9334 7.29553 15.44 6.74218 14.88 6.64218Z" fill="#1F57C3"/>
</svg>
