<svg width="40" height="40" viewBox="0 0 40 40" fill="none" xmlns="http://www.w3.org/2000/svg">
<path d="M0 36.19C0 35.22 0.380007 34.31 1.07001 33.63L9.14001 25.54C5.04001 18.99 6 10.4 11.5 4.89001C14.65 1.74001 18.85 0 23.31 0C27.77 0 31.96 1.74001 35.1 4.89001C38.26 8.04001 39.99 12.23 39.99 16.69C39.99 21.15 38.26 25.34 35.1 28.5C29.47 34.14 20.59 35 13.98 30.55C13.67 30.33 13.6 29.91 13.8 29.6C14.01 29.29 14.43 29.2 14.75 29.42C20.8 33.51 28.96 32.71 34.14 27.54C37.03 24.64 38.64 20.79 38.64 16.69C38.64 12.6 37.03 8.75001 34.14 5.85001C31.26 2.96001 27.39 1.35999 23.31 1.35999C19.21 1.35999 15.35 2.96001 12.46 5.85001C7.27999 11.03 6.48999 19.19 10.58 25.25C10.76 25.52 10.73 25.88 10.49 26.11L2.03 34.59C1.59 35.02 1.35999 35.59 1.35999 36.19C1.35999 36.79 1.59 37.36 2.03 37.79L2.20999 37.98C3.08999 38.86 4.53999 38.86 5.39999 37.98L11.45 31.94C11.72 31.67 12.14 31.67 12.41 31.94C12.68 32.2 12.68 32.63 12.41 32.9L6.38 38.94C5.69 39.62 4.77 40 3.81 40C2.84 40 1.94 39.62 1.25 38.94L1.07001 38.75C0.380007 38.07 0 37.16 0 36.19Z" fill="#4C79CF"/>
</svg>
