<svg width="39" height="40" viewBox="0 0 39 40" fill="none" xmlns="http://www.w3.org/2000/svg">
<path fill-rule="evenodd" clip-rule="evenodd" d="M8.04001 37.11V28.05H30.7V37.27C30.7 38.24 29.98 38.67 28.98 38.67H9.76001C8.65001 38.67 8.04001 38.21 8.04001 37.11ZM6.70999 30.63H3.82001C3.20001 30.63 2.44 30.17 2.12 29.83C1.78 29.46 1.39999 28.73 1.39999 28.05V15.94C1.39999 14.48 2.62998 13.36 4.13998 13.36H34.6C36.11 13.36 37.34 14.48 37.34 15.94V28.05C37.34 29.41 36.12 30.63 34.92 30.63H32.03V26.64H6.70999V30.63ZM8.04001 2.73001C8.04001 1.76001 8.76001 1.32999 9.76001 1.32999H28.98C30.09 1.32999 30.7 1.79001 30.7 2.89001V11.95H8.04001V2.73001ZM6.70999 2.5V11.95C4.55999 11.95 2.66 11.68 1.22 13.1C0.520001 13.81 0 14.72 0 16.09V27.89C0 30.26 1.86998 32.03 3.97998 32.03H6.70999V37.5C6.70999 37.89 6.78999 38.18 6.92999 38.45C7.35999 39.27 8.21998 40 9.13998 40H29.6C30.17 40 30.96 39.54 31.26 39.24C31.67 38.83 32.03 38.16 32.03 37.5V32.03C34.11 32.03 36.04 32.36 37.59 30.8C38.24 30.15 38.74 29.16 38.74 27.89V16.09C38.74 13.66 36.95 11.95 34.45 11.95H32.03V2.5C32.03 1.16 30.71 0 29.6 0H9.13998C8.02998 0 6.70999 1.17 6.70999 2.5Z" fill="#4C79CF"/>
<path fill-rule="evenodd" clip-rule="evenodd" d="M9.37012 32.0289H29.3701V30.6289H9.37012V32.0289Z" fill="#4C79CF"/>
<path fill-rule="evenodd" clip-rule="evenodd" d="M9.37012 36.0194H29.3701V34.6094H9.37012V36.0194Z" fill="#4C79CF"/>
</svg>
