<svg width="27" height="27" viewBox="0 0 27 27" fill="none" xmlns="http://www.w3.org/2000/svg">
<g clip-path="url(#clip0_33_10210)">
<path fill-rule="evenodd" clip-rule="evenodd" d="M1.43883 18.7844V4.64327C1.43883 4.23888 1.11496 3.91439 0.70935 3.91439C0.304955 3.91439 -0.0195312 4.23827 -0.0195312 4.64327V19.5132C-0.0195312 19.9182 0.30435 20.2427 0.70935 20.2427H12.4743L21.4122 26.8674C21.5381 26.9576 21.6913 27.0024 21.845 27.003C21.9703 27.003 22.0963 26.9849 22.2046 26.9128C22.448 26.7687 22.6096 26.4897 22.5739 26.2106L22.0067 20.2427H26.2909C26.6959 20.2427 27.0204 19.9189 27.0204 19.5139V0.728271C27.0204 0.323271 26.6965 -0.000610352 26.2909 -0.000610352H5.33628C4.94036 -0.000610352 4.6074 0.323271 4.6074 0.728271C4.6074 1.13327 4.94036 1.45715 5.33628 1.45715H25.5439V18.7844H21.1967C20.9981 18.7844 20.8001 18.8655 20.6567 19.0187C20.5211 19.1712 20.4587 19.3692 20.4672 19.5762L20.9624 24.7068L13.1493 18.9285C13.0319 18.8292 12.8702 18.7844 12.7171 18.7844H1.43883Z" fill="#FEFEFE"/>
<path d="M13.0329 13.2585C13.4379 13.2585 13.7552 13.2409 13.7552 12.8711C13.7552 10.3884 17.224 10.7934 17.224 7.90572C17.224 6.16283 15.8328 4.91211 13.5439 4.91211C10.9377 4.91211 9.77539 6.53211 9.77539 7.83549C9.77539 8.85677 10.9377 8.94455 11.0437 8.55711C11.3427 7.4656 11.6951 6.39166 13.5088 6.39166C14.7764 6.39166 15.4981 7.04305 15.4981 8.04677C15.4981 9.87805 12.2938 9.41978 12.2938 12.6598C12.2938 13.2058 12.5928 13.2585 13.0329 13.2585ZM12.9452 16.6396H13.1916C13.8254 16.6396 14.1602 16.3048 14.1602 15.6885V15.4772C14.1602 14.8609 13.8254 14.5086 13.1916 14.5086H12.9452C12.3289 14.5086 11.9941 14.8609 11.9941 15.4772V15.6885C11.9941 16.3048 12.3289 16.6396 12.9452 16.6396Z" fill="#FEFEFE"/>
</g>
<defs>
<clipPath id="clip0_33_10210">
<rect width="27" height="27" fill="white"/>
</clipPath>
</defs>
</svg>
