<svg width="17" height="15" viewBox="0 0 17 15" fill="none" xmlns="http://www.w3.org/2000/svg">
<path d="M1.18954 0.552C0.99276 0.552 0.814978 0.636 0.683337 0.789C0.554411 0.9405 0.487913 1.146 0.500127 1.3605L1.1624 13.608C1.18818 14.064 1.55868 14.4495 1.97124 14.4495H14.8449C15.2628 14.4495 15.6483 14.061 15.689 13.6005L16.4978 4.161C16.5155 3.9465 16.4571 3.747 16.335 3.597C16.2115 3.447 16.0378 3.3645 15.8423 3.3645H8.5899C7.9507 3.3645 7.19886 2.883 6.87858 2.2695L6.41173 1.3695C6.17966 0.927 5.59339 0.552 5.13197 0.552H1.18954ZM14.8449 15H1.97124C1.29133 15 0.706409 14.391 0.664338 13.6395L0.00206385 1.395C-0.0169358 1.0245 0.0957058 0.675 0.320987 0.411C0.546269 0.1455 0.854334 0 1.18954 0H5.13197C5.77253 0 6.52437 0.4815 6.84329 1.095L7.3115 1.995C7.54221 2.439 8.12848 2.8125 8.5899 2.8125H15.8423C16.1789 2.8125 16.4843 2.9595 16.7041 3.225C16.9226 3.492 17.0257 3.843 16.9945 4.212L16.1843 13.653C16.1219 14.3955 15.5207 15 14.8449 15Z" fill="#1F57C3"/>
<path d="M3.38649 12.9041C3.37428 12.9041 3.36071 12.9026 3.34849 12.9011C3.21278 12.8786 3.11914 12.7376 3.1395 12.5876C3.14628 12.5321 3.88863 7.10961 4.08677 4.93611C4.17905 3.92361 4.43555 3.25911 4.84947 2.96061C5.12903 2.75811 5.3896 2.78811 5.49545 2.81211H10.339C10.4761 2.81211 10.5887 2.93511 10.5887 3.08811C10.5887 3.23961 10.4761 3.36411 10.339 3.36411H5.4656C5.43981 3.36411 5.41267 3.35961 5.38824 3.35061C5.38688 3.35061 5.25932 3.31611 5.11139 3.43011C4.95668 3.54861 4.68118 3.91011 4.58483 4.99011C4.38398 7.17861 3.64028 12.6161 3.63213 12.6701C3.61449 12.8066 3.50863 12.9041 3.38649 12.9041Z" fill="#1F57C3"/>
<path d="M8.68611 7.83233L6.74136 10.2083H8.79875V10.7753H6.54458C6.40751 10.7753 6.30166 10.7333 6.22159 10.6478C6.14287 10.5623 6.10352 10.4558 6.10352 10.3253C6.10352 10.1843 6.14559 10.0673 6.22837 9.97583L8.18805 7.59233H6.12252V7.02533H8.38347C8.52054 7.02533 8.6264 7.06883 8.70375 7.15583C8.77975 7.24433 8.81775 7.34933 8.81775 7.47683C8.81775 7.61633 8.77432 7.73483 8.68611 7.83233ZM9.54109 6.08783C9.54109 5.96333 9.57502 5.86133 9.64423 5.78633C9.71209 5.71133 9.8003 5.67383 9.90887 5.67383C10.0188 5.67383 10.1097 5.71133 10.1817 5.78633C10.2549 5.86133 10.2916 5.96333 10.2916 6.08783C10.2916 6.20933 10.2549 6.30833 10.1817 6.38633C10.1097 6.46283 10.0188 6.50183 9.90887 6.50183C9.8003 6.50183 9.71209 6.46283 9.64423 6.38633C9.57502 6.30833 9.54109 6.20933 9.54109 6.08783ZM10.1925 10.7753H9.62659V7.02533H10.1925V10.7753ZM12.5987 6.97433C13.0669 6.97433 13.4537 7.15433 13.7549 7.51283C14.0576 7.86533 14.2082 8.32883 14.2082 8.90033C14.2082 9.47183 14.0576 9.93683 13.7549 10.2953C13.4537 10.6493 13.0669 10.8248 12.5987 10.8248C12.3395 10.8248 12.0423 10.7753 11.7043 10.6733V12.4238H11.1452V7.76633C11.1452 7.56233 11.2049 7.42283 11.323 7.34633C11.6867 7.09883 12.1115 6.97433 12.5987 6.97433ZM12.5783 10.2668C12.9027 10.2668 13.1619 10.1408 13.3546 9.89183C13.5473 9.64283 13.6437 9.31433 13.6437 8.90783C13.6437 8.49983 13.5473 8.17133 13.3546 7.91933C13.1619 7.66733 12.9027 7.54133 12.5783 7.54133C12.2635 7.54133 11.9717 7.61183 11.7043 7.75283V10.1138C11.9853 10.2158 12.277 10.2668 12.5783 10.2668Z" fill="#1F57C3"/>
</svg>
