<svg width="18" height="18" viewBox="0 0 18 18" fill="none" xmlns="http://www.w3.org/2000/svg">
<path d="M2.6298 15.1756L2.8602 16.5508L4.24261 16.3204C4.24261 15.6148 4.7538 14.9884 5.4738 14.866C5.553 14.8516 5.6394 14.8444 5.7186 14.8444C6.3594 14.8444 6.9138 15.2476 7.1154 15.8308L8.26741 15.6364C8.26741 14.9308 8.7786 14.3044 9.4986 14.182C9.585 14.1676 9.67141 14.1604 9.75061 14.1604C10.3914 14.1604 10.9386 14.5636 11.1474 15.1468L12.2994 14.9524C12.2994 14.65 12.3858 14.3548 12.573 14.1028C12.7962 13.7788 13.1418 13.5628 13.5306 13.498C13.6098 13.4836 13.6962 13.4764 13.7754 13.4764C14.4162 13.4764 14.9706 13.8796 15.1794 14.4628L16.5474 14.2324L16.317 12.8572C15.5898 12.8572 14.985 12.3388 14.8626 11.626C14.7402 10.906 15.165 10.2148 15.8274 9.97719L15.633 8.83239C14.913 8.82519 14.301 8.30679 14.1786 7.59399C14.0562 6.87399 14.481 6.18279 15.1434 5.95239L14.949 4.80039C14.229 4.80039 13.617 4.28199 13.4946 3.56919C13.3722 2.84919 13.797 2.15799 14.4666 1.92039L14.229 0.545207L12.8538 0.77559C12.8538 1.08519 12.7602 1.38039 12.5802 1.63239C12.357 1.95639 12.0114 2.16519 11.6226 2.23719C11.5362 2.24439 11.457 2.25879 11.3706 2.25879C10.737 2.25879 10.1826 1.85561 9.97381 1.26521L8.82901 1.4596C8.82181 2.1652 8.31061 2.79159 7.59781 2.91399C7.51141 2.92839 7.42501 2.93559 7.34581 2.93559C6.70501 2.93559 6.15061 2.53239 5.94901 1.94919L4.797 2.14361C4.797 2.84921 4.28581 3.4756 3.56581 3.598C3.47941 3.6124 3.4002 3.6196 3.3138 3.6196C2.6802 3.6196 2.1258 3.2164 1.917 2.6332L0.549007 2.86361L0.779412 4.23879C1.49941 4.23879 2.1114 4.75719 2.2338 5.47719C2.3562 6.19719 1.93141 6.88119 1.26901 7.11879L1.4634 8.27079C2.1834 8.27079 2.79541 8.78921 2.91781 9.50201C3.03301 10.222 2.61541 10.9132 1.94581 11.1508L2.1402 12.2956C2.8602 12.3028 3.47942 12.8212 3.59462 13.534C3.66662 13.9228 3.57301 14.3116 3.34261 14.6356C3.16261 14.8876 2.9178 15.0748 2.6298 15.1756ZM2.6514 17.098C2.5362 17.098 2.4282 17.0116 2.4066 16.8892L2.0898 15.0316C2.0826 14.9668 2.09699 14.8948 2.13299 14.8444C2.17619 14.7868 2.2338 14.7508 2.2986 14.7364C2.5578 14.6932 2.78101 14.5564 2.93221 14.3404C3.08341 14.1316 3.14101 13.8724 3.09061 13.6132C3.01861 13.1452 2.61539 12.8068 2.13299 12.8068C2.08259 12.8068 2.02502 12.8068 1.97462 12.8212C1.90982 12.8284 1.83781 12.814 1.78741 12.778C1.72981 12.7348 1.6938 12.6772 1.6866 12.6124L1.40581 11.0068C1.38421 10.8628 1.4778 10.7332 1.6218 10.7116C2.1474 10.618 2.5074 10.114 2.4138 9.58841C2.3346 9.12041 1.93141 8.7748 1.45621 8.7748C1.40581 8.7748 1.34101 8.78199 1.29061 8.78919C1.22581 8.80359 1.1538 8.7892 1.1034 8.746C1.0458 8.71 1.00981 8.64519 1.00261 8.58039L0.7218 6.9748C0.7146 6.91 0.728998 6.83799 0.764998 6.78759C0.808198 6.72999 0.873013 6.694 0.937813 6.6796C1.46341 6.5932 1.8234 6.0892 1.7298 5.5564C1.6506 5.0884 1.24741 4.75 0.772205 4.75C0.721805 4.75 0.664198 4.74999 0.606598 4.75719C0.469798 4.78599 0.340195 4.69239 0.311395 4.55559L0.00180013 2.698C-0.00539987 2.6332 0.00899837 2.56839 0.0449984 2.51079C0.0809984 2.45319 0.145806 2.4172 0.210606 2.4028L2.0682 2.0932C2.133 2.0788 2.1978 2.0932 2.2554 2.1364C2.3058 2.1724 2.34901 2.23721 2.35621 2.30201C2.43541 2.77001 2.8386 3.10841 3.3138 3.10841C3.3714 3.10841 3.42901 3.10839 3.47941 3.09399C4.01221 3.00759 4.3722 2.5036 4.2786 1.978C4.257 1.834 4.35061 1.7044 4.48741 1.6828L6.09299 1.40919C6.23699 1.38759 6.35941 1.4812 6.38101 1.618C6.46741 2.086 6.87061 2.4316 7.34581 2.4316C7.39621 2.4316 7.4538 2.42439 7.5114 2.41719C8.037 2.32359 8.397 1.81959 8.3034 1.29399C8.2818 1.15719 8.37541 1.02039 8.51941 0.998788L10.125 0.725207C10.1826 0.718007 10.2546 0.732405 10.3122 0.768405C10.3626 0.811605 10.3986 0.869191 10.413 0.933991C10.4922 1.40199 10.8954 1.74759 11.3706 1.74759C11.4282 1.74759 11.4858 1.7404 11.5362 1.7332C11.7954 1.69 12.0186 1.54599 12.1698 1.33719C12.321 1.12839 12.3786 0.869204 12.3354 0.610004C12.3138 0.473204 12.4074 0.343602 12.5442 0.314802L14.3946 0.00520679C14.5386 -0.0235932 14.6682 0.069991 14.6898 0.213991L15.0066 2.0644C15.0138 2.1292 14.9994 2.20119 14.9634 2.25879C14.9202 2.30919 14.8626 2.3452 14.7978 2.3596C14.5386 2.4028 14.3154 2.53959 14.1642 2.75559C14.013 2.96439 13.9554 3.2236 13.9986 3.4828C14.0778 3.9508 14.481 4.2964 14.9562 4.2964C15.0138 4.2964 15.0714 4.28921 15.1218 4.28201C15.1866 4.26761 15.2586 4.28201 15.309 4.32521C15.3666 4.36121 15.4026 4.41881 15.417 4.48361L15.6906 6.0964C15.7122 6.2332 15.6186 6.3628 15.4818 6.3844C14.949 6.478 14.589 6.98199 14.6826 7.5076C14.7546 7.98279 15.165 8.3212 15.6402 8.3212C15.6978 8.3212 15.7482 8.31401 15.7986 8.30681C15.9426 8.28521 16.0722 8.37879 16.101 8.51559L16.3674 10.1212C16.3962 10.258 16.2954 10.3948 16.1658 10.4164C15.633 10.5028 15.273 11.0068 15.3594 11.5396C15.4386 12.0076 15.849 12.3532 16.317 12.3532C16.3818 12.3532 16.4322 12.346 16.4826 12.3388C16.5474 12.3244 16.6194 12.3388 16.677 12.382C16.7274 12.418 16.7634 12.4756 16.7778 12.5476L17.0946 14.398C17.1162 14.5348 17.0226 14.6716 16.8858 14.6932L15.0354 15.0028C14.9634 15.0172 14.8986 15.0028 14.841 14.9596C14.7834 14.9236 14.7474 14.866 14.733 14.8012C14.661 14.326 14.2578 13.9876 13.7754 13.9876C13.725 13.9876 13.6674 13.9876 13.617 14.002C13.3578 14.0452 13.1346 14.182 12.9834 14.398C12.8322 14.6068 12.7746 14.866 12.8178 15.1252C12.8322 15.19 12.8106 15.2548 12.7746 15.3124C12.7314 15.37 12.6738 15.406 12.609 15.4132L11.0034 15.6868C10.9314 15.7012 10.8666 15.6868 10.8162 15.6436C10.7586 15.6076 10.7154 15.55 10.7082 15.478C10.629 15.01 10.2258 14.6716 9.75061 14.6716C9.69301 14.6716 9.6426 14.6716 9.585 14.6788C9.0522 14.7724 8.69939 15.2764 8.79299 15.802C8.81459 15.946 8.72101 16.0756 8.58421 16.0972L6.9786 16.3708C6.8346 16.3924 6.705 16.2988 6.6834 16.162C6.597 15.694 6.201 15.3484 5.7186 15.3484C5.6682 15.3484 5.6106 15.3556 5.5602 15.3628C5.0274 15.4564 4.67461 15.9604 4.76101 16.486C4.78261 16.6228 4.68901 16.7596 4.55221 16.7812L2.69462 17.098C2.68742 17.098 2.6658 17.098 2.6514 17.098Z" fill="#1F57C3"/>
<path d="M4.72515 14.1819C4.60275 14.1819 4.49475 14.0955 4.48035 13.9731L3.13395 6.08193C3.11235 5.94513 3.20594 5.81551 3.34994 5.79391C3.48674 5.76511 3.61636 5.85871 3.63796 5.99551L4.93395 13.6347L13.6388 12.1659L12.1628 3.46112L4.39395 4.77871C4.24995 4.80031 4.12035 4.70672 4.09875 4.56992C4.07715 4.43312 4.17076 4.29632 4.30756 4.27472L12.3283 2.91391C12.3931 2.90671 12.4652 2.92111 12.5156 2.95711C12.5732 3.00031 12.6091 3.05792 12.6235 3.12272L14.1788 12.3315C14.2004 12.4683 14.1139 12.5979 13.9699 12.6195L4.76834 14.1819C4.75394 14.1819 4.73955 14.1819 4.72515 14.1819Z" fill="#1F57C3"/>
<path d="M11.1488 11.834C11.0264 11.834 10.9184 11.7476 10.8968 11.6252L10.7312 10.6316C10.7168 10.5668 10.7384 10.4948 10.7744 10.4444C10.8176 10.3868 10.868 10.3507 10.94 10.3363L12.8264 10.0195L10.2488 5.67795L9.06797 10.6531L9.73759 10.5452C9.88159 10.5164 10.0112 10.61 10.0328 10.7468C10.0616 10.8908 9.96799 11.0204 9.82399 11.042L8.77277 11.222C8.68637 11.2364 8.60719 11.2076 8.54239 11.1428C8.48479 11.0852 8.46318 10.9916 8.48478 10.9124L9.91038 4.95076C9.93198 4.84996 10.0184 4.77075 10.1192 4.75635C10.2128 4.74195 10.3136 4.79236 10.3712 4.87876L13.4528 10.0772C13.496 10.1492 13.496 10.2355 13.4672 10.3147C13.4312 10.3939 13.3592 10.4444 13.28 10.4588L11.2784 10.7972L11.4008 11.5388C11.4224 11.6756 11.3288 11.8052 11.192 11.8268C11.1776 11.834 11.1632 11.834 11.1488 11.834Z" fill="#1F57C3"/>
<path d="M6.74145 6.02487C6.68385 6.02487 6.63344 6.03206 6.57584 6.03926C6.33104 6.08246 6.10784 6.21926 5.96384 6.42086C5.81984 6.62966 5.76224 6.88166 5.80544 7.12646C5.87744 7.58726 6.27344 7.91847 6.73424 7.91847C6.79184 7.91847 6.84225 7.91128 6.89985 7.90408C7.14465 7.86088 7.36065 7.72408 7.50465 7.52248C7.65585 7.31368 7.70625 7.06166 7.66305 6.80966C7.59105 6.35606 7.19505 6.02487 6.74145 6.02487ZM6.73424 8.42248C6.02144 8.42248 5.41665 7.91846 5.30145 7.21286C5.23665 6.83126 5.33025 6.44246 5.54625 6.13286C5.77665 5.80886 6.10785 5.60007 6.48945 5.53527C6.57585 5.52087 6.66225 5.51367 6.74145 5.51367C7.45425 5.51367 8.05184 6.02487 8.16704 6.73047C8.23184 7.11207 8.14544 7.49367 7.92224 7.81047C7.69904 8.12727 7.36064 8.33606 6.97904 8.40086C6.89984 8.41526 6.81344 8.42248 6.73424 8.42248Z" fill="#1F57C3"/>
<path d="M4.21447 11.1647C4.15687 11.1647 4.09926 11.1503 4.05606 11.1071C3.94806 11.0135 3.92647 10.8551 4.02007 10.7471C4.06327 10.7039 5.06407 9.55189 6.91447 9.19909C8.81527 8.84629 9.15366 9.46549 9.20406 9.59509C9.24726 9.72469 9.18247 9.86869 9.05287 9.91909C8.92327 9.96949 8.78646 9.9119 8.73606 9.7895C8.65686 9.6887 8.21767 9.4727 7.00807 9.6959C5.33767 10.0127 4.41606 11.0711 4.40886 11.0783C4.35846 11.1359 4.28647 11.1647 4.21447 11.1647Z" fill="#1F57C3"/>
</svg>
