<svg width="50" height="50" viewBox="0 0 50 50" fill="none" xmlns="http://www.w3.org/2000/svg">
<path d="M25 48.925C31.605 48.925 37.59 46.245 41.915 41.915C46.245 37.59 48.925 31.605 48.925 25C48.925 18.395 46.245 12.41 41.915 8.085C37.59 3.755 31.605 1.075 25 1.075C18.395 1.075 12.41 3.755 8.085 8.085C3.755 12.41 1.075 18.395 1.075 25C1.075 31.605 3.755 37.59 8.085 41.915C12.41 46.245 18.395 48.925 25 48.925ZM42.68 42.68C38.155 47.2 31.905 50 25 50C18.095 50 11.845 47.2 7.32 42.68C2.8 38.155 0 31.905 0 25C0 18.095 2.8 11.845 7.32 7.32C11.845 2.8 18.095 0 25 0C31.905 0 38.155 2.8 42.68 7.32C47.2 11.845 50 18.095 50 25C50 31.905 47.2 38.155 42.68 42.68Z" fill="#1F57C3"/>
<path d="M37.969 39.5002H12.429C10.994 39.5002 9.83398 38.3352 9.83398 36.9052C9.83398 36.6052 10.074 36.3652 10.374 36.3652C10.674 36.3652 10.914 36.6052 10.914 36.9052C10.914 37.7402 11.594 38.4152 12.429 38.4152H37.969C38.799 38.4152 39.479 37.7402 39.479 36.9052V32.3251C39.479 32.0301 39.719 31.7852 40.019 31.7852C40.319 31.7852 40.559 32.0301 40.559 32.3251V36.9052C40.559 38.3352 39.399 39.5002 37.969 39.5002Z" fill="#1F57C3"/>
<path d="M40.0197 24.0149C39.7197 24.0149 39.4797 23.7699 39.4797 23.4749V17.6349C39.4797 16.8049 38.7997 16.1249 37.9697 16.1249H17.0997C16.7997 16.1249 16.5547 15.8849 16.5547 15.5849C16.5547 15.2849 16.7997 15.0449 17.0997 15.0449H37.9697C39.3997 15.0449 40.5597 16.2049 40.5597 17.6349V23.4749C40.5597 23.7699 40.3197 24.0149 40.0197 24.0149Z" fill="#1F57C3"/>
<path d="M10.374 37.445C10.074 37.445 9.83398 37.205 9.83398 36.905V14.16C9.83398 12.42 10.679 9.5 16.359 9.5H32.724C34.149 9.5 35.314 10.665 35.314 12.09V15.585C35.314 15.885 35.074 16.125 34.774 16.125C34.474 16.125 34.234 15.885 34.234 15.585V12.09C34.234 11.26 33.554 10.58 32.724 10.58H16.359C12.749 10.58 10.914 11.785 10.914 14.16V36.905C10.914 37.205 10.674 37.445 10.374 37.445Z" fill="#1F57C3"/>
<path d="M16.8743 16.1253C13.2893 16.1253 12.9043 14.8503 12.9043 14.3003C12.9043 13.1003 14.5643 12.1953 16.7593 12.1953H32.1493C32.4493 12.1953 32.6943 12.4353 32.6943 12.7353C32.6943 13.0303 32.4493 13.2753 32.1493 13.2753H16.7593C14.9293 13.2753 13.9843 13.9953 13.9843 14.3003C13.9843 14.5003 14.6693 15.0453 16.8743 15.0453C17.1743 15.0453 17.4143 15.2853 17.4143 15.5853C17.4143 15.8853 17.1743 16.1253 16.8743 16.1253Z" fill="#1F57C3"/>
<path d="M32.6552 24.0147C31.6002 24.0147 30.7402 24.8747 30.7402 25.9347V27.0247C30.7402 28.0797 31.6002 28.9447 32.6552 28.9447H40.1702C41.2302 28.9447 42.0901 28.0797 42.0901 27.0247V25.9347C42.0901 24.8747 41.2302 24.0147 40.1702 24.0147H32.6552ZM40.1702 30.0247H32.6552C31.0052 30.0247 29.6602 28.6797 29.6602 27.0247V25.9347C29.6602 24.2797 31.0052 22.9297 32.6552 22.9297H40.1702C41.8252 22.9297 43.1702 24.2797 43.1702 25.9347V27.0247C43.1702 28.6797 41.8252 30.0247 40.1702 30.0247Z" fill="#1F57C3"/>
<path d="M32.9633 26.2439C32.8333 26.2439 32.7283 26.3489 32.7283 26.4789C32.7283 26.6089 32.8333 26.7139 32.9633 26.7139C33.0933 26.7139 33.1983 26.6089 33.1983 26.4789C33.1983 26.3489 33.0933 26.2439 32.9633 26.2439ZM32.9633 27.3239C32.4933 27.3239 32.1133 26.9439 32.1133 26.4789C32.1133 26.0089 32.4933 25.6289 32.9633 25.6289C33.4283 25.6289 33.8133 26.0089 33.8133 26.4789C33.8133 26.9439 33.4283 27.3239 32.9633 27.3239Z" fill="#1F57C3"/>
<path d="M16.2541 19.205H14.9541C14.6541 19.205 14.4141 18.965 14.4141 18.665C14.4141 18.365 14.6541 18.125 14.9541 18.125H16.2541C16.5491 18.125 16.7941 18.365 16.7941 18.665C16.7941 18.965 16.5491 19.205 16.2541 19.205Z" fill="#1F57C3"/>
<path d="M21.9141 19.205H19.0841C18.7841 19.205 18.5391 18.965 18.5391 18.665C18.5391 18.365 18.7841 18.125 19.0841 18.125H21.9141C22.2141 18.125 22.4541 18.365 22.4541 18.665C22.4541 18.965 22.2141 19.205 21.9141 19.205ZM27.5791 19.205H24.7441C24.4441 19.205 24.2041 18.965 24.2041 18.665C24.2041 18.365 24.4441 18.125 24.7441 18.125H27.5791C27.8741 18.125 28.1191 18.365 28.1191 18.665C28.1191 18.965 27.8741 19.205 27.5791 19.205ZM33.2391 19.205H30.4091C30.1091 19.205 29.8691 18.965 29.8691 18.665C29.8691 18.365 30.1091 18.125 30.4091 18.125H33.2391C33.5391 18.125 33.7791 18.365 33.7791 18.665C33.7791 18.965 33.5391 19.205 33.2391 19.205Z" fill="#1F57C3"/>
<path d="M37.3693 20.505C37.0693 20.505 36.8293 20.265 36.8293 19.965V19.205H36.0693C35.7693 19.205 35.5293 18.965 35.5293 18.665C35.5293 18.365 35.7693 18.125 36.0693 18.125H37.3693C37.6693 18.125 37.9093 18.365 37.9093 18.665V19.965C37.9093 20.265 37.6693 20.505 37.3693 20.505Z" fill="#1F57C3"/>
<path d="M37.3681 23.2952C37.0681 23.2952 36.8281 23.0502 36.8281 22.7502V21.4552C36.8281 21.1552 37.0681 20.9102 37.3681 20.9102C37.6681 20.9102 37.9081 21.1552 37.9081 21.4552V22.7502C37.9081 23.0502 37.6681 23.2952 37.3681 23.2952Z" fill="#1F57C3"/>
<path d="M16.2541 36.6241H14.9541C14.6541 36.6241 14.4141 36.3841 14.4141 36.0841C14.4141 35.7841 14.6541 35.5391 14.9541 35.5391H16.2541C16.5491 35.5391 16.7941 35.7841 16.7941 36.0841C16.7941 36.3841 16.5491 36.6241 16.2541 36.6241Z" fill="#1F57C3"/>
<path d="M21.9141 36.6241H19.0841C18.7841 36.6241 18.5391 36.3841 18.5391 36.0841C18.5391 35.7841 18.7841 35.5391 19.0841 35.5391H21.9141C22.2141 35.5391 22.4541 35.7841 22.4541 36.0841C22.4541 36.3841 22.2141 36.6241 21.9141 36.6241ZM27.5791 36.6241H24.7441C24.4441 36.6241 24.2041 36.3841 24.2041 36.0841C24.2041 35.7841 24.4441 35.5391 24.7441 35.5391H27.5791C27.8741 35.5391 28.1191 35.7841 28.1191 36.0841C28.1191 36.3841 27.8741 36.6241 27.5791 36.6241ZM33.2391 36.6241H30.4091C30.1091 36.6241 29.8691 36.3841 29.8691 36.0841C29.8691 35.7841 30.1091 35.5391 30.4091 35.5391H33.2391C33.5391 35.5391 33.7791 35.7841 33.7791 36.0841C33.7791 36.3841 33.5391 36.6241 33.2391 36.6241Z" fill="#1F57C3"/>
<path d="M37.3693 36.6261H36.0693C35.7693 36.6261 35.5293 36.3861 35.5293 36.0861C35.5293 35.7861 35.7693 35.5411 36.0693 35.5411H36.8293V34.7861C36.8293 34.4861 37.0693 34.2461 37.3693 34.2461C37.6693 34.2461 37.9093 34.4861 37.9093 34.7861V36.0861C37.9093 36.3861 37.6693 36.6261 37.3693 36.6261Z" fill="#1F57C3"/>
<path d="M37.3681 34.0161C37.0681 34.0161 36.8281 33.7711 36.8281 33.4711V32.1611C36.8281 31.8611 37.0681 31.6211 37.3681 31.6211C37.6681 31.6211 37.9081 31.8611 37.9081 32.1611V33.4711C37.9081 33.7711 37.6681 34.0161 37.3681 34.0161Z" fill="#1F57C3"/>
<path d="M37.3681 31.3889C37.0681 31.3889 36.8281 31.1439 36.8281 30.8439V29.5489C36.8281 29.2489 37.0681 29.0039 37.3681 29.0039C37.6681 29.0039 37.9081 29.2489 37.9081 29.5489V30.8439C37.9081 31.1439 37.6681 31.3889 37.3681 31.3889Z" fill="#1F57C3"/>
</svg>
