<svg width="50" height="50" viewBox="0 0 50 50" fill="none" xmlns="http://www.w3.org/2000/svg">
<path d="M25 48.925C31.605 48.925 37.59 46.245 41.915 41.915C46.245 37.59 48.925 31.605 48.925 25C48.925 18.395 46.245 12.41 41.915 8.085C37.59 3.755 31.605 1.075 25 1.075C18.395 1.075 12.41 3.755 8.085 8.085C3.755 12.41 1.075 18.395 1.075 25C1.075 31.605 3.755 37.59 8.085 41.915C12.41 46.245 18.395 48.925 25 48.925ZM42.68 42.68C38.155 47.2 31.905 50 25 50C18.095 50 11.845 47.2 7.32 42.68C2.8 38.155 0 31.905 0 25C0 18.095 2.8 11.845 7.32 7.32C11.845 2.8 18.095 0 25 0C31.905 0 38.155 2.8 42.68 7.32C47.2 11.845 50 18.095 50 25C50 31.905 47.2 38.155 42.68 42.68Z" fill="#1F57C3"/>
<path d="M37.405 14.175L40.06 14.25C39.825 12.535 39.215 10.42 38.395 10.265C38.085 10.66 37.745 12.205 37.405 14.175ZM25.305 39.25C25.19 39.25 25.075 39.21 24.98 39.13C24.77 38.95 24.745 38.63 24.925 38.42C25.79 37.41 25.925 35.215 26.04 33.285C26.2 30.675 26.35 28.21 28.265 28.21C29.98 28.21 30.42 29.95 30.805 31.485C31.215 33.11 31.53 34.095 32.475 34.095C32.54 34.08 33.16 33.81 34.005 29.69C34.55 27.015 35.03 23.58 35.49 20.265C35.81 17.97 36.075 16.125 36.315 14.65C36.315 14.65 36.315 14.65 36.315 14.645C36.315 14.595 36.32 14.55 36.335 14.51C37.005 10.43 37.47 9.25 38.3 9.25C40.515 9.25 41.045 13.81 41.13 14.725C41.14 14.865 41.095 15.01 40.995 15.115C40.895 15.22 40.755 15.28 40.615 15.275L37.24 15.175C36.98 16.84 36.72 18.705 36.485 20.4C35.1 30.395 34.25 35.1 32.475 35.1C30.675 35.1 30.21 33.23 29.83 31.735C29.435 30.165 29.135 29.215 28.265 29.215C27.295 29.215 27.165 31.315 27.045 33.35C26.91 35.54 26.77 37.805 25.69 39.07C25.59 39.19 25.45 39.25 25.305 39.25Z" fill="#1F57C3"/>
<path d="M19.185 26.8C19.155 26.8 19.125 26.795 19.095 26.79C18.82 26.74 18.64 26.475 18.69 26.205C19.17 23.625 19.55 20.775 19.89 18.255C20.8 11.45 21.195 9.25 22.365 9.25H38.3C38.575 9.25 38.8 9.475 38.8 9.75C38.8 10.03 38.575 10.255 38.3 10.255H22.44C21.895 10.835 21.335 15.015 20.885 18.39C20.545 20.92 20.16 23.785 19.68 26.39C19.635 26.63 19.425 26.8 19.185 26.8Z" fill="#1F57C3"/>
<path d="M25.3099 39.2509H9.36985C9.17485 39.2509 8.99985 39.1359 8.91485 38.9559C8.83485 38.7809 8.85986 38.5709 8.98986 38.4209C9.85486 37.4109 9.98485 35.2159 10.1049 33.2859C10.2649 30.6759 10.4149 28.2109 12.3299 28.2109C12.6099 28.2109 12.8349 28.4359 12.8349 28.7109C12.8349 28.9909 12.6099 29.2159 12.3299 29.2159C11.3599 29.2159 11.2349 31.3159 11.1099 33.3509C10.9999 35.1209 10.8899 36.9409 10.2799 38.2459H25.3099C25.5849 38.2459 25.8099 38.4709 25.8099 38.7459C25.8099 39.0259 25.5849 39.2509 25.3099 39.2509Z" fill="#1F57C3"/>
<path d="M28.2651 29.2159H12.3301C12.0551 29.2159 11.8301 28.9909 11.8301 28.7109C11.8301 28.4359 12.0551 28.2109 12.3301 28.2109H28.2651C28.5401 28.2109 28.7651 28.4359 28.7651 28.7109C28.7651 28.9909 28.5401 29.2159 28.2651 29.2159Z" fill="#1F57C3"/>
<path d="M32.0509 35.0441H26.4609C26.1809 35.0441 25.9609 34.8191 25.9609 34.5441C25.9609 34.2691 26.1809 34.0391 26.4609 34.0391H32.0509C32.3259 34.0391 32.5509 34.2691 32.5509 34.5441C32.5509 34.8191 32.3259 35.0441 32.0509 35.0441Z" fill="#1F57C3"/>
<path d="M29.2548 14.1847H24.0148C23.7348 14.1847 23.5098 13.9597 23.5098 13.6797C23.5098 13.4047 23.7348 13.1797 24.0148 13.1797H29.2548C29.5298 13.1797 29.7548 13.4047 29.7548 13.6797C29.7548 13.9597 29.5298 14.1847 29.2548 14.1847Z" fill="#1F57C3"/>
<path d="M33.6161 16.7511H23.6261C23.3461 16.7511 23.1211 16.5261 23.1211 16.2461C23.1211 15.9711 23.3461 15.7461 23.6261 15.7461H33.6161C33.8961 15.7461 34.1161 15.9711 34.1161 16.2461C34.1161 16.5261 33.8961 16.7511 33.6161 16.7511Z" fill="#1F57C3"/>
<path d="M33.2899 19.3214H23.2949C23.0199 19.3214 22.7949 19.0964 22.7949 18.8164C22.7949 18.5414 23.0199 18.3164 23.2949 18.3164H33.2899C33.5649 18.3164 33.7899 18.5414 33.7899 18.8164C33.7899 19.0964 33.5649 19.3214 33.2899 19.3214Z" fill="#1F57C3"/>
<path d="M32.9598 21.8839H22.9698C22.6898 21.8839 22.4648 21.6589 22.4648 21.3789C22.4648 21.1039 22.6898 20.8789 22.9698 20.8789H32.9598C33.2348 20.8789 33.4648 21.1039 33.4648 21.3789C33.4648 21.6589 33.2348 21.8839 32.9598 21.8839Z" fill="#1F57C3"/>
<path d="M32.6356 24.4503H22.6406C22.3656 24.4503 22.1406 24.2253 22.1406 23.9503C22.1406 23.6703 22.3656 23.4453 22.6406 23.4453H32.6356C32.9106 23.4453 33.1356 23.6703 33.1356 23.9503C33.1356 24.2253 32.9106 24.4503 32.6356 24.4503Z" fill="#1F57C3"/>
</svg>
