<svg width="50" height="50" viewBox="0 0 50 50" fill="none" xmlns="http://www.w3.org/2000/svg">
<path d="M25 48.925C31.605 48.925 37.59 46.245 41.915 41.915C46.245 37.59 48.925 31.605 48.925 25C48.925 18.395 46.245 12.41 41.915 8.085C37.59 3.755 31.605 1.075 25 1.075C18.395 1.075 12.41 3.755 8.085 8.085C3.755 12.41 1.075 18.395 1.075 25C1.075 31.605 3.755 37.59 8.085 41.915C12.41 46.245 18.395 48.925 25 48.925ZM42.68 42.68C38.155 47.2 31.905 50 25 50C18.095 50 11.845 47.2 7.32 42.68C2.8 38.155 0 31.905 0 25C0 18.095 2.8 11.845 7.32 7.32C11.845 2.8 18.095 0 25 0C31.905 0 38.155 2.8 42.68 7.32C47.2 11.845 50 18.095 50 25C50 31.905 47.2 38.155 42.68 42.68Z" fill="#1F57C3"/>
<path d="M17.0048 42.4313C16.2798 42.4313 15.5998 42.1513 15.0898 41.6413L11.9548 38.5063C11.3798 37.9363 10.3948 35.1913 10.7148 31.4563C10.9948 28.1613 12.3948 23.1763 17.4398 18.1263C21.9448 13.6213 27.0298 12.1163 30.4998 11.6413C34.1098 11.1463 37.4248 11.6013 38.1398 12.3213L41.4198 15.5963C41.9298 16.1113 42.2098 16.7913 42.2098 17.5113C42.2098 18.2413 41.9298 18.9213 41.4198 19.4313C41.3948 19.4513 41.3698 19.4763 41.3448 19.4963L35.9498 23.4513C34.8898 24.4713 33.1998 24.4563 32.1548 23.4163L29.5998 20.8563C29.1448 20.4013 28.8748 19.8013 28.8198 19.1813C27.4398 19.4613 24.5098 20.3113 22.2298 22.5913C21.1498 23.6713 20.2898 25.0013 19.6798 26.5413C19.5448 26.8813 19.1598 27.0463 18.8248 26.9063C18.4898 26.7713 18.3198 26.3913 18.4548 26.0513C19.1348 24.3463 20.0898 22.8713 21.2948 21.6613C24.7198 18.2413 29.2898 17.7563 29.4798 17.7313C29.6948 17.7113 29.9098 17.7963 30.0498 17.9663C30.1898 18.1313 30.2348 18.3563 30.1798 18.5663C30.0448 19.0513 30.1798 19.5763 30.5298 19.9263L33.0898 22.4863C33.6298 23.0263 34.5148 23.0263 35.0548 22.4863C35.0798 22.4613 35.1048 22.4363 35.1348 22.4213L40.5248 18.4663C40.7598 18.2113 40.8948 17.8713 40.8948 17.5113C40.8948 17.1413 40.7498 16.7913 40.4898 16.5313L37.2248 13.2663C36.8648 13.0413 34.2648 12.4163 30.4398 12.9813C27.2348 13.4513 22.5398 14.8913 18.3698 19.0563C9.39482 28.0363 12.2798 36.8663 12.8898 37.5813L16.0198 40.7113C16.2848 40.9713 16.6298 41.1163 17.0048 41.1163C17.3648 41.1163 17.7048 40.9813 17.9598 40.7363L22.0648 35.4813C22.0798 35.4613 22.0998 35.4413 22.1198 35.4213C22.6598 34.8763 22.6598 33.9963 22.1198 33.4563L19.5598 30.8963C19.1998 30.5363 18.4598 30.5063 18.2348 30.5313C17.8698 30.5613 17.5498 30.2913 17.5198 29.9313C17.4898 29.5663 17.7598 29.2513 18.1198 29.2163C18.2698 29.2063 19.6398 29.1163 20.4948 29.9663L23.0498 32.5263C24.0948 33.5713 24.1048 35.2663 23.0798 36.3213L18.9748 41.5813C18.9548 41.6013 18.9398 41.6213 18.9198 41.6413C18.4098 42.1513 17.7298 42.4313 17.0048 42.4313Z" fill="#1F57C3"/>
</svg>
