<svg width="50" height="50" viewBox="0 0 50 50" fill="none" xmlns="http://www.w3.org/2000/svg">
<path d="M25 48.925C31.605 48.925 37.59 46.245 41.915 41.915C46.245 37.59 48.925 31.605 48.925 25C48.925 18.395 46.245 12.41 41.915 8.085C37.59 3.755 31.605 1.075 25 1.075C18.395 1.075 12.41 3.755 8.085 8.085C3.755 12.41 1.075 18.395 1.075 25C1.075 31.605 3.755 37.59 8.085 41.915C12.41 46.245 18.395 48.925 25 48.925ZM42.68 42.68C38.155 47.2 31.905 50 25 50C18.095 50 11.845 47.2 7.32 42.68C2.8 38.155 0 31.905 0 25C0 18.095 2.8 11.845 7.32 7.32C11.845 2.8 18.095 0 25 0C31.905 0 38.155 2.8 42.68 7.32C47.2 11.845 50 18.095 50 25C50 31.905 47.2 38.155 42.68 42.68Z" fill="#1F57C3"/>
<path d="M6.86945 28.765L20.2144 42.1L43.1295 19.185L35.1095 11.155H24.4645L6.86945 28.765ZM20.2144 43.505C20.0545 43.505 19.9095 43.44 19.8045 43.33L5.63945 29.17C5.41445 28.945 5.41445 28.58 5.63945 28.345L23.8145 10.175C23.9245 10.065 24.0695 10 24.2245 10H35.3495C35.5045 10 35.6495 10.065 35.7595 10.175L44.3595 18.78C44.4695 18.88 44.5295 19.025 44.5295 19.185C44.5295 19.335 44.4695 19.48 44.3595 19.59L20.6195 43.33C20.5145 43.44 20.3644 43.505 20.2144 43.505Z" fill="#1F57C3"/>
<path d="M25.6238 11.155L29.7888 15.325L33.9538 11.155H25.6238ZM29.7888 16.725C29.6338 16.725 29.4888 16.665 29.3788 16.555L23.8138 11C23.6488 10.825 23.5988 10.58 23.6888 10.36C23.7788 10.15 23.9888 10 24.2238 10H35.3488C35.5838 10 35.7988 10.15 35.8838 10.36C35.9738 10.58 35.9238 10.825 35.7588 11L30.1988 16.555C30.0888 16.665 29.9388 16.725 29.7888 16.725Z" fill="#1F57C3"/>
<path d="M20.1452 38.9051C20.0002 38.9051 19.8502 38.8551 19.7352 38.7351L10.2352 29.2301C10.0102 29.0101 10.0102 28.6401 10.2352 28.4201L26.1452 12.4951C26.3702 12.2751 26.7402 12.2751 26.9652 12.4951C27.1902 12.7301 27.1902 13.1001 26.9652 13.3201L11.4652 28.8251L20.1452 37.5051L38.5352 19.1101L34.7852 15.3601C34.5552 15.1401 34.5552 14.7701 34.7852 14.5401C35.0102 14.3201 35.3752 14.3201 35.6002 14.5401L39.7652 18.7051C39.8752 18.8151 39.9352 18.9651 39.9352 19.1101C39.9352 19.2701 39.8752 19.4201 39.7652 19.5301L20.5602 38.7351C20.4452 38.8551 20.2952 38.9051 20.1452 38.9051Z" fill="#1F57C3"/>
<path d="M23.0148 22.9005C22.7898 22.9005 22.4848 22.9355 22.2698 23.1555C21.7198 23.7105 22.0648 25.0255 23.0098 25.9605C23.6248 26.5855 24.4148 26.9705 25.0698 26.9705C25.2898 26.9705 25.5948 26.9205 25.8148 26.6955C26.1398 26.3805 26.0948 25.8505 26.0348 25.5655C25.9198 25.0005 25.5698 24.4005 25.0748 23.8955C24.4498 23.2805 23.6648 22.9005 23.0148 22.9005ZM25.0698 28.1255C24.1098 28.1255 23.0298 27.6205 22.1898 26.7855C20.7348 25.3355 20.4098 23.3805 21.4498 22.3455C21.8398 21.9405 22.3848 21.7305 23.0148 21.7305C23.9748 21.7305 25.0498 22.2355 25.8898 23.0855C26.5548 23.7455 27.0098 24.5455 27.1698 25.3455C27.3498 26.2205 27.1598 26.9955 26.6298 27.5205C26.2348 27.9155 25.6948 28.1255 25.0698 28.1255Z" fill="#1F57C3"/>
<path d="M27.4947 18.4089C27.2797 18.4089 26.9697 18.4489 26.7497 18.6689C26.4247 18.9989 26.4747 19.5189 26.5297 19.7989C26.6497 20.3639 26.9997 20.9789 27.4947 21.4739C28.1147 22.0989 28.9047 22.4789 29.5547 22.4789C29.7747 22.4789 30.0797 22.4289 30.2997 22.2239C30.8497 21.6689 30.5047 20.3539 29.5547 19.4189C28.9397 18.7889 28.1497 18.4089 27.4947 18.4089ZM29.5547 23.6339C28.5897 23.6339 27.5147 23.1439 26.6747 22.2939C26.0147 21.6289 25.5597 20.8339 25.3947 20.0339C25.2197 19.1739 25.4147 18.3739 25.9347 17.8589C26.3297 17.4639 26.8647 17.2539 27.4947 17.2539C28.4597 17.2539 29.5347 17.7439 30.3797 18.5939C31.8297 20.0439 32.1547 21.9989 31.1147 23.0339C30.7247 23.4239 30.1847 23.6339 29.5547 23.6339Z" fill="#1F57C3"/>
<path d="M23.1305 30.6545C22.9855 30.6545 22.8355 30.5945 22.7205 30.4845L19.3705 27.1295L19.3255 27.6945C19.2955 28.0145 19.0155 28.2595 18.6955 28.2195C18.3805 28.1945 18.1405 27.9245 18.1705 27.6045L18.3155 25.7895C18.3355 25.5645 18.4805 25.3695 18.6905 25.2945C18.9055 25.2095 19.1405 25.2595 19.3005 25.4295L23.5405 29.6595C23.7655 29.8945 23.7655 30.2495 23.5405 30.4845C23.4305 30.5945 23.2805 30.6545 23.1305 30.6545Z" fill="#1F57C3"/>
</svg>
