<svg width="50" height="50" viewBox="0 0 50 50" fill="none" xmlns="http://www.w3.org/2000/svg">
<path d="M25 48.925C31.605 48.925 37.59 46.245 41.915 41.915C46.245 37.59 48.925 31.605 48.925 25C48.925 18.395 46.245 12.41 41.915 8.085C37.59 3.755 31.605 1.075 25 1.075C18.395 1.075 12.41 3.755 8.085 8.085C3.755 12.41 1.075 18.395 1.075 25C1.075 31.605 3.755 37.59 8.085 41.915C12.41 46.245 18.395 48.925 25 48.925ZM42.68 42.68C38.155 47.2 31.905 50 25 50C18.095 50 11.845 47.2 7.32 42.68C2.8 38.155 0 31.905 0 25C0 18.095 2.8 11.845 7.32 7.32C11.845 2.8 18.095 0 25 0C31.905 0 38.155 2.8 42.68 7.32C47.2 11.845 50 18.095 50 25C50 31.905 47.2 38.155 42.68 42.68Z" fill="#1F57C3"/>
<path d="M37.9815 10.96V28.415C37.9815 28.67 37.7765 28.875 37.5215 28.875C37.2665 28.875 37.0565 28.67 37.0565 28.415V11.43H12.9465V13.97H13.9965C14.3915 13.52 14.9715 13.255 15.5815 13.255C16.7415 13.255 17.6915 14.195 17.6915 15.36C17.6915 16.525 16.7415 17.47 15.5815 17.47C14.9715 17.47 14.3915 17.205 13.9965 16.75H12.9465V18.79H13.9965C14.3915 18.34 14.9715 18.075 15.5815 18.075C16.7415 18.075 17.6915 19.015 17.6915 20.185C17.6915 21.34 16.7415 22.29 15.5815 22.29C14.9715 22.29 14.3915 22.025 13.9965 21.565H12.9465V23.615H13.9965C14.3915 23.16 14.9715 22.9 15.5815 22.9C16.7415 22.9 17.6915 23.84 17.6915 25.005C17.6915 26.16 16.7415 27.11 15.5815 27.11C14.9715 27.11 14.3915 26.845 13.9965 26.385H12.9465V28.435H13.9965C14.3915 27.985 14.9715 27.72 15.5815 27.72C16.7415 27.72 17.6915 28.66 17.6915 29.825C17.6915 30.985 16.7415 31.935 15.5815 31.935C14.9715 31.935 14.3915 31.67 13.9965 31.21H12.9465V33.26H13.9965C14.3915 32.805 14.9715 32.53 15.5815 32.53C16.7415 32.53 17.6915 33.485 17.6915 34.65C17.6915 35.805 16.7415 36.755 15.5815 36.755C14.9715 36.755 14.3915 36.49 13.9965 36.03H12.9465V38.58H27.9465C28.2015 38.58 28.4115 38.785 28.4115 39.04C28.4115 39.295 28.2015 39.5 27.9465 39.5H12.4815C12.2315 39.5 12.0215 39.295 12.0215 39.04V35.57C12.0215 35.315 12.2315 35.11 12.4815 35.11H14.2215C14.3765 35.11 14.5165 35.19 14.6015 35.305C14.8215 35.64 15.1865 35.825 15.5815 35.825C16.2365 35.825 16.7665 35.295 16.7665 34.65C16.7665 33.99 16.2365 33.465 15.5815 33.465C15.1865 33.465 14.8215 33.65 14.6015 33.985C14.5165 34.1 14.3715 34.18 14.2215 34.18H12.4815C12.2315 34.18 12.0215 33.975 12.0215 33.72V30.75C12.0215 30.495 12.2315 30.29 12.4815 30.29H14.2215C14.3765 30.29 14.5165 30.365 14.6015 30.485C14.8215 30.815 15.1865 31.005 15.5815 31.005C16.2365 31.005 16.7665 30.475 16.7665 29.825C16.7665 29.17 16.2365 28.64 15.5815 28.64C15.1865 28.64 14.8215 28.835 14.6015 29.16C14.5165 29.29 14.3715 29.355 14.2215 29.355H12.4815C12.2315 29.355 12.0215 29.15 12.0215 28.895V25.925C12.0215 25.67 12.2315 25.465 12.4815 25.465H14.2215C14.3765 25.465 14.5165 25.545 14.6015 25.67C14.8215 25.995 15.1865 26.18 15.5815 26.18C16.2365 26.18 16.7665 25.65 16.7665 25.005C16.7665 24.35 16.2365 23.82 15.5815 23.82C15.1865 23.82 14.8215 24.015 14.6015 24.34C14.5165 24.465 14.3765 24.535 14.2215 24.535H12.4815C12.2315 24.535 12.0215 24.33 12.0215 24.075V21.105C12.0215 20.85 12.2315 20.645 12.4815 20.645H14.2215C14.3715 20.645 14.5165 20.72 14.6015 20.85C14.8215 21.175 15.1865 21.37 15.5815 21.37C16.2365 21.37 16.7665 20.83 16.7665 20.185C16.7665 19.525 16.2365 18.995 15.5815 18.995C15.1865 18.995 14.8215 19.195 14.6015 19.515C14.5165 19.645 14.3715 19.72 14.2215 19.72H12.4815C12.2315 19.72 12.0215 19.505 12.0215 19.25V16.28C12.0215 16.025 12.2315 15.82 12.4815 15.82H14.2215C14.3765 15.82 14.5165 15.9 14.6015 16.025C14.8215 16.35 15.1865 16.545 15.5815 16.545C16.2365 16.545 16.7665 16.015 16.7665 15.36C16.7665 14.705 16.2365 14.175 15.5815 14.175C15.1865 14.175 14.8215 14.37 14.6015 14.695C14.5165 14.82 14.3715 14.9 14.2215 14.9H12.4815C12.2315 14.9 12.0215 14.695 12.0215 14.44V10.96C12.0215 10.705 12.2315 10.5 12.4815 10.5H37.5215C37.7765 10.5 37.9815 10.705 37.9815 10.96Z" fill="#1F57C3"/>
<path d="M37.9794 28.4151C37.9794 29.9351 37.4694 31.1501 36.4544 32.0301C34.5394 33.7201 31.3844 33.7001 30.1294 33.6101C30.1294 34.8851 30.0044 37.9601 28.9444 39.0601C28.6594 39.3451 28.3194 39.5001 27.9444 39.5001C27.6894 39.5001 27.4844 39.2951 27.4844 39.0401C27.4844 38.7851 27.6894 38.5801 27.9444 38.5801C28.0194 38.5801 28.1394 38.5601 28.2844 38.4151C29.0394 37.6301 29.2494 34.7451 29.1994 33.1201C29.1994 32.9851 29.2544 32.8551 29.3544 32.7701C29.4544 32.6801 29.5894 32.6301 29.7244 32.6501C29.7644 32.6601 33.7844 33.1501 35.8494 31.3451C36.6494 30.6401 37.0544 29.6501 37.0544 28.4151C37.0544 28.1601 37.2644 27.9551 37.5194 27.9551C37.7744 27.9551 37.9794 28.1601 37.9794 28.4151Z" fill="#1F57C3"/>
<path d="M35.7888 32.2638C35.7888 32.3838 35.7388 32.5088 35.6388 32.5988L29.2138 38.6838C29.0288 38.8638 28.7338 38.8538 28.5588 38.6688C28.3838 38.4788 28.3938 38.1888 28.5788 38.0088L35.0088 31.9338C35.1938 31.7588 35.4838 31.7688 35.6588 31.9538C35.7438 32.0388 35.7888 32.1488 35.7888 32.2638Z" fill="#1F57C3"/>
<path d="M23.0852 16.8095L24.0152 14.3795L24.9402 16.8095H23.0852ZM25.7102 18.9495C25.8352 19.2595 25.9952 19.2745 26.2002 19.2745C26.4752 19.2745 26.7602 19.1045 26.6702 18.8745L24.6552 13.7295C24.5602 13.4745 24.4502 13.4395 24.0252 13.4395C23.6102 13.4395 23.4952 13.4745 23.3952 13.7295L21.4002 18.8745C21.3102 19.1045 21.5852 19.2745 21.8502 19.2745C22.0452 19.2745 22.2002 19.2595 22.3202 18.9495L22.8652 17.5445H25.1602L25.7102 18.9495ZM22.3402 27.0795H24.2102C25.7102 27.0795 26.3952 26.5495 26.3952 25.4745C26.3952 24.7995 26.0052 24.2595 25.1502 24.0645C25.8102 23.8695 26.1652 23.4495 26.1652 22.8295C26.1652 21.8645 25.4802 21.3395 24.2302 21.3395H22.3402C22.0452 21.3395 21.8502 21.4545 21.8502 21.7645V26.6545C21.8502 26.9645 22.0452 27.0795 22.3402 27.0795ZM22.7552 26.3445V24.4995H24.2202C25.0752 24.4995 25.4552 24.7995 25.4552 25.4045C25.4552 26.0695 25.1152 26.3445 24.1952 26.3445H22.7552ZM22.7552 23.8445V22.0745H24.1402C24.8852 22.0745 25.2152 22.3695 25.2152 22.9395C25.2152 23.4895 24.8352 23.8445 24.1602 23.8445H22.7552ZM24.4252 35.0445C25.9502 35.0445 26.7052 34.1845 26.7052 33.6595C26.7052 33.1345 26.2152 32.9845 26.1352 33.2145C25.9152 33.8444 25.2502 34.2195 24.4802 34.2195C23.3252 34.2195 22.4802 33.3245 22.4802 32.0545C22.4802 30.7795 23.3002 29.8995 24.4602 29.8995C25.1102 29.8995 25.7802 30.1995 26.0852 30.7845C26.1802 30.9745 26.6152 30.8645 26.6152 30.3795C26.6152 29.8645 25.8902 29.0745 24.4502 29.0745C22.7302 29.0745 21.5352 30.3145 21.5352 32.0745C21.5352 33.8195 22.7202 35.0445 24.4252 35.0445Z" fill="#1F57C3"/>
</svg>
