<svg width="50" height="50" viewBox="0 0 50 50" fill="none" xmlns="http://www.w3.org/2000/svg">
<path d="M25 48.925C31.605 48.925 37.59 46.245 41.915 41.915C46.245 37.59 48.925 31.605 48.925 25C48.925 18.395 46.245 12.41 41.915 8.085C37.59 3.755 31.605 1.075 25 1.075C18.395 1.075 12.41 3.755 8.085 8.085C3.755 12.41 1.075 18.395 1.075 25C1.075 31.605 3.755 37.59 8.085 41.915C12.41 46.245 18.395 48.925 25 48.925ZM42.68 42.68C38.155 47.2 31.905 50 25 50C18.095 50 11.845 47.2 7.32 42.68C2.8 38.155 0 31.905 0 25C0 18.095 2.8 11.845 7.32 7.32C11.845 2.8 18.095 0 25 0C31.905 0 38.155 2.8 42.68 7.32C47.2 11.845 50 18.095 50 25C50 31.905 47.2 38.155 42.68 42.68Z" fill="#1F57C3"/>
<path d="M19.2887 42.4986C19.2037 42.4986 19.1237 42.4786 19.0487 42.4436L8.74373 37.5436C8.51873 37.4336 8.39874 37.1986 8.43374 36.9536C8.45874 36.8036 9.01373 33.2936 10.7137 29.8386C11.3987 28.4386 12.1887 27.2386 13.0387 26.2686C13.2537 26.0386 13.6087 26.0186 13.8337 26.2236C14.0537 26.4286 14.0787 26.7786 13.8787 27.0086C13.0887 27.8986 12.3537 29.0186 11.7037 30.3286C10.4187 32.9736 9.80373 35.7086 9.60373 36.7186L19.2887 41.3286L27.9437 37.3586C28.2137 37.2336 28.5437 37.3536 28.6737 37.6336C28.8037 37.9086 28.6737 38.2436 28.4037 38.3686L19.5137 42.4486C19.4387 42.4786 19.3687 42.4986 19.2887 42.4986Z" fill="#1F57C3"/>
<path d="M19.2877 25.8447C15.3777 25.8447 12.5177 20.3697 12.3327 16.7447C12.3177 16.4397 12.5577 16.1797 12.8627 16.1647C13.1677 16.1497 13.4277 16.3847 13.4427 16.6897C13.6077 19.8547 16.1777 24.7297 19.2877 24.7297C21.7527 24.7297 23.9627 21.5947 24.7877 18.6397C24.8727 18.3397 25.1777 18.1697 25.4727 18.2547C25.7677 18.3347 25.9477 18.6447 25.8627 18.9397C24.9077 22.3697 22.3327 25.8447 19.2877 25.8447Z" fill="#1F57C3"/>
<path d="M15.838 13.33C16.053 13.33 16.253 13.455 16.348 13.66C16.498 14.01 16.853 14.415 17.348 14.825C19.593 16.66 24.258 18.235 27.068 18.49C27.243 17.87 27.408 16.965 27.408 16.025C27.408 11.94 23.843 8.61 19.463 8.61C15.378 8.61 11.943 11.54 11.553 15.31C12.093 16.01 13.938 16.535 15.463 16.77C15.403 16.43 15.353 15.985 15.318 15.44C15.283 14.935 15.273 14.41 15.283 13.88C15.283 13.62 15.463 13.395 15.718 13.345C15.753 13.335 15.793 13.33 15.838 13.33ZM27.468 19.635C27.458 19.635 27.458 19.635 27.443 19.635C24.458 19.5 19.213 17.78 16.653 15.69C16.568 15.63 16.498 15.57 16.438 15.51C16.523 16.64 16.688 17.26 16.688 17.265C16.748 17.445 16.698 17.63 16.583 17.775C16.463 17.915 16.288 17.99 16.098 17.97C15.623 17.925 11.433 17.465 10.488 15.715C10.443 15.62 10.418 15.515 10.418 15.41C10.763 10.975 14.728 7.5 19.463 7.5C24.458 7.5 28.518 11.32 28.518 16.025C28.518 17.335 28.248 18.56 27.988 19.265C27.908 19.49 27.703 19.635 27.468 19.635Z" fill="#1F57C3"/>
<path d="M33.2543 40.3144C32.2543 40.3144 31.2493 40.1294 30.2943 39.7644C26.5593 38.3494 24.3543 34.4644 25.0493 30.5394C25.0943 30.2394 25.3943 30.0344 25.6893 30.0894C25.9943 30.1444 26.1943 30.4294 26.1493 30.7344C25.5443 34.1344 27.4443 37.4944 30.6843 38.7244C32.4893 39.4094 34.4493 39.3495 36.1943 38.5645C37.9543 37.7745 39.3043 36.3495 39.9893 34.5495C41.4043 30.8295 39.5243 26.6545 35.8093 25.2445C33.0443 24.1945 29.8693 24.9594 27.8843 27.1544C27.6843 27.3844 27.3293 27.3994 27.1043 27.1944C26.8793 26.9894 26.8543 26.6395 27.0543 26.4095C29.3493 23.8745 33.0193 22.9894 36.2093 24.1994C40.4943 25.8344 42.6543 30.6544 41.0243 34.9444C40.2343 37.0244 38.6893 38.6694 36.6543 39.5794C35.5693 40.0695 34.4143 40.3144 33.2543 40.3144Z" fill="#1F57C3"/>
<path d="M31.8625 36.0864C31.7075 36.0864 31.5525 36.0214 31.4475 35.9114L28.1275 32.3664C27.9175 32.1414 27.9275 31.7914 28.1525 31.5814C28.3775 31.3664 28.7225 31.3814 28.9325 31.6064L31.8374 34.6964L36.7825 28.9564C36.9875 28.7214 37.3425 28.6964 37.5625 28.8964C37.8025 29.0964 37.8225 29.4514 37.6225 29.6814L32.2875 35.8914C32.1775 36.0164 32.0275 36.0814 31.8725 36.0864C31.8625 36.0864 31.8625 36.0864 31.8625 36.0864Z" fill="#1F57C3"/>
</svg>
