<svg width="40" height="40" viewBox="0 0 40 40" fill="none" xmlns="http://www.w3.org/2000/svg">
<path d="M36.192 40C35.232 40 34.32 39.616 33.632 38.944L25.536 30.864C18.992 34.96 10.4 34.016 4.87998 28.496C1.72798 25.36 0 21.152 0 16.688C0 12.224 1.72798 8.032 4.87998 4.896C8.03198 1.744 12.224 0 16.688 0C21.152 0 25.344 1.744 28.496 4.896C34.144 10.528 35.008 19.424 30.544 26.032C30.336 26.336 29.92 26.4 29.6 26.208C29.296 25.984 29.216 25.568 29.424 25.248C33.504 19.2 32.72 11.04 27.536 5.85601C24.64 2.96001 20.784 1.36001 16.688 1.36001C12.592 1.36001 8.75201 2.96001 5.85601 5.85601C2.96001 8.75201 1.36001 12.608 1.36001 16.688C1.36001 20.784 2.96001 24.656 5.85601 27.536C11.024 32.72 19.184 33.52 25.248 29.424C25.52 29.248 25.888 29.28 26.112 29.504L34.592 37.984C35.024 38.416 35.584 38.656 36.192 38.656C36.8 38.656 37.36 38.416 37.792 37.984L37.984 37.808C38.864 36.912 38.864 35.472 37.984 34.608L31.936 28.56C31.664 28.288 31.664 27.872 31.936 27.6C32.208 27.328 32.64 27.328 32.896 27.6L38.944 33.632C39.632 34.32 40 35.232 40 36.192C40 37.168 39.632 38.064 38.944 38.752L38.752 38.944C38.064 39.616 37.168 40 36.192 40ZM16.08 22.272C15.856 22.272 15.616 22.176 15.456 22L10.384 16.592C10.048 16.24 10.064 15.712 10.416 15.392C10.752 15.056 11.296 15.072 11.6 15.424L16.048 20.16L23.616 11.376C23.92 11.008 24.464 10.976 24.8 11.28C25.168 11.584 25.2 12.128 24.896 12.48L16.736 21.984C16.576 22.16 16.336 22.272 16.096 22.272H16.08Z" fill="#00CCFF"/>
</svg>
