<svg width="50" height="50" viewBox="0 0 50 50" fill="none" xmlns="http://www.w3.org/2000/svg">
<path d="M25 48.925C31.605 48.925 37.59 46.245 41.915 41.915C46.245 37.59 48.925 31.605 48.925 25C48.925 18.395 46.245 12.41 41.915 8.085C37.59 3.755 31.605 1.075 25 1.075C18.395 1.075 12.41 3.755 8.085 8.085C3.755 12.41 1.075 18.395 1.075 25C1.075 31.605 3.755 37.59 8.085 41.915C12.41 46.245 18.395 48.925 25 48.925ZM42.68 42.68C38.155 47.2 31.905 50 25 50C18.095 50 11.845 47.2 7.32 42.68C2.8 38.155 0 31.905 0 25C0 18.095 2.8 11.845 7.32 7.32C11.845 2.8 18.095 0 25 0C31.905 0 38.155 2.8 42.68 7.32C47.2 11.845 50 18.095 50 25C50 31.905 47.2 38.155 42.68 42.68Z" fill="#1F57C3"/>
<path d="M13.7687 17.0259C10.7637 17.0259 8.32367 19.4659 8.32367 22.4659C8.32367 25.4609 10.7637 27.9009 13.7687 27.9009C16.7637 27.9009 19.2037 25.4609 19.2037 22.4659C19.2037 19.4659 16.7637 17.0259 13.7687 17.0259ZM13.7687 28.9659C10.1887 28.9659 7.26367 26.0509 7.26367 22.4659C7.26367 18.8759 10.1887 15.9609 13.7687 15.9609C17.3487 15.9609 20.2737 18.8759 20.2737 22.4659C20.2737 26.0509 17.3487 28.9659 13.7687 28.9659Z" fill="#1F57C3"/>
<path d="M31.0834 42.2509C26.5884 42.2509 22.9434 38.5959 22.9434 34.1059C22.9434 32.4459 23.4384 30.8509 24.3634 29.4909C24.5334 29.2509 24.8734 29.1909 25.1084 29.3559C25.3584 29.5259 25.4134 29.8559 25.2434 30.0959C24.4334 31.2809 24.0034 32.6659 24.0034 34.1059C24.0034 38.0109 27.1784 41.1859 31.0834 41.1859C34.9834 41.1859 38.1584 38.0109 38.1584 34.1059C38.1584 30.2059 34.9834 27.0259 31.0834 27.0259C29.8434 27.0259 28.6234 27.3559 27.5484 27.9709C27.3034 28.1159 26.9734 28.0259 26.8284 27.7759C26.6784 27.5209 26.7684 27.1959 27.0184 27.0459C28.2484 26.3359 29.6484 25.9609 31.0834 25.9609C35.5684 25.9609 39.2284 29.6159 39.2284 34.1059C39.2284 38.5959 35.5684 42.2509 31.0834 42.2509Z" fill="#1F57C3"/>
<path d="M29.3444 15.89C27.6644 15.89 26.0944 15.055 25.1444 13.655C24.9744 13.41 25.0444 13.08 25.2894 12.915C25.5294 12.75 25.8694 12.815 26.0244 13.06C26.7694 14.165 28.0144 14.825 29.3444 14.825C31.5594 14.825 33.3544 13.03 33.3544 10.82C33.3544 8.61 31.5594 6.815 29.3444 6.815C27.6194 6.815 26.0944 7.915 25.5494 9.555C25.4594 9.835 25.1544 9.985 24.8744 9.895C24.5894 9.8 24.4444 9.5 24.5344 9.22C25.2244 7.145 27.1544 5.75 29.3444 5.75C32.1494 5.75 34.4194 8.025 34.4194 10.82C34.4194 13.615 32.1494 15.89 29.3444 15.89Z" fill="#1F57C3"/>
<path d="M17.949 18.7348C17.779 18.7348 17.599 18.6498 17.499 18.4898C17.339 18.2398 17.419 17.9148 17.664 17.7548L25.304 12.9048C25.549 12.7498 25.879 12.8248 26.039 13.0748C26.194 13.3198 26.114 13.6498 25.869 13.8098L18.229 18.6548C18.154 18.7098 18.049 18.7348 17.949 18.7348Z" fill="#1F57C3"/>
<path d="M24.8043 30.329C24.7243 30.329 24.6343 30.304 24.5443 30.259L18.6593 26.959C18.3993 26.814 18.3093 26.489 18.4593 26.234C18.5943 25.979 18.9193 25.884 19.1793 26.029L25.0743 29.329C25.3243 29.474 25.4143 29.799 25.2793 30.054C25.1793 30.229 24.9993 30.329 24.8043 30.329Z" fill="#1F57C3"/>
</svg>
