<svg width="50" height="50" viewBox="0 0 50 50" fill="none" xmlns="http://www.w3.org/2000/svg">
<path d="M25 48.925C31.605 48.925 37.59 46.245 41.915 41.915C46.245 37.59 48.925 31.605 48.925 25C48.925 18.395 46.245 12.41 41.915 8.085C37.59 3.755 31.605 1.075 25 1.075C18.395 1.075 12.41 3.755 8.085 8.085C3.755 12.41 1.075 18.395 1.075 25C1.075 31.605 3.755 37.59 8.085 41.915C12.41 46.245 18.395 48.925 25 48.925ZM42.68 42.68C38.155 47.2 31.905 50 25 50C18.095 50 11.845 47.2 7.32 42.68C2.8 38.155 0 31.905 0 25C0 18.095 2.8 11.845 7.32 7.32C11.845 2.8 18.095 0 25 0C31.905 0 38.155 2.8 42.68 7.32C47.2 11.845 50 18.095 50 25C50 31.905 47.2 38.155 42.68 42.68Z" fill="#1F57C3"/>
<path d="M37.6591 21.98C36.3391 21.98 35.2641 23.055 35.2641 24.375C35.2641 25.81 36.4291 27.67 37.6591 27.67C38.8891 27.67 40.0541 25.81 40.0541 24.375C40.0541 23.055 38.9791 21.98 37.6591 21.98ZM37.6591 28.65C35.7041 28.65 34.2891 26.095 34.2891 24.375C34.2891 22.51 35.7941 21 37.6591 21C39.5241 21 41.0291 22.51 41.0291 24.375C41.0291 26.095 39.6141 28.65 37.6591 28.65Z" fill="#1F57C3"/>
<path d="M40.8347 31.4102H39.6347C39.3547 31.4102 39.1497 31.1902 39.1497 30.9152C39.1497 30.6452 39.3547 30.4252 39.6347 30.4252H40.3747L40.7497 25.4352C40.3347 25.2152 39.3147 24.7952 37.6597 24.7952C35.4347 24.7952 34.3597 25.5552 34.3497 25.5652C34.1847 25.6952 33.9447 25.6952 33.7697 25.5702L28.9197 22.0852C28.6997 21.9252 28.6497 21.6202 28.8047 21.4002C28.9597 21.1802 29.2697 21.1302 29.4897 21.2852L34.0797 24.5852C34.6097 24.3002 35.7847 23.8102 37.6597 23.8102C40.2497 23.8102 41.5097 24.7402 41.5647 24.7802C41.6847 24.8802 41.7597 25.0452 41.7497 25.2102L41.3147 30.9552C41.2997 31.2102 41.0847 31.4102 40.8347 31.4102Z" fill="#1F57C3"/>
<path d="M38.9112 38.2002H36.4112C36.1612 38.2002 35.9562 38.0102 35.9212 37.7602L35.2062 31.0702C35.1762 30.8052 35.3712 30.5602 35.6412 30.5352C35.9012 30.5002 36.1512 30.7002 36.1812 30.9652L36.8612 37.2152H38.4712L39.1512 30.9652C39.1812 30.7002 39.4212 30.5002 39.6912 30.5352C39.9612 30.5602 40.1462 30.8052 40.1162 31.0702L39.4012 37.7602C39.3662 38.0102 39.1612 38.2002 38.9112 38.2002Z" fill="#1F57C3"/>
<path d="M24.0691 38.2012C23.8991 38.2012 23.7341 38.1112 23.6491 37.9512L20.2791 32.1263L16.9191 37.9512C16.7841 38.1912 16.4791 38.2713 16.2541 38.1363C16.0141 37.9963 15.9291 37.6963 16.0641 37.4613L19.8542 30.8962C19.9492 30.7462 20.1141 30.6562 20.2791 30.6562C20.4541 30.6562 20.6241 30.7462 20.7041 30.8962L24.4942 37.4613C24.6292 37.6963 24.5591 37.9963 24.3191 38.1363C24.2441 38.1763 24.1641 38.2012 24.0691 38.2012Z" fill="#1F57C3"/>
<path d="M30.835 31.4105H9.74C9.47 31.4105 9.25 31.1905 9.25 30.9155V13.0505C9.25 12.7805 9.47 12.5605 9.74 12.5605H30.835C31.105 12.5605 31.32 12.7805 31.32 13.0505V19.5255C31.32 19.7955 31.105 20.0155 30.835 20.0155C30.56 20.0155 30.345 19.7955 30.345 19.5255V13.5405H10.23V30.4255H30.345V26.2655C30.345 25.9955 30.56 25.7705 30.835 25.7705C31.105 25.7705 31.32 25.9955 31.32 26.2655V30.9155C31.32 31.1905 31.105 31.4105 30.835 31.4105Z" fill="#1F57C3"/>
<path d="M20.2791 39.4463C20.0091 39.4463 19.7891 39.2263 19.7891 38.9563V31.1462C19.7891 30.8712 20.0091 30.6562 20.2791 30.6562C20.5491 30.6562 20.7691 30.8712 20.7691 31.1462V38.9563C20.7691 39.2263 20.5491 39.4463 20.2791 39.4463Z" fill="#1F57C3"/>
<path d="M30.305 21.98H9.74C9.47 21.98 9.25 21.76 9.25 21.49C9.25 21.22 9.47 21 9.74 21H30.305C30.575 21 30.79 21.22 30.79 21.49C30.79 21.76 30.575 21.98 30.305 21.98Z" fill="#1F57C3"/>
<path d="M12.2551 31.3367C12.0901 31.3367 11.9251 31.2467 11.8401 31.0867C11.7051 30.8567 11.7801 30.5567 12.0201 30.4217L14.6601 28.9017C14.7851 28.8267 14.9401 28.8167 15.0801 28.8717L17.7201 29.9167L20.2601 25.2317C20.3451 25.0817 20.5001 24.9867 20.6651 24.9767C20.8451 24.9717 21.0101 25.0567 21.1051 25.1967L23.4751 28.8417L27.6701 23.6517C27.8351 23.4417 28.1501 23.4067 28.3551 23.5767C28.5651 23.7467 28.5951 24.0567 28.4301 24.2667L23.8201 29.9817C23.7151 30.1067 23.5701 30.1767 23.4151 30.1667C23.2551 30.1567 23.1101 30.0767 23.0301 29.9467L20.7301 26.4267L18.3751 30.7667C18.2501 30.9867 17.9901 31.0817 17.7601 30.9917L14.9401 29.8717L12.5051 31.2717C12.4251 31.3167 12.3401 31.3367 12.2551 31.3367Z" fill="#1F57C3"/>
</svg>
