<svg width="32" height="32" viewBox="0 0 32 32" fill="none" xmlns="http://www.w3.org/2000/svg">
<path d="M19.3856 31.9993C19.168 31.9993 18.9696 31.8585 18.8928 31.6473L12.2431 12.9073C12.1727 12.7153 12.2239 12.504 12.3647 12.3632C12.5055 12.216 12.7167 12.1712 12.9087 12.2416L31.6546 18.8915C31.8786 18.9683 32.0066 19.1795 32.0002 19.4099C31.9874 19.6403 31.8338 19.8388 31.597 19.8964L27.3601 20.9396C27.0721 21.01 26.7969 20.8372 26.7265 20.5556C26.6497 20.274 26.8289 19.986 27.1041 19.922L29.6514 19.2947L13.5999 13.5985L19.296 29.6504L20.5248 24.6454C20.5504 24.5558 20.5952 24.4662 20.6656 24.4022C20.7616 24.2998 20.896 24.2486 21.0304 24.2486C21.1776 24.2486 21.3056 24.2998 21.4016 24.4022L27.5201 30.508L30.509 27.5127L26.3361 23.3461C26.1377 23.1413 26.1377 22.8085 26.3361 22.6037C26.5473 22.3989 26.8865 22.3989 27.0849 22.6037L31.6226 27.1479C31.7186 27.2375 31.7762 27.3719 31.7762 27.5127C31.7762 27.6535 31.7186 27.7879 31.6226 27.8839L27.885 31.6217C27.6866 31.8265 27.3474 31.8265 27.149 31.6217L21.3184 25.7974L19.8976 31.5961C19.84 31.8265 19.6416 31.9865 19.4112 31.9993C19.4048 31.9993 19.392 31.9993 19.3856 31.9993Z" fill="#00CCFF"/>
<path d="M12.7362 25.4667C5.7153 25.4667 0 19.7577 0 12.7366C0 5.71545 5.7153 0 12.7362 0C19.7572 0 25.4725 5.71545 25.4725 12.7366C25.4725 13.0246 25.2357 13.2614 24.9477 13.2614C24.6597 13.2614 24.4293 13.0246 24.4293 12.7366C24.4293 6.29147 19.1812 1.04966 12.7362 1.04966C6.29132 1.04966 1.04963 6.29147 1.04963 12.7366C1.04963 19.1816 6.29132 24.4235 12.7362 24.4235C13.0242 24.4235 13.2611 24.6539 13.2611 24.9483C13.2611 25.2363 13.0242 25.4667 12.7362 25.4667Z" fill="#00CCFF"/>
<path d="M11.1045 19.4962C11.0597 19.4962 11.0149 19.4898 10.9701 19.477C7.91089 18.6769 5.76685 15.9056 5.76685 12.7375C5.76685 8.8909 8.89649 5.76758 12.7366 5.76758C15.8982 5.76758 18.6695 7.90526 19.4759 10.9582C19.5463 11.2398 19.3799 11.5278 19.0983 11.5982C18.8231 11.675 18.5351 11.5086 18.4583 11.227C17.7799 8.6285 15.4246 6.81721 12.7366 6.81721C9.47251 6.81721 6.81646 9.47333 6.81646 12.7375C6.81646 15.432 8.63409 17.7873 11.2325 18.4657C11.5141 18.5361 11.6806 18.8241 11.6102 19.1058C11.5526 19.3362 11.3349 19.4962 11.1045 19.4962Z" fill="#00CCFF"/>
</svg>
