<svg width="50" height="50" viewBox="0 0 50 50" fill="none" xmlns="http://www.w3.org/2000/svg">
<path d="M25 48.925C31.605 48.925 37.59 46.245 41.915 41.915C46.245 37.59 48.925 31.605 48.925 25C48.925 18.395 46.245 12.41 41.915 8.085C37.59 3.755 31.605 1.075 25 1.075C18.395 1.075 12.41 3.755 8.085 8.085C3.755 12.41 1.075 18.395 1.075 25C1.075 31.605 3.755 37.59 8.085 41.915C12.41 46.245 18.395 48.925 25 48.925ZM42.68 42.68C38.155 47.2 31.905 50 25 50C18.095 50 11.845 47.2 7.32 42.68C2.8 38.155 0 31.905 0 25C0 18.095 2.8 11.845 7.32 7.32C11.845 2.8 18.095 0 25 0C31.905 0 38.155 2.8 42.68 7.32C47.2 11.845 50 18.095 50 25C50 31.905 47.2 38.155 42.68 42.68Z" fill="#1F57C3"/>
<path d="M33.8483 40.4946C33.6783 40.4946 33.5133 40.3746 33.4633 40.1946C29.7783 27.4096 27.4283 26.0046 26.5733 26.0046C26.5733 26.0046 26.5733 26.0046 26.5633 26.0046C23.9383 26.0396 20.6033 33.2946 18.6133 40.0146C18.5483 40.2346 18.3183 40.3546 18.1033 40.2896C17.8983 40.2296 17.7683 39.9996 17.8333 39.7846C18.5483 37.3596 22.3483 25.2446 26.5533 25.1896C27.9383 25.1696 29.3783 26.8746 30.9383 30.4096C31.9983 32.7946 33.1033 36.0096 34.2383 39.9696C34.3033 40.1896 34.1883 40.4146 33.9683 40.4746C33.9283 40.4896 33.8933 40.4946 33.8483 40.4946Z" fill="#1F57C3"/>
<path d="M38.1372 36.9248C37.9772 36.9248 37.8122 36.8148 37.7572 36.6448C35.8622 31.1748 29.5272 28.9898 29.4622 28.9648C29.2472 28.8948 29.1372 28.6598 29.2022 28.4498C29.2772 28.2348 29.5072 28.1198 29.7222 28.1948C29.9922 28.2848 36.5022 30.5298 38.5272 36.3798C38.6022 36.5948 38.4872 36.8248 38.2772 36.8998C38.2372 36.9148 38.1822 36.9248 38.1372 36.9248Z" fill="#1F57C3"/>
<path d="M16.443 32.1097C16.133 32.1097 15.818 32.0797 15.503 32.0297C13.823 31.7297 12.468 30.6347 11.473 28.7697C11.368 28.5697 11.443 28.3247 11.648 28.2197C11.843 28.1097 12.093 28.1897 12.198 28.3847C13.068 30.0197 14.223 30.9697 15.643 31.2247C18.883 31.7997 22.498 28.5997 22.533 28.5697C22.703 28.4147 22.953 28.4297 23.108 28.5997C23.258 28.7647 23.248 29.0247 23.073 29.1747C22.933 29.3047 19.758 32.1097 16.443 32.1097Z" fill="#1F57C3"/>
<path d="M11.9636 18.45C11.7336 19.01 11.7436 21.475 11.9086 23.575C11.9186 23.68 11.8836 23.79 11.8086 23.875C11.7436 23.955 11.6486 24.005 11.5386 24.015C11.4086 24.025 8.48356 24.28 8.63856 26.42C8.75356 28.135 9.35356 28.265 10.2636 28.265C10.5736 28.265 10.9436 28.235 11.3436 28.205C11.4836 28.195 11.6486 28.18 11.7986 28.17C12.5136 28.125 12.9786 27.945 13.2386 27.625C13.7386 27.02 13.5736 25.815 13.3786 24.28C13.3036 23.705 13.2186 23.11 13.1636 22.47C12.9036 19.445 12.3086 18.53 11.9636 18.45ZM10.2636 29.08C8.65856 29.08 7.94356 28.325 7.81356 26.475C7.67356 24.34 9.68856 23.47 11.0736 23.25C10.6736 17.815 11.4086 17.695 11.7336 17.64C11.7886 17.63 11.8536 17.625 11.9086 17.625C13.0236 17.625 13.7036 19.185 13.9786 22.395C14.0436 23.025 14.1186 23.605 14.1836 24.175C14.4086 25.9 14.5936 27.265 13.8786 28.145C13.4686 28.645 12.8086 28.92 11.8536 28.985C11.7036 28.995 11.5486 29.01 11.3986 29.02C10.9986 29.05 10.6086 29.08 10.2636 29.08Z" fill="#1F57C3"/>
<path d="M13.9875 17.2199C13.8875 17.2199 13.8025 17.1949 13.7275 17.1349C13.5525 16.9949 13.5225 16.7349 13.6625 16.5599C14.9725 14.9049 16.5725 13.5499 18.4175 12.5199C18.6875 12.3699 18.9775 12.2199 19.2625 12.0849C19.4675 11.9849 19.7025 12.0699 19.8025 12.2749C19.8975 12.4749 19.8225 12.7199 19.6175 12.8199C19.3475 12.9499 19.0775 13.0899 18.8175 13.2349C17.0625 14.2099 15.5475 15.4999 14.3025 17.0699C14.2225 17.1699 14.1075 17.2199 13.9875 17.2199Z" fill="#1F57C3"/>
<path d="M26.1945 42.499C19.0545 42.499 12.7295 37.704 10.7945 30.844C10.7395 30.629 10.8595 30.404 11.0745 30.339C11.2895 30.279 11.5195 30.409 11.5845 30.624C13.4145 37.134 19.4245 41.684 26.1945 41.684C34.5645 41.684 41.3795 34.874 41.3795 26.504C41.3795 20.699 38.1395 15.489 32.9545 12.904C32.7445 12.804 32.6595 12.559 32.7695 12.359C32.8645 12.154 33.1045 12.069 33.3095 12.174C38.7895 14.899 42.1895 20.389 42.1895 26.504C42.1895 35.324 35.0195 42.499 26.1945 42.499Z" fill="#1F57C3"/>
<path d="M26.313 23.7487C23.678 23.7487 21.428 20.7337 20.548 17.7587C20.483 17.5387 20.613 17.3137 20.833 17.2487C21.048 17.1887 21.278 17.3087 21.343 17.5287C22.098 20.1437 24.113 22.9287 26.313 22.9287C29.148 22.9287 31.498 18.4987 31.643 15.6287C31.643 15.4037 31.838 15.2287 32.063 15.2387C32.293 15.2487 32.463 15.4437 32.453 15.6687C32.293 18.8837 29.768 23.7487 26.313 23.7487Z" fill="#1F57C3"/>
<path d="M26.499 8.315C22.794 8.315 19.769 11.335 19.769 15.045C19.769 15.935 19.924 16.78 20.074 17.345C22.449 17.125 26.389 15.705 28.284 14.045C28.729 13.67 29.019 13.305 29.164 12.97C29.239 12.795 29.424 12.695 29.619 12.73C29.799 12.765 29.939 12.93 29.939 13.125C29.954 13.59 29.939 14.055 29.919 14.51C29.874 15.065 29.824 15.495 29.779 15.81C31.044 15.61 32.724 15.135 33.189 14.435C32.889 10.995 29.964 8.315 26.499 8.315ZM19.784 18.185C19.609 18.185 19.444 18.075 19.394 17.91C19.184 17.285 18.959 16.205 18.959 15.045C18.959 10.885 22.339 7.5 26.499 7.5C30.429 7.5 33.734 10.575 34.014 14.5C34.024 14.575 34.004 14.645 33.969 14.715C33.204 16.25 29.704 16.655 29.304 16.695C29.174 16.71 29.044 16.655 28.954 16.555C28.869 16.45 28.834 16.315 28.869 16.185C28.869 16.18 29.034 15.575 29.099 14.46C29.099 14.445 29.099 14.425 29.109 14.41C29.009 14.495 28.924 14.58 28.824 14.665C26.679 16.53 22.294 18.06 19.804 18.185C19.794 18.185 19.784 18.185 19.784 18.185Z" fill="#1F57C3"/>
</svg>
