<svg width="50" height="50" viewBox="0 0 50 50" fill="none" xmlns="http://www.w3.org/2000/svg">
<path d="M25 48.925C31.605 48.925 37.59 46.245 41.915 41.915C46.245 37.59 48.925 31.605 48.925 25C48.925 18.395 46.245 12.41 41.915 8.085C37.59 3.755 31.605 1.075 25 1.075C18.395 1.075 12.41 3.755 8.085 8.085C3.755 12.41 1.075 18.395 1.075 25C1.075 31.605 3.755 37.59 8.085 41.915C12.41 46.245 18.395 48.925 25 48.925ZM42.68 42.68C38.155 47.2 31.905 50 25 50C18.095 50 11.845 47.2 7.32 42.68C2.8 38.155 0 31.905 0 25C0 18.095 2.8 11.845 7.32 7.32C11.845 2.8 18.095 0 25 0C31.905 0 38.155 2.8 42.68 7.32C47.2 11.845 50 18.095 50 25C50 31.905 47.2 38.155 42.68 42.68Z" fill="#1F57C3"/>
<path d="M30.6351 38.4987C29.0801 38.4987 27.2051 38.3537 25.0201 38.0587C24.8901 38.0437 24.7651 38.0237 24.6801 38.0137C24.0951 37.9487 23.5551 37.5737 22.9901 37.1737C21.8751 36.3887 20.7301 35.5837 18.9401 36.5437C18.8751 36.5787 18.7851 36.5987 18.7001 36.5987H11.0651C10.8901 36.5987 10.7251 36.5137 10.6251 36.3687C10.5251 36.2137 8.33008 32.7637 8.33008 29.2437C8.33008 25.7237 10.5351 22.5587 10.6351 22.4237C10.7351 22.2837 10.8901 22.2037 11.0651 22.2037H16.7551C17.0451 22.2037 17.2751 22.4337 17.2751 22.7237C17.2751 23.0087 17.0451 23.2437 16.7551 23.2437H11.3401C10.8651 23.9937 9.36508 26.5637 9.36508 29.2437C9.36508 31.9587 10.8801 34.7487 11.3501 35.5637H18.5801C20.8601 34.4037 22.4301 35.5087 23.5851 36.3237C24.0501 36.6437 24.4801 36.9437 24.8001 36.9887C24.9001 36.9987 25.0201 37.0087 25.1651 37.0287C32.5351 38.0237 34.8601 37.1437 35.5201 36.2237C36.4401 34.9587 36.8801 33.9087 37.6101 32.1687C37.8501 31.5837 38.1251 30.9087 38.4701 30.1337C39.5401 27.7187 41.5151 23.1987 40.1801 21.4987C38.0501 18.7937 30.0601 20.2937 27.1601 21.0987C26.9751 21.1537 26.7651 21.0887 26.6301 20.9487C26.5001 20.8037 26.4651 20.5837 26.5451 20.4037C26.5651 20.3487 28.7251 14.9137 27.4151 12.4387C26.4451 10.6087 24.6101 10.4987 23.8301 10.5537C23.6851 11.8137 23.2101 15.5937 22.3751 18.1687C21.8201 19.8437 20.9151 21.1237 20.2551 21.9087C20.0651 22.1287 19.7351 22.1487 19.5251 21.9637C19.3051 21.7737 19.2751 21.4437 19.4601 21.2337C20.0651 20.5287 20.8851 19.3687 21.3801 17.8487C22.3401 14.8887 22.8351 10.0787 22.8451 10.0237C22.8701 9.80369 23.0351 9.61869 23.2651 9.57369C24.4551 9.33869 27.0401 9.52869 28.3301 11.9437C29.5101 14.1837 28.4401 18.0687 27.8451 19.8537C30.6151 19.2037 38.5001 17.6787 40.9951 20.8587C42.5851 22.8787 41.0951 26.7587 39.4151 30.5537C39.0851 31.3187 38.8101 31.9787 38.5651 32.5637C37.8301 34.3187 37.3451 35.4737 36.3601 36.8337C35.5551 37.9487 33.6701 38.4987 30.6351 38.4987Z" fill="#1F57C3"/>
<path d="M17.8706 36.5988C17.5856 36.5988 17.3556 36.3688 17.3556 36.0838L17.3206 26.8288C17.3106 26.5388 17.5506 26.2988 17.8406 26.2988C18.1256 26.2988 18.3556 26.5288 18.3556 26.8138L18.3906 36.0838C18.3906 36.3688 18.1606 36.5988 17.8706 36.5988Z" fill="#1F57C3"/>
<path d="M13.9197 30.8731C13.3247 30.8731 12.8497 31.3481 12.8497 31.9431C12.8497 32.5431 13.3247 33.0131 13.9197 33.0131C14.5197 33.0131 15.0047 32.5431 15.0047 31.9431C15.0047 31.3481 14.5197 30.8731 13.9197 30.8731ZM13.9197 34.0631C12.7547 34.0631 11.8047 33.1131 11.8047 31.9431C11.8047 30.7731 12.7547 29.8281 13.9197 29.8281C15.0897 29.8281 16.0397 30.7731 16.0397 31.9431C16.0397 33.1131 15.0897 34.0631 13.9197 34.0631Z" fill="#1F57C3"/>
</svg>
