<svg width="50" height="50" viewBox="0 0 50 50" fill="none" xmlns="http://www.w3.org/2000/svg">
<path d="M25 48.925C31.605 48.925 37.59 46.245 41.915 41.915C46.245 37.59 48.925 31.605 48.925 25C48.925 18.395 46.245 12.41 41.915 8.085C37.59 3.755 31.605 1.075 25 1.075C18.395 1.075 12.41 3.755 8.085 8.085C3.755 12.41 1.075 18.395 1.075 25C1.075 31.605 3.755 37.59 8.085 41.915C12.41 46.245 18.395 48.925 25 48.925ZM42.68 42.68C38.155 47.2 31.905 50 25 50C18.095 50 11.845 47.2 7.32 42.68C2.8 38.155 0 31.905 0 25C0 18.095 2.8 11.845 7.32 7.32C11.845 2.8 18.095 0 25 0C31.905 0 38.155 2.8 42.68 7.32C47.2 11.845 50 18.095 50 25C50 31.905 47.2 38.155 42.68 42.68Z" fill="#1F57C3"/>
<path d="M21.6705 28.3008C21.4055 28.3008 21.1855 28.0858 21.1855 27.8208V15.0358C21.1855 14.7658 21.4055 14.5508 21.6705 14.5508C21.9405 14.5508 22.1555 14.7658 22.1555 15.0358V27.8208C22.1555 28.0858 21.9405 28.3008 21.6705 28.3008Z" fill="#1F57C3"/>
<path d="M28.0669 21.9114H15.2819C15.0119 21.9114 14.7969 21.6914 14.7969 21.4264C14.7969 21.1614 15.0119 20.9414 15.2819 20.9414H28.0669C28.3319 20.9414 28.5469 21.1614 28.5469 21.4264C28.5469 21.6914 28.3319 21.9114 28.0669 21.9114Z" fill="#1F57C3"/>
<path d="M38.3407 41.25C37.5357 41.25 36.7857 40.94 36.2207 40.37L29.2507 33.405C23.6807 36.935 16.3407 36.14 11.6457 31.45C6.1207 25.92 6.1207 16.93 11.6457 11.4C14.3257 8.725 17.8857 7.25 21.6707 7.25C25.4557 7.25 29.0157 8.725 31.6957 11.4C36.4807 16.19 37.2107 23.73 33.4307 29.34C33.2807 29.555 32.9807 29.615 32.7607 29.465C32.5407 29.32 32.4807 29.02 32.6307 28.795C36.1507 23.575 35.4707 16.545 31.0107 12.085C28.5157 9.59 25.2007 8.215 21.6707 8.215C18.1457 8.215 14.8257 9.59 12.3307 12.085C7.1807 17.235 7.1807 25.615 12.3307 30.765C16.7907 35.225 23.8207 35.905 29.0457 32.385C29.2357 32.255 29.4907 32.28 29.6557 32.445L36.9007 39.69C37.2857 40.075 37.7957 40.285 38.3407 40.285C38.8807 40.285 39.3907 40.075 39.7757 39.69L39.9357 39.53C40.3207 39.145 40.5307 38.635 40.5307 38.09C40.5307 37.545 40.3207 37.04 39.9357 36.655L34.7757 31.49C34.5857 31.305 34.5857 30.995 34.7757 30.81C34.9607 30.62 35.2707 30.62 35.4557 30.81L40.6207 35.97C41.1857 36.535 41.4957 37.29 41.4957 38.09C41.4957 38.895 41.1857 39.645 40.6207 40.21L40.4557 40.37C39.8957 40.94 39.1407 41.25 38.3407 41.25Z" fill="#1F57C3"/>
<path d="M21.6719 11.6955C19.0719 11.6955 16.6319 12.7105 14.7919 14.5455C11.0019 18.3405 11.0019 24.5105 14.7919 28.3055C16.6319 30.1405 19.0719 31.1555 21.6719 31.1555C24.2719 31.1555 26.7169 30.1405 28.5519 28.3055C32.3419 24.5105 32.3419 18.3405 28.5519 14.5455C26.7169 12.7105 24.2719 11.6955 21.6719 11.6955ZM21.6719 32.1205C18.8169 32.1205 16.1319 31.0055 14.1119 28.9855C9.94187 24.8155 9.94187 18.0305 14.1119 13.8655C16.1319 11.8405 18.8169 10.7305 21.6719 10.7305C24.5269 10.7305 27.2169 11.8405 29.2369 13.8655C33.4069 18.0305 33.4069 24.8155 29.2369 28.9855C27.2169 31.0055 24.5269 32.1205 21.6719 32.1205Z" fill="#1F57C3"/>
</svg>
