<svg width="50" height="50" viewBox="0 0 50 50" fill="none" xmlns="http://www.w3.org/2000/svg">
<path d="M25 48.925C31.605 48.925 37.59 46.245 41.915 41.915C46.245 37.59 48.925 31.605 48.925 25C48.925 18.395 46.245 12.41 41.915 8.085C37.59 3.755 31.605 1.075 25 1.075C18.395 1.075 12.41 3.755 8.085 8.085C3.755 12.41 1.075 18.395 1.075 25C1.075 31.605 3.755 37.59 8.085 41.915C12.41 46.245 18.395 48.925 25 48.925ZM42.68 42.68C38.155 47.2 31.905 50 25 50C18.095 50 11.845 47.2 7.32 42.68C2.8 38.155 0 31.905 0 25C0 18.095 2.8 11.845 7.32 7.32C11.845 2.8 18.095 0 25 0C31.905 0 38.155 2.8 42.68 7.32C47.2 11.845 50 18.095 50 25C50 31.905 47.2 38.155 42.68 42.68Z" fill="#1F57C3"/>
<path d="M14.95 27.4549C15.955 27.4549 16.77 28.2749 16.77 29.2799V29.6899C16.77 30.6999 15.955 31.5149 14.95 31.5149H10.85C9.845 31.5149 9.03 30.6999 9.03 29.6899V29.2799C9.03 28.2749 9.845 27.4549 10.85 27.4549H14.95ZM10.85 32.7999H14.95C16.66 32.7999 18.055 31.4049 18.055 29.6899V29.2799C18.055 27.5649 16.66 26.1699 14.95 26.1699H10.85C9.14 26.1699 7.75 27.5649 7.75 29.2799V29.6899C7.75 31.4049 9.14 32.7999 10.85 32.7999Z" fill="#1F57C3"/>
<path d="M12.8998 27.455C13.2548 27.455 13.5398 27.17 13.5398 26.815V8.14C13.5398 7.79 13.2548 7.5 12.8998 7.5C12.5448 7.5 12.2598 7.79 12.2598 8.14V26.815C12.2598 27.17 12.5448 27.455 12.8998 27.455Z" fill="#1F57C3"/>
<path d="M12.8998 42.5006C13.2548 42.5006 13.5398 42.2106 13.5398 41.8556V32.1606C13.5398 31.8056 13.2548 31.5156 12.8998 31.5156C12.5448 31.5156 12.2598 31.8056 12.2598 32.1606V41.8556C12.2598 42.2106 12.5448 42.5006 12.8998 42.5006Z" fill="#1F57C3"/>
<path d="M27.0496 16.7655C28.0496 16.7655 28.8696 17.5855 28.8696 18.5905V19.0005C28.8696 20.0105 28.0496 20.8255 27.0496 20.8255H22.9496C21.9446 20.8255 21.1296 20.0105 21.1296 19.0005V18.5905C21.1296 17.5855 21.9446 16.7655 22.9496 16.7655H27.0496ZM22.9496 22.1105H27.0496C28.7596 22.1105 30.1496 20.7155 30.1496 19.0005V18.5905C30.1496 16.8755 28.7596 15.4805 27.0496 15.4805H22.9496C21.2346 15.4805 19.8496 16.8755 19.8496 18.5905V19.0005C19.8496 20.7155 21.2346 22.1105 22.9496 22.1105Z" fill="#1F57C3"/>
<path d="M24.9994 16.765C25.3544 16.765 25.6394 16.48 25.6394 16.125V8.14C25.6394 7.79 25.3544 7.5 24.9994 7.5C24.6444 7.5 24.3594 7.79 24.3594 8.14V16.125C24.3594 16.48 24.6444 16.765 24.9994 16.765Z" fill="#1F57C3"/>
<path d="M24.9994 42.4992C25.3544 42.4992 25.6394 42.2092 25.6394 41.8542V21.4692C25.6394 21.1142 25.3544 20.8242 24.9994 20.8242C24.6444 20.8242 24.3594 21.1142 24.3594 21.4692V41.8542C24.3594 42.2092 24.6444 42.4992 24.9994 42.4992Z" fill="#1F57C3"/>
<path d="M35.0503 17.2005C34.0453 17.2005 33.2303 16.3805 33.2303 15.3755V14.9655C33.2303 13.9555 34.0453 13.1405 35.0503 13.1405H39.1503C40.1553 13.1405 40.9703 13.9555 40.9703 14.9655V15.3755C40.9703 16.3805 40.1553 17.2005 39.1503 17.2005H35.0503ZM39.1503 11.8555H35.0503C33.3403 11.8555 31.9453 13.2505 31.9453 14.9655V15.3755C31.9453 17.0905 33.3403 18.4855 35.0503 18.4855H39.1503C40.8603 18.4855 42.2503 17.0905 42.2503 15.3755V14.9655C42.2503 13.2505 40.8603 11.8555 39.1503 11.8555Z" fill="#1F57C3"/>
<path d="M37.1009 17.1992C36.7459 17.1992 36.4609 17.4842 36.4609 17.8392V41.8592C36.4609 42.2092 36.7459 42.4992 37.1009 42.4992C37.4559 42.4992 37.7409 42.2092 37.7409 41.8592V17.8392C37.7409 17.4842 37.4559 17.1992 37.1009 17.1992Z" fill="#1F57C3"/>
<path d="M37.1009 7.5C36.7459 7.5 36.4609 7.79 36.4609 8.145V12.495C36.4609 12.85 36.7459 13.14 37.1009 13.14C37.4559 13.14 37.7409 12.85 37.7409 12.495V8.145C37.7409 7.79 37.4559 7.5 37.1009 7.5Z" fill="#1F57C3"/>
</svg>
