<svg width="38" height="38" viewBox="0 0 38 38" fill="none" xmlns="http://www.w3.org/2000/svg">
<path d="M22.0576 24.8525C21.2523 24.8525 20.2889 24.7806 19.1672 24.6224L18.9946 24.5936C18.6495 24.5649 18.3619 24.3492 18.0455 24.1335C17.4846 23.7452 17.0101 23.4001 16.1904 23.8315C16.1329 23.8602 16.0609 23.889 15.989 23.889H12.1206C11.9625 23.889 11.8187 23.8027 11.7324 23.6733C11.6749 23.6014 10.5244 21.8038 10.5244 19.9631C10.5244 18.1224 11.6893 16.4542 11.7468 16.3823C11.8187 16.2673 11.9625 16.1954 12.1206 16.1954H14.9968C15.2556 16.1954 15.457 16.3967 15.457 16.6556C15.457 16.9 15.2556 17.1014 14.9968 17.1014H12.3507C12.0775 17.5615 11.4448 18.7407 11.4448 19.9631C11.4448 21.1998 12.0919 22.4797 12.3651 22.9686H15.874C17.1107 22.3646 17.988 22.983 18.5776 23.3857C18.7789 23.5295 18.9946 23.6877 19.1096 23.702L19.2966 23.7164C23.2656 24.2485 24.1572 23.6733 24.3586 23.3857C24.8187 22.7673 25.0345 22.2352 25.4084 21.3724C25.5234 21.0704 25.6672 20.7253 25.8398 20.337C26.3287 19.2297 27.3353 16.9288 26.7313 16.1522C25.7247 14.8724 21.6694 15.6345 20.332 16.0084C20.1594 16.0516 19.9869 16.0084 19.8718 15.879C19.7568 15.7496 19.728 15.5626 19.7855 15.4045C20.0875 14.6567 20.749 12.4996 20.2313 11.5217C19.8431 10.8026 19.1672 10.6732 18.7645 10.6588C18.6782 11.4354 18.4338 13.1754 18.0311 14.3978C17.7435 15.2894 17.2689 15.9509 16.9238 16.3679C16.7512 16.5549 16.478 16.5693 16.2767 16.4111C16.0897 16.2529 16.0609 15.9653 16.2191 15.764C16.5211 15.4332 16.9238 14.858 17.1682 14.1102C17.6428 12.6434 17.8873 10.213 17.9017 10.1843C17.9161 9.99734 18.0742 9.82478 18.2612 9.79602C18.9227 9.6666 20.3464 9.76725 21.0366 11.0903C21.6119 12.1688 21.238 13.9088 20.9216 14.9299C22.6041 14.556 26.1849 13.9952 27.4504 15.5914C28.3132 16.6987 27.5367 18.7264 26.6739 20.7109C26.5013 21.0848 26.3718 21.4299 26.2424 21.7175C25.8685 22.6235 25.6097 23.2131 25.1064 23.9178C24.6606 24.5505 23.6683 24.8525 22.0576 24.8525Z" fill="#00CCFF"/>
<path d="M15.5722 23.8897C15.3133 23.8897 15.112 23.6883 15.112 23.4295L15.0976 18.727C15.0832 18.4826 15.2989 18.2812 15.5434 18.2812C15.8023 18.2812 16.0036 18.4826 16.0036 18.727L16.018 23.4295C16.018 23.6883 15.831 23.8897 15.5722 23.8897Z" fill="#00CCFF"/>
<path d="M12.1046 33.2049C13.7728 33.2049 15.369 34.1252 16.1312 35.5345C16.5051 36.2248 17.0228 36.5987 17.598 36.5987C18.1014 36.5987 18.5903 36.311 19.0217 35.779C19.8414 34.7148 21.1932 34.0965 22.6025 34.0965C23.4365 34.0965 24.2419 34.3122 24.9178 34.7292C25.306 34.9593 25.6943 35.0887 26.0682 35.0887C26.8304 35.0887 27.3912 34.4991 27.5206 33.5068C27.837 31.321 29.8647 29.6097 32.1081 29.6672H32.2087C32.899 29.6672 33.4455 29.4371 33.7331 29.0057C34.0063 28.5887 34.0351 27.9847 33.7618 27.3232C32.9277 25.2667 33.8337 22.7645 35.7895 21.7147C36.4366 21.3696 36.8249 20.8806 36.868 20.3629C36.9112 19.8452 36.6092 19.3132 36.0339 18.853C34.2795 17.5012 33.8194 14.8696 34.9842 13.0001C35.3581 12.3817 35.4444 11.7777 35.243 11.3032C35.0129 10.8286 34.4808 10.5123 33.7474 10.4116C31.5472 10.0952 29.8215 8.05315 29.879 5.85292C29.8934 5.23455 29.7496 4.74561 29.4332 4.41486C29.0018 3.98344 28.2828 3.91156 27.5063 4.21355C27.0029 4.42926 26.4565 4.52993 25.8956 4.52993C24.2275 4.52993 22.6312 3.60953 21.8691 2.20023C21.5096 1.52434 20.9631 1.13608 20.4022 1.13608C19.8989 1.13608 19.41 1.4237 18.9786 1.95579C18.1589 3.01995 16.8071 3.63829 15.3978 3.63829C14.5637 3.63829 13.7584 3.42259 13.0825 3.01994C12.6942 2.77547 12.3059 2.64607 11.9464 2.64607C11.1555 2.64607 10.609 3.23564 10.4796 4.2279C10.1632 6.42814 8.13557 8.13945 5.8922 8.06754H5.79152C5.10125 8.06754 4.55479 8.29762 4.26718 8.72904C3.99395 9.16046 3.9652 9.75005 4.23843 10.4259C5.07251 12.468 4.15215 14.9702 2.21076 16.02C1.56364 16.3795 1.17536 16.8541 1.13222 17.3718C1.08908 17.8895 1.39105 18.4216 1.96627 18.8817C3.72071 20.2335 4.1809 22.8652 3.01607 24.7491C2.64218 25.353 2.55591 25.957 2.75723 26.4316C2.98732 26.9061 3.51942 27.2225 4.25283 27.3376C6.45306 27.6395 8.1787 29.6816 8.12117 31.8818C8.10679 32.5002 8.25061 32.9891 8.58136 33.3199C8.9984 33.7513 9.71746 33.8376 10.494 33.5212C10.9973 33.3055 11.5438 33.2049 12.1046 33.2049ZM17.598 37.7347C16.6058 37.7347 15.7141 37.1308 15.1389 36.081C14.5637 35.0312 13.3701 34.3409 12.1046 34.3409C11.6876 34.3409 11.2849 34.4272 10.911 34.571C9.68866 35.0599 8.50945 34.8874 7.76166 34.1108C7.22958 33.5643 6.95636 32.7734 6.97074 31.8531C7.02826 30.2137 5.73401 28.6893 4.09462 28.4592C2.97293 28.3011 2.1245 27.7546 1.73622 26.9205C1.34795 26.0864 1.46295 25.0942 2.05255 24.1451C2.91539 22.7501 2.57029 20.7944 1.27603 19.7733C0.370055 19.0831 -0.0757512 18.1915 0.0105325 17.2711C0.0824355 16.3651 0.672032 15.5598 1.66429 15.0278C3.13112 14.2368 3.807 12.3673 3.18863 10.843C2.75722 9.82197 2.82911 8.84408 3.31805 8.09629C3.85014 7.31974 4.77051 6.9027 5.93534 6.93146H6.00722C7.61785 6.93146 9.11344 5.6516 9.34353 4.06974C9.57362 2.51663 10.5803 1.50999 11.9464 1.50999C12.5073 1.50999 13.1113 1.69693 13.6865 2.04207C14.1898 2.34406 14.7794 2.50226 15.3978 2.50226C16.462 2.50226 17.483 2.04205 18.1013 1.2655C18.7341 0.445806 19.5538 0 20.4022 0C21.3945 0 22.2861 0.604021 22.8613 1.65381C23.4365 2.70359 24.6301 3.39385 25.8956 3.39385C26.3127 3.39385 26.7153 3.30756 27.0892 3.16375C28.3116 2.67481 29.4908 2.86177 30.2386 3.62394C30.7706 4.18479 31.0439 4.96132 31.0151 5.89606C30.972 7.50669 32.295 9.0598 33.9056 9.27551C35.0273 9.4337 35.8758 9.98014 36.264 10.8286C36.6523 11.6627 36.5373 12.6406 35.9477 13.6041C35.0848 14.999 35.43 16.9548 36.7242 17.9614C37.6158 18.6517 38.076 19.5433 37.9897 20.4636C37.9178 21.384 37.3282 22.1893 36.3216 22.7214C34.8691 23.4979 34.1933 25.3674 34.8116 26.8918C35.243 27.9128 35.1711 28.8907 34.6822 29.6529C34.1501 30.415 33.2297 30.8464 32.0793 30.8033H31.993C30.3824 30.8033 28.8868 32.0831 28.6567 33.665C28.4266 35.2181 27.42 36.2248 26.0682 36.2248C25.493 36.2248 24.889 36.0522 24.3138 35.6927C23.8104 35.3907 23.2208 35.2325 22.6025 35.2325C21.5383 35.2325 20.5173 35.6927 19.8989 36.4836C19.2661 37.289 18.4465 37.7347 17.598 37.7347Z" fill="#00CCFF"/>
<path d="M18.9931 7.10321C12.5074 7.10321 7.22968 12.3809 7.22968 18.8666C7.22968 25.3522 12.5074 30.6299 18.9931 30.6299C25.4931 30.6299 30.7707 25.3522 30.7707 18.8666C30.7707 12.3809 25.4931 7.10321 18.9931 7.10321ZM18.9931 31.7085C11.9178 31.7085 6.16553 25.9418 6.16553 18.8666C6.16553 11.7913 11.9178 6.03906 18.9931 6.03906C26.0827 6.03906 31.8349 11.7913 31.8349 18.8666C31.8349 25.9418 26.0827 31.7085 18.9931 31.7085Z" fill="#00CCFF"/>
</svg>
