<svg width="50" height="50" viewBox="0 0 50 50" fill="none" xmlns="http://www.w3.org/2000/svg">
<path d="M25 48.925C31.605 48.925 37.59 46.245 41.915 41.915C46.245 37.59 48.925 31.605 48.925 25C48.925 18.395 46.245 12.41 41.915 8.085C37.59 3.755 31.605 1.075 25 1.075C18.395 1.075 12.41 3.755 8.085 8.085C3.755 12.41 1.075 18.395 1.075 25C1.075 31.605 3.755 37.59 8.085 41.915C12.41 46.245 18.395 48.925 25 48.925ZM42.68 42.68C38.155 47.2 31.905 50 25 50C18.095 50 11.845 47.2 7.32 42.68C2.8 38.155 0 31.905 0 25C0 18.095 2.8 11.845 7.32 7.32C11.845 2.8 18.095 0 25 0C31.905 0 38.155 2.8 42.68 7.32C47.2 11.845 50 18.095 50 25C50 31.905 47.2 38.155 42.68 42.68Z" fill="#1F57C3"/>
<path d="M24.1348 40.5C15.5848 40.5 8.63477 33.545 8.63477 25C8.63477 16.455 15.5848 9.5 24.1348 9.5C29.2898 9.5 34.0998 12.055 36.9848 16.335C37.1698 16.61 37.0998 16.985 36.8248 17.17C36.5498 17.355 36.1748 17.28 35.9898 17.005C33.3248 13.06 28.8948 10.7 24.1348 10.7C16.2498 10.7 9.83977 17.115 9.83977 25C9.83977 32.885 16.2498 39.3 24.1348 39.3C32.0198 39.3 38.4298 32.885 38.4298 25C38.4298 23.705 38.2598 22.42 37.9198 21.185C37.8298 20.865 38.0198 20.535 38.3398 20.445C38.6598 20.36 38.9898 20.545 39.0798 20.865C39.4448 22.205 39.6348 23.595 39.6348 25C39.6348 33.545 32.6798 40.5 24.1348 40.5Z" fill="#1F57C3"/>
<path d="M23.3287 35.2664C23.1337 35.2664 22.9587 35.1764 22.8437 35.0214L14.8037 24.1214C14.6087 23.8564 14.6637 23.4814 14.9337 23.2814C15.1987 23.0864 15.5787 23.1414 15.7737 23.4114L23.3237 33.6514L40.2787 10.4714C40.4737 10.2064 40.8487 10.1464 41.1187 10.3414C41.3837 10.5364 41.4437 10.9114 41.2487 11.1814L23.8087 35.0164C23.6987 35.1764 23.5187 35.2664 23.3287 35.2664Z" fill="#1F57C3"/>
</svg>
