<svg width="86" height="51" viewBox="0 0 86 51" fill="none" xmlns="http://www.w3.org/2000/svg">
<path d="M84.6305 51.0001H21.3855C20.6297 51.0001 20.016 50.3167 20.016 49.4752C20.016 48.6337 20.6297 47.9554 21.3855 47.9554H83.2335V3.05469H22.7596V28.2438C22.7596 29.0853 22.1458 29.7993 21.3855 29.7993C20.6297 29.7993 20.016 29.0853 20.016 28.2438V1.52979C20.016 0.688283 20.6297 0.00488281 21.3855 0.00488281H84.6305C85.3908 0.00488281 86 0.688283 86 1.52979V49.4752C86 50.3167 85.3908 51.0001 84.6305 51.0001Z" fill="#767475"/>
<path d="M53.0126 32.9765C52.692 32.9765 52.3713 32.8439 52.1103 32.6195L20.5015 2.6976C19.9244 2.14679 19.8511 1.17268 20.3412 0.524977C20.8359 -0.0921272 21.697 -0.189032 22.2787 0.361772L53.0126 29.4422L83.7282 0.361772C84.3099 -0.189032 85.1847 -0.0921272 85.6519 0.524977C86.1466 1.17268 86.087 2.14679 85.5053 2.6976L53.8874 32.6195C53.6263 32.8439 53.3332 32.9765 53.0126 32.9765Z" fill="#767475"/>
<path d="M20.1488 25.4845H2.77571C2.01537 25.4845 1.40161 24.8062 1.40161 23.9647C1.40161 23.1181 2.01537 22.4092 2.77571 22.4092H20.1488C20.9046 22.4092 21.5184 23.1181 21.5184 23.9647C21.5184 24.8062 20.9046 25.4845 20.1488 25.4845Z" fill="#767475"/>
<path d="M20.1488 50.9998H1.36951C0.613758 50.9998 0 50.3164 0 49.4749C0 48.6334 0.613758 47.9551 1.36951 47.9551H20.1488C20.9046 47.9551 21.5183 48.6334 21.5183 49.4749C21.5183 50.3164 20.9046 50.9998 20.1488 50.9998Z" fill="#767475"/>
<path d="M43.142 39.6531H11.4645C10.7042 39.6531 10.0905 38.9748 10.0905 38.1282C10.0905 37.2867 10.7042 36.6084 11.4645 36.6084H43.142C43.8978 36.6084 44.5115 37.2867 44.5115 38.1282C44.5115 38.9748 43.8978 39.6531 43.142 39.6531Z" fill="#767475"/>
</svg>
