<svg width="42" height="18" viewBox="0 0 42 18" fill="none" xmlns="http://www.w3.org/2000/svg">
<path d="M0.291193 14V0.909091H2.66264V12.0121H8.42827V14H0.291193ZM14.6669 14.1918C13.7081 14.1918 12.8771 13.9808 12.174 13.5589C11.4709 13.1371 10.9254 12.5469 10.5376 11.7884C10.1541 11.0298 9.96236 10.1435 9.96236 9.12926C9.96236 8.11506 10.1541 7.22656 10.5376 6.46378C10.9254 5.70099 11.4709 5.10866 12.174 4.68679C12.8771 4.26491 13.7081 4.05398 14.6669 4.05398C15.6257 4.05398 16.4567 4.26491 17.1598 4.68679C17.8629 5.10866 18.4063 5.70099 18.7898 6.46378C19.1776 7.22656 19.3714 8.11506 19.3714 9.12926C19.3714 10.1435 19.1776 11.0298 18.7898 11.7884C18.4063 12.5469 17.8629 13.1371 17.1598 13.5589C16.4567 13.9808 15.6257 14.1918 14.6669 14.1918ZM14.6797 12.3381C15.1996 12.3381 15.6342 12.1953 15.9837 11.9098C16.3331 11.62 16.593 11.2322 16.7635 10.7464C16.9382 10.2607 17.0256 9.71946 17.0256 9.12287C17.0256 8.52202 16.9382 7.97869 16.7635 7.4929C16.593 7.00284 16.3331 6.61293 15.9837 6.32315C15.6342 6.03338 15.1996 5.88849 14.6797 5.88849C14.147 5.88849 13.7038 6.03338 13.3501 6.32315C13.0007 6.61293 12.7386 7.00284 12.5639 7.4929C12.3935 7.97869 12.3082 8.52202 12.3082 9.12287C12.3082 9.71946 12.3935 10.2607 12.5639 10.7464C12.7386 11.2322 13.0007 11.62 13.3501 11.9098C13.7038 12.1953 14.147 12.3381 14.6797 12.3381ZM25.6053 17.8864C24.7743 17.8864 24.0605 17.7734 23.464 17.5476C22.8674 17.326 22.388 17.0277 22.0257 16.6527C21.6635 16.2777 21.4121 15.8622 21.2715 15.4062L23.3553 14.9013C23.449 15.093 23.5854 15.2827 23.7644 15.4702C23.9434 15.6619 24.1841 15.8196 24.4867 15.9432C24.7935 16.071 25.1792 16.1349 25.6436 16.1349C26.2999 16.1349 26.8432 15.9751 27.2736 15.6555C27.704 15.3402 27.9192 14.8203 27.9192 14.0959V12.2358H27.8042C27.6848 12.4744 27.5101 12.7195 27.28 12.9709C27.0542 13.2223 26.7537 13.4332 26.3787 13.6037C26.008 13.7741 25.5414 13.8594 24.9789 13.8594C24.2246 13.8594 23.5407 13.6825 22.927 13.3288C22.3176 12.9709 21.8319 12.4382 21.4696 11.7308C21.1117 11.0192 20.9327 10.1286 20.9327 9.05895C20.9327 7.98082 21.1117 7.07102 21.4696 6.32955C21.8319 5.58381 22.3198 5.01918 22.9334 4.63565C23.5471 4.24787 24.231 4.05398 24.9853 4.05398C25.5605 4.05398 26.0336 4.15199 26.4043 4.34801C26.7793 4.53977 27.0776 4.77202 27.2992 5.04474C27.5208 5.31321 27.6891 5.56676 27.8042 5.8054H27.932V4.18182H30.214V14.1598C30.214 14.9993 30.0137 15.6939 29.6131 16.2436C29.2125 16.7933 28.665 17.2045 27.9703 17.4773C27.2757 17.75 26.4874 17.8864 25.6053 17.8864ZM25.6245 12.044C26.1145 12.044 26.5321 11.9247 26.8773 11.6861C27.2225 11.4474 27.4846 11.1044 27.6635 10.657C27.8425 10.2095 27.932 9.67259 27.932 9.04616C27.932 8.42827 27.8425 7.88707 27.6635 7.42259C27.4888 6.9581 27.2289 6.59801 26.8837 6.34233C26.5428 6.08239 26.123 5.95241 25.6245 5.95241C25.1088 5.95241 24.6784 6.08665 24.3333 6.35511C23.9881 6.62358 23.7282 6.99219 23.5534 7.46094C23.3787 7.92543 23.2914 8.45384 23.2914 9.04616C23.2914 9.64702 23.3787 10.1733 23.5534 10.625C23.7324 11.0724 23.9945 11.4219 24.3397 11.6733C24.6891 11.9205 25.1174 12.044 25.6245 12.044ZM36.8681 14.1918C35.9093 14.1918 35.0783 13.9808 34.3752 13.5589C33.6721 13.1371 33.1266 12.5469 32.7388 11.7884C32.3553 11.0298 32.1635 10.1435 32.1635 9.12926C32.1635 8.11506 32.3553 7.22656 32.7388 6.46378C33.1266 5.70099 33.6721 5.10866 34.3752 4.68679C35.0783 4.26491 35.9093 4.05398 36.8681 4.05398C37.8269 4.05398 38.6578 4.26491 39.361 4.68679C40.0641 5.10866 40.6074 5.70099 40.9909 6.46378C41.3787 7.22656 41.5726 8.11506 41.5726 9.12926C41.5726 10.1435 41.3787 11.0298 40.9909 11.7884C40.6074 12.5469 40.0641 13.1371 39.361 13.5589C38.6578 13.9808 37.8269 14.1918 36.8681 14.1918ZM36.8809 12.3381C37.4007 12.3381 37.8354 12.1953 38.1848 11.9098C38.5343 11.62 38.7942 11.2322 38.9647 10.7464C39.1394 10.2607 39.2267 9.71946 39.2267 9.12287C39.2267 8.52202 39.1394 7.97869 38.9647 7.4929C38.7942 7.00284 38.5343 6.61293 38.1848 6.32315C37.8354 6.03338 37.4007 5.88849 36.8809 5.88849C36.3482 5.88849 35.905 6.03338 35.5513 6.32315C35.2019 6.61293 34.9398 7.00284 34.7651 7.4929C34.5946 7.97869 34.5094 8.52202 34.5094 9.12287C34.5094 9.71946 34.5946 10.2607 34.7651 10.7464C34.9398 11.2322 35.2019 11.62 35.5513 11.9098C35.905 12.1953 36.3482 12.3381 36.8809 12.3381Z" fill="white"/>
</svg>
