<svg width="39" height="33" viewBox="0 0 39 33" fill="none" xmlns="http://www.w3.org/2000/svg">
<path d="M38.2813 33C38.0767 33 37.892 32.8944 37.7732 32.7228C35.0671 28.4657 32.6052 25.8058 30.0377 24.3471C29.7407 24.1821 29.6549 23.8191 29.8067 23.5352C29.9717 23.2448 30.3413 23.1459 30.6317 23.3109C33.0012 24.6573 35.265 26.9278 37.6609 30.3797C37.5091 23.8455 36.5851 18.8755 34.8624 15.2454C32.5919 10.4668 28.9816 8.14354 23.8532 8.14354H15.0353C14.8703 8.14354 14.7053 8.07091 14.5931 7.9455C14.4809 7.8201 14.4281 7.65509 14.4413 7.49009L14.9693 2.1307L1.49166 14.9153L15.2663 26.9476L14.5667 22.3406C14.4809 22.235 14.4545 22.103 14.4545 21.9776C14.4545 21.9776 14.4545 21.3836 15.1079 21.377C15.1211 21.377 15.1476 21.3836 15.1608 21.3836C15.4776 21.3836 16.659 21.3902 20.936 21.3902C22.2032 21.3902 23.18 21.4166 24.0711 21.4826C24.6651 21.5288 25.2195 21.5882 25.7409 21.6674C25.8795 21.6872 25.9785 21.7004 26.0577 21.7136C26.2689 21.74 26.3878 21.7598 26.7178 21.839C27.0346 21.9182 27.2326 22.2416 27.16 22.5584C27.0808 22.8818 26.7507 23.0732 26.4405 23.0006C26.1567 22.928 26.0841 22.9214 25.8927 22.895C25.8135 22.8818 25.7145 22.8686 25.5627 22.8488C25.0677 22.7762 24.5463 22.7168 23.9787 22.6772C23.1206 22.6112 22.1834 22.5782 20.936 22.5782C18.3025 22.5782 16.8372 22.5782 16.0254 22.5782H15.8076L16.692 28.3798C16.7316 28.624 16.6062 28.8748 16.3884 28.9937C16.1772 29.1125 15.9 29.0861 15.7085 28.9211L0.211212 15.384C0.0858078 15.2718 0.0132005 15.1134 0 14.9484C0 14.7768 0.0726283 14.6183 0.191432 14.4995L15.3125 0.163844C15.4908 -0.00776153 15.7548 -0.0473452 15.9858 0.0582585C16.2102 0.170462 16.3422 0.408053 16.3158 0.658862L15.6954 6.9489H23.8532C33.9648 6.9489 38.8754 15.2718 38.8754 32.3994C38.8754 32.6634 38.6972 32.901 38.4464 32.9736C38.3803 32.9934 38.3341 33 38.2813 33Z" fill="#FEFEFE"/>
</svg>
