<svg width="120" height="31" viewBox="0 0 120 31" fill="none" xmlns="http://www.w3.org/2000/svg">
<path d="M69.4783 21.9803H65.2385L62.0443 12.1658L58.8789 21.9803H54.6391L49.2148 7.13458L53.5369 7.10668L56.8413 17.7499L60.0345 7.10668H64.192L67.4407 17.7499L70.6895 7.10668H74.8747L69.4783 21.9803ZM82.9416 22.1457C81.2159 22.1457 79.7618 21.8047 78.5773 21.1227C77.3383 20.3901 76.4297 19.4508 75.8524 18.2934C75.274 17.1423 74.9849 15.8889 74.9849 14.529C74.9849 12.8664 75.3378 11.4745 76.0448 10.3462C76.8063 9.17539 77.7932 8.3136 79.0044 7.76491C80.2156 7.21725 81.5277 6.94031 82.9416 6.94031C85.1994 6.94031 87.0847 7.58614 88.5995 8.8809C90.1132 10.1705 90.8706 12.0553 90.8706 14.529C90.8706 15.4787 90.7235 16.4097 90.4302 17.3128C90.1359 18.2159 89.6728 19.0312 89.0399 19.7587C88.407 20.4831 87.59 21.0627 86.5845 21.4957C85.5802 21.9287 84.3638 22.1457 82.9416 22.1457ZM82.9416 18.6902C83.9512 18.6902 84.8187 18.3441 85.5431 17.6486C86.2676 16.9574 86.6309 15.9344 86.6309 14.5848C86.6309 13.2343 86.2676 12.2123 85.5431 11.521C84.8187 10.8246 83.9512 10.4794 82.9416 10.4794C81.9136 10.4794 81.0368 10.8246 80.3124 11.521C79.5869 12.2123 79.2246 13.2343 79.2246 14.5848C79.2246 15.9344 79.5869 16.9574 80.3124 17.6486C81.0368 18.3441 81.9136 18.6902 82.9416 18.6902ZM97.9187 21.9803H93.679V7.10668H97.9187V9.78815C98.9653 7.9447 100.598 6.99611 102.819 6.94031V10.9496L102.214 10.9217C101.507 10.9217 100.828 11.0416 100.171 11.2854C99.5159 11.5303 98.9735 11.9447 98.5516 12.5254C98.1297 13.1062 97.9187 13.8708 97.9187 14.8194V21.9803ZM120 21.9803H114.989L111.41 15.9261L109.51 17.9442V21.9803H105.269V1.4668H109.51V12.7187L114.933 7.10668H119.752L114.327 12.8385L120 21.9803Z" fill="#FEFEFE"/>
<path fill-rule="evenodd" clip-rule="evenodd" d="M13.1986 8.43108C12.396 7.61062 10.6157 6.94722 9.17496 6.77672C7.48523 6.57833 5.72758 6.83252 4.32289 7.43805C-1.34523 9.88186 -1.65807 19.1084 4.68719 21.6246C7.69825 22.818 12.6419 21.9779 13.7183 20.0642C13.1595 19.4329 11.9257 17.8126 11.3288 17.3063C10.6445 17.7806 10.6085 18.0958 9.4415 18.3882C3.08183 19.9816 2.62801 9.5791 8.89403 10.4254C9.80785 10.5494 10.3306 10.9317 10.8657 11.3047C11.2599 11.0113 11.7744 10.3086 12.0944 9.89633C12.4289 9.4675 13.0422 8.91777 13.1986 8.43108ZM15.4122 0.466215L15.4276 21.9438L19.6715 21.9376L19.6797 0.46725L15.4122 0.466215ZM22.734 6.98029L22.7433 21.9366L26.9933 21.9387L27.0026 6.98132L22.734 6.98029ZM39.2825 7.01336C38.4274 8.10558 35.6489 10.6538 35.2774 11.3399L38.0373 13.856C38.7742 13.4716 43.0438 8.59331 43.8207 7.95678C44.29 7.57342 44.4474 7.54242 44.6635 7.02369L39.2825 7.01336ZM29.6967 0.458984L29.708 6.3324L31.7826 8.20064C32.1459 8.61191 32.4546 8.75451 32.8333 9.12444C33.2501 9.53363 33.4713 9.84673 33.9962 10.0999L33.9951 0.487917L29.6967 0.458984Z" fill="#FEFEFE"/>
<path fill-rule="evenodd" clip-rule="evenodd" d="M46.4935 24.1454C46.4554 24.0772 30.194 9.07641 29.7031 8.91211L29.7175 31.0004C30.2249 30.6439 34.5943 23.5409 35.6028 22.1635C36.779 22.0715 44.8439 24.352 46.0293 24.3076C46.3165 24.5659 46.6499 24.6414 46.9545 24.4864C46.6818 24.1423 46.9082 24.3314 46.4935 24.1454ZM46.5645 24.2993C46.5871 24.32 46.5923 24.2921 46.5645 24.2993V24.2993Z" fill="#00CCFF"/>
<path fill-rule="evenodd" clip-rule="evenodd" d="M25.7004 4.83984C26.8169 4.46371 27.7236 3.16172 27.2275 1.65927C26.8735 0.588747 25.545 -0.379477 24.0817 0.148551C20.9955 1.25937 22.5484 5.90003 25.7004 4.83984Z" fill="#00CCFF"/>
<path fill-rule="evenodd" clip-rule="evenodd" d="M47.1096 16.859C48.2261 16.4839 49.1327 15.1809 48.6367 13.6794C48.2827 12.6079 46.9552 11.6407 45.4919 12.1677C42.4057 13.2795 43.9586 17.9192 47.1096 16.859Z" fill="#FEFEFE"/>
</svg>
