<svg width="27" height="27" viewBox="0 0 27 27" fill="none" xmlns="http://www.w3.org/2000/svg">
<path d="M13.5072 0.827996C6.50881 0.827996 0.827996 6.5088 0.827996 13.5C0.827996 20.4912 6.50881 26.172 13.5072 26.172C20.4912 26.172 26.172 20.4912 26.172 13.5C26.172 6.5088 20.4912 0.827996 13.5072 0.827996ZM13.5072 27C6.05521 27 0 20.9448 0 13.5C0 6.0552 6.05521 0 13.5072 0C20.9448 0 27 6.0552 27 13.5C27 20.9448 20.9448 27 13.5072 27Z" fill="#DBE2E7"/>
<path d="M7.53184 18.8275H7.39504C6.43024 18.8275 6.28626 18.2731 6.28626 17.9419C6.28626 17.7835 6.41585 17.6611 6.56705 17.6611C6.72545 17.6611 6.85504 17.7835 6.85504 17.9419C6.85504 18.0859 6.85504 18.2659 7.39504 18.2659H7.53184C7.84864 18.2659 8.10065 18.0067 8.10065 17.6899V11.6923C8.10065 11.3755 7.84864 11.1163 7.53184 11.1163H7.39504C7.07104 11.1163 6.81905 11.3755 6.81905 11.6923V13.6291C6.81905 13.7875 6.68945 13.9099 6.53105 13.9099C6.37985 13.9099 6.25024 13.7875 6.25024 13.6291V11.6923C6.25024 11.0587 6.76144 10.5547 7.39504 10.5547H7.53184C8.16544 10.5547 8.67664 11.0587 8.67664 11.6923V17.6899C8.67664 18.3163 8.16544 18.8275 7.53184 18.8275Z" fill="#1F57C3"/>
<path d="M6.56768 18.222C6.53888 18.222 6.51729 18.222 6.48849 18.2076C5.18529 17.79 4.29248 15.918 4.29248 14.4996C4.29248 13.0308 5.25729 11.5692 6.48849 11.166C6.63249 11.1228 6.79089 11.202 6.84129 11.3532C6.89169 11.4972 6.80529 11.6628 6.66129 11.706C5.66049 12.03 4.85408 13.2828 4.85408 14.4996C4.85408 15.6948 5.64609 17.3436 6.66129 17.6676C6.80529 17.718 6.89169 17.8764 6.84129 18.0276C6.80529 18.15 6.69008 18.222 6.56768 18.222Z" fill="#1F57C3"/>
<path d="M19.196 18.8275H19.052C18.4184 18.8275 17.9072 18.3163 17.9072 17.6899V11.6923C17.9072 11.0587 18.4184 10.5547 19.052 10.5547H19.196C19.8152 10.5547 20.3264 11.0587 20.3264 11.6923V13.7371C20.3264 13.8955 20.204 14.0251 20.0456 14.0251C19.8872 14.0251 19.7648 13.8955 19.7648 13.7371V11.6923C19.7648 11.3755 19.5056 11.1163 19.196 11.1163H19.052C18.728 11.1163 18.476 11.3755 18.476 11.6923V17.6899C18.476 18.0067 18.728 18.2659 19.052 18.2659H19.196C19.7288 18.2659 19.7288 18.0859 19.7288 17.9419C19.7288 17.7835 19.8584 17.6611 20.0096 17.6611C20.168 17.6611 20.2904 17.7835 20.2904 17.9419C20.2904 18.3451 20.1032 18.8275 19.196 18.8275Z" fill="#1F57C3"/>
<path d="M20.0104 18.222C19.888 18.222 19.78 18.15 19.744 18.0276C19.6936 17.8764 19.78 17.718 19.924 17.6676C20.9392 17.3436 21.724 15.6948 21.724 14.4996C21.724 13.2828 20.9176 12.03 19.924 11.706C19.78 11.6628 19.6936 11.4972 19.744 11.3532C19.7872 11.202 19.9456 11.1228 20.0968 11.166C21.328 11.5692 22.2927 13.0308 22.2927 14.4996C22.2927 15.918 21.3856 17.79 20.0968 18.2076C20.068 18.222 20.0392 18.222 20.0104 18.222Z" fill="#1F57C3"/>
<path d="M19.1968 11.1168C19.0384 11.1168 18.9088 10.9943 18.9088 10.8359C18.9088 9.62634 18.5272 8.47435 17.8 7.51675C16.7416 6.11995 15.136 5.32076 13.3936 5.32076C10.3552 5.32076 7.87838 7.79034 7.87838 10.8359C7.87838 10.9943 7.74878 11.1168 7.59038 11.1168C7.43918 11.1168 7.30957 10.9943 7.30957 10.8359C7.30957 7.48074 10.0384 4.75195 13.3936 4.75195C15.316 4.75195 17.0872 5.63034 18.2536 7.17114C19.0528 8.23674 19.4776 9.50394 19.4776 10.8359C19.4776 10.9943 19.348 11.1168 19.1968 11.1168Z" fill="#1F57C3"/>
<path d="M10.1242 8.21418C9.57699 8.21418 8.62658 7.82537 8.51858 7.78217C8.38178 7.72457 8.30979 7.55897 8.36739 7.41497C8.42499 7.27097 8.5978 7.19897 8.7418 7.26377C9.001 7.37177 9.75699 7.65258 10.1242 7.65258C10.2466 7.65258 10.6066 7.44376 10.8946 7.27816C11.5642 6.90376 12.4786 6.39258 13.393 6.39258C14.2066 6.39258 14.8906 6.72377 15.4882 7.01897C15.9202 7.23497 16.2946 7.41498 16.5898 7.40778C17.3602 7.37178 18.0298 7.19178 18.037 7.18458C18.181 7.14138 18.3394 7.23498 18.3826 7.38618C18.4258 7.53738 18.3394 7.68857 18.1882 7.73177C18.1594 7.73897 17.4538 7.94058 16.6114 7.96938C16.1722 7.99098 15.7186 7.76777 15.2362 7.53017C14.689 7.26377 14.0698 6.95418 13.393 6.95418C12.6298 6.95418 11.7874 7.42937 11.1754 7.77497C10.7146 8.03417 10.3834 8.21418 10.1242 8.21418Z" fill="#1F57C3"/>
<path d="M13.1627 20.1235C12.5507 20.1235 12.0611 20.5267 12.0611 21.0235C12.0611 21.5203 12.5507 21.9235 13.1627 21.9235C13.7747 21.9235 14.2715 21.5203 14.2715 21.0235C14.2715 20.5267 13.7747 20.1235 13.1627 20.1235ZM13.1627 22.4923C12.2411 22.4923 11.4851 21.8299 11.4851 21.0235C11.4851 20.2171 12.2411 19.5547 13.1627 19.5547C14.0843 19.5547 14.8331 20.2171 14.8331 21.0235C14.8331 21.8299 14.0843 22.4923 13.1627 22.4923Z" fill="#1F57C3"/>
<path d="M16.9425 21.7448C16.2081 21.7448 15.3729 21.608 14.4657 21.2912C14.3145 21.2408 14.2353 21.0824 14.2857 20.9312C14.3361 20.7872 14.5017 20.708 14.6457 20.7584C18.1521 21.968 19.7505 20.2904 20.1537 19.7504C20.6937 19.0304 20.8305 18.1808 20.4777 17.6912C20.3841 17.5616 20.4129 17.3888 20.5425 17.2952C20.6721 17.2016 20.8449 17.2304 20.9385 17.36C21.4425 18.0584 21.3057 19.16 20.6145 20.0888C19.9377 20.9888 18.6921 21.7448 16.9425 21.7448Z" fill="#1F57C3"/>
</svg>
