<svg width="31" height="19" viewBox="0 0 31 19" fill="none" xmlns="http://www.w3.org/2000/svg">
<path d="M23.7546 11.1198H1.3234C0.590294 11.1198 0 10.4978 0 9.74057C0 8.98334 0.590294 8.36133 1.3234 8.36133H23.7546C24.4782 8.36133 25.0685 8.98334 25.0685 9.74057C25.0685 10.4978 24.4782 11.1198 23.7546 11.1198Z" fill="#FEFEFE"/>
<path d="M29.9813 3.51014H1.01873C0.457002 3.51014 0 2.86108 0 2.10385C0 1.33761 0.457002 0.724609 1.01873 0.724609H29.9813C30.543 0.724609 31 1.33761 31 2.10385C31 2.86108 30.543 3.51014 29.9813 3.51014Z" fill="#FEFEFE"/>
<path d="M29.9813 18.7543H1.01873C0.457002 18.7543 0 18.1052 0 17.348C0 16.5908 0.457002 15.9688 1.01873 15.9688H29.9813C30.543 15.9688 31 16.5908 31 17.348C31 18.1052 30.543 18.7543 29.9813 18.7543Z" fill="#FEFEFE"/>
</svg>
