<svg width="27" height="27" viewBox="0 0 27 27" fill="none" xmlns="http://www.w3.org/2000/svg">
<path d="M13.5072 0.827996C6.50881 0.827996 0.820811 6.5088 0.820811 13.5C0.820811 20.4912 6.50881 26.172 13.5072 26.172C20.4912 26.172 26.1792 20.4912 26.1792 13.5C26.1792 6.5088 20.4912 0.827996 13.5072 0.827996ZM13.5072 27C6.05521 27 0 20.9448 0 13.5C0 6.0552 6.05521 0 13.5072 0C20.9448 0 27 6.0552 27 13.5C27 20.9448 20.9448 27 13.5072 27Z" fill="#DBE2E7"/>
<path d="M9.04299 22.9688C8.99979 22.9688 8.9566 22.9544 8.9134 22.94L5.06139 21.104C4.94619 21.0464 4.88138 20.924 4.89578 20.8016C4.91018 20.744 5.11899 19.4192 5.75979 18.116C6.01899 17.5832 6.3142 17.1296 6.6454 16.7624C6.7534 16.64 6.93338 16.6328 7.05578 16.7336C7.17818 16.8416 7.18538 17.0288 7.07738 17.144C6.78218 17.4752 6.51579 17.8856 6.27819 18.368C5.82459 19.2968 5.6014 20.2616 5.515 20.6792L9.04299 22.3568L12.7078 20.672C12.5494 19.9952 11.995 17.8856 10.7206 16.8128C10.5982 16.7048 10.591 16.5248 10.6918 16.4024C10.7926 16.28 10.9726 16.2656 11.095 16.3664C12.7798 17.7848 13.2982 20.672 13.3198 20.7944C13.3414 20.924 13.2766 21.0536 13.1542 21.104L9.15819 22.94C9.12219 22.9544 9.07899 22.9688 9.04299 22.9688ZM9.04299 16.7336C7.82619 16.7336 6.88298 15.3944 6.51578 14.1488C6.47978 13.9976 6.55898 13.832 6.71738 13.7888C6.86858 13.7456 7.027 13.832 7.0702 13.9832C7.3798 15.0416 8.17899 16.1576 9.04299 16.1576C10.159 16.1576 11.0878 14.3792 11.1382 13.22C11.1454 13.0616 11.2894 12.9392 11.4406 12.9464C11.599 12.9536 11.7286 13.0904 11.7214 13.2488C11.6566 14.6384 10.555 16.7336 9.04299 16.7336ZM9.115 10.2896C7.6318 10.2896 6.42939 11.4992 6.42939 12.9824C6.42939 13.292 6.47259 13.5944 6.52299 13.8176C7.49499 13.6952 9.03579 13.1336 9.78459 12.4784C9.95019 12.3344 10.0654 12.1904 10.1158 12.068C10.1734 11.9456 10.303 11.8736 10.4398 11.9024C10.5766 11.924 10.6702 12.0392 10.6774 12.176C10.6774 12.3776 10.6702 12.5792 10.663 12.7664C10.6486 12.9176 10.6342 13.0472 10.627 13.1552C11.095 13.0688 11.6134 12.9032 11.7862 12.6944C11.6422 11.3408 10.483 10.2896 9.115 10.2896ZM6.307 14.4152C6.1846 14.4152 6.0766 14.336 6.0334 14.2136C5.9398 13.9472 5.84619 13.4792 5.84619 12.9824C5.84619 11.1752 7.3078 9.71358 9.115 9.71358C10.8214 9.71358 12.2542 11.0456 12.3766 12.7448C12.3766 12.8024 12.3694 12.8528 12.3406 12.896C12.0022 13.58 10.5838 13.76 10.303 13.7888C10.2022 13.8032 10.1086 13.76 10.051 13.688C9.98619 13.616 9.9718 13.5224 9.9934 13.4288C9.9934 13.4288 10.0294 13.2776 10.0582 13.004C9.11499 13.76 7.35099 14.3648 6.32139 14.4152C6.31419 14.4152 6.3142 14.4152 6.307 14.4152ZM18.7126 8.11518C18.6478 8.11518 18.5902 8.17279 18.5902 8.23759C18.5902 8.30239 18.6478 8.35998 18.7126 8.35998C18.7846 8.35998 18.835 8.30239 18.835 8.23759C18.835 8.17279 18.7846 8.11518 18.7126 8.11518ZM18.7126 8.93599C18.331 8.93599 18.0142 8.62639 18.0142 8.23759C18.0142 7.84879 18.331 7.53919 18.7126 7.53919C19.1014 7.53919 19.411 7.84879 19.411 8.23759C19.411 8.62639 19.1014 8.93599 18.7126 8.93599ZM16.135 8.11518C16.0702 8.11518 16.0126 8.17279 16.0126 8.23759C16.0126 8.30239 16.0702 8.35998 16.135 8.35998C16.207 8.35998 16.2574 8.30239 16.2574 8.23759C16.2574 8.17279 16.207 8.11518 16.135 8.11518ZM16.135 8.93599C15.7534 8.93599 15.4366 8.62639 15.4366 8.23759C15.4366 7.84879 15.7534 7.53919 16.135 7.53919C16.5238 7.53919 16.8406 7.84879 16.8406 8.23759C16.8406 8.62639 16.5238 8.93599 16.135 8.93599ZM13.5646 8.11518C13.4998 8.11518 13.4422 8.17279 13.4422 8.23759C13.4422 8.30239 13.4998 8.35998 13.5646 8.35998C13.6294 8.35998 13.687 8.30239 13.687 8.23759C13.687 8.17279 13.6294 8.11518 13.5646 8.11518ZM13.5646 8.93599C13.1758 8.93599 12.859 8.62639 12.859 8.23759C12.859 7.84879 13.1758 7.53919 13.5646 7.53919C13.9534 7.53919 14.263 7.84879 14.263 8.23759C14.263 8.62639 13.9534 8.93599 13.5646 8.93599ZM15.6454 12.608C14.6806 12.608 13.7734 12.2984 13.003 11.7224C12.8806 11.6288 12.8518 11.4416 12.9526 11.3192C13.0534 11.1896 13.2334 11.168 13.3558 11.2616C14.0182 11.7656 14.8102 12.0248 15.6454 12.0248C16.9414 12.0248 18.1294 11.3768 18.835 10.2824C18.9142 10.16 19.0726 10.1168 19.2094 10.1816C19.4974 10.3256 19.8214 10.3976 20.1598 10.3976C21.3478 10.3976 22.3198 9.43279 22.3198 8.23759C22.3198 7.04239 21.3478 6.07759 20.1598 6.07759C19.8214 6.07759 19.4974 6.14958 19.2094 6.29358C19.0726 6.35838 18.9142 6.3152 18.835 6.1928C18.1294 5.0984 16.9414 4.4432 15.6454 4.4432C14.8102 4.4432 14.0182 4.70958 13.3558 5.21358C13.2982 5.25678 13.219 5.2784 13.1398 5.2712C13.003 5.2496 12.859 5.24239 12.7222 5.24239C11.0734 5.24239 9.727 6.58159 9.727 8.23759C9.727 8.39599 9.59738 8.52559 9.43898 8.52559C9.28058 8.52559 9.15099 8.39599 9.15099 8.23759C9.15099 6.26479 10.7566 4.65919 12.7222 4.65919C12.8518 4.65919 12.9742 4.66639 13.1038 4.68079C13.8454 4.14799 14.7238 3.86719 15.6454 3.86719C17.0494 3.86719 18.3598 4.53679 19.1806 5.67439C19.4902 5.55919 19.8214 5.49439 20.1598 5.49439C21.6646 5.49439 22.8958 6.72559 22.8958 8.23759C22.8958 9.74959 21.6646 10.9808 20.1598 10.9808C19.8214 10.9808 19.4902 10.9232 19.1806 10.8008C18.3598 11.9384 17.0494 12.608 15.6454 12.608ZM13.0174 15.4376C12.859 15.4376 12.7294 15.5744 12.7294 15.74C12.7294 15.9056 12.859 16.0424 13.0174 16.0424C13.183 16.0424 13.3126 15.9056 13.3126 15.74C13.3126 15.5744 13.183 15.4376 13.0174 15.4376ZM13.0174 16.6256C12.5422 16.6256 12.1462 16.2296 12.1462 15.74C12.1462 15.2504 12.5422 14.8544 13.0174 14.8544C13.507 14.8544 13.8886 15.2504 13.8886 15.74C13.8886 16.2296 13.507 16.6256 13.0174 16.6256ZM14.7886 13.5512C14.5582 13.5512 14.371 13.7456 14.371 13.9832C14.371 14.2136 14.5582 14.408 14.7886 14.408C15.0118 14.408 15.199 14.2136 15.199 13.9832C15.199 13.7456 15.0118 13.5512 14.7886 13.5512ZM14.7886 14.984C14.2414 14.984 13.795 14.5376 13.795 13.9832C13.795 13.4288 14.2414 12.9752 14.7886 12.9752C15.3358 12.9752 15.775 13.4288 15.775 13.9832C15.775 14.5376 15.3358 14.984 14.7886 14.984Z" fill="#1F57C3"/>
</svg>
