<svg width="27" height="27" viewBox="0 0 27 27" fill="none" xmlns="http://www.w3.org/2000/svg">
<path d="M13.5072 0.827996C6.50881 0.827996 0.827996 6.5088 0.827996 13.5C0.827996 20.4912 6.50881 26.172 13.5072 26.172C20.4912 26.172 26.172 20.4912 26.172 13.5C26.172 6.5088 20.4912 0.827996 13.5072 0.827996ZM13.5072 27C6.05521 27 0 20.9448 0 13.5C0 6.0552 6.05521 0 13.5072 0C20.9448 0 27 6.0552 27 13.5C27 20.9448 20.9448 27 13.5072 27Z" fill="#DBE2E7"/>
<path d="M14.646 12.0377C14.466 12.0377 14.286 12.0593 14.106 12.1097C13.0116 12.4049 12.3564 13.5352 12.6516 14.6368C12.8892 15.5368 13.71 16.1633 14.6388 16.1633C14.8188 16.1633 14.9988 16.1416 15.1788 16.0984C16.2732 15.8032 16.9284 14.6729 16.6332 13.5713C16.3956 12.6713 15.5748 12.0377 14.646 12.0377ZM14.6388 16.5737C13.53 16.5737 12.5436 15.8249 12.2556 14.7449C11.9028 13.4273 12.6876 12.0737 14.0052 11.7209C14.214 11.6633 14.43 11.6345 14.646 11.6345C15.7548 11.6345 16.7412 12.3905 17.0292 13.4705C17.382 14.7809 16.5972 16.1345 15.2796 16.4873C15.0708 16.5449 14.8548 16.5737 14.6388 16.5737ZM9.10205 17.6825C9.79325 17.6825 10.4052 18.1001 10.6572 18.7265L20.4132 16.1201C20.3052 15.3569 20.73 14.6153 21.4428 14.3345L20.4204 10.5041C20.3412 10.5185 20.262 10.5257 20.1828 10.5257C19.4988 10.5257 18.8868 10.1009 18.6348 9.47446L8.87164 12.0953C8.97964 12.8513 8.55485 13.5929 7.84205 13.8809L8.86444 17.6968C8.94364 17.6896 9.02285 17.6825 9.10205 17.6825ZM10.5204 19.1729C10.434 19.1729 10.3548 19.1153 10.326 19.0217C10.182 18.4745 9.67805 18.0857 9.10205 18.0857C8.99405 18.0857 8.87883 18.1001 8.77083 18.1289C8.66283 18.1649 8.55484 18.1001 8.52604 17.9921L7.40284 13.8017C7.37404 13.6937 7.43885 13.5784 7.54685 13.5568C8.22365 13.3696 8.62685 12.6713 8.44685 11.9945C8.41085 11.8937 8.47565 11.7785 8.58365 11.7497L18.714 9.03525C18.7644 9.02805 18.8148 9.02805 18.8652 9.05685C18.9084 9.08565 18.9444 9.12886 18.9588 9.17926C19.1028 9.73366 19.614 10.1225 20.1828 10.1225C20.2908 10.1225 20.406 10.1009 20.514 10.0793C20.622 10.0505 20.73 10.1153 20.7588 10.2233L21.882 14.4065C21.9108 14.5217 21.846 14.6224 21.738 14.6584C21.0612 14.8384 20.658 15.5369 20.8452 16.2065C20.8668 16.3145 20.8092 16.4296 20.7012 16.4584L10.578 19.1729C10.5564 19.1729 10.542 19.1729 10.5204 19.1729Z" fill="#1F57C3"/>
<path d="M6.51634 11.879L8.71235 20.1014L22.7667 16.3358L20.5708 8.11339L6.51634 11.879ZM8.57555 20.5406C8.48195 20.5406 8.40276 20.483 8.38116 20.3966L6.06994 11.7854C6.05554 11.735 6.06274 11.6774 6.09154 11.6342C6.12034 11.591 6.16355 11.555 6.21395 11.5406L20.6572 7.667C20.7652 7.6382 20.8804 7.70301 20.9092 7.81101L23.2131 16.415C23.2275 16.4726 23.2203 16.523 23.1915 16.5734C23.1699 16.6238 23.1196 16.6526 23.0692 16.667L8.62596 20.5406C8.61156 20.5406 8.58995 20.5406 8.57555 20.5406Z" fill="#1F57C3"/>
<path d="M7.36006 18.9867C7.26646 18.9867 7.18727 18.9291 7.16567 18.8355L5.13526 11.2611C5.10646 11.1531 5.17125 11.0451 5.27925 11.0091L19.5785 7.17869C19.6937 7.14989 19.8017 7.21468 19.8305 7.32988C19.8593 7.43068 19.7945 7.53868 19.6865 7.57468L5.57445 11.3475L7.55445 18.7347C7.58325 18.8427 7.51846 18.9507 7.41046 18.9867C7.39606 18.9867 7.37446 18.9867 7.36006 18.9867Z" fill="#1F57C3"/>
<path d="M6.55293 18.5043C6.46653 18.5043 6.38732 18.4467 6.35852 18.3531L4.32813 10.7787C4.29933 10.6707 4.36412 10.5627 4.47212 10.5267L18.7785 6.69629C18.8865 6.66749 18.9945 6.7323 19.0233 6.8403C19.0521 6.9483 18.9945 7.05631 18.8793 7.09231L4.77453 10.8651L6.75453 18.2523C6.77613 18.3531 6.71852 18.4683 6.61052 18.4971C6.58892 18.4971 6.57453 18.5043 6.55293 18.5043Z" fill="#1F57C3"/>
</svg>
