<svg width="27" height="27" viewBox="0 0 27 27" fill="none" xmlns="http://www.w3.org/2000/svg">
<path d="M13.5072 0.827996C6.50881 0.827996 0.827996 6.5088 0.827996 13.5C0.827996 20.4912 6.50881 26.172 13.5072 26.172C20.4912 26.172 26.172 20.4912 26.172 13.5C26.172 6.5088 20.4912 0.827996 13.5072 0.827996ZM13.5072 27C6.05521 27 0 20.9448 0 13.5C0 6.0552 6.05521 0 13.5072 0C20.9448 0 27 6.0552 27 13.5C27 20.9448 20.9448 27 13.5072 27Z" fill="#DBE2E7"/>
<path d="M7.59635 20.3533L7.82675 21.7285L9.20916 21.4981C9.20916 20.7925 9.72036 20.1661 10.4404 20.0437C10.5196 20.0293 10.606 20.0221 10.6852 20.0221C11.326 20.0221 11.8804 20.4253 12.082 21.0085L13.234 20.8141C13.234 20.1085 13.7452 19.4821 14.4652 19.3597C14.5516 19.3453 14.638 19.3381 14.7172 19.3381C15.358 19.3381 15.9052 19.7413 16.114 20.3245L17.266 20.1301C17.266 19.8277 17.3523 19.5325 17.5395 19.2805C17.7627 18.9565 18.1084 18.7405 18.4972 18.6757C18.5764 18.6613 18.6628 18.6541 18.742 18.6541C19.3828 18.6541 19.9372 19.0573 20.146 19.6405L21.514 19.4101L21.2836 18.0349C20.5564 18.0349 19.9516 17.5165 19.8292 16.8037C19.7068 16.0837 20.1316 15.3925 20.794 15.1549L20.5995 14.0101C19.8795 14.0029 19.2676 13.4845 19.1452 12.7717C19.0228 12.0517 19.4476 11.3605 20.11 11.1301L19.9156 9.97812C19.1956 9.97812 18.5836 9.45973 18.4612 8.74693C18.3388 8.02693 18.7636 7.33572 19.4332 7.09812L19.1956 5.72294L17.8204 5.95332C17.8204 6.26292 17.7268 6.55813 17.5468 6.81013C17.3236 7.13413 16.978 7.34292 16.5892 7.41492C16.5028 7.42212 16.4236 7.43652 16.3372 7.43652C15.7036 7.43652 15.1492 7.03334 14.9404 6.44294L13.7956 6.63733C13.7884 7.34293 13.2772 7.96933 12.5644 8.09173C12.478 8.10613 12.3916 8.11332 12.3124 8.11332C11.6716 8.11332 11.1172 7.71013 10.9156 7.12693L9.76356 7.32134C9.76356 8.02694 9.25236 8.65333 8.53236 8.77573C8.44596 8.79013 8.36676 8.79733 8.28036 8.79733C7.64676 8.79733 7.09236 8.39414 6.88356 7.81094L5.51556 8.04134L5.74597 9.41652C6.46597 9.41652 7.07796 9.93492 7.20036 10.6549C7.32276 11.3749 6.89796 12.0589 6.23556 12.2965L6.42995 13.4485C7.14995 13.4485 7.76197 13.9669 7.88437 14.6797C7.99957 15.3997 7.58196 16.0909 6.91236 16.3285L7.10675 17.4733C7.82675 17.4805 8.44597 17.9989 8.56117 18.7117C8.63317 19.1005 8.53956 19.4893 8.30916 19.8133C8.12916 20.0653 7.88435 20.2525 7.59635 20.3533ZM7.61795 22.2757C7.50275 22.2757 7.39475 22.1893 7.37315 22.0669L7.05635 20.2093C7.04915 20.1445 7.06355 20.0725 7.09955 20.0221C7.14275 19.9645 7.20035 19.9285 7.26515 19.9141C7.52435 19.8709 7.74756 19.7341 7.89876 19.5181C8.04996 19.3093 8.10756 19.0501 8.05716 18.7909C7.98516 18.3229 7.58195 17.9845 7.09955 17.9845C7.04915 17.9845 6.99157 17.9845 6.94117 17.9989C6.87637 18.0061 6.80436 17.9917 6.75396 17.9557C6.69636 17.9125 6.66035 17.8549 6.65315 17.7901L6.37236 16.1845C6.35076 16.0405 6.44435 15.9109 6.58835 15.8893C7.11395 15.7957 7.47396 15.2917 7.38036 14.7661C7.30116 14.2981 6.89797 13.9525 6.42277 13.9525C6.37237 13.9525 6.30756 13.9597 6.25716 13.9669C6.19236 13.9813 6.12035 13.9669 6.06995 13.9237C6.01235 13.8877 5.97636 13.8229 5.96916 13.7581L5.68835 12.1525C5.68115 12.0877 5.69555 12.0157 5.73155 11.9653C5.77475 11.9077 5.83957 11.8717 5.90437 11.8573C6.42997 11.7709 6.78995 11.2669 6.69635 10.7341C6.61715 10.2661 6.21396 9.92774 5.73876 9.92774C5.68836 9.92774 5.63075 9.92772 5.57315 9.93492C5.43635 9.96372 5.30675 9.87012 5.27795 9.73332L4.96835 7.87573C4.96115 7.81093 4.97555 7.74613 5.01155 7.68853C5.04755 7.63093 5.11236 7.59493 5.17716 7.58053L7.03475 7.27094C7.09955 7.25654 7.16436 7.27094 7.22196 7.31414C7.27236 7.35014 7.31557 7.41494 7.32277 7.47974C7.40197 7.94774 7.80516 8.28614 8.28036 8.28614C8.33796 8.28614 8.39557 8.28613 8.44597 8.27173C8.97877 8.18533 9.33875 7.68133 9.24515 7.15573C9.22355 7.01173 9.31716 6.88213 9.45396 6.86053L11.0595 6.58693C11.2035 6.56533 11.326 6.65893 11.3476 6.79573C11.434 7.26373 11.8372 7.60934 12.3124 7.60934C12.3628 7.60934 12.4203 7.60212 12.4779 7.59492C13.0035 7.50132 13.3636 6.99733 13.27 6.47173C13.2484 6.33493 13.342 6.19812 13.486 6.17652L15.0916 5.90294C15.1492 5.89574 15.2212 5.91014 15.2788 5.94614C15.3292 5.98934 15.3651 6.04693 15.3795 6.11173C15.4587 6.57973 15.862 6.92533 16.3372 6.92533C16.3948 6.92533 16.4524 6.91814 16.5028 6.91094C16.762 6.86774 16.9851 6.72372 17.1363 6.51492C17.2875 6.30612 17.3452 6.04694 17.302 5.78774C17.2804 5.65094 17.374 5.52134 17.5108 5.49254L19.3612 5.18294C19.5052 5.15414 19.6347 5.24773 19.6563 5.39173L19.9732 7.24213C19.9804 7.30693 19.966 7.37892 19.93 7.43652C19.8868 7.48692 19.8292 7.52293 19.7644 7.53733C19.5052 7.58053 19.282 7.71732 19.1308 7.93332C18.9796 8.14212 18.922 8.40133 18.9652 8.66053C19.0444 9.12853 19.4476 9.47414 19.9228 9.47414C19.9804 9.47414 20.038 9.46694 20.0884 9.45974C20.1532 9.44534 20.2252 9.45974 20.2756 9.50294C20.3332 9.53894 20.3692 9.59654 20.3836 9.66134L20.6572 11.2741C20.6788 11.4109 20.5852 11.5405 20.4484 11.5621C19.9156 11.6557 19.5556 12.1597 19.6492 12.6853C19.7212 13.1605 20.1316 13.4989 20.6068 13.4989C20.6644 13.4989 20.7148 13.4917 20.7652 13.4845C20.9092 13.4629 21.0388 13.5565 21.0676 13.6933L21.334 15.2989C21.3628 15.4357 21.262 15.5725 21.1324 15.5941C20.5996 15.6805 20.2396 16.1845 20.326 16.7173C20.4052 17.1853 20.8156 17.5309 21.2836 17.5309C21.3484 17.5309 21.3988 17.5237 21.4492 17.5165C21.514 17.5021 21.586 17.5165 21.6436 17.5597C21.694 17.5957 21.73 17.6533 21.7444 17.7253L22.0612 19.5757C22.0828 19.7125 21.9892 19.8493 21.8524 19.8709L20.002 20.1805C19.93 20.1949 19.8652 20.1805 19.8076 20.1373C19.75 20.1013 19.7139 20.0437 19.6995 19.9789C19.6275 19.5037 19.2244 19.1653 18.742 19.1653C18.6916 19.1653 18.634 19.1653 18.5836 19.1797C18.3244 19.2229 18.1012 19.3597 17.95 19.5757C17.7988 19.7845 17.7412 20.0437 17.7844 20.3029C17.7988 20.3677 17.7772 20.4325 17.7412 20.4901C17.698 20.5477 17.6404 20.5837 17.5756 20.5909L15.97 20.8645C15.898 20.8789 15.8332 20.8645 15.7828 20.8213C15.7252 20.7853 15.6819 20.7277 15.6748 20.6557C15.5955 20.1877 15.1924 19.8493 14.7172 19.8493C14.6596 19.8493 14.6092 19.8493 14.5516 19.8565C14.0188 19.9501 13.6659 20.4541 13.7595 20.9797C13.7811 21.1237 13.6876 21.2533 13.5508 21.2749L11.9452 21.5485C11.8012 21.5701 11.6716 21.4765 11.65 21.3397C11.5636 20.8717 11.1676 20.5261 10.6852 20.5261C10.6348 20.5261 10.5772 20.5333 10.5268 20.5405C9.99395 20.6341 9.64116 21.1381 9.72756 21.6637C9.74916 21.8005 9.65556 21.9373 9.51876 21.9589L7.66117 22.2757C7.65397 22.2757 7.63235 22.2757 7.61795 22.2757Z" fill="#1F57C3"/>
<path d="M9.69194 19.3597C9.56954 19.3597 9.46155 19.2733 9.44715 19.1509L8.10075 11.2597C8.07915 11.1229 8.17274 10.9932 8.31674 10.9716C8.45354 10.9428 8.58316 11.0364 8.60476 11.1732L9.90075 18.8125L18.6055 17.3436L17.1296 8.63885L9.36075 9.95644C9.21675 9.97804 9.08715 9.88446 9.06555 9.74766C9.04395 9.61086 9.13755 9.47405 9.27435 9.45245L17.2951 8.09164C17.3599 8.08444 17.4319 8.09884 17.4823 8.13484C17.5399 8.17804 17.5759 8.23565 17.5903 8.30045L19.1455 17.5093C19.1671 17.6461 19.0807 17.7757 18.9367 17.7973L9.73514 19.3597C9.72074 19.3597 9.70634 19.3597 9.69194 19.3597Z" fill="#1F57C3"/>
<path d="M16.1144 17.0117C15.992 17.0117 15.884 16.9253 15.8624 16.8029L15.6967 15.8093C15.6823 15.7445 15.7039 15.6725 15.7399 15.6221C15.7831 15.5645 15.8336 15.5285 15.9056 15.5141L17.792 15.1973L15.2144 10.8557L14.0336 15.8309L14.7032 15.7229C14.8472 15.6941 14.9767 15.7877 14.9983 15.9245C15.0271 16.0685 14.9336 16.1981 14.7896 16.2197L13.7383 16.3997C13.6519 16.4141 13.5728 16.3853 13.508 16.3205C13.4504 16.2629 13.4288 16.1693 13.4504 16.0901L14.876 10.1285C14.8976 10.0277 14.984 9.94848 15.0848 9.93408C15.1784 9.91968 15.2791 9.97009 15.3367 10.0565L18.4183 15.2549C18.4615 15.3269 18.4616 15.4133 18.4328 15.4925C18.3968 15.5717 18.3248 15.6221 18.2456 15.6365L16.244 15.9749L16.3664 16.7165C16.388 16.8533 16.2944 16.9829 16.1576 17.0045C16.1432 17.0117 16.1288 17.0117 16.1144 17.0117Z" fill="#1F57C3"/>
<path d="M11.708 11.2026C11.6504 11.2026 11.6 11.2098 11.5424 11.217C11.2976 11.2602 11.0744 11.397 10.9304 11.5986C10.7864 11.8074 10.7288 12.0594 10.772 12.3042C10.844 12.765 11.24 13.0962 11.7008 13.0962C11.7584 13.0962 11.8088 13.089 11.8664 13.0818C12.1112 13.0386 12.3272 12.9018 12.4712 12.7002C12.6224 12.4914 12.6728 12.2394 12.6296 11.9874C12.5576 11.5338 12.1616 11.2026 11.708 11.2026ZM11.7008 13.6002C10.988 13.6002 10.3832 13.0962 10.268 12.3906C10.2032 12.009 10.2968 11.6202 10.5128 11.3106C10.7432 10.9866 11.0744 10.7778 11.456 10.713C11.5424 10.6986 11.6288 10.6914 11.708 10.6914C12.4208 10.6914 13.0184 11.2026 13.1336 11.9082C13.1984 12.2898 13.112 12.6714 12.8888 12.9882C12.6656 13.305 12.3272 13.5138 11.9456 13.5786C11.8664 13.593 11.78 13.6002 11.7008 13.6002Z" fill="#1F57C3"/>
<path d="M9.18004 16.3424C9.12244 16.3424 9.06484 16.328 9.02164 16.2848C8.91364 16.1912 8.89205 16.0328 8.98565 15.9248C9.02885 15.8816 10.0296 14.7296 11.88 14.3768C13.7808 14.024 14.1192 14.6432 14.1696 14.7728C14.2128 14.9024 14.148 15.0464 14.0184 15.0968C13.8888 15.1472 13.752 15.0896 13.7016 14.9672C13.6224 14.8664 13.1832 14.6504 11.9736 14.8736C10.3032 15.1904 9.38163 16.2488 9.37443 16.256C9.32403 16.3136 9.25204 16.3424 9.18004 16.3424Z" fill="#1F57C3"/>
</svg>
