<svg width="27" height="27" viewBox="0 0 27 27" fill="none" xmlns="http://www.w3.org/2000/svg">
<path d="M13.5072 0.827996C6.50881 0.827996 0.827996 6.5088 0.827996 13.5C0.827996 20.4912 6.50881 26.172 13.5072 26.172C20.4912 26.172 26.172 20.4912 26.172 13.5C26.172 6.5088 20.4912 0.827996 13.5072 0.827996ZM13.5072 27C6.05521 27 0 20.9448 0 13.5C0 6.0552 6.05521 0 13.5072 0C20.9448 0 27 6.0552 27 13.5C27 20.9448 20.9448 27 13.5072 27ZM6.0552 10.1016C6.0552 7.956 7.79761 6.2064 9.95041 6.2064C11.7144 6.2064 13.2624 7.4016 13.716 9.108C13.7592 9.2952 13.9464 9.40319 14.1336 9.35279C14.3208 9.30239 14.4288 9.1152 14.3784 8.9352C13.8528 6.9264 12.0312 5.52241 9.95041 5.52241C7.42321 5.52241 5.36401 7.5744 5.36401 10.1016C5.36401 12.1824 6.77521 14.0112 8.78401 14.5368C8.81281 14.544 8.84879 14.544 8.87759 14.544C9.02879 14.544 9.16561 14.4432 9.20881 14.2848C9.25921 14.1048 9.14401 13.9176 8.96401 13.8672C7.25041 13.4208 6.0552 11.8728 6.0552 10.1016ZM10.5768 10.5192L21.132 14.2632L19.4544 14.6736L19.6272 15.3432L22.4136 14.6592L22.4496 13.9968L10.1232 9.6264L9.68401 10.0656L14.0544 22.392C14.1048 22.5288 14.2344 22.6224 14.3784 22.6224L14.7168 22.356L15.6528 18.54L19.4904 22.3704C19.62 22.5072 19.836 22.5072 19.9728 22.3704L22.5288 19.6704L19.44 16.4376L18.9504 16.9272L21.6936 19.6704L19.728 21.6432L15.7104 17.6184H15.2208L14.3208 21.0744L10.5768 10.5192Z" fill="#DBE2E7"/>
<path fill-rule="evenodd" clip-rule="evenodd" d="M22.4497 13.9974L10.1233 9.62695L9.68408 10.0662L14.0545 22.3926C14.1049 22.5294 14.2345 22.623 14.3785 22.623L14.7169 22.3565L15.6529 18.5406L19.4905 22.371C19.6201 22.5078 19.8361 22.5078 19.9729 22.371L22.5289 19.671L19.4401 16.4381L18.9505 16.9278L21.6937 19.671L19.7281 21.6438L15.7105 17.619H15.2209L14.3209 21.0749L10.5769 10.5197L21.1321 14.2638L19.4545 14.6742L19.6273 15.3438L22.4137 14.6597L22.4497 13.9974Z" fill="#1F57C3"/>
<path fill-rule="evenodd" clip-rule="evenodd" d="M14.1339 9.35187C14.3211 9.30147 14.429 9.11428 14.3786 8.93428C13.853 6.92548 12.0315 5.52148 9.95065 5.52148C7.42345 5.52148 5.36426 7.57347 5.36426 10.1007C5.36426 12.1815 6.77546 14.0103 8.78426 14.5359C8.81306 14.5431 8.84904 14.5431 8.87784 14.5431C9.02904 14.5431 9.16585 14.4423 9.20905 14.2839C9.25945 14.1039 9.14426 13.9167 8.96426 13.8663C7.25066 13.4199 6.05545 11.8719 6.05545 10.1007C6.05545 7.95507 7.79785 6.20547 9.95065 6.20547C11.7147 6.20547 13.2626 7.40067 13.7162 9.10707C13.7594 9.29427 13.9467 9.40227 14.1339 9.35187Z" fill="#1F57C3"/>
</svg>
