<svg width="27" height="27" viewBox="0 0 27 27" fill="none" xmlns="http://www.w3.org/2000/svg">
<path d="M13.5072 0.827996C6.50881 0.827996 0.827996 6.5088 0.827996 13.5C0.827996 20.4912 6.50881 26.172 13.5072 26.172C20.4912 26.172 26.172 20.4912 26.172 13.5C26.172 6.5088 20.4912 0.827996 13.5072 0.827996ZM13.5072 27C6.05521 27 0 20.9448 0 13.5C0 6.0552 6.05521 0 13.5072 0C20.9448 0 27 6.0552 27 13.5C27 20.9448 20.9448 27 13.5072 27Z" fill="#DBE2E7"/>
<path d="M20.7864 22.5C20.3544 22.5 19.944 22.3272 19.6344 22.0248L15.9912 18.3888C13.0464 20.232 9.17999 19.8072 6.69599 17.3232C5.27759 15.912 4.5 14.0184 4.5 12.0096C4.5 10.0008 5.27759 8.1144 6.69599 6.7032C8.11439 5.2848 10.0008 4.5 12.0096 4.5C14.0184 4.5 15.9048 5.2848 17.3232 6.7032C19.8648 9.2376 20.2536 13.2408 18.2448 16.2144C18.1512 16.3512 17.964 16.38 17.82 16.2936C17.6832 16.1928 17.6472 16.0056 17.7408 15.8616C19.5768 13.14 19.224 9.468 16.8912 7.1352C15.588 5.832 13.8528 5.112 12.0096 5.112C10.1664 5.112 8.4384 5.832 7.1352 7.1352C5.832 8.4384 5.112 10.1736 5.112 12.0096C5.112 13.8528 5.832 15.5952 7.1352 16.8912C9.4608 19.224 13.1328 19.584 15.8616 17.7408C15.984 17.6616 16.1496 17.676 16.2504 17.7768L20.0664 21.5928C20.2608 21.7872 20.5128 21.8952 20.7864 21.8952C21.06 21.8952 21.312 21.7872 21.5064 21.5928L21.5928 21.5136C21.9888 21.1104 21.9888 20.4624 21.5928 20.0736L18.8712 17.352C18.7488 17.2296 18.7488 17.0424 18.8712 16.92C18.9936 16.7976 19.188 16.7976 19.3032 16.92L22.0248 19.6344C22.3344 19.944 22.5 20.3544 22.5 20.7864C22.5 21.2256 22.3344 21.6288 22.0248 21.9384L21.9384 22.0248C21.6288 22.3272 21.2256 22.5 20.7864 22.5ZM11.736 14.5224C11.6352 14.5224 11.5272 14.4792 11.4552 14.4L9.17279 11.9664C9.02159 11.808 9.02881 11.5704 9.18721 11.4264C9.33841 11.2752 9.5832 11.2824 9.72 11.4408L11.7216 13.572L15.1272 9.61919C15.264 9.45359 15.5088 9.43919 15.66 9.57599C15.8256 9.71279 15.84 9.95759 15.7032 10.116L12.0312 14.3928C11.9592 14.472 11.8512 14.5224 11.7432 14.5224H11.736Z" fill="#1F57C3"/>
</svg>
