<svg width="27" height="27" viewBox="0 0 27 27" fill="none" xmlns="http://www.w3.org/2000/svg">
<path d="M13.5072 0.827996C6.50881 0.827996 0.827996 6.5088 0.827996 13.5C0.827996 20.4912 6.50881 26.172 13.5072 26.172C20.4912 26.172 26.172 20.4912 26.172 13.5C26.172 6.5088 20.4912 0.827996 13.5072 0.827996ZM13.5072 27C6.05521 27 0 20.9448 0 13.5C0 6.0552 6.05521 0 13.5072 0C20.9448 0 27 6.0552 27 13.5C27 20.9448 20.9448 27 13.5072 27Z" fill="#DBE2E7"/>
<path d="M20.2678 8.11508L21.823 8.15109C21.6934 7.22949 21.3334 6.09909 20.8366 6.04149C20.6566 6.22149 20.455 7.04948 20.2678 8.11508ZM13.5862 20.8879C13.5286 20.8879 13.471 20.8735 13.4278 20.8375C13.327 20.7583 13.3126 20.6143 13.399 20.5207C13.8886 19.9951 13.9678 18.8647 14.0254 17.8711C14.1118 16.5463 14.1982 15.3007 15.2278 15.3007C16.1566 15.3007 16.387 16.1791 16.6102 16.9567C16.8334 17.7991 17.0134 18.3175 17.5678 18.3175C17.5822 18.3175 17.9422 18.2887 18.4318 16.1359C18.7414 14.7535 19.015 12.9463 19.2742 11.2039C19.4542 10.0231 19.5982 9.07988 19.735 8.32388C19.735 8.30228 19.7422 8.28069 19.7422 8.26629C20.1094 6.19269 20.3614 5.58789 20.8006 5.58789C22.003 5.58789 22.291 7.89908 22.3342 8.36708C22.3486 8.43188 22.3198 8.49667 22.2766 8.53987C22.219 8.59027 22.1614 8.61188 22.0894 8.61188L20.1814 8.56149C20.0302 9.41829 19.8862 10.3831 19.7638 11.2615C18.9934 16.3663 18.5254 18.7639 17.5678 18.7639C16.5958 18.7639 16.351 17.8639 16.135 17.0647C15.9118 16.2439 15.7318 15.7471 15.2278 15.7471C14.659 15.7471 14.587 16.7911 14.515 17.8999C14.443 19.0159 14.3638 20.1679 13.7662 20.8087C13.723 20.8591 13.6582 20.8879 13.5862 20.8879Z" fill="#1F57C3"/>
<path d="M10.188 14.5159C10.1736 14.5159 10.1592 14.5087 10.1376 14.5087C10.008 14.4871 9.92165 14.3719 9.94325 14.2495C10.2168 12.9247 10.4256 11.4631 10.6128 10.1743C11.1168 6.71109 11.3256 5.58789 11.9448 5.58789H20.8009C20.9377 5.58789 21.0457 5.68867 21.0457 5.81827C21.0457 5.94067 20.9377 6.04149 20.8009 6.04149H11.9809C11.6641 6.29349 11.3473 8.47508 11.0953 10.2319C10.9081 11.5279 10.6921 12.9967 10.4257 14.3287C10.4041 14.4367 10.3032 14.5159 10.188 14.5159Z" fill="#1F57C3"/>
<path d="M13.5863 20.888H4.73028C4.63668 20.888 4.55028 20.8376 4.50708 20.7584C4.47108 20.6792 4.48548 20.5856 4.55028 20.5208C5.03988 19.9952 5.11187 18.8648 5.17667 17.8712C5.26307 16.5464 5.34946 15.3008 6.37906 15.3008C6.51586 15.3008 6.62388 15.4016 6.62388 15.524C6.62388 15.6464 6.51586 15.7472 6.37906 15.7472C5.80306 15.7472 5.73106 16.7912 5.65906 17.9C5.60146 18.8216 5.53668 19.7792 5.18388 20.4416H13.5863C13.7159 20.4416 13.8311 20.5424 13.8311 20.6648C13.8311 20.7872 13.7159 20.888 13.5863 20.888Z" fill="#1F57C3"/>
<path d="M15.2281 15.7472H6.37932C6.24252 15.7472 6.13452 15.6464 6.13452 15.524C6.13452 15.4016 6.24252 15.3008 6.37932 15.3008H15.2281C15.3649 15.3008 15.4729 15.4016 15.4729 15.524C15.4729 15.6464 15.3649 15.7472 15.2281 15.7472Z" fill="#1F57C3"/>
<path d="M17.3302 18.7355H14.2198C14.0902 18.7355 13.9822 18.6347 13.9822 18.5123C13.9822 18.3899 14.0902 18.2891 14.2198 18.2891H17.3302C17.467 18.2891 17.575 18.3899 17.575 18.5123C17.575 18.6347 17.467 18.7355 17.3302 18.7355Z" fill="#1F57C3"/>
<path d="M15.7752 8.04991H12.8664C12.7296 8.04991 12.6216 7.94911 12.6216 7.82671C12.6216 7.70431 12.7296 7.60352 12.8664 7.60352H15.7752C15.912 7.60352 16.02 7.70431 16.02 7.82671C16.02 7.94911 15.912 8.04991 15.7752 8.04991Z" fill="#1F57C3"/>
<path d="M18.2018 9.36827H12.6506C12.5138 9.36827 12.4058 9.26747 12.4058 9.14507C12.4058 9.02267 12.5138 8.92188 12.6506 8.92188H18.2018C18.3386 8.92188 18.4466 9.02267 18.4466 9.14507C18.4466 9.26747 18.3386 9.36827 18.2018 9.36827Z" fill="#1F57C3"/>
<path d="M18.0144 10.6788H12.4704C12.3336 10.6788 12.2256 10.5852 12.2256 10.4556C12.2256 10.3332 12.3336 10.2324 12.4704 10.2324H18.0144C18.1512 10.2324 18.2664 10.3332 18.2664 10.4556C18.2664 10.5852 18.1512 10.6788 18.0144 10.6788Z" fill="#1F57C3"/>
<path d="M17.8344 11.9972H12.2905C12.1537 11.9972 12.0457 11.8964 12.0457 11.774C12.0457 11.6516 12.1537 11.5508 12.2905 11.5508H17.8344C17.9712 11.5508 18.0792 11.6516 18.0792 11.774C18.0792 11.8964 17.9712 11.9972 17.8344 11.9972Z" fill="#1F57C3"/>
<path d="M17.6539 13.313H12.1027C11.9659 13.313 11.8579 13.2122 11.8579 13.0826C11.8579 12.9602 11.9659 12.8594 12.1027 12.8594H17.6539C17.7907 12.8594 17.8987 12.9602 17.8987 13.0826C17.8987 13.2122 17.7907 13.313 17.6539 13.313Z" fill="#1F57C3"/>
</svg>
