<svg width="27" height="27" viewBox="0 0 27 27" fill="none" xmlns="http://www.w3.org/2000/svg">
<path d="M13.5072 0.827996C6.50881 0.827996 0.820811 6.5088 0.820811 13.5C0.820811 20.4912 6.50881 26.172 13.5072 26.172C20.4912 26.172 26.1792 20.4912 26.1792 13.5C26.1792 6.5088 20.4912 0.827996 13.5072 0.827996ZM13.5072 27C6.05521 27 0 20.9448 0 13.5C0 6.0552 6.05521 0 13.5072 0C20.9448 0 27 6.0552 27 13.5C27 20.9448 20.9448 27 13.5072 27Z" fill="#DBE2E7"/>
<path d="M19.1591 12.2909C19.1231 12.2909 19.0871 12.2837 19.0511 12.2621C17.1791 11.2757 14.2992 11.3765 14.2704 11.3765C14.2128 11.3765 14.1479 11.3477 14.0975 11.3045C14.0543 11.2541 14.0327 11.1821 14.0399 11.1173L14.1624 10.2029C14.1768 10.0733 14.2919 9.98693 14.4143 10.0085C14.5439 10.0229 14.6303 10.1381 14.6159 10.2605L14.5224 10.9229C15.264 10.9157 17.3231 10.9805 18.9431 11.7077C19.0223 10.3037 19.4183 9.36052 19.8431 8.35972C20.0591 7.84852 20.2823 7.33014 20.4695 6.71094C19.2023 5.66694 16.9631 5.73894 16.9415 5.73894C16.8191 5.74614 16.7111 5.64534 16.7111 5.52294C16.7039 5.39334 16.7976 5.29253 16.9272 5.28533C17.028 5.27813 19.5048 5.19893 20.8872 6.47333C20.952 6.53093 20.9736 6.61733 20.952 6.70373C20.736 7.40213 20.4984 7.97812 20.2608 8.53972C19.8 9.61972 19.4112 10.5557 19.3824 12.0677C19.3824 12.1469 19.3391 12.2189 19.2743 12.2621C19.2383 12.2837 19.2023 12.2909 19.1591 12.2909ZM11.5488 21.8165C11.4552 21.8165 11.3112 21.7661 11.2824 21.6725L6.01914 5.65972C5.98314 5.55892 6.01915 5.44373 6.11995 5.39333C6.17755 5.36453 11.9015 2.24693 17.2727 4.13333C17.3807 4.16933 17.4384 4.28452 17.4168 4.39972L16.1568 9.95094C16.1352 10.0085 16.0992 10.0661 16.0488 10.0949C15.984 10.1237 15.9191 10.1309 15.8615 10.1093C15.8327 10.1021 12.4992 9.06535 8.94236 10.9013C8.82716 10.9589 8.69034 10.9157 8.63274 10.8077C8.57514 10.6925 8.62555 10.5557 8.73355 10.4981C11.952 8.84213 14.9183 9.39654 15.7679 9.61254L16.9272 4.49333C12.3048 2.98133 7.45195 5.22774 6.50155 5.70294L11.7504 21.6653C11.7936 21.7877 11.7863 21.7733 11.6711 21.8165C11.6423 21.8237 11.5776 21.8165 11.5488 21.8165ZM15.0911 19.7573C15.0479 19.7573 15.0119 19.7501 14.9759 19.7213C14.9687 19.7141 13.9319 19.0877 13.1615 19.2533C13.0319 19.2821 12.9167 19.2029 12.8879 19.0805C12.8663 18.9581 12.9456 18.8357 13.0608 18.8141C14.0184 18.6125 15.1632 19.3109 15.2136 19.3397C15.3216 19.4045 15.3504 19.5413 15.2856 19.6493C15.2424 19.7213 15.1703 19.7573 15.0911 19.7573ZM15.4943 21.9533C15.3935 21.9533 15.2999 21.8885 15.2783 21.7877C15.228 21.6077 14.2127 17.4461 15.2279 15.4805C15.0911 15.3221 14.7527 15.0197 14.1191 15.0413C13.4495 15.0701 13.0895 15.3077 12.9527 15.4229C13.0247 16.1717 13.4567 20.6285 13.7447 21.6725C13.7735 21.7949 13.7015 21.9173 13.5791 21.9461C13.4567 21.9821 13.3344 21.9101 13.3056 21.7877C12.9888 20.6213 12.5135 15.5741 12.4991 15.3581C12.4919 15.3005 12.5135 15.2429 12.5495 15.1997C12.5639 15.1709 13.0103 14.6309 14.1047 14.5877C15.2279 14.5517 15.6744 15.3221 15.6888 15.3509C15.732 15.4229 15.732 15.5093 15.6888 15.5813C14.652 17.3237 15.7031 21.6293 15.7175 21.6797C15.7463 21.7949 15.6744 21.9173 15.552 21.9533C15.5304 21.9533 15.5087 21.9533 15.4943 21.9533ZM10.5479 16.6325C10.3895 16.6325 10.2239 16.6181 10.0511 16.5893C9.92874 16.5677 9.84234 16.4525 9.87114 16.3301C9.88554 16.2077 10.0008 16.1213 10.1304 16.1429C11.5416 16.3877 12.5496 15.3221 12.5568 15.3077C12.6432 15.2141 12.7872 15.2141 12.8736 15.3005C12.9672 15.3797 12.9743 15.5237 12.8879 15.6173C12.8447 15.6605 11.9303 16.6325 10.5479 16.6325ZM14.2056 12.4925C13.9176 12.4925 13.824 12.6005 13.7808 12.6869C13.6008 13.0469 13.8743 13.8389 14.1263 14.2853C14.4143 14.0117 14.9688 13.2701 14.8968 12.8381C14.8824 12.7661 14.8535 12.5789 14.4431 12.5141C14.3567 12.4997 14.2776 12.4925 14.2056 12.4925ZM14.0688 14.8253C13.9968 14.8253 13.9247 14.7893 13.8743 14.7245C13.5935 14.3429 13.0463 13.1477 13.3775 12.4853C13.4855 12.2837 13.7088 12.0389 14.2056 12.0389C14.2992 12.0389 14.4 12.0461 14.5152 12.0677C15.084 12.1613 15.3936 12.4997 15.3504 13.0037C15.2928 13.7237 14.4 14.8253 14.0688 14.8253ZM16.4736 18.0221C16.4592 18.0221 16.4519 18.0221 16.4375 18.0221C16.3151 18.0005 16.236 17.8853 16.2504 17.7629C16.4664 16.4669 15.4079 15.6821 15.3647 15.6461C15.2567 15.5741 15.2423 15.4301 15.3143 15.3293C15.3863 15.2285 15.5304 15.2069 15.624 15.2789C15.6888 15.3221 16.956 16.2581 16.6968 17.8349C16.6752 17.9429 16.5816 18.0221 16.4736 18.0221ZM22.2552 23.3285H17.7263C17.6039 23.3285 17.5031 23.2277 17.5031 23.0981V21.9533H10.8143V22.5005C10.8143 22.6301 10.7136 22.7309 10.5984 22.7309H3.70076C3.57836 22.7309 3.47754 22.6301 3.47754 22.5005C3.47754 22.3781 3.57836 22.2773 3.70076 22.2773H10.3679V21.7301C10.3679 21.6077 10.4688 21.5069 10.5984 21.5069H17.7263C17.8559 21.5069 17.9568 21.6077 17.9568 21.7301V22.8749H22.2552C22.3776 22.8749 22.4783 22.9757 22.4783 23.0981C22.4783 23.2277 22.3776 23.3285 22.2552 23.3285Z" fill="#1F57C3"/>
</svg>
