<svg width="27" height="27" viewBox="0 0 27 27" fill="none" xmlns="http://www.w3.org/2000/svg">
<path d="M13.5072 0.827996C6.50881 0.827996 0.827996 6.5088 0.827996 13.5C0.827996 20.4912 6.50881 26.172 13.5072 26.172C20.4912 26.172 26.172 20.4912 26.172 13.5C26.172 6.5088 20.4912 0.827996 13.5072 0.827996ZM13.5072 27C6.05521 27 0 20.9448 0 13.5C0 6.0552 6.05521 0 13.5072 0C20.9448 0 27 6.0552 27 13.5C27 20.9448 20.9448 27 13.5072 27Z" fill="#DBE2E7"/>
<path d="M18.6772 21.5706H6.25718C5.53718 21.5706 4.94678 20.9803 4.94678 20.2531V11.7499C4.94678 11.0299 5.53718 10.4395 6.25718 10.4395H18.6772C19.4044 10.4395 19.9948 11.0299 19.9948 11.7499V14.3274C19.9948 14.4786 19.8724 14.6011 19.7212 14.6011C19.57 14.6011 19.4476 14.4786 19.4476 14.3274V11.7499C19.4476 11.3323 19.102 10.9867 18.6772 10.9867H6.25718C5.83958 10.9867 5.49398 11.3323 5.49398 11.7499V20.2531C5.49398 20.6779 5.83958 21.0235 6.25718 21.0235H18.6772C19.102 21.0235 19.4476 20.6779 19.4476 20.2531V17.6827C19.4476 17.5315 19.57 17.409 19.7212 17.409C19.8724 17.409 19.9948 17.5315 19.9948 17.6827V20.2531C19.9948 20.9803 19.4044 21.5706 18.6772 21.5706Z" fill="#1F57C3"/>
<path d="M15.8619 14.6019C15.4083 14.6019 15.0411 14.9691 15.0411 15.4227V16.5891C15.0411 17.0427 15.4083 17.4099 15.8619 17.4099H19.2531C19.7067 17.4099 20.0739 17.0427 20.0739 16.5891V15.4227C20.0739 14.9691 19.7067 14.6019 19.2531 14.6019H15.8619ZM19.2531 17.9571H15.8619C15.1059 17.9571 14.4939 17.3451 14.4939 16.5891V15.4227C14.4939 14.6667 15.1059 14.0547 15.8619 14.0547H19.2531C20.0091 14.0547 20.6211 14.6667 20.6211 15.4227V16.5891C20.6211 17.3451 20.0091 17.9571 19.2531 17.9571Z" fill="#1F57C3"/>
<path d="M16.9996 16.0046C16.9996 15.6662 16.726 15.3926 16.3876 15.3926C16.0492 15.3926 15.7756 15.6662 15.7756 16.0046C15.7756 16.343 16.0492 16.6166 16.3876 16.6166C16.726 16.6166 16.9996 16.343 16.9996 16.0046Z" fill="#1F57C3"/>
<path d="M18.8864 18.6106C18.7352 18.6106 18.6128 18.4882 18.6128 18.337V17.6818C18.6128 17.5306 18.7352 17.4082 18.8864 17.4082C19.0376 17.4082 19.16 17.5306 19.16 17.6818V18.337C19.16 18.4882 19.0376 18.6106 18.8864 18.6106Z" fill="#1F57C3"/>
<path d="M8.41716 12.0745H7.07795C6.92675 12.0745 6.80437 11.9521 6.80437 11.8009C6.80437 11.6497 6.92675 11.5273 7.07795 11.5273H8.41716C8.57556 11.5273 8.69077 11.6497 8.69077 11.8009C8.69077 11.9521 8.57556 12.0745 8.41716 12.0745ZM11.11 12.0745H9.76356C9.61236 12.0745 9.48996 11.9521 9.48996 11.8009C9.48996 11.6497 9.61236 11.5273 9.76356 11.5273H11.11C11.2612 11.5273 11.3836 11.6497 11.3836 11.8009C11.3836 11.9521 11.2612 12.0745 11.11 12.0745ZM13.7956 12.0745H12.4492C12.298 12.0745 12.1756 11.9521 12.1756 11.8009C12.1756 11.6497 12.298 11.5273 12.4492 11.5273H13.7956C13.9468 11.5273 14.0692 11.6497 14.0692 11.8009C14.0692 11.9521 13.9468 12.0745 13.7956 12.0745ZM16.4812 12.0745H15.142C14.9908 12.0745 14.8684 11.9521 14.8684 11.8009C14.8684 11.6497 14.9908 11.5273 15.142 11.5273H16.4812C16.6324 11.5273 16.7548 11.6497 16.7548 11.8009C16.7548 11.9521 16.6324 12.0745 16.4812 12.0745ZM18.886 12.5929C18.742 12.5929 18.6196 12.4777 18.6124 12.3337C18.6052 12.1897 18.4828 12.0745 18.3388 12.0745H17.8276C17.6764 12.0745 17.554 11.9521 17.554 11.8009C17.554 11.6497 17.6764 11.5273 17.8276 11.5273H18.3388C18.778 11.5273 19.138 11.8657 19.1596 12.3049C19.1668 12.4561 19.0516 12.5857 18.9004 12.5929C18.8932 12.5929 18.886 12.5929 18.886 12.5929ZM6.39396 14.3209C6.24996 14.3209 6.12036 14.1913 6.12036 14.0401V12.7009C6.12036 12.5497 6.24996 12.4273 6.39396 12.4273C6.54516 12.4273 6.66757 12.5497 6.66757 12.7009V14.0401C6.66757 14.1913 6.54516 14.3209 6.39396 14.3209ZM6.39396 17.0065C6.24996 17.0065 6.12036 16.8841 6.12036 16.7329V15.3865C6.12036 15.2353 6.24996 15.1129 6.39396 15.1129C6.54516 15.1129 6.66757 15.2353 6.66757 15.3865V16.7329C6.66757 16.8841 6.54516 17.0065 6.39396 17.0065ZM6.39396 19.6921C6.24996 19.6921 6.12036 19.5697 6.12036 19.4185V18.0721C6.12036 17.9209 6.24996 17.7985 6.39396 17.7985C6.54516 17.7985 6.66757 17.9209 6.66757 18.0721V19.4185C6.66757 19.5697 6.54516 19.6921 6.39396 19.6921ZM8.47475 20.5345H7.13556C6.98436 20.5345 6.86196 20.4121 6.86196 20.2609C6.86196 20.1097 6.98436 19.9873 7.13556 19.9873H8.47475C8.62595 19.9873 8.74836 20.1097 8.74836 20.2609C8.74836 20.4121 8.62595 20.5345 8.47475 20.5345ZM11.1676 20.5345H9.82117C9.66997 20.5345 9.54757 20.4121 9.54757 20.2609C9.54757 20.1097 9.66997 19.9873 9.82117 19.9873H11.1676C11.3188 19.9873 11.4412 20.1097 11.4412 20.2609C11.4412 20.4121 11.3188 20.5345 11.1676 20.5345ZM13.8532 20.5345H12.5068C12.3556 20.5345 12.2332 20.4121 12.2332 20.2609C12.2332 20.1097 12.3556 19.9873 12.5068 19.9873H13.8532C14.0044 19.9873 14.1268 20.1097 14.1268 20.2609C14.1268 20.4121 14.0044 20.5345 13.8532 20.5345ZM16.5388 20.5345H15.1996C15.0484 20.5345 14.926 20.4121 14.926 20.2609C14.926 20.1097 15.0484 19.9873 15.1996 19.9873H16.5388C16.69 19.9873 16.8124 20.1097 16.8124 20.2609C16.8124 20.4121 16.69 20.5345 16.5388 20.5345ZM18.3388 20.5345H17.8852C17.734 20.5345 17.6116 20.4121 17.6116 20.2609C17.6116 20.1097 17.734 19.9873 17.8852 19.9873H18.3388C18.49 19.9873 18.6124 19.8649 18.6124 19.7137V19.6849C18.6124 19.5337 18.7348 19.4113 18.886 19.4113C19.0372 19.4113 19.1596 19.5337 19.1596 19.6849V19.7137C19.1596 20.1673 18.7924 20.5345 18.3388 20.5345Z" fill="#1F57C3"/>
<path d="M18.8864 14.6002C18.7352 14.6002 18.6128 14.4778 18.6128 14.3266V13.6714C18.6128 13.513 18.7352 13.3906 18.8864 13.3906C19.0376 13.3906 19.16 13.513 19.16 13.6714V14.3266C19.16 14.4778 19.0376 14.6002 18.8864 14.6002Z" fill="#1F57C3"/>
<path d="M19.8217 13.3562C19.7281 13.3562 19.6417 13.313 19.5913 13.2338C19.5049 13.1042 19.5409 12.9314 19.6705 12.8522L22.2913 11.1458L20.2465 8.00659L16.769 7.26499L11.1817 10.901C11.0593 10.9802 10.8866 10.9514 10.8074 10.8218C10.721 10.6922 10.7569 10.5266 10.8865 10.4402L16.5674 6.74659C16.625 6.71059 16.7042 6.6962 16.769 6.7106L20.4697 7.4954C20.5417 7.5098 20.6066 7.553 20.6426 7.6106L22.8961 11.081C22.9825 11.2034 22.9465 11.3762 22.8169 11.4554L19.9658 13.313C19.9226 13.3418 19.8721 13.3562 19.8217 13.3562Z" fill="#1F57C3"/>
<path d="M17.3089 7.3789L18.2521 8.8405L19.7137 7.8901L17.3089 7.3789ZM18.1729 9.4885C18.1513 9.4885 18.1369 9.4885 18.1153 9.4885C18.0433 9.4741 17.9857 9.43091 17.9425 9.36611L16.4881 7.1269C16.4233 7.0333 16.4305 6.9109 16.4881 6.8173C16.5529 6.7309 16.6681 6.68051 16.7689 6.70931L20.4697 7.49411C20.5777 7.51571 20.6641 7.6021 20.6857 7.7101C20.7073 7.8181 20.6569 7.92611 20.5633 7.99091L18.3241 9.4453C18.2809 9.4741 18.2233 9.4885 18.1729 9.4885Z" fill="#1F57C3"/>
<path d="M13.1691 10.944C13.0827 10.944 12.9963 10.9008 12.9387 10.8216C12.8595 10.692 12.8955 10.5264 13.0251 10.44C13.6515 10.0296 14.3859 9.53997 15.0915 9.06477C15.8043 8.58957 16.5387 8.09999 17.1795 7.68239C17.3019 7.60319 17.4747 7.63918 17.5539 7.76878C17.6403 7.89118 17.6043 8.06397 17.4747 8.14317C16.8411 8.56077 16.1067 9.05038 15.4011 9.52558C14.6883 9.99358 13.9539 10.4904 13.3203 10.9008C13.2699 10.9296 13.2195 10.944 13.1691 10.944Z" fill="#1F57C3"/>
<path d="M19.93 11.9451C19.8436 11.9451 19.7572 11.9019 19.6996 11.8227C19.6204 11.6931 19.6564 11.5275 19.7788 11.4411L20.7652 10.8003L19.8292 9.35313C19.7428 9.22353 19.7788 9.05794 19.9084 8.97874C20.0308 8.89234 20.2036 8.92833 20.2828 9.05793L21.3772 10.7355C21.4564 10.8579 21.4204 11.0307 21.298 11.1099L20.0812 11.9019C20.038 11.9307 19.9804 11.9451 19.93 11.9451Z" fill="#1F57C3"/>
<path d="M7.48863 10.9869C7.46703 10.9869 7.43823 10.9797 7.41663 10.9725C7.26543 10.9365 7.18623 10.7853 7.22223 10.6341C7.58943 9.32368 7.76224 8.30849 7.97104 7.02689L7.97822 6.99088C7.99262 6.91888 8.02864 6.86129 8.08624 6.81809C8.45344 6.54449 8.86382 6.27808 9.25982 6.02608C9.82862 5.67328 10.4118 5.29889 10.9086 4.86689C11.0958 4.67969 11.3046 4.67969 11.427 4.67969C11.4414 4.67969 11.4558 4.67969 11.463 4.68689C12.8814 4.90289 15.423 5.5365 15.5382 5.5653C15.6174 5.5869 15.6678 5.63008 15.7038 5.68768C15.7398 5.74528 15.7542 5.81728 15.7398 5.88928L15.2574 8.15728C15.2286 8.30128 15.0774 8.40208 14.9334 8.36608C14.7822 8.33728 14.6886 8.1933 14.7174 8.0421L15.1494 6.0405C15.1278 6.0333 15.1134 6.02608 15.099 6.01888C14.3718 5.84608 12.5142 5.39969 11.4054 5.22689C11.319 5.22689 11.3118 5.23408 11.2902 5.25568C11.283 5.26288 11.283 5.27009 11.2758 5.27009C10.743 5.73809 10.1382 6.11968 9.55503 6.49408C9.18063 6.72448 8.82783 6.95488 8.50383 7.19248C8.29503 8.45248 8.12223 9.4677 7.75503 10.7853C7.71903 10.9077 7.60383 10.9869 7.48863 10.9869Z" fill="#1F57C3"/>
<path d="M8.95695 6.90516L10.6633 7.26516L11.0233 5.56597L8.95695 6.90516ZM10.8721 7.86277C10.8505 7.86277 10.8361 7.85556 10.8145 7.85556L8.20095 7.30117C8.09295 7.27957 8.00654 7.19316 7.98494 7.08516C7.96334 6.97716 8.01375 6.86197 8.10735 6.80437L11.2753 4.74516C11.3689 4.68036 11.4913 4.68756 11.5777 4.74516C11.6713 4.80996 11.7145 4.91797 11.6929 5.02597L11.1385 7.64676C11.1241 7.71876 11.0809 7.77635 11.0233 7.81955C10.9729 7.84835 10.9225 7.86277 10.8721 7.86277Z" fill="#1F57C3"/>
<path d="M8.61877 10.9862C8.60437 10.9862 8.58278 10.9862 8.56118 10.979C8.41718 10.9502 8.32357 10.799 8.35237 10.655L9.07956 7.2062C9.11556 7.0622 9.25957 6.96859 9.41077 6.99739C9.55477 7.02619 9.64836 7.1702 9.61956 7.3214L8.88517 10.7702C8.86357 10.8998 8.74837 10.9862 8.61877 10.9862Z" fill="#1F57C3"/>
<path d="M13.9394 7.9127C13.925 7.9127 13.9034 7.91271 13.8818 7.90551C13.7378 7.87671 13.6442 7.7327 13.673 7.5815L13.8242 6.8759L12.1322 6.5159C11.9882 6.4799 11.8946 6.33591 11.9234 6.19191C11.9522 6.04071 12.1034 5.9471 12.2474 5.9759L14.2058 6.39351C14.2778 6.40791 14.3354 6.45111 14.3786 6.50871C14.4146 6.57351 14.429 6.64549 14.4146 6.71749L14.213 7.69671C14.1842 7.82631 14.069 7.9127 13.9394 7.9127Z" fill="#1F57C3"/>
</svg>
