<svg width="27" height="27" viewBox="0 0 27 27" fill="none" xmlns="http://www.w3.org/2000/svg">
<path d="M13.5072 0.827996C6.50881 0.827996 0.827996 6.5088 0.827996 13.5C0.827996 20.4912 6.50881 26.172 13.5072 26.172C20.4912 26.172 26.172 20.4912 26.172 13.5C26.172 6.5088 20.4912 0.827996 13.5072 0.827996ZM13.5072 27C6.05521 27 0 20.9448 0 13.5C0 6.0552 6.05521 0 13.5072 0C20.9448 0 27 6.0552 27 13.5C27 20.9448 20.9448 27 13.5072 27Z" fill="#DBE2E7"/>
<path d="M14.9551 16.6395C14.5519 16.6395 14.0695 16.6036 13.5079 16.5244L13.4215 16.5099C13.2487 16.4955 13.1047 16.3875 12.9463 16.2795C12.6655 16.0851 12.4279 15.9124 12.0175 16.1284C11.9887 16.1428 11.9527 16.1572 11.9167 16.1572H9.97985C9.90065 16.1572 9.82866 16.114 9.78546 16.0492C9.75666 16.0132 9.18066 15.1131 9.18066 14.1915C9.18066 13.2699 9.76387 12.4348 9.79267 12.3988C9.82867 12.3412 9.90065 12.3052 9.97985 12.3052H11.4199C11.5495 12.3052 11.6503 12.406 11.6503 12.5356C11.6503 12.658 11.5495 12.7588 11.4199 12.7588H10.0951C9.95826 12.9892 9.64147 13.5795 9.64147 14.1915C9.64147 14.8107 9.96546 15.4515 10.1023 15.6963H11.8591C12.4783 15.3939 12.9175 15.7036 13.2127 15.9052C13.3135 15.9772 13.4215 16.0564 13.4791 16.0636L13.5727 16.0708C15.5599 16.3372 16.0063 16.0492 16.1071 15.9052C16.3375 15.5956 16.4455 15.3292 16.6327 14.8972C16.6903 14.746 16.7623 14.5732 16.8487 14.3788C17.0935 13.8244 17.5975 12.6724 17.2951 12.2836C16.7911 11.6428 14.7607 12.0243 14.0911 12.2115C14.0047 12.2331 13.9183 12.2116 13.8607 12.1468C13.8031 12.082 13.7887 11.9884 13.8175 11.9092C13.9687 11.5348 14.2999 10.4548 14.0407 9.96515C13.8463 9.60515 13.5079 9.54035 13.3063 9.53315C13.2631 9.92195 13.1407 10.7932 12.9391 11.4052C12.7951 11.8516 12.5575 12.1827 12.3847 12.3915C12.2983 12.4851 12.1615 12.4923 12.0607 12.4131C11.9671 12.3339 11.9527 12.19 12.0319 12.0892C12.1831 11.9236 12.3847 11.6356 12.5071 11.2612C12.7447 10.5268 12.8671 9.30996 12.8743 9.29556C12.8815 9.20196 12.9607 9.11556 13.0543 9.10116C13.3855 9.03636 14.0983 9.08676 14.4439 9.74916C14.7319 10.2892 14.5447 11.1603 14.3863 11.6715C15.2287 11.4843 17.0215 11.2036 17.6551 12.0028C18.0871 12.5572 17.6983 13.5724 17.2663 14.566C17.1799 14.7532 17.1151 14.9259 17.0503 15.0699C16.8631 15.5235 16.7335 15.8187 16.4815 16.1715C16.2583 16.4883 15.7615 16.6395 14.9551 16.6395Z" fill="#1F57C3"/>
<path d="M11.7079 16.1576C11.5783 16.1576 11.4775 16.0568 11.4775 15.9272L11.4703 13.5728C11.4631 13.4504 11.5711 13.3496 11.6935 13.3496C11.8231 13.3496 11.9239 13.4504 11.9239 13.5728L11.9311 15.9272C11.9311 16.0568 11.8375 16.1576 11.7079 16.1576Z" fill="#1F57C3"/>
<path d="M9.97234 20.8221C10.8075 20.8221 11.6067 21.2829 11.9883 21.9885C12.1755 22.3341 12.4347 22.5213 12.7227 22.5213C12.9747 22.5213 13.2195 22.3773 13.4355 22.1109C13.8459 21.5781 14.5227 21.2685 15.2283 21.2685C15.6459 21.2685 16.0491 21.3765 16.3875 21.5853C16.5819 21.7005 16.7763 21.7653 16.9635 21.7653C17.3451 21.7653 17.6259 21.4701 17.6907 20.9733C17.8491 19.8789 18.8643 19.0221 19.9875 19.0509H20.0379C20.3835 19.0509 20.6571 18.9357 20.8011 18.7197C20.9379 18.5109 20.9523 18.2085 20.8155 17.8773C20.3979 16.8477 20.8515 15.5949 21.8307 15.0693C22.1547 14.8965 22.3491 14.6517 22.3707 14.3925C22.3923 14.1333 22.2411 13.8669 21.9531 13.6365C21.0747 12.9597 20.8443 11.6421 21.4275 10.7061C21.6147 10.3965 21.6579 10.0941 21.5571 9.85648C21.4419 9.61888 21.1755 9.46048 20.8083 9.41008C19.7067 9.25168 18.8427 8.22927 18.8715 7.12767C18.8787 6.81807 18.8067 6.57327 18.6483 6.40767C18.4323 6.19167 18.0723 6.15568 17.6835 6.30688C17.4315 6.41488 17.1579 6.46528 16.8771 6.46528C16.0419 6.46528 15.2427 6.00446 14.8611 5.29886C14.6811 4.96046 14.4075 4.76607 14.1267 4.76607C13.8747 4.76607 13.6299 4.91008 13.4139 5.17648C13.0035 5.70928 12.3267 6.01886 11.6211 6.01886C11.2035 6.01886 10.8003 5.91087 10.4619 5.70927C10.2675 5.58687 10.0731 5.52208 9.89313 5.52208C9.49713 5.52208 9.22354 5.81727 9.15874 6.31407C9.00034 7.41567 7.98514 8.27248 6.86194 8.23648H6.81153C6.46593 8.23648 6.19233 8.35167 6.04833 8.56767C5.91153 8.78367 5.89714 9.07887 6.03394 9.41727C6.45154 10.4397 5.99074 11.6925 5.01874 12.2181C4.69474 12.3981 4.50034 12.6357 4.47874 12.8949C4.45714 13.1541 4.60833 13.4205 4.89633 13.6509C5.77473 14.3277 6.00514 15.6453 5.42194 16.5885C5.23474 16.8909 5.19154 17.1933 5.29234 17.4309C5.40754 17.6685 5.67395 17.8269 6.04115 17.8845C7.14275 18.0357 8.00673 19.0581 7.97793 20.1597C7.97073 20.4693 8.04273 20.7141 8.20833 20.8797C8.41713 21.0957 8.77714 21.1389 9.16594 20.9805C9.41794 20.8725 9.69154 20.8221 9.97234 20.8221ZM12.7227 23.0901C12.2259 23.0901 11.7795 22.7877 11.4915 22.2621C11.2035 21.7365 10.6059 21.3909 9.97234 21.3909C9.76354 21.3909 9.56193 21.4341 9.37473 21.5061C8.76273 21.7509 8.17233 21.6645 7.79793 21.2757C7.53153 21.0021 7.39474 20.6061 7.40194 20.1453C7.43074 19.3245 6.78274 18.5613 5.96194 18.4461C5.40034 18.3669 4.97555 18.0933 4.78115 17.6757C4.58675 17.2581 4.64433 16.7613 4.93953 16.2861C5.37153 15.5877 5.19874 14.6085 4.55074 14.0973C4.09714 13.7517 3.87394 13.3053 3.91714 12.8445C3.95314 12.3909 4.24833 11.9877 4.74513 11.7213C5.47953 11.3253 5.81793 10.3893 5.50833 9.62607C5.29233 9.11487 5.32833 8.62527 5.57313 8.25087C5.83953 7.86207 6.30034 7.65327 6.88354 7.66767H6.91953C7.72593 7.66767 8.47473 7.02688 8.58993 6.23488C8.70513 5.45728 9.20913 4.95328 9.89313 4.95328C10.1739 4.95328 10.4763 5.04688 10.7643 5.21968C11.0163 5.37088 11.3115 5.45008 11.6211 5.45008C12.1539 5.45008 12.6651 5.21967 12.9747 4.83087C13.2915 4.42047 13.7019 4.19727 14.1267 4.19727C14.6235 4.19727 15.0699 4.49968 15.3579 5.02528C15.6459 5.55088 16.2435 5.89648 16.8771 5.89648C17.0859 5.89648 17.2875 5.85327 17.4747 5.78127C18.0867 5.53647 18.6771 5.63008 19.0515 6.01168C19.3179 6.29248 19.4547 6.68127 19.4403 7.14927C19.4187 7.95567 20.0811 8.73327 20.8875 8.84127C21.4491 8.92047 21.8739 9.19406 22.0683 9.61886C22.2627 10.0365 22.2051 10.5261 21.9099 11.0085C21.4779 11.7069 21.6507 12.6861 22.2987 13.1901C22.7451 13.5357 22.9755 13.9821 22.9323 14.4429C22.8963 14.9037 22.6011 15.3069 22.0971 15.5733C21.3699 15.9621 21.0315 16.8981 21.3411 17.6613C21.5571 18.1725 21.5211 18.6621 21.2763 19.0437C21.0099 19.4253 20.5491 19.6413 19.9731 19.6197H19.9299C19.1235 19.6197 18.3747 20.2605 18.2595 21.0525C18.1443 21.8301 17.6403 22.3341 16.9635 22.3341C16.6755 22.3341 16.3731 22.2477 16.0851 22.0677C15.8331 21.9165 15.5379 21.8373 15.2283 21.8373C14.6955 21.8373 14.1843 22.0677 13.8747 22.4637C13.5579 22.8669 13.1475 23.0901 12.7227 23.0901Z" fill="#1F57C3"/>
<path d="M13.4209 7.7535C10.1737 7.7535 7.53133 10.3959 7.53133 13.6431C7.53133 16.8903 10.1737 19.5327 13.4209 19.5327C16.6753 19.5327 19.3177 16.8903 19.3177 13.6431C19.3177 10.3959 16.6753 7.7535 13.4209 7.7535ZM13.4209 20.0727C9.87854 20.0727 6.99854 17.1855 6.99854 13.6431C6.99854 10.1007 9.87854 7.2207 13.4209 7.2207C16.9705 7.2207 19.8505 10.1007 19.8505 13.6431C19.8505 17.1855 16.9705 20.0727 13.4209 20.0727Z" fill="#1F57C3"/>
</svg>
