<svg width="20" height="15" viewBox="0 0 20 15" fill="none" xmlns="http://www.w3.org/2000/svg">
<path d="M1.34126e-06 4.99501C-0.000525832 4.33851 0.154353 3.68837 0.455768 3.08183C0.757183 2.47528 1.19921 1.92424 1.75655 1.46026C2.31388 0.996279 2.97558 0.628471 3.70373 0.377898C4.43189 0.127326 5.21221 -0.00108918 6 6.95854e-06H14C17.313 6.95854e-06 20 2.24584 20 4.99501V15H6C2.687 15 1.34126e-06 12.7542 1.34126e-06 10.005V4.99501ZM18 13.3333V4.99501C17.9974 4.11209 17.5749 3.26604 16.8251 2.64219C16.0754 2.01834 15.0595 1.66755 14 1.66667H6C5.47485 1.66558 4.9546 1.75088 4.4691 1.9177C3.98359 2.08451 3.54238 2.32955 3.17076 2.63877C2.79914 2.94799 2.50443 3.3153 2.30353 3.71963C2.10262 4.12397 1.99947 4.55738 2 4.99501V10.005C2.00265 10.8879 2.42511 11.734 3.17486 12.3578C3.9246 12.9817 4.9405 13.3325 6 13.3333H18ZM12 6.66667H14V8.33334H12V6.66667ZM6 6.66667H8V8.33334H6V6.66667Z" fill="#D9D9D9"/>
</svg>
