<svg width="111" height="154" viewBox="0 0 111 154" fill="none" xmlns="http://www.w3.org/2000/svg">
<path d="M24.9789 26.1177C24.8557 25.6865 24.717 25.1167 24.5322 24.4391C24.3628 23.7461 24.255 23.2379 24.1934 22.9453C24.1472 23.2225 24.0549 23.6845 23.9163 24.3159C23.7623 24.9627 23.4388 26.2101 22.946 28.0889H25.487L24.9789 26.1177Z" fill="#767475"/>
<path d="M77.2773 23.4727H76.6459V26.1985H77.2465C78.3861 26.1985 78.9405 25.7057 78.9405 24.7047C78.9405 23.8885 78.3861 23.4727 77.2773 23.4727Z" fill="#767475"/>
<path d="M55.0241 25.9621C55.3167 25.7003 55.4553 25.3153 55.4553 24.8379C55.4553 24.0371 55.0087 23.6367 54.1155 23.6367H53.2839V26.3779H53.8691C54.3619 26.3779 54.7469 26.2393 55.0241 25.9621Z" fill="#767475"/>
<path d="M65.7426 23.4844C64.1256 23.4844 63.3093 24.6548 63.3093 26.9802C63.3093 29.2902 64.1255 30.4452 65.7271 30.4452C66.5433 30.4452 67.1439 30.168 67.5443 29.6136C67.9447 29.0438 68.1449 28.166 68.1449 26.9802C68.1449 25.7944 67.9447 24.9012 67.5443 24.3314C67.1439 23.777 66.5434 23.4844 65.7426 23.4844Z" fill="#767475"/>
<path d="M13.1824 23.6367H12.3508V26.3779H12.936C13.4134 26.3779 13.8138 26.2393 14.091 25.9621C14.3836 25.7003 14.5222 25.3153 14.5222 24.8379C14.5222 24.0371 14.0756 23.6367 13.1824 23.6367Z" fill="#767475"/>
<path d="M105.69 140.895C105.69 141.357 105.09 141.942 104.366 142.003L101.763 142.188V13.6906C101.763 11.9504 100.362 10.5644 98.637 10.5644H12.9822L104.674 4.7124L104.889 4.69698C105.274 4.69698 105.69 4.86638 105.69 5.17438V140.895ZM92.6464 23.6698H89.7358V32.9714H86.5172V23.6698H83.5912V21.021H92.6464V23.6698ZM88.6578 85.3468C88.5192 86.8714 87.2256 88.7194 85.8242 89.3354C81.8356 91.0756 76.4764 92.5848 70.1316 93.6166C68.607 93.8784 67.4982 92.8004 67.606 91.2604C67.8062 88.2882 67.914 85.2698 67.914 82.2822C67.914 79.2946 67.8062 76.2762 67.606 73.304C67.4982 71.764 68.607 70.686 70.1316 70.9324C76.4764 71.9796 81.8356 73.4888 85.8242 75.229C87.2256 75.845 88.5192 77.6776 88.6578 79.2176C88.7348 80.2186 88.7656 81.2504 88.7656 82.2822C88.7656 83.314 88.7348 84.3304 88.6578 85.3468ZM86.2092 95.9882C82.3746 105.875 74.4898 113.76 64.5876 117.61C63.1554 118.164 62.4624 117.379 62.9706 115.916C64.526 111.619 65.7118 106.522 66.528 101.07C66.759 99.5456 68.1604 98.1596 69.6696 97.9286C75.1366 97.097 80.2186 95.9112 84.5306 94.3712C85.9782 93.8476 86.779 94.556 86.2092 95.9882ZM79.6796 144.344L22.099 144.36V136.906H79.6796V144.344ZM17.248 94.3712C21.56 95.9112 26.642 97.097 32.0936 97.9286C33.6182 98.1596 35.0042 99.5456 35.2352 101.07C36.0668 106.522 37.2526 111.619 38.7926 115.916C39.3162 117.379 38.6078 118.164 37.1756 117.61C27.2888 113.76 19.404 105.875 15.554 95.9882C14.9996 94.556 15.785 93.8476 17.248 94.3712ZM13.1208 85.3468C13.0438 84.3304 12.9976 83.314 12.9976 82.2822C12.9976 81.2504 13.0438 80.2186 13.1208 79.2176C13.244 77.6776 14.5376 75.845 15.9544 75.229C19.943 73.4888 25.3022 71.9796 31.6316 70.9324C33.1562 70.686 34.2804 71.764 34.1726 73.304C33.9724 76.2762 33.8646 79.2946 33.8646 82.2822C33.8646 85.2698 33.9724 88.2728 34.1726 91.2604C34.2804 92.785 33.1562 93.863 31.6316 93.6166C25.3022 92.5694 19.943 91.0602 15.9544 89.3354C14.5376 88.7194 13.244 86.8714 13.1208 85.3468ZM62.2314 101.532C61.1842 107.862 59.675 113.221 57.9348 117.209C57.3188 118.626 55.4862 119.92 53.9462 120.043C52.9452 120.12 51.9134 120.166 50.8816 120.166C49.8498 120.166 48.8334 120.12 47.817 120.043C46.277 119.92 44.4444 118.626 43.8284 117.209C42.1036 113.221 40.579 107.862 39.5472 101.532C39.3008 100.008 40.3788 98.8834 41.9034 98.9912C44.891 99.1914 47.894 99.2992 50.8816 99.2992C53.8692 99.2992 56.8876 99.1914 59.8598 98.9912C61.3998 98.8834 62.4778 100.008 62.2314 101.532ZM41.4106 69.7774C44.429 69.5618 47.6014 69.4386 50.8816 69.4386C54.1772 69.4386 57.3342 69.5618 60.368 69.7774C61.8926 69.9006 63.2632 71.2712 63.371 72.7958C63.602 75.8296 63.7252 78.9866 63.7252 82.2822C63.7252 85.5624 63.602 88.7348 63.371 91.7532C63.2632 93.2932 61.8926 94.6484 60.368 94.7716C57.3342 95.0026 54.1618 95.1258 50.8816 95.1258C47.6014 95.1258 44.429 95.0026 41.4106 94.7716C39.8706 94.6484 38.5154 93.2932 38.3922 91.7532C38.1612 88.7348 38.038 85.5624 38.038 82.2822C38.038 78.9866 38.1612 75.8296 38.3922 72.7958C38.5 71.2712 39.8706 69.9006 41.4106 69.7774ZM70.07 31.57C69.069 32.6172 67.6368 33.1408 65.7272 33.1408C63.8484 33.1408 62.4162 32.6172 61.4152 31.57C60.4142 30.5074 59.906 28.9828 59.906 26.9654C59.906 24.9788 60.4142 23.4542 61.3998 22.407C62.4008 21.3598 63.8484 20.8362 65.7426 20.8362C67.6522 20.8362 69.0844 21.3598 70.07 22.3916C71.0556 23.4388 71.5484 24.9634 71.5484 26.9808C71.5484 28.9982 71.0556 30.5228 70.07 31.57ZM86.2092 68.5762C86.779 70.0084 85.9782 70.7014 84.5306 70.1932C80.2186 68.6532 75.1366 67.452 69.6696 66.6358C68.1604 66.4048 66.759 65.0034 66.528 63.4942C65.7118 58.0272 64.526 52.9452 62.9706 48.6332C62.4624 47.1856 63.1554 46.3848 64.5876 46.9546C74.4898 50.7892 82.3746 58.674 86.2092 68.5762ZM83.6682 32.9714H80.003L77.462 28.6286H76.6458V32.9714H73.4118V21.021H77.3388C80.5882 21.021 82.2052 22.1914 82.2052 24.563C82.2052 25.949 81.5276 27.0116 80.1724 27.7662L83.6682 32.9714ZM50.05 32.9714V21.021H54.1926C55.7018 21.021 56.8414 21.3598 57.596 22.0066C58.3506 22.6688 58.7356 23.6082 58.7356 24.8248C58.7356 26.1646 58.3352 27.1964 57.5498 27.9202C56.7644 28.644 55.6402 29.0136 54.1926 29.0136H53.284V32.9714H50.05ZM43.8438 47.3396C44.4444 45.9382 46.2924 44.6446 47.817 44.506C48.8334 44.429 49.8498 44.3982 50.8816 44.3982C51.9134 44.3982 52.9452 44.429 53.9462 44.506C55.4862 44.6446 57.3188 45.9382 57.9348 47.3396C59.675 51.3282 61.1842 56.6874 62.2314 63.0322C62.4778 64.5414 61.3998 65.6656 59.8598 65.5578C56.8876 65.3576 53.8846 65.2498 50.8816 65.2498C47.894 65.2498 44.891 65.3576 41.9034 65.5578C40.3788 65.6656 39.3008 64.5414 39.5472 63.0322C40.5944 56.6874 42.1036 51.3282 43.8438 47.3396ZM45.122 29.1984C45.0296 29.0752 44.891 28.952 44.6908 28.8288C44.4906 28.7056 43.967 28.4438 43.1046 28.0588C42.3192 27.7046 41.734 27.3658 41.349 27.027C40.964 26.6882 40.6714 26.3186 40.4866 25.8874C40.2864 25.4562 40.194 24.9326 40.194 24.3474C40.194 23.254 40.5944 22.3916 41.3952 21.7756C42.196 21.1596 43.3048 20.8516 44.7062 20.8516C45.9382 20.8516 47.201 21.1288 48.4946 21.714L47.509 24.2088C46.3848 23.6852 45.4146 23.4388 44.6138 23.4388C44.1826 23.4388 43.8746 23.5158 43.6898 23.6544C43.505 23.8084 43.3972 23.9778 43.3972 24.2088C43.3972 24.4398 43.5204 24.6554 43.7668 24.8402C44.0132 25.025 44.6754 25.3484 45.738 25.8566C46.7698 26.3186 47.4936 26.8114 47.894 27.335C48.2944 27.874 48.4946 28.5362 48.4946 29.3524C48.4946 30.0916 48.2944 30.7538 47.9248 31.3236C47.5552 31.8934 47.0008 32.34 46.2924 32.6634C45.584 32.9868 44.7678 33.1408 43.813 33.1408C43.0122 33.1408 42.35 33.0792 41.7956 32.9714C41.2566 32.8636 40.7022 32.6634 40.117 32.3862V29.5064C40.733 29.8298 41.3798 30.0762 42.042 30.2456C42.7042 30.4304 43.3202 30.5228 43.8746 30.5228C44.352 30.5228 44.7062 30.4304 44.9218 30.2764C45.1528 30.107 45.2606 29.8914 45.2606 29.6296C45.2606 29.4602 45.2144 29.3216 45.122 29.1984ZM35.7434 29.1984C35.651 29.0752 35.5124 28.952 35.3122 28.8288C35.112 28.7056 34.5884 28.4438 33.726 28.0588C32.9406 27.7046 32.3554 27.3658 31.9704 27.027C31.57 26.6882 31.2928 26.3186 31.108 25.8874C30.9078 25.4562 30.8154 24.9326 30.8154 24.3474C30.8154 23.254 31.2158 22.3916 32.0166 21.7756C32.8174 21.1596 33.9262 20.8516 35.3276 20.8516C36.5596 20.8516 37.8224 21.1288 39.116 21.714L38.115 24.2088C37.0062 23.6852 36.036 23.4388 35.2198 23.4388C34.804 23.4388 34.496 23.5158 34.3112 23.6544C34.111 23.8084 34.0186 23.9778 34.0186 24.2088C34.0186 24.4398 34.1418 24.6554 34.3882 24.8402C34.6346 25.025 35.2814 25.3484 36.3594 25.8566C37.3912 26.3186 38.115 26.8114 38.5154 27.335C38.9158 27.874 39.116 28.5362 39.116 29.3524C39.116 30.0916 38.9158 30.7538 38.5462 31.3236C38.1612 31.8934 37.6222 32.34 36.9138 32.6634C36.2054 32.9868 35.3738 33.1408 34.419 33.1408C33.6336 33.1408 32.956 33.0792 32.417 32.9714C31.878 32.8636 31.3236 32.6634 30.7384 32.3862V29.5064C31.3544 29.8298 31.9858 30.0762 32.6634 30.2456C33.3256 30.4304 33.9416 30.5228 34.496 30.5228C34.9734 30.5228 35.3276 30.4304 35.5432 30.2764C35.7742 30.107 35.882 29.8914 35.882 29.6296C35.882 29.4602 35.8358 29.3216 35.7434 29.1984ZM18.1258 32.9714L22.022 20.9748H26.334L30.2764 32.9714H26.7498L26.1646 30.7384H22.2838L21.6678 32.9714H18.1258ZM37.1756 46.9546C38.6078 46.3848 39.3162 47.1856 38.7926 48.6332C37.2526 52.9452 36.0668 58.0272 35.2352 63.4942C35.0042 65.0034 33.6182 66.4048 32.0936 66.6358C26.642 67.452 21.56 68.6532 17.248 70.1932C15.785 70.7014 14.9996 70.0084 15.554 68.5762C19.404 58.674 27.2888 50.7892 37.1756 46.9546ZM12.3508 32.9714H9.11677V21.021H13.2594C14.7686 21.021 15.8928 21.3598 16.6628 22.0066C17.4174 22.6688 17.787 23.6082 17.787 24.8248C17.787 26.1646 17.402 27.1964 16.6166 27.9202C15.8312 28.644 14.707 29.0136 13.2594 29.0136H12.3508V32.9714ZM104.889 0C104.705 0 104.504 0.015415 104.381 0.015415L5.8212 6.31401C2.6642 6.59121 0.184792 9.13221 0.184792 12.089V12.6742C0.0769925 12.9976 0 13.3364 0 13.6906V150.874C0 152.599 1.40141 154 3.14161 154H98.637C100.362 154 101.763 152.599 101.763 150.874V146.901L104.751 146.685C107.908 146.392 110.387 143.851 110.387 140.895V5.17438C110.387 2.27918 107.969 0 104.889 0Z" fill="#767475"/>
</svg>
