<svg width="182" height="26" viewBox="0 0 182 26" fill="none" xmlns="http://www.w3.org/2000/svg">
<path d="M13 0.485409L15.776 9.02913L15.8097 9.13278H15.9187H24.9021L17.6344 14.4131L17.5462 14.4771L17.5799 14.5808L20.3559 23.1245L13.0882 17.8442L13 17.7801L12.9118 17.8442L5.64411 23.1245L8.42013 14.5808L8.45381 14.4771L8.36564 14.4131L1.09792 9.13278H10.0813H10.1903L10.224 9.02913L13 0.485409Z" fill="#1F57C3" stroke="#1F57C3" stroke-width="0.3"/>
<path d="M52 0.485409L54.776 9.02913L54.8097 9.13278H54.9187H63.9021L56.6344 14.4131L56.5462 14.4771L56.5799 14.5808L59.3559 23.1245L52.0882 17.8442L52 17.7801L51.9118 17.8442L44.6441 23.1245L47.4201 14.5808L47.4538 14.4771L47.3656 14.4131L40.0979 9.13278H49.0813H49.1903L49.224 9.02913L52 0.485409Z" fill="#1F57C3" stroke="#1F57C3" stroke-width="0.3"/>
<path d="M91 0.485409L93.776 9.02913L93.8097 9.13278H93.9187H102.902L95.6344 14.4131L95.5462 14.4771L95.5799 14.5808L98.3559 23.1245L91.0882 17.8442L91 17.7801L90.9118 17.8442L83.6441 23.1245L86.4201 14.5808L86.4538 14.4771L86.3656 14.4131L79.0979 9.13278H88.0813H88.1903L88.224 9.02913L91 0.485409Z" fill="#1F57C3" stroke="#1F57C3" stroke-width="0.3"/>
<path d="M130 0.485409L132.776 9.02913L132.81 9.13278H132.919H141.902L134.634 14.4131L134.546 14.4771L134.58 14.5808L137.356 23.1245L130.088 17.8442L130 17.7801L129.912 17.8442L122.644 23.1245L125.42 14.5808L125.454 14.4771L125.366 14.4131L118.098 9.13278H127.081H127.19L127.224 9.02913L130 0.485409Z" fill="#1F57C3" stroke="#1F57C3" stroke-width="0.3"/>
<path d="M169 0.485409L171.776 9.02913L171.81 9.13278H171.919H180.902L173.634 14.4131L173.546 14.4771L173.58 14.5808L176.356 23.1245L169.088 17.8442L169 17.7801L168.912 17.8442L161.644 23.1245L164.42 14.5808L164.454 14.4771L164.366 14.4131L157.098 9.13278H166.081H166.19L166.224 9.02913L169 0.485409Z" fill="#1F57C3" stroke="#1F57C3" stroke-width="0.3"/>
<path d="M169.15 0.884278L171.928 8.83468L171.963 8.93522H172.069H181.51L173.882 14.0905L173.786 14.1552L173.824 14.2642L176.744 22.6225L169.15 17.4907L169.15 17.2549L169.15 17.2548L169.15 16.3468V16.3467V12.7141V12.7141L169.15 9.08157L169.15 9.08147L169.15 8.17342V8.17334V0.884278Z" fill="white" stroke="#1F57C3" stroke-width="0.3"/>
</svg>
