<svg width="100" height="100" viewBox="0 0 100 100" fill="none" xmlns="http://www.w3.org/2000/svg">
<path d="M66.9098 31.43C66.6198 31.43 66.3298 31.31 66.1298 31.07C61.0598 25.38 53.8098 22.11 46.1998 22.11C41.6198 22.11 37.0798 23.3 33.1098 25.53C32.6198 25.82 31.9698 25.64 31.6798 25.13C31.3998 24.62 31.5598 23.98 32.0798 23.69C36.3698 21.28 41.2398 20 46.1998 20C54.4098 20 62.2498 23.53 67.6998 29.67C68.0998 30.11 68.0598 30.78 67.6098 31.16C67.4098 31.34 67.1598 31.43 66.9098 31.43Z" fill="#1F57C3"/>
<path d="M46.1999 77.5601C33.0399 77.5601 21.5699 68.6701 18.3199 55.9601C18.1599 55.4001 18.5199 54.8201 19.0799 54.6701C19.6399 54.5301 20.2299 54.8701 20.3599 55.4401C23.3899 67.2101 34.0099 75.4401 46.1999 75.4401C49.5399 75.4401 52.8399 74.8201 55.9399 73.6001C56.4799 73.3901 57.1099 73.6501 57.3099 74.1901C57.5299 74.7401 57.2599 75.3501 56.7199 75.5701C53.3599 76.8901 49.8099 77.5601 46.1999 77.5601Z" fill="#1F57C3"/>
<path d="M80.4296 80.0009C80.3196 80.0009 80.1796 79.9809 80.0696 79.9409L60.7196 73.1609C60.3596 73.0309 60.1096 72.7309 60.0496 72.3509C59.9596 71.9809 60.1096 71.6009 60.3796 71.3609C61.5896 70.3309 64.4696 67.8809 66.0796 66.3409C64.9596 65.6709 63.4996 64.4409 62.6696 62.2409C61.1496 58.1409 62.4896 52.4709 66.6496 45.3809C65.7896 43.2709 65.3196 41.1209 65.2296 38.9709C65.1196 36.2609 65.6096 33.5309 66.7096 30.8809C68.1496 27.3709 70.9796 25.2309 73.8896 25.4109C74.3196 25.4309 74.6996 25.7209 74.8396 26.1409L81.1896 46.1709C81.9296 48.1509 80.9696 52.0709 80.3796 54.1009L86.4396 55.4809C86.9996 55.6109 87.3396 56.1709 87.2296 56.7309L86.0196 62.4909C85.8996 63.0609 85.3396 63.4309 84.7796 63.3109C84.1996 63.1909 83.8396 62.6309 83.9496 62.0609L84.9396 57.3209L78.7896 55.9109C78.5196 55.8409 78.2496 55.6609 78.1096 55.4009C77.9596 55.1409 77.9396 54.8309 78.0296 54.5509C78.8096 52.1509 79.7096 48.1909 79.1896 46.9009C79.1896 46.8809 79.1896 46.8609 79.1696 46.8409L73.0596 27.5409C71.2896 27.7909 69.6296 29.3409 68.6596 31.6809C67.6796 34.0509 67.2496 36.4809 67.3396 38.8809C67.4296 40.9409 67.9196 43.0109 68.7996 45.0409C68.9396 45.3509 68.9096 45.7109 68.7296 46.0109C63.7296 54.3809 63.7496 59.0509 64.6496 61.5009C65.6796 64.2609 68.0796 64.9609 68.1696 64.9909C68.5296 65.0909 68.7996 65.3509 68.9096 65.7009C68.9996 66.0409 68.9396 66.4209 68.7096 66.6909C67.8596 67.6909 64.9396 70.2509 63.1696 71.7709L79.6196 77.5409L80.8296 71.4909C80.9396 70.9109 81.4996 70.5509 82.0696 70.6609C82.6496 70.7709 83.0096 71.3309 82.9196 71.9009L81.4596 79.1509C81.3896 79.4509 81.2096 79.7109 80.9396 79.8609C80.7896 79.9509 80.6096 80.0009 80.4296 80.0009Z" fill="#1F57C3"/>
<path d="M26.9197 23.9303C25.4997 23.9303 24.2197 24.8303 23.7497 26.1703C23.4397 27.0203 23.4997 27.9303 23.8897 28.7403C24.2697 29.5503 24.9397 30.1603 25.7897 30.4703L30.8397 32.2403C31.1997 32.3703 31.5797 32.4403 31.9697 32.4403C33.3997 32.4403 34.6597 31.5503 35.1497 30.2103C35.7597 28.4603 34.8597 26.5303 33.1097 25.9103L28.0397 24.1303C27.6797 24.0003 27.2997 23.9303 26.9197 23.9303ZM31.9697 34.5603C31.3397 34.5603 30.7297 34.4503 30.1497 34.2403L25.0797 32.4603C23.7097 31.9703 22.5797 30.9703 21.9597 29.6403C21.3497 28.3203 21.2597 26.8403 21.7497 25.4603C22.5397 23.2803 24.5997 21.8203 26.9197 21.8203C27.5397 21.8203 28.1497 21.9303 28.7597 22.1403L33.8097 23.9203C36.6597 24.9303 38.1397 28.0803 37.1297 30.9203C36.3697 33.0903 34.2797 34.5603 31.9697 34.5603Z" fill="#1F57C3"/>
<path d="M21.2595 31.2899C19.8195 31.2899 18.5695 32.1899 18.0895 33.5199C17.4695 35.2699 18.3895 37.1999 20.1095 37.8199L25.8795 39.8599C26.2695 39.9899 26.6495 40.0499 27.0295 40.0499C28.4395 40.0499 29.7195 39.1499 30.1895 37.8199C30.4795 36.9699 30.4395 36.0599 30.0595 35.2499C29.6795 34.4399 28.9995 33.8299 28.1495 33.5199L22.3795 31.4899C22.0195 31.3599 21.6395 31.2899 21.2595 31.2899ZM27.0295 42.1699C26.3995 42.1699 25.7695 42.0599 25.1895 41.8499L19.4195 39.8099C16.5695 38.7999 15.0895 35.6599 16.0995 32.8099C16.8595 30.6399 18.9495 29.1699 21.2595 29.1699C21.8695 29.1699 22.4895 29.2799 23.0995 29.4899L28.8695 31.5299C30.2395 32.0199 31.3395 33.0199 31.9695 34.3399C32.5995 35.6599 32.6895 37.1499 32.1895 38.5299C31.3995 40.7099 29.3395 42.1699 27.0295 42.1699Z" fill="#1F57C3"/>
<path d="M18.2298 39.5905C16.8198 39.5905 15.5398 40.4905 15.0598 41.8305C14.7698 42.6805 14.8198 43.5905 15.1998 44.4005C15.5798 45.2105 16.2498 45.8205 17.1098 46.1305L22.1598 47.9005C22.5398 48.0305 22.8998 48.1005 23.2998 48.1005C24.7198 48.1005 25.9698 47.2105 26.4698 45.8605C26.7598 45.0205 26.7098 44.1105 26.3298 43.3005C25.9498 42.4805 25.2798 41.8705 24.4198 41.5705L19.3698 39.7905C18.9898 39.6605 18.6098 39.5905 18.2298 39.5905ZM23.2998 50.2205C22.6698 50.2205 22.0498 50.1105 21.4598 49.9005L16.3898 48.1205C15.0198 47.6305 13.9198 46.6305 13.2898 45.3105C12.6598 43.9805 12.5698 42.5005 13.0698 41.1205C13.8498 38.9405 15.9198 37.4805 18.2298 37.4805C18.8598 37.4805 19.4898 37.5905 20.0698 37.8005L25.1198 39.5805C26.5098 40.0705 27.6098 41.0705 28.2398 42.3905C28.8698 43.7105 28.9398 45.2005 28.4398 46.5805C27.6798 48.7505 25.5898 50.2205 23.2998 50.2205Z" fill="#1F57C3"/>
<path d="M19.1298 49.2704C18.0698 49.2704 17.1098 49.9404 16.7498 50.9504C16.2798 52.2804 16.9498 53.7404 18.2698 54.2104L21.4198 55.3104C21.7098 55.4104 21.9998 55.4604 22.2898 55.4604C23.3498 55.4604 24.3098 54.7804 24.6698 53.7604C25.1598 52.4404 24.4698 50.9804 23.1498 50.5104L19.9998 49.4104C19.7098 49.3104 19.4198 49.2704 19.1298 49.2704ZM22.2898 57.5704C21.7498 57.5704 21.2198 57.4804 20.7198 57.3004L17.5798 56.2104C15.1498 55.3404 13.8698 52.6704 14.7498 50.2504C15.3998 48.3904 17.1698 47.1504 19.1298 47.1504C19.6698 47.1504 20.1998 47.2404 20.6998 47.4204L23.8398 48.5204C26.2698 49.3804 27.5398 52.0504 26.6698 54.4804C26.0198 56.3304 24.2398 57.5704 22.2898 57.5704Z" fill="#1F57C3"/>
<path d="M43.5696 62.4294C43.4996 62.4294 43.4396 62.4794 43.4096 62.5594C43.4096 62.5994 43.4096 62.6294 43.4596 62.6594C43.4596 62.6894 43.4996 62.7094 43.5496 62.7194H43.5696C43.6196 62.7194 43.7096 62.6694 43.7096 62.5894C43.7096 62.5594 43.7096 62.5194 43.6796 62.4894C43.6596 62.4694 43.6396 62.4394 43.5896 62.4294H43.5696ZM43.5696 64.8394C43.4596 64.8394 43.3696 64.8294 43.2596 64.8094C42.6696 64.7394 42.1296 64.4294 41.7696 63.9394C41.3896 63.4594 41.2396 62.8594 41.3296 62.2694C41.4796 61.0494 42.6096 60.1594 43.8596 60.3294C44.4696 60.4194 45.0096 60.7294 45.3696 61.2094C45.7296 61.6894 45.8796 62.2794 45.8196 62.8794C45.6596 63.9894 44.6896 64.8394 43.5696 64.8394Z" fill="#1F57C3"/>
<path d="M44.4895 56.8294C44.4495 56.8294 44.3995 56.8294 44.3595 56.8194C43.7695 56.7394 43.3695 56.1994 43.4395 55.6194C44.0195 51.4394 47.0495 49.8294 49.7395 48.4094C52.0795 47.1794 54.1195 46.1094 54.4595 43.5294C54.6995 41.7194 53.7195 38.0994 48.2195 37.3594C42.8295 36.6194 40.3195 41.6594 40.1995 41.8694C39.9595 42.3994 39.3295 42.6194 38.8095 42.3694C38.2695 42.1194 38.0495 41.4894 38.2995 40.9594C39.4195 38.6594 42.9395 34.4994 48.5095 35.2594C55.1495 36.1694 56.9495 40.8694 56.5695 43.8094C56.0495 47.4694 53.2195 48.9694 50.7295 50.2794C48.1695 51.6394 45.9695 52.7994 45.5495 55.9094C45.4795 56.4394 45.0095 56.8294 44.4895 56.8294Z" fill="#1F57C3"/>
<path d="M50 97.85C63.21 97.85 75.18 92.49 83.83 83.83C92.49 75.18 97.85 63.21 97.85 50C97.85 36.79 92.49 24.82 83.83 16.17C75.18 7.51 63.21 2.15 50 2.15C36.79 2.15 24.82 7.51 16.17 16.17C7.51 24.82 2.15 36.79 2.15 50C2.15 63.21 7.51 75.18 16.17 83.83C24.82 92.49 36.79 97.85 50 97.85ZM85.36 85.36C76.31 94.4 63.81 100 50 100C36.19 100 23.69 94.4 14.64 85.36C5.6 76.31 0 63.81 0 50C0 36.19 5.6 23.69 14.64 14.64C23.69 5.6 36.19 0 50 0C63.81 0 76.31 5.6 85.36 14.64C94.4 23.69 100 36.19 100 50C100 63.81 94.4 76.31 85.36 85.36Z" fill="#1F57C3"/>
</svg>
