<svg width="100" height="100" viewBox="0 0 100 100" fill="none" xmlns="http://www.w3.org/2000/svg">
<path d="M50 97.85C63.21 97.85 75.17 92.49 83.83 83.83C92.49 75.17 97.85 63.21 97.85 50C97.85 36.79 92.49 24.83 83.83 16.17C75.17 7.51 63.21 2.15 50 2.15C36.79 2.15 24.83 7.51 16.17 16.17C7.51 24.83 2.15 36.79 2.15 50C2.15 63.21 7.51 75.17 16.17 83.83C24.83 92.49 36.79 97.85 50 97.85ZM85.36 85.36C76.31 94.4 63.81 100 50 100C36.19 100 23.69 94.4 14.64 85.36C5.6 76.31 0 63.81 0 50C0 36.19 5.6 23.69 14.64 14.64C23.69 5.6 36.19 0 50 0C63.81 0 76.31 5.6 85.36 14.64C94.4 23.69 100 36.19 100 50C100 63.81 94.4 76.31 85.36 85.36Z" fill="#1F57C3"/>
<path d="M27.5398 34.0499C21.5298 34.0499 16.6498 38.9299 16.6498 44.9299C16.6498 50.9199 21.5298 55.7999 27.5398 55.7999C33.5298 55.7999 38.4098 50.9199 38.4098 44.9299C38.4098 38.9299 33.5298 34.0499 27.5398 34.0499ZM27.5398 57.9299C20.3798 57.9299 14.5298 52.0999 14.5298 44.9299C14.5298 37.7599 20.3798 31.9199 27.5398 31.9199C34.6998 31.9199 40.5498 37.7599 40.5498 44.9299C40.5498 52.0999 34.6998 57.9299 27.5398 57.9299Z" fill="#1F57C3"/>
<path d="M62.1696 84.4999C53.1796 84.4999 45.8896 77.1899 45.8896 68.2099C45.8896 64.8899 46.8796 61.6999 48.7296 58.9799C49.0696 58.4999 49.7497 58.3799 50.2197 58.7099C50.7197 59.0399 50.8297 59.7099 50.4897 60.1899C48.8697 62.5599 48.0096 65.3299 48.0096 68.2099C48.0096 76.0199 54.3596 82.3699 62.1696 82.3699C69.9696 82.3699 76.3096 76.0199 76.3096 68.2099C76.3096 60.4099 69.9696 54.0499 62.1696 54.0499C59.6896 54.0499 57.2497 54.7099 55.0997 55.9399C54.6097 56.2299 53.9497 56.0499 53.6597 55.5499C53.3597 55.0399 53.5396 54.3799 54.0396 54.0899C56.4996 52.6699 59.2996 51.9199 62.1696 51.9199C71.1396 51.9199 78.4597 59.2299 78.4597 68.2099C78.4597 77.1899 71.1396 84.4999 62.1696 84.4999Z" fill="#1F57C3"/>
<path d="M58.6897 31.78C55.3297 31.78 52.1897 30.11 50.2897 27.31C49.9497 26.82 50.0897 26.16 50.5797 25.83C51.0597 25.5 51.7397 25.63 52.0497 26.12C53.5397 28.33 56.0297 29.65 58.6897 29.65C63.1197 29.65 66.7097 26.06 66.7097 21.64C66.7097 17.22 63.1197 13.63 58.6897 13.63C55.2397 13.63 52.1897 15.83 51.0997 19.11C50.9197 19.67 50.3097 19.97 49.7497 19.79C49.1797 19.6 48.8897 19 49.0697 18.44C50.4497 14.29 54.3097 11.5 58.6897 11.5C64.2997 11.5 68.8397 16.05 68.8397 21.64C68.8397 27.23 64.2997 31.78 58.6897 31.78Z" fill="#1F57C3"/>
<path d="M35.9 37.4696C35.56 37.4696 35.2 37.2996 35 36.9796C34.68 36.4896 34.84 35.8296 35.33 35.5096L50.61 25.8096C51.1 25.4996 51.76 25.6496 52.08 26.1496C52.39 26.6396 52.23 27.2996 51.74 27.6196L36.46 37.3096C36.31 37.4196 36.1 37.4696 35.9 37.4696Z" fill="#1F57C3"/>
<path d="M49.6096 60.66C49.4496 60.66 49.2696 60.61 49.0896 60.52L37.3196 53.92C36.7996 53.63 36.6196 52.98 36.9196 52.47C37.1896 51.96 37.8396 51.77 38.3596 52.06L50.1496 58.66C50.6496 58.95 50.8296 59.6 50.5596 60.11C50.3596 60.46 49.9996 60.66 49.6096 60.66Z" fill="#1F57C3"/>
</svg>
