<svg width="100" height="100" viewBox="0 0 100 100" fill="none" xmlns="http://www.w3.org/2000/svg">
<path d="M50 97.85C63.21 97.85 75.17 92.49 83.83 83.83C92.49 75.17 97.85 63.21 97.85 50C97.85 36.79 92.49 24.83 83.83 16.17C75.17 7.51 63.21 2.15 50 2.15C36.79 2.15 24.83 7.51 16.17 16.17C7.51 24.83 2.15 36.79 2.15 50C2.15 63.21 7.51 75.17 16.17 83.83C24.83 92.49 36.79 97.85 50 97.85ZM85.36 85.36C76.31 94.4 63.81 100 50 100C36.19 100 23.69 94.4 14.64 85.36C5.6 76.31 0 63.81 0 50C0 36.19 5.6 23.69 14.64 14.64C23.69 5.6 36.19 0 50 0C63.81 0 76.31 5.6 85.36 14.64C94.4 23.69 100 36.19 100 50C100 63.81 94.4 76.31 85.36 85.36Z" fill="#1F57C3"/>
<path d="M38.5799 84.9991C38.4099 84.9991 38.2499 84.9591 38.0999 84.8891L17.4899 75.0891C17.0399 74.8691 16.7999 74.3991 16.8699 73.9091C16.9199 73.6091 18.0299 66.5891 21.4299 59.6791C22.7999 56.8791 24.3799 54.4791 26.0799 52.5391C26.5099 52.0791 27.2199 52.0391 27.6699 52.4491C28.1199 52.8591 28.1599 53.5591 27.7599 54.0191C26.1799 55.7991 24.7099 58.0391 23.4199 60.6591C20.8399 65.9491 19.6099 71.4191 19.2099 73.4391L38.5799 82.6591L55.8899 74.7191C56.4299 74.4591 57.0899 74.7091 57.3499 75.2591C57.6099 75.8191 57.3499 76.4891 56.8099 76.7391L39.0299 84.8991C38.8799 84.9591 38.7399 84.9991 38.5799 84.9991Z" fill="#1F57C3"/>
<path d="M38.5798 51.6895C30.7598 51.6895 25.0498 40.7395 24.6698 33.4895C24.6398 32.8795 25.1198 32.3595 25.7298 32.3295C26.3398 32.2995 26.8598 32.7695 26.8898 33.3795C27.2198 39.7095 32.3698 49.4595 38.5798 49.4595C43.5098 49.4595 47.9298 43.1895 49.5798 37.2795C49.7498 36.6795 50.3598 36.3395 50.9498 36.5095C51.5398 36.6695 51.8998 37.2895 51.7298 37.8795C49.8198 44.7395 44.6698 51.6895 38.5798 51.6895Z" fill="#1F57C3"/>
<path d="M31.6798 26.66C32.1098 26.66 32.5098 26.91 32.6998 27.32C32.9998 28.03 33.7098 28.83 34.6998 29.65C39.1898 33.32 48.5198 36.47 54.1398 36.98C54.4898 35.74 54.8199 33.93 54.8199 32.05C54.8199 23.88 47.6898 17.23 38.9298 17.23C30.7598 17.23 23.8898 23.08 23.1098 30.62C24.1998 32.02 27.8798 33.07 30.9298 33.54C30.8098 32.86 30.7098 31.97 30.6398 30.88C30.5698 29.87 30.5499 28.82 30.5699 27.76C30.5699 27.24 30.9298 26.79 31.4398 26.69C31.5198 26.67 31.5898 26.66 31.6798 26.66ZM54.9398 39.27C54.9198 39.27 54.9198 39.27 54.8898 39.27C48.9198 39 38.4298 35.56 33.3098 31.38C33.1498 31.26 32.9998 31.14 32.8898 31.02C33.0498 33.28 33.3799 34.52 33.3799 34.53C33.4999 34.89 33.4098 35.27 33.1698 35.55C32.9298 35.83 32.5798 35.98 32.1998 35.94C31.2598 35.85 22.8699 34.93 20.9799 31.43C20.8899 31.24 20.8398 31.03 20.8398 30.82C21.5298 21.95 29.4598 15 38.9298 15C48.9198 15 57.0398 22.65 57.0398 32.05C57.0398 34.67 56.4998 37.12 55.9798 38.53C55.8198 38.98 55.4098 39.27 54.9398 39.27Z" fill="#1F57C3"/>
<path d="M66.51 80.6309C64.51 80.6309 62.5 80.2609 60.59 79.5309C53.12 76.7009 48.71 68.9309 50.1 61.0809C50.19 60.4809 50.79 60.0709 51.38 60.1809C51.99 60.2909 52.39 60.8609 52.3 61.4709C51.09 68.2709 54.89 74.9909 61.36 77.4509C64.98 78.8209 68.9 78.7009 72.39 77.1309C75.91 75.5509 78.6 72.6909 79.97 69.1009C82.81 61.6609 79.05 53.3109 71.61 50.4909C66.09 48.3909 59.74 49.9209 55.77 54.3109C55.37 54.7709 54.66 54.8009 54.21 54.3909C53.76 53.9809 53.71 53.2809 54.11 52.8209C58.7 47.7609 66.04 45.9809 72.42 48.4009C80.99 51.6709 85.31 61.3109 82.05 69.8909C80.47 74.0509 77.38 77.3409 73.31 79.1609C71.14 80.1409 68.83 80.6309 66.51 80.6309Z" fill="#1F57C3"/>
<path d="M63.7298 72.1708C63.4198 72.1708 63.1098 72.0409 62.8998 71.8209L56.2598 64.7308C55.8398 64.2808 55.8598 63.5809 56.3098 63.1609C56.7598 62.7309 57.4398 62.7609 57.8698 63.2109L63.6798 69.3908L73.5698 57.9109C73.9798 57.4409 74.6798 57.3908 75.1298 57.7908C75.6098 58.1908 75.6498 58.9008 75.2498 59.3608L64.5798 71.7808C64.3598 72.0308 64.0598 72.1608 63.7498 72.1708C63.7298 72.1708 63.7298 72.1708 63.7298 72.1708Z" fill="#1F57C3"/>
</svg>
