<svg width="100" height="100" viewBox="0 0 100 100" fill="none" xmlns="http://www.w3.org/2000/svg">
<path d="M50 97.85C63.21 97.85 75.18 92.49 83.83 83.83C92.49 75.18 97.85 63.21 97.85 50C97.85 36.79 92.49 24.82 83.83 16.17C75.18 7.51 63.21 2.15 50 2.15C36.79 2.15 24.82 7.51 16.17 16.17C7.51 24.82 2.15 36.79 2.15 50C2.15 63.21 7.51 75.18 16.17 83.83C24.82 92.49 36.79 97.85 50 97.85ZM85.36 85.36C76.31 94.4 63.81 100 50 100C36.19 100 23.69 94.4 14.64 85.36C5.6 76.31 0 63.81 0 50C0 36.19 5.6 23.69 14.64 14.64C23.69 5.6 36.19 0 50 0C63.81 0 76.31 5.6 85.36 14.64C94.4 23.69 100 36.19 100 50C100 63.81 94.4 76.31 85.36 85.36Z" fill="#1F57C3"/>
<path d="M44.4599 83.9996C28.9799 83.9996 16.3899 71.4096 16.3899 55.9196C16.3899 40.4396 28.9799 27.8496 44.4599 27.8496C47.8199 27.8496 51.1099 28.4496 54.2599 29.6296C54.8399 29.8496 55.1499 30.4896 54.9099 31.0696C54.6899 31.6696 54.0499 31.9596 53.4699 31.7396C50.5799 30.6596 47.5599 30.1296 44.4599 30.1296C30.2299 30.1296 18.6499 41.6896 18.6499 55.9196C18.6499 70.1596 30.2299 81.7296 44.4599 81.7296C58.6799 81.7296 70.2699 70.1596 70.2699 55.9196C70.2699 52.9896 69.7599 50.1096 68.7999 47.3596C68.5799 46.7896 68.8999 46.1396 69.4999 45.9196C70.0799 45.7096 70.7199 46.0196 70.9399 46.6196C71.9999 49.5996 72.5299 52.7196 72.5299 55.9196C72.5299 71.4096 59.9299 83.9996 44.4599 83.9996Z" fill="#1F57C3"/>
<path d="M44.4598 75.7988C33.4998 75.7988 24.5798 66.8888 24.5798 55.9188C24.5798 44.9588 33.4998 36.0488 44.4598 36.0488C47.5598 36.0488 50.5398 36.7388 53.2998 38.1388C53.8498 38.3988 54.0898 39.0988 53.8098 39.6488C53.5398 40.1988 52.8398 40.4388 52.2898 40.1588C49.8398 38.9288 47.1998 38.3288 44.4598 38.3288C34.7498 38.3288 26.8398 46.2088 26.8398 55.9188C26.8398 65.6388 34.7498 73.5388 44.4598 73.5388C54.1698 73.5388 62.0698 65.6388 62.0698 55.9188C62.0698 52.3188 60.9898 48.8588 58.9498 45.9188C58.3198 45.0288 57.6498 44.2188 56.8998 43.4688C56.4698 43.0388 56.4698 42.3188 56.8998 41.8888C57.3398 41.4288 58.0598 41.4288 58.5198 41.8888C59.3598 42.7288 60.1298 43.6388 60.7998 44.6288C63.1098 47.9688 64.3298 51.8588 64.3298 55.9188C64.3298 66.8888 55.4198 75.7988 44.4598 75.7988Z" fill="#1F57C3"/>
<path d="M44.4599 66.2189C38.7799 66.2189 34.1699 61.5989 34.1699 55.9189C34.1699 50.2489 38.7799 45.6289 44.4599 45.6289C45.0799 45.6289 45.5899 46.1389 45.5899 46.7589C45.5899 47.3889 45.0799 47.8889 44.4599 47.8889C40.0399 47.8889 36.4299 51.4989 36.4299 55.9189C36.4299 60.3389 40.0399 63.9489 44.4599 63.9489C48.8799 63.9489 52.4799 60.3389 52.4799 55.9189C52.4799 53.7789 51.6399 51.7589 50.1299 50.2489C49.6999 49.8189 49.6999 49.0989 50.1299 48.6589C50.5599 48.2089 51.2799 48.2089 51.7399 48.6589C53.6599 50.5889 54.7399 53.1789 54.7399 55.9189C54.7399 61.5989 50.1299 66.2189 44.4599 66.2189Z" fill="#1F57C3"/>
<path d="M44.46 57.0693C44.17 57.0693 43.88 56.9493 43.66 56.7393C43.21 56.2793 43.21 55.5593 43.66 55.1293L72.36 26.4293C72.79 25.9793 73.51 25.9793 73.94 26.4293C74.4 26.8693 74.4 27.5893 73.94 28.0193L45.25 56.7393C45.03 56.9493 44.75 57.0693 44.46 57.0693Z" fill="#1F57C3"/>
<path d="M60.7298 31.4094L61.4698 37.2494L71.9698 26.3094L71.2998 17.7594L60.7298 31.4094ZM60.6498 40.8794C60.5298 40.8794 60.4098 40.8494 60.2898 40.7994C59.8798 40.6594 59.5698 40.2994 59.5198 39.8694L58.4198 31.2394C58.3998 30.9294 58.4698 30.6394 58.6598 30.3994L70.9898 14.4394C71.2498 14.1094 71.6598 13.9594 72.0698 14.0094C72.0898 14.0094 72.1198 14.0094 72.1398 14.0094C72.7698 13.9594 73.3198 14.4194 73.3698 15.0394L74.2798 26.6494C74.2998 26.9594 74.1798 27.2994 73.9698 27.5394L61.4698 40.5194C61.2498 40.7594 60.9398 40.8794 60.6498 40.8794Z" fill="#1F57C3"/>
<path d="M62.7499 39.189L67.5999 40.659L80.2399 30.809L73.4399 28.089L62.7499 39.189ZM67.8399 43.039C67.7199 43.039 67.6199 43.039 67.4999 42.989L60.3199 40.829C59.9299 40.709 59.6399 40.399 59.5499 40.009C59.4499 39.649 59.5499 39.239 59.8399 38.949L72.3299 25.949C72.6699 25.619 73.1499 25.519 73.5799 25.689L82.9099 29.439C83.2699 29.609 83.5299 29.939 83.5999 30.329C83.6499 30.739 83.4799 31.139 83.1699 31.379L68.5399 42.799C68.3199 42.969 68.0799 43.039 67.8399 43.039Z" fill="#1F57C3"/>
</svg>
