<svg width="17" height="15" viewBox="0 0 17 15" fill="none" xmlns="http://www.w3.org/2000/svg">
<path d="M1.73299 0.89617C1.55277 0.89617 1.38995 0.973101 1.26938 1.11322C1.15131 1.25197 1.09041 1.44018 1.10159 1.63663L1.70813 12.8534C1.73174 13.271 2.07106 13.6241 2.4489 13.6241H14.2391C14.6219 13.6241 14.9749 13.2683 15.0122 12.8465L15.7529 4.20144C15.7691 4.00499 15.7157 3.82228 15.6038 3.68491C15.4907 3.54753 15.3316 3.47197 15.1526 3.47197H8.51055C7.92514 3.47197 7.23657 3.031 6.94324 2.46913L6.51568 1.64487C6.30315 1.23961 5.76621 0.89617 5.34363 0.89617H1.73299ZM14.2391 14.1283H2.4489C1.8262 14.1283 1.29051 13.5705 1.25198 12.8822L0.645445 1.66822C0.628044 1.32891 0.731206 1.00882 0.937528 0.767036C1.14385 0.52388 1.42599 0.390625 1.73299 0.390625H5.34363C5.93028 0.390625 6.61884 0.831603 6.91093 1.39347L7.33973 2.21773C7.55102 2.62436 8.08796 2.96643 8.51055 2.96643H15.1526C15.4609 2.96643 15.7405 3.10106 15.9419 3.34421C16.142 3.58874 16.2364 3.9102 16.2079 4.24815L15.4658 12.8946C15.4087 13.5746 14.8581 14.1283 14.2391 14.1283Z" fill="#00CCFF"/>
<path d="M3.74487 12.2096C3.73368 12.2096 3.72125 12.2082 3.71007 12.2068C3.58578 12.1862 3.50002 12.0571 3.51866 11.9197C3.52487 11.8689 4.20474 6.90274 4.38621 4.91216C4.47072 3.98487 4.70563 3.3763 5.08472 3.10292C5.34076 2.91746 5.5794 2.94493 5.67634 2.96691H10.1123C10.2378 2.96691 10.341 3.07956 10.341 3.21969C10.341 3.35844 10.2378 3.47246 10.1123 3.47246H5.649C5.62538 3.47246 5.60052 3.46834 5.57815 3.46009C5.57691 3.46009 5.46008 3.4285 5.3246 3.53291C5.18291 3.64143 4.9306 3.97251 4.84235 4.96162C4.6584 6.96594 3.97729 11.9458 3.96983 11.9953C3.95368 12.1203 3.85673 12.2096 3.74487 12.2096Z" fill="#00CCFF"/>
<path d="M8.59865 7.56473L6.81756 9.74077H8.70181V10.2601H6.63734C6.51181 10.2601 6.41486 10.2216 6.34153 10.1433C6.26944 10.065 6.2334 9.96745 6.2334 9.84793C6.2334 9.71879 6.27193 9.61164 6.34775 9.52784L8.1425 7.34493H6.2508V6.82565H8.32148C8.44701 6.82565 8.54396 6.86549 8.6148 6.94517C8.68441 7.02622 8.71921 7.12238 8.71921 7.23915C8.71921 7.36691 8.67943 7.47544 8.59865 7.56473ZM9.38168 5.96705C9.38168 5.85303 9.41275 5.75961 9.47614 5.69092C9.53828 5.62223 9.61907 5.58789 9.7185 5.58789C9.81918 5.58789 9.90245 5.62223 9.96833 5.69092C10.0354 5.75961 10.069 5.85303 10.069 5.96705C10.069 6.07833 10.0354 6.16899 9.96833 6.24043C9.90245 6.31049 9.81918 6.34621 9.7185 6.34621C9.61907 6.34621 9.53828 6.31049 9.47614 6.24043C9.41275 6.16899 9.38168 6.07833 9.38168 5.96705ZM9.97827 10.2601H9.45998V6.82565H9.97827V10.2601ZM12.1819 6.77894C12.6107 6.77894 12.965 6.9438 13.2409 7.27212C13.5181 7.59496 13.656 8.01945 13.656 8.54285C13.656 9.06626 13.5181 9.49212 13.2409 9.82045C12.965 10.1447 12.6107 10.3054 12.1819 10.3054C11.9445 10.3054 11.6723 10.2601 11.3629 10.1666V11.7698H10.8508V7.50429C10.8508 7.31746 10.9055 7.1897 11.0136 7.11964C11.3467 6.89297 11.7357 6.77894 12.1819 6.77894ZM12.1633 9.79435C12.4604 9.79435 12.6977 9.67895 12.8742 9.45091C13.0507 9.22286 13.139 8.92201 13.139 8.54972C13.139 8.17606 13.0507 7.8752 12.8742 7.64441C12.6977 7.41362 12.4604 7.29822 12.1633 7.29822C11.8749 7.29822 11.6077 7.36279 11.3629 7.49193V9.65423C11.6201 9.74764 11.8874 9.79435 12.1633 9.79435Z" fill="#00CCFF"/>
</svg>
