<svg width="16" height="16" viewBox="0 0 16 16" fill="none" xmlns="http://www.w3.org/2000/svg">
<path d="M2.40848 13.8984L2.61949 15.1579L3.88556 14.9469C3.88556 14.3007 4.35373 13.727 5.01314 13.6149C5.08567 13.6017 5.1648 13.5951 5.23733 13.5951C5.82421 13.5951 6.33195 13.9644 6.51658 14.4985L7.57164 14.3205C7.57164 13.6742 8.03981 13.1006 8.69922 12.9885C8.77834 12.9753 8.85748 12.9687 8.93001 12.9687C9.51688 12.9687 10.018 13.338 10.2093 13.8721L11.2643 13.694C11.2643 13.4171 11.3434 13.1467 11.5149 12.9159C11.7193 12.6192 12.0358 12.4214 12.3919 12.362C12.4644 12.3488 12.5436 12.3422 12.6161 12.3422C13.203 12.3422 13.7107 12.7115 13.9019 13.2456L15.1548 13.0346L14.9438 11.7751C14.2778 11.7751 13.7239 11.3004 13.6118 10.6476C13.4997 9.98816 13.8887 9.35513 14.4954 9.13752L14.3173 8.08907C13.6579 8.08248 13.0975 7.6077 12.9854 6.95489C12.8733 6.29549 13.2623 5.66246 13.869 5.45145L13.6909 4.39639C13.0315 4.39639 12.471 3.92163 12.3589 3.26882C12.2468 2.60941 12.6359 1.97637 13.2491 1.75877L13.0315 0.499323L11.772 0.710318C11.772 0.993862 11.6863 1.26422 11.5215 1.49501C11.3171 1.79175 11.0006 1.98297 10.6445 2.04891C10.5653 2.05551 10.4928 2.06869 10.4137 2.06869C9.8334 2.06869 9.32565 1.69944 9.13443 1.15873L8.08597 1.33676C8.07938 1.98298 7.61121 2.55666 6.95839 2.66875C6.87927 2.68194 6.80013 2.68854 6.7276 2.68854C6.14073 2.68854 5.63298 2.31927 5.44835 1.78515L4.39329 1.96321C4.39329 2.60942 3.92512 3.1831 3.26572 3.2952C3.18659 3.30839 3.11405 3.31498 3.03492 3.31498C2.45464 3.31498 1.9469 2.94572 1.75567 2.4116L0.502804 2.62261L0.713818 3.88206C1.37322 3.88206 1.93371 4.35683 2.04581 5.01624C2.15791 5.67564 1.76886 6.30208 1.16221 6.51968L1.34024 7.57474C1.99965 7.57474 2.56016 8.04952 2.67226 8.70233C2.77776 9.36174 2.3953 9.99476 1.78205 10.2124L1.96009 11.2608C2.61949 11.2674 3.18659 11.7422 3.2921 12.395C3.35804 12.7511 3.27231 13.1071 3.0613 13.4039C2.89645 13.6347 2.67224 13.8061 2.40848 13.8984ZM2.42826 15.6591C2.32275 15.6591 2.22384 15.5799 2.20406 15.4678L1.91392 13.7666C1.90733 13.7072 1.92051 13.6413 1.95348 13.5951C1.99305 13.5424 2.04581 13.5094 2.10516 13.4962C2.34254 13.4566 2.54696 13.3313 2.68544 13.1335C2.82391 12.9423 2.87666 12.7049 2.83051 12.4675C2.76457 12.0389 2.39529 11.729 1.95348 11.729C1.90733 11.729 1.85459 11.729 1.80843 11.7422C1.74909 11.7488 1.68314 11.7356 1.63698 11.7026C1.58423 11.6631 1.55125 11.6103 1.54466 11.551L1.2875 10.0805C1.26772 9.94861 1.35343 9.82991 1.48531 9.81013C1.96668 9.72441 2.29639 9.26283 2.21066 8.78146C2.13813 8.35285 1.76887 8.03633 1.33366 8.03633C1.2875 8.03633 1.22815 8.04292 1.18199 8.04951C1.12264 8.0627 1.0567 8.04951 1.01054 8.00995C0.957787 7.97698 0.924827 7.91762 0.918233 7.85828L0.661055 6.38781C0.654461 6.32847 0.667647 6.26252 0.700617 6.21636C0.740182 6.16361 0.799542 6.13064 0.858889 6.11745C1.34025 6.03833 1.66994 5.57674 1.58422 5.08878C1.51168 4.66017 1.14243 4.35025 0.707218 4.35025C0.661059 4.35025 0.6083 4.35024 0.555547 4.35683C0.43026 4.38321 0.311565 4.29749 0.285188 4.1722L0.00164863 2.47094C-0.00494543 2.41159 0.00824108 2.35224 0.0412114 2.29949C0.0741817 2.24674 0.133535 2.21377 0.192882 2.20058L1.89414 1.91704C1.95349 1.90385 2.01284 1.91704 2.06559 1.9566C2.11175 1.98957 2.15133 2.04893 2.15792 2.10828C2.23045 2.53689 2.59971 2.84681 3.03492 2.84681C3.08767 2.84681 3.14043 2.84679 3.18659 2.83361C3.67455 2.75448 4.00424 2.2929 3.91852 1.81153C3.89874 1.67965 3.98447 1.56096 4.10976 1.54118L5.58022 1.2906C5.7121 1.27082 5.82421 1.35654 5.844 1.48183C5.92313 1.91045 6.29239 2.22696 6.7276 2.22696C6.77376 2.22696 6.8265 2.22036 6.87925 2.21376C7.36062 2.12804 7.69032 1.66646 7.6046 1.18509C7.58482 1.0598 7.67055 0.934514 7.80243 0.914732L9.2729 0.664174C9.32565 0.65758 9.39159 0.670767 9.44435 0.703737C9.49051 0.743302 9.52347 0.796041 9.53665 0.855388C9.60919 1.284 9.97847 1.60052 10.4137 1.60052C10.4664 1.60052 10.5192 1.59393 10.5653 1.58734C10.8027 1.54777 11.0071 1.41588 11.1456 1.22465C11.2841 1.03343 11.3368 0.796053 11.2973 0.558667C11.2775 0.43338 11.3632 0.314685 11.4885 0.288308L13.1832 0.00476859C13.3151 -0.0216076 13.4337 0.0641006 13.4535 0.195982L13.7437 1.89066C13.7503 1.95001 13.7371 2.01594 13.7041 2.06869C13.6645 2.11485 13.6118 2.14783 13.5525 2.16102C13.3151 2.20058 13.1106 2.32586 12.9722 2.52368C12.8337 2.71491 12.7809 2.9523 12.8205 3.18969C12.893 3.6183 13.2623 3.93482 13.6975 3.93482C13.7503 3.93482 13.803 3.92824 13.8492 3.92164C13.9085 3.90845 13.9745 3.92164 14.0206 3.9612C14.0734 3.99417 14.1063 4.04693 14.1195 4.10627L14.3701 5.58334C14.3899 5.70862 14.3042 5.82731 14.1789 5.8471C13.6909 5.93282 13.3612 6.3944 13.4469 6.87577C13.5129 7.31098 13.8887 7.6209 14.3239 7.6209C14.3767 7.6209 14.4229 7.61431 14.469 7.60772C14.6009 7.58794 14.7196 7.67364 14.746 7.79893L14.99 9.26941C15.0163 9.3947 14.924 9.51999 14.8053 9.53977C14.3174 9.6189 13.9877 10.0805 14.0668 10.5684C14.1393 10.9971 14.5152 11.3136 14.9438 11.3136C15.0031 11.3136 15.0493 11.307 15.0955 11.3004C15.1548 11.2872 15.2207 11.3004 15.2735 11.34C15.3197 11.3729 15.3526 11.4257 15.3658 11.4916L15.656 13.1863C15.6757 13.3116 15.59 13.4369 15.4647 13.4566L13.77 13.7402C13.7041 13.7534 13.6448 13.7402 13.592 13.7006C13.5393 13.6677 13.5063 13.6149 13.4931 13.5556C13.4271 13.1203 13.0579 12.8104 12.6161 12.8104C12.5699 12.8104 12.5172 12.8104 12.471 12.8236C12.2336 12.8632 12.0292 12.9885 11.8907 13.1863C11.7523 13.3775 11.6995 13.6149 11.7391 13.8523C11.7523 13.9116 11.7325 13.971 11.6995 14.0237C11.66 14.0765 11.6072 14.1095 11.5479 14.1161L10.0774 14.3666C10.0114 14.3798 9.9521 14.3666 9.90594 14.3271C9.85319 14.2941 9.81361 14.2413 9.80701 14.1754C9.73448 13.7468 9.36522 13.4369 8.93001 13.4369C8.87726 13.4369 8.83109 13.4369 8.77834 13.4434C8.29038 13.5292 7.96727 13.9908 8.05299 14.4721C8.07277 14.604 7.98706 14.7227 7.86178 14.7425L6.39129 14.9931C6.25941 15.0128 6.14072 14.9271 6.12094 14.8018C6.04181 14.3732 5.67914 14.0567 5.23733 14.0567C5.19118 14.0567 5.13842 14.0633 5.09226 14.0699C4.6043 14.1556 4.2812 14.6172 4.36033 15.0986C4.38012 15.2238 4.29439 15.3491 4.1691 15.3689L2.46784 15.6591C2.46125 15.6591 2.44145 15.6591 2.42826 15.6591Z" fill="#00CCFF"/>
<path d="M4.3273 12.9893C4.2152 12.9893 4.11629 12.9102 4.10311 12.7981L2.87002 5.57102C2.85024 5.44573 2.93595 5.32702 3.06783 5.30724C3.19312 5.28086 3.31183 5.36659 3.33161 5.49187L4.51854 12.4882L12.4908 11.143L11.139 3.17077L4.02398 4.37748C3.8921 4.39726 3.7734 4.31155 3.75362 4.18626C3.73384 4.06098 3.81957 3.93569 3.94486 3.9159L11.2906 2.66962C11.35 2.66302 11.4159 2.67621 11.4621 2.70918C11.5148 2.74874 11.5478 2.8015 11.561 2.86085L12.9853 11.2947C13.0051 11.4199 12.926 11.5386 12.7941 11.5584L4.36686 12.9893C4.35368 12.9893 4.34049 12.9893 4.3273 12.9893Z" fill="#00CCFF"/>
<path d="M10.2105 10.8377C10.0984 10.8377 9.9995 10.7586 9.97972 10.6465L9.82805 9.73651C9.81486 9.67716 9.83464 9.61123 9.86761 9.56507C9.90718 9.51232 9.95334 9.47934 10.0193 9.46615L11.7469 9.17601L9.38626 5.19979L8.30482 9.75629L8.91809 9.65738C9.04997 9.631 9.16864 9.71673 9.18843 9.84201C9.2148 9.97389 9.12909 10.0926 8.99721 10.1124L8.03446 10.2772C7.95534 10.2904 7.88282 10.264 7.82347 10.2047C7.77072 10.1519 7.75092 10.0662 7.77071 9.99368L9.07634 4.5338C9.09612 4.44149 9.17525 4.36894 9.26757 4.35575C9.35329 4.34256 9.44559 4.38873 9.49835 4.46786L12.3206 9.22877C12.3602 9.29471 12.3602 9.37383 12.3338 9.44637C12.3008 9.5189 12.2349 9.56507 12.1624 9.57825L10.3292 9.88818L10.4413 10.5674C10.4611 10.6927 10.3754 10.8113 10.2501 10.8311C10.2369 10.8377 10.2237 10.8377 10.2105 10.8377Z" fill="#00CCFF"/>
<path d="M6.17423 5.517C6.12147 5.517 6.07531 5.52359 6.02256 5.53018C5.79836 5.56975 5.59394 5.69503 5.46206 5.87967C5.33018 6.07089 5.27742 6.30169 5.31699 6.52589C5.38293 6.94791 5.74561 7.25124 6.16763 7.25124C6.22038 7.25124 6.26654 7.24465 6.3193 7.23806C6.5435 7.1985 6.74131 7.07321 6.8732 6.88858C7.01167 6.69735 7.05783 6.46654 7.01827 6.23575C6.95233 5.82032 6.58965 5.517 6.17423 5.517ZM6.16763 7.71283C5.51481 7.71283 4.96092 7.25123 4.85542 6.60502C4.79607 6.25553 4.88179 5.89945 5.07961 5.61591C5.29062 5.31917 5.59395 5.12796 5.94343 5.06861C6.02256 5.05542 6.10169 5.04883 6.17423 5.04883C6.82704 5.04883 7.37433 5.51701 7.47984 6.16323C7.53918 6.51271 7.46006 6.8622 7.25564 7.15233C7.05123 7.44247 6.74131 7.63369 6.39182 7.69303C6.31929 7.70622 6.24016 7.71283 6.16763 7.71283Z" fill="#00CCFF"/>
<path d="M3.85963 10.2246C3.80688 10.2246 3.75413 10.2114 3.71456 10.1719C3.61565 10.0861 3.59588 9.94107 3.6816 9.84216C3.72116 9.80259 4.63773 8.74755 6.33241 8.42444C8.07324 8.10133 8.38315 8.66841 8.42931 8.7871C8.46888 8.9058 8.40953 9.03769 8.29084 9.08385C8.17215 9.13 8.04686 9.07726 8.0007 8.96516C7.92817 8.87284 7.52593 8.67502 6.41813 8.87943C4.88831 9.16957 4.04426 10.1389 4.03767 10.1455C3.99151 10.1982 3.92557 10.2246 3.85963 10.2246Z" fill="#00CCFF"/>
</svg>
