<svg width="100" height="100" viewBox="0 0 100 100" fill="none" xmlns="http://www.w3.org/2000/svg">
<path d="M50 97.85C63.21 97.85 75.18 92.49 83.83 83.83C92.49 75.18 97.85 63.21 97.85 50C97.85 36.79 92.49 24.82 83.83 16.17C75.18 7.51 63.21 2.15 50 2.15C36.79 2.15 24.82 7.51 16.17 16.17C7.51 24.82 2.15 36.79 2.15 50C2.15 63.21 7.51 75.18 16.17 83.83C24.82 92.49 36.79 97.85 50 97.85ZM85.36 85.36C76.31 94.4 63.81 100 50 100C36.19 100 23.69 94.4 14.64 85.36C5.6 76.31 0 63.81 0 50C0 36.19 5.6 23.69 14.64 14.64C23.69 5.6 36.19 0 50 0C63.81 0 76.31 5.6 85.36 14.64C94.4 23.69 100 36.19 100 50C100 63.81 94.4 76.31 85.36 85.36Z" fill="#1F57C3"/>
<path d="M49.9998 22.5C46.8798 22.5 44.3398 25.03 44.3398 28.16C44.3398 31.54 47.0798 35.91 49.9998 35.91C52.9098 35.91 55.6599 31.54 55.6599 28.16C55.6599 25.03 53.1198 22.5 49.9998 22.5ZM49.9998 37.9C45.5598 37.9 42.3398 32.08 42.3398 28.16C42.3398 23.93 45.7798 20.5 49.9998 20.5C54.2198 20.5 57.6599 23.93 57.6599 28.16C57.6599 32.08 54.4398 37.9 49.9998 37.9Z" fill="#1F57C3"/>
<path d="M58.39 46.01C57.9 46.01 57.48 45.66 57.4 45.17C57.32 44.63 57.69 44.11 58.23 44.03L75.76 41.25L75.92 40.75H50C49.45 40.75 49 40.3 49 39.75C49 39.2 49.45 38.75 50 38.75H77.27C77.58 38.75 77.88 38.9 78.07 39.16C78.26 39.41 78.31 39.74 78.22 40.04L77.49 42.43C77.37 42.8 77.07 43.06 76.69 43.12L58.54 46C58.49 46.01 58.44 46.01 58.39 46.01Z" fill="#1F57C3"/>
<path d="M41.6102 46.01C41.5702 46.01 41.5102 46.01 41.4602 46L23.3102 43.12C22.9402 43.06 22.6302 42.8 22.5102 42.43L21.7802 40.04C21.6902 39.74 21.7402 39.41 21.9302 39.16C22.1202 38.91 22.4202 38.75 22.7302 38.75H50.0002C50.5502 38.75 51.0002 39.2 51.0002 39.75C51.0002 40.3 50.5502 40.75 50.0002 40.75H24.0902L24.2402 41.25L41.7702 44.03C42.3202 44.11 42.6902 44.63 42.6002 45.17C42.5202 45.66 42.1002 46.01 41.6102 46.01Z" fill="#1F57C3"/>
<path d="M53.6298 79.5002H46.3698C45.8698 79.5002 45.4498 79.1302 45.3798 78.6402L40.6298 45.1502C40.5498 44.6002 40.9298 44.1002 41.4698 44.0202C42.0198 43.9502 42.5198 44.3202 42.5998 44.8702L47.2398 77.5002H52.7698L57.3998 44.8702C57.4798 44.3202 57.9798 43.9502 58.5298 44.0202C59.0698 44.1002 59.4498 44.6002 59.3798 45.1502L54.6198 78.6402C54.5498 79.1302 54.1298 79.5002 53.6298 79.5002Z" fill="#1F57C3"/>
<path d="M14.0202 58.1501C14.8002 59.4701 16.6102 61.3802 20.5202 61.3802C24.4102 61.3802 26.2202 59.4701 27.0102 58.1501H14.0202ZM20.5202 63.3701C13.0402 63.3701 11.5602 57.4402 11.5402 57.3802C11.4702 57.0902 11.5402 56.7701 11.7302 56.5401C11.9202 56.3001 12.2002 56.1602 12.5102 56.1602H28.5302C28.8402 56.1602 29.1202 56.3001 29.3102 56.5401C29.5002 56.7701 29.5702 57.0902 29.5002 57.3802C29.4902 57.4402 28.0002 63.3701 20.5202 63.3701Z" fill="#1F57C3"/>
<path d="M12.51 57.0791C12.34 57.0791 12.17 57.0391 12.02 56.9491C11.54 56.6791 11.37 56.0691 11.64 55.5891L19.65 41.5491C19.83 41.2391 20.16 41.0391 20.52 41.0391C20.88 41.0391 21.21 41.2391 21.39 41.5491L29.4 55.5891C29.67 56.0691 29.5 56.6791 29.02 56.9491C28.54 57.2191 27.94 57.0491 27.66 56.5791L20.52 44.0591L13.38 56.5791C13.2 56.8991 12.86 57.0791 12.51 57.0791Z" fill="#1F57C3"/>
<path d="M72.9802 58.1501C73.7602 59.4701 75.5702 61.3802 79.4802 61.3802C83.3902 61.3802 85.2002 59.4701 85.9802 58.1501H72.9802ZM79.4802 63.3701C72.0002 63.3701 70.5102 57.4402 70.5002 57.3802C70.4302 57.0902 70.5002 56.7701 70.6902 56.5401C70.8802 56.3001 71.1702 56.1602 71.4702 56.1602H87.4902C87.7902 56.1602 88.0802 56.3001 88.2702 56.5401C88.4602 56.7701 88.5302 57.0902 88.4602 57.3802C88.4502 57.4402 86.9602 63.3701 79.4802 63.3701Z" fill="#1F57C3"/>
<path d="M87.4898 57.0791C87.1398 57.0791 86.8098 56.8991 86.6198 56.5791L79.4798 44.0591L72.3398 56.5791C72.0698 57.0491 71.4598 57.2191 70.9798 56.9491C70.4998 56.6791 70.3398 56.0691 70.6098 55.5891L78.6198 41.5491C78.7898 41.2391 79.1198 41.0391 79.4798 41.0391C79.8398 41.0391 80.1698 41.2391 80.3498 41.5491L88.3598 55.5891C88.6298 56.0691 88.4598 56.6791 87.9898 56.9491C87.8298 57.0391 87.6598 57.0791 87.4898 57.0791Z" fill="#1F57C3"/>
</svg>
