<svg width="100" height="100" viewBox="0 0 100 100" fill="none" xmlns="http://www.w3.org/2000/svg">
<path d="M50 97.85C63.21 97.85 75.18 92.49 83.83 83.83C92.49 75.18 97.85 63.21 97.85 50C97.85 36.79 92.49 24.82 83.83 16.17C75.18 7.51 63.21 2.15 50 2.15C36.79 2.15 24.82 7.51 16.17 16.17C7.51 24.82 2.15 36.79 2.15 50C2.15 63.21 7.51 75.18 16.17 83.83C24.82 92.49 36.79 97.85 50 97.85ZM85.36 85.36C76.31 94.4 63.81 100 50 100C36.19 100 23.69 94.4 14.64 85.36C5.6 76.31 0 63.81 0 50C0 36.19 5.6 23.69 14.64 14.64C23.69 5.6 36.19 0 50 0C63.81 0 76.31 5.6 85.36 14.64C94.4 23.69 100 36.19 100 50C100 63.81 94.4 76.31 85.36 85.36Z" fill="#1F57C3"/>
<path d="M48.3401 63.2197C48.0601 63.2197 47.7901 63.1096 47.6101 62.9196L42.2301 57.6796C41.8401 57.2796 41.8101 56.6197 42.2301 56.2097C42.6301 55.7997 43.2901 55.7897 43.6901 56.1897L48.1901 60.5797L59.1301 44.9097C59.4601 44.4397 60.1201 44.3196 60.5901 44.6496C61.0501 44.9796 61.1801 45.6297 60.8501 46.0997L49.1801 62.7697C49.0001 63.0197 48.7401 63.1897 48.4301 63.2097C48.3901 63.2097 48.3601 63.2197 48.3401 63.2197Z" fill="#1F57C3"/>
<path d="M48.1001 71.8297C41.0901 71.8297 35.3901 66.1397 35.3901 59.1297C35.3901 52.1297 41.0901 46.4297 48.1001 46.4297C48.6701 46.4297 49.1401 46.8997 49.1401 47.4697C49.1401 48.0397 48.6701 48.5097 48.1001 48.5097C42.2301 48.5097 37.4701 53.2797 37.4701 59.1297C37.4701 64.9897 42.2301 69.7497 48.1001 69.7497C53.9401 69.7497 58.7101 64.9897 58.7101 59.1297C58.7101 58.1097 58.5601 57.0997 58.2701 56.1197C58.1101 55.5697 58.4201 54.9897 58.9701 54.8297C59.5301 54.6697 60.1001 54.9797 60.2801 55.5397C60.6101 56.6997 60.7801 57.9097 60.7801 59.1297C60.7801 66.1397 55.0901 71.8297 48.1001 71.8297Z" fill="#1F57C3"/>
<path d="M74.24 81H35C34.42 81 33.96 80.53 33.96 79.96C33.96 79.39 34.42 78.92 35 78.92H73.18V40.04L54.23 21.08H28.8V79.96C28.8 80.53 28.34 81 27.76 81C27.19 81 26.73 80.53 26.73 79.96V20.04C26.73 19.47 27.19 19 27.76 19H54.67C54.94 19 55.2 19.11 55.4 19.31L74.97 38.88C75.17 39.07 75.28 39.33 75.28 39.61V79.96C75.28 80.53 74.81 81 74.24 81Z" fill="#1F57C3"/>
<path d="M55.7099 38.5701H71.7199L55.7099 22.5501V38.5701ZM74.2399 40.6501H54.6699C54.0999 40.6501 53.6099 40.1901 53.6099 39.6101V20.0401C53.6099 19.6201 53.8799 19.2401 54.2799 19.0801C54.6499 18.9201 55.1099 19.0101 55.3999 19.3101L74.9699 38.8801C75.2499 39.1701 75.3399 39.6201 75.1899 40.0101C75.0299 40.4001 74.6599 40.6501 74.2399 40.6501Z" fill="#1F57C3"/>
</svg>
