<svg width="100" height="100" viewBox="0 0 100 100" fill="none" xmlns="http://www.w3.org/2000/svg">
<path d="M50 97.85C63.21 97.85 75.18 92.49 83.83 83.83C92.49 75.18 97.85 63.21 97.85 50C97.85 36.79 92.49 24.82 83.83 16.17C75.18 7.51 63.21 2.15 50 2.15C36.79 2.15 24.82 7.51 16.17 16.17C7.51 24.82 2.15 36.79 2.15 50C2.15 63.21 7.51 75.18 16.17 83.83C24.82 92.49 36.79 97.85 50 97.85ZM85.36 85.36C76.31 94.4 63.81 100 50 100C36.19 100 23.69 94.4 14.64 85.36C5.6 76.31 0 63.81 0 50C0 36.19 5.6 23.69 14.64 14.64C23.69 5.6 36.19 0 50 0C63.81 0 76.31 5.6 85.36 14.64C94.4 23.69 100 36.19 100 50C100 63.81 94.4 76.31 85.36 85.36Z" fill="#1F57C3"/>
<path d="M75.96 21.92V56.83C75.96 57.34 75.55 57.75 75.04 57.75C74.53 57.75 74.11 57.34 74.11 56.83V22.86H25.89V27.94H27.99C28.78 27.04 29.94 26.51 31.16 26.51C33.48 26.51 35.38 28.39 35.38 30.72C35.38 33.05 33.48 34.94 31.16 34.94C29.94 34.94 28.78 34.41 27.99 33.5H25.89V37.58H27.99C28.78 36.68 29.94 36.15 31.16 36.15C33.48 36.15 35.38 38.03 35.38 40.37C35.38 42.68 33.48 44.58 31.16 44.58C29.94 44.58 28.78 44.05 27.99 43.13H25.89V47.23H27.99C28.78 46.32 29.94 45.8 31.16 45.8C33.48 45.8 35.38 47.68 35.38 50.01C35.38 52.32 33.48 54.22 31.16 54.22C29.94 54.22 28.78 53.69 27.99 52.77H25.89V56.87H27.99C28.78 55.97 29.94 55.44 31.16 55.44C33.48 55.44 35.38 57.32 35.38 59.65C35.38 61.97 33.48 63.87 31.16 63.87C29.94 63.87 28.78 63.34 27.99 62.42H25.89V66.52H27.99C28.78 65.61 29.94 65.06 31.16 65.06C33.48 65.06 35.38 66.97 35.38 69.3C35.38 71.61 33.48 73.51 31.16 73.51C29.94 73.51 28.78 72.98 27.99 72.06H25.89V77.16H55.89C56.4 77.16 56.82 77.57 56.82 78.08C56.82 78.59 56.4 79 55.89 79H24.96C24.46 79 24.04 78.59 24.04 78.08V71.14C24.04 70.63 24.46 70.22 24.96 70.22H28.44C28.75 70.22 29.03 70.38 29.2 70.61C29.64 71.28 30.37 71.65 31.16 71.65C32.47 71.65 33.53 70.59 33.53 69.3C33.53 67.98 32.47 66.93 31.16 66.93C30.37 66.93 29.64 67.3 29.2 67.97C29.03 68.2 28.74 68.36 28.44 68.36H24.96C24.46 68.36 24.04 67.95 24.04 67.44V61.5C24.04 60.99 24.46 60.58 24.96 60.58H28.44C28.75 60.58 29.03 60.73 29.2 60.97C29.64 61.63 30.37 62.01 31.16 62.01C32.47 62.01 33.53 60.95 33.53 59.65C33.53 58.34 32.47 57.28 31.16 57.28C30.37 57.28 29.64 57.67 29.2 58.32C29.03 58.58 28.74 58.71 28.44 58.71H24.96C24.46 58.71 24.04 58.3 24.04 57.79V51.85C24.04 51.34 24.46 50.93 24.96 50.93H28.44C28.75 50.93 29.03 51.09 29.2 51.34C29.64 51.99 30.37 52.36 31.16 52.36C32.47 52.36 33.53 51.3 33.53 50.01C33.53 48.7 32.47 47.64 31.16 47.64C30.37 47.64 29.64 48.03 29.2 48.68C29.03 48.93 28.75 49.07 28.44 49.07H24.96C24.46 49.07 24.04 48.66 24.04 48.15V42.21C24.04 41.7 24.46 41.29 24.96 41.29H28.44C28.74 41.29 29.03 41.44 29.2 41.7C29.64 42.35 30.37 42.74 31.16 42.74C32.47 42.74 33.53 41.66 33.53 40.37C33.53 39.05 32.47 37.99 31.16 37.99C30.37 37.99 29.64 38.39 29.2 39.03C29.03 39.29 28.74 39.44 28.44 39.44H24.96C24.46 39.44 24.04 39.01 24.04 38.5V32.56C24.04 32.05 24.46 31.64 24.96 31.64H28.44C28.75 31.64 29.03 31.8 29.2 32.05C29.64 32.7 30.37 33.09 31.16 33.09C32.47 33.09 33.53 32.03 33.53 30.72C33.53 29.41 32.47 28.35 31.16 28.35C30.37 28.35 29.64 28.74 29.2 29.39C29.03 29.64 28.74 29.8 28.44 29.8H24.96C24.46 29.8 24.04 29.39 24.04 28.88V21.92C24.04 21.41 24.46 21 24.96 21H75.04C75.55 21 75.96 21.41 75.96 21.92Z" fill="#1F57C3"/>
<path d="M75.9602 56.8302C75.9602 59.8702 74.9402 62.3002 72.9102 64.0602C69.0802 67.4402 62.7702 67.4002 60.2602 67.2202C60.2602 69.7702 60.0102 75.9201 57.8902 78.1201C57.3202 78.6901 56.6402 79.0002 55.8902 79.0002C55.3802 79.0002 54.9702 78.5902 54.9702 78.0802C54.9702 77.5702 55.3802 77.1602 55.8902 77.1602C56.0402 77.1602 56.2802 77.1202 56.5702 76.8302C58.0802 75.2602 58.5002 69.4902 58.4002 66.2402C58.4002 65.9702 58.5102 65.7101 58.7102 65.5401C58.9102 65.3601 59.1802 65.2602 59.4502 65.3002C59.5302 65.3202 67.5702 66.3002 71.7002 62.6902C73.3002 61.2802 74.1102 59.3002 74.1102 56.8302C74.1102 56.3202 74.5302 55.9102 75.0402 55.9102C75.5502 55.9102 75.9602 56.3202 75.9602 56.8302Z" fill="#1F57C3"/>
<path d="M71.5699 64.5296C71.5699 64.7696 71.4699 65.0196 71.2699 65.1996L58.4198 77.3696C58.0498 77.7296 57.4598 77.7096 57.1098 77.3396C56.7598 76.9596 56.7798 76.3796 57.1498 76.0196L70.0098 63.8696C70.3798 63.5196 70.9598 63.5396 71.3098 63.9096C71.4798 64.0796 71.5699 64.2996 71.5699 64.5296Z" fill="#1F57C3"/>
<path d="M46.17 33.6209L48.03 28.7609L49.88 33.6209H46.17ZM51.42 37.9009C51.67 38.5209 51.99 38.5509 52.4 38.5509C52.95 38.5509 53.52 38.2109 53.34 37.7509L49.31 27.4609C49.12 26.9509 48.9 26.8809 48.05 26.8809C47.22 26.8809 46.99 26.9509 46.79 27.4609L42.8 37.7509C42.62 38.2109 43.17 38.5509 43.7 38.5509C44.09 38.5509 44.4 38.5209 44.64 37.9009L45.73 35.0909H50.32L51.42 37.9009ZM44.68 54.1609H48.42C51.42 54.1609 52.79 53.1009 52.79 50.9509C52.79 49.6009 52.01 48.5209 50.3 48.1309C51.62 47.7409 52.33 46.9009 52.33 45.6609C52.33 43.7309 50.96 42.6809 48.46 42.6809H44.68C44.09 42.6809 43.7 42.9109 43.7 43.5309V53.3109C43.7 53.9309 44.09 54.1609 44.68 54.1609ZM45.51 52.6909V49.0009H48.44C50.15 49.0009 50.91 49.6009 50.91 50.8109C50.91 52.1409 50.23 52.6909 48.39 52.6909H45.51ZM45.51 47.6909V44.1509H48.28C49.77 44.1509 50.43 44.7409 50.43 45.8809C50.43 46.9809 49.67 47.6909 48.32 47.6909H45.51ZM48.85 70.0909C51.9 70.0909 53.41 68.3709 53.41 67.3209C53.41 66.2709 52.43 65.9709 52.27 66.4309C51.83 67.6909 50.5 68.4409 48.96 68.4409C46.65 68.4409 44.96 66.6509 44.96 64.1109C44.96 61.5609 46.6 59.8009 48.92 59.8009C50.22 59.8009 51.56 60.4009 52.17 61.5709C52.36 61.9509 53.23 61.7309 53.23 60.7609C53.23 59.7309 51.78 58.1509 48.9 58.1509C45.46 58.1509 43.07 60.6309 43.07 64.1509C43.07 67.6409 45.44 70.0909 48.85 70.0909Z" fill="#1F57C3"/>
</svg>
