<svg width="100" height="100" viewBox="0 0 100 100" fill="none" xmlns="http://www.w3.org/2000/svg">
<path d="M50 97.85C63.21 97.85 75.18 92.49 83.83 83.83C92.49 75.18 97.85 63.21 97.85 50C97.85 36.79 92.49 24.82 83.83 16.17C75.18 7.51 63.21 2.15 50 2.15C36.79 2.15 24.82 7.51 16.17 16.17C7.51 24.82 2.15 36.79 2.15 50C2.15 63.21 7.51 75.18 16.17 83.83C24.82 92.49 36.79 97.85 50 97.85ZM85.36 85.36C76.31 94.4 63.81 100 50 100C36.19 100 23.69 94.4 14.64 85.36C5.6 76.31 0 63.81 0 50C0 36.19 5.6 23.69 14.64 14.64C23.69 5.6 36.19 0 50 0C63.81 0 76.31 5.6 85.36 14.64C94.4 23.69 100 36.19 100 50C100 63.81 94.4 76.31 85.36 85.36Z" fill="#1F57C3"/>
<path d="M18.52 40.881C18.35 40.881 18.18 40.841 18.03 40.761C17.71 40.611 17.49 40.341 17.42 40.001L14.27 27.191C14.12 26.581 14.51 25.961 15.11 25.801C15.72 25.661 16.35 26.031 16.5 26.651L19.32 38.121L30.61 33.001C31.19 32.741 31.87 32.991 32.11 33.571C32.38 34.151 32.14 34.831 31.55 35.091L19 40.781C18.85 40.851 18.68 40.881 18.52 40.881Z" fill="#1F57C3"/>
<path d="M50.8099 85.0007C47.5799 85.0007 44.3499 84.5507 41.1699 83.6407C28.5199 80.0307 19.0499 69.7707 16.4499 56.8607C16.3299 56.2407 16.7199 55.6407 17.3499 55.5107C17.9799 55.3907 18.5599 55.7908 18.6799 56.4108C21.1099 68.4708 29.9799 78.0608 41.7999 81.4408C50.1999 83.8408 59.0199 82.8207 66.6399 78.5807C74.2899 74.3307 79.8099 67.3707 82.2099 58.9707C87.1599 41.6307 77.0899 23.5008 59.7499 18.5508C43.0399 13.7908 25.5099 22.9108 19.8499 39.3308C19.6599 39.9208 18.9999 40.2407 18.3899 40.0407C17.8099 39.8307 17.4899 39.1808 17.6899 38.5808C23.7399 21.0108 42.4799 11.2507 60.3799 16.3507C78.9099 21.6507 89.7099 41.0508 84.4199 59.6008C81.8499 68.5808 75.9499 76.0407 67.7599 80.5807C62.4899 83.5107 56.6899 85.0007 50.8099 85.0007Z" fill="#1F57C3"/>
<path d="M50.1099 51.1414C49.8899 51.1414 49.6699 51.0814 49.4799 50.9514C49.1599 50.7414 48.9399 50.3814 48.9399 50.0014V32.0814C48.9399 31.4514 49.4799 30.9414 50.1099 30.9414C50.7399 30.9414 51.2499 31.4514 51.2499 32.0814V48.2514L65.6699 41.9814C66.2599 41.7314 66.9399 42.0014 67.1999 42.5814C67.4499 43.1614 67.1799 43.8314 66.5999 44.0814L50.5399 51.0414C50.3999 51.1114 50.2499 51.1414 50.1099 51.1414Z" fill="#1F57C3"/>
<path d="M50.11 76.5804C36.68 76.5804 25.3399 66.5604 23.7099 53.2704C23.6399 52.6404 24.0799 52.0704 24.7099 51.9904C25.3399 51.9104 25.9 52.3604 25.97 52.9904C27.48 65.1404 37.84 74.3004 50.11 74.3004C63.49 74.3004 74.3899 63.3904 74.3899 50.0004C74.3899 36.6004 63.49 25.6904 50.11 25.6904C44.94 25.6904 40.01 27.2904 35.83 30.3204C35.32 30.6904 34.6099 30.5804 34.2299 30.0604C33.8599 29.5604 33.98 28.8404 34.49 28.4604C39.06 25.1604 44.45 23.4004 50.11 23.4004C64.75 23.4004 76.6999 35.3304 76.6999 50.0004C76.6999 64.6604 64.75 76.5804 50.11 76.5804Z" fill="#1F57C3"/>
</svg>
