<svg width="100" height="100" viewBox="0 0 100 100" fill="none" xmlns="http://www.w3.org/2000/svg">
<path d="M50 97.85C63.21 97.85 75.18 92.49 83.83 83.83C92.49 75.18 97.85 63.21 97.85 50C97.85 36.79 92.49 24.82 83.83 16.17C75.18 7.51 63.21 2.15 50 2.15C36.79 2.15 24.82 7.51 16.17 16.17C7.51 24.82 2.15 36.79 2.15 50C2.15 63.21 7.51 75.18 16.17 83.83C24.82 92.49 36.79 97.85 50 97.85ZM85.36 85.36C76.31 94.4 63.81 100 50 100C36.19 100 23.69 94.4 14.64 85.36C5.6 76.31 0 63.81 0 50C0 36.19 5.6 23.69 14.64 14.64C23.69 5.6 36.19 0 50 0C63.81 0 76.31 5.6 85.36 14.64C94.4 23.69 100 36.19 100 50C100 63.81 94.4 76.31 85.36 85.36Z" fill="#1F57C3"/>
<path d="M70.9003 25.6998C63.4403 25.6998 62.6403 32.1298 62.6403 34.8898C62.6403 44.5798 73.7203 52.3098 79.5203 55.7198C82.3303 50.1198 84.3103 44.8598 85.5203 39.7198C84.3103 40.1698 83.1303 40.9798 82.0003 41.7798C81.7003 41.9898 81.4203 42.1998 81.1203 42.3998C80.4403 42.8498 79.5203 42.6898 79.0103 42.0398C78.6903 41.6498 78.5903 41.1498 78.6903 40.6698C79.2903 38.2298 80.1703 35.8699 81.0203 33.5999C81.3203 32.8599 81.6003 32.1098 81.8803 31.3598C80.9003 29.7798 77.7303 25.6998 70.9003 25.6998ZM80.0203 58.5398C79.8203 58.5398 79.6203 58.4898 79.4403 58.3898C72.2803 54.3998 60.2803 46.0498 60.2803 34.8898C60.2803 29.3098 63.0703 23.3398 70.9003 23.3398C79.8903 23.3398 83.5603 29.4598 84.2103 30.6898C84.3603 30.9898 84.3903 31.3298 84.2903 31.6398C83.9603 32.5798 83.6103 33.4998 83.2603 34.4398C82.6503 35.9898 82.0503 37.5899 81.5503 39.2099C83.1303 38.1399 84.9103 37.1098 87.0003 36.9798C87.3703 36.9598 87.7303 37.1098 87.9803 37.3898C88.2003 37.6698 88.3003 38.0398 88.2303 38.3998C86.9503 44.6698 84.6103 51.0498 81.0703 57.8998C80.9203 58.1798 80.6703 58.3899 80.3703 58.4899C80.2403 58.5199 80.1403 58.5398 80.0203 58.5398Z" fill="#1F57C3"/>
<path d="M33.3903 17.37C29.7003 17.37 26.6803 20.38 26.6803 24.08C26.6803 28.1 29.9203 33.28 33.3903 33.28C36.8503 33.28 40.1203 28.1 40.1203 24.08C40.1203 20.38 37.1003 17.37 33.3903 17.37ZM33.3903 35.65C28.1103 35.65 24.3003 28.74 24.3003 24.08C24.3003 19.07 28.3903 15 33.3903 15C38.4103 15 42.4803 19.07 42.4803 24.08C42.4803 28.74 38.6603 35.65 33.3903 35.65Z" fill="#1F57C3"/>
<path d="M26.7801 63.6501C26.6301 63.6501 26.4801 63.6302 26.3301 63.5602L21.9901 61.8002C21.5901 61.6302 21.3101 61.2401 21.2601 60.7901L19.7501 40.9301C19.7301 40.5301 19.9001 40.1401 20.2301 39.9001C20.4101 39.7701 24.6201 36.6602 33.3901 36.6602H61.7601C62.2601 36.6602 62.7201 36.9702 62.8901 37.4402L64.4201 41.7502C64.5501 42.0902 64.5201 42.4802 64.3201 42.7802C64.1201 43.0902 63.8001 43.2902 63.4401 43.3302L43.4601 45.2601C42.8001 45.3201 42.2301 44.8402 42.1801 44.1902C42.1001 43.5402 42.5801 42.9601 43.2301 42.9001L61.6901 41.1201L60.9301 39.0202H33.3901C27.1101 39.0202 23.4401 40.7302 22.1901 41.4602L23.5701 59.8802L27.2101 61.3802C27.8401 61.6202 28.1101 62.3202 27.8601 62.9202C27.6901 63.3802 27.2401 63.6501 26.7801 63.6501Z" fill="#1F57C3"/>
<path d="M37.7102 84.9999H29.0902C28.4902 84.9999 27.9602 84.5399 27.9102 83.9399L25.6002 62.5999C25.5302 61.9499 26.0002 61.3599 26.6302 61.2899C27.2902 61.2299 27.8902 61.6999 27.9402 62.3399L30.1502 82.6299H36.6802L42.1802 43.9099C42.2502 43.2699 42.8502 42.8199 43.5102 42.9099C44.1602 42.9999 44.6102 43.5999 44.5102 44.2499L38.8602 83.9799C38.7902 84.5599 38.2802 84.9999 37.7102 84.9999Z" fill="#1F57C3"/>
</svg>
