<svg width="100" height="100" viewBox="0 0 100 100" fill="none" xmlns="http://www.w3.org/2000/svg">
<path d="M50 97.85C63.21 97.85 75.18 92.49 83.83 83.83C92.49 75.18 97.85 63.21 97.85 50C97.85 36.79 92.49 24.82 83.83 16.17C75.18 7.51 63.21 2.15 50 2.15C36.79 2.15 24.82 7.51 16.17 16.17C7.51 24.82 2.15 36.79 2.15 50C2.15 63.21 7.51 75.18 16.17 83.83C24.82 92.49 36.79 97.85 50 97.85ZM85.36 85.36C76.31 94.4 63.81 100 50 100C36.19 100 23.69 94.4 14.64 85.36C5.6 76.31 0 63.81 0 50C0 36.19 5.6 23.69 14.64 14.64C23.69 5.6 36.19 0 50 0C63.81 0 76.31 5.6 85.36 14.64C94.4 23.69 100 36.19 100 50C100 63.81 94.4 76.31 85.36 85.36Z" fill="#1F57C3"/>
<path d="M26.4101 53.7597C26.2201 53.7597 26.0201 53.7097 25.8301 53.5897L16.1101 47.3397C15.7501 47.1097 15.5601 46.6897 15.6301 46.2697C15.6501 46.1197 16.2001 42.7297 17.8301 39.3897C18.5001 38.0197 19.2801 36.8497 20.1301 35.8997C20.5101 35.4597 21.2001 35.4097 21.6401 35.8097C22.1001 36.2097 22.1201 36.8897 21.7301 37.3397C21.0201 38.1397 20.3501 39.1497 19.7601 40.3497C18.7001 42.5397 18.1301 44.8197 17.9001 45.9197L26.4301 51.3997L35.2801 45.9097C34.8401 44.0697 33.4701 39.0797 30.4401 36.5297C29.9801 36.1397 29.9401 35.4597 30.3101 34.9997C30.6901 34.5497 31.3801 34.4897 31.8401 34.8797C36.1701 38.5397 37.5001 45.9297 37.5501 46.2497C37.6401 46.6797 37.4401 47.1197 37.0701 47.3497L26.9801 53.5997C26.8201 53.7097 26.6101 53.7597 26.4101 53.7597Z" fill="#1F57C3"/>
<path d="M26.41 36.4196C23.17 36.4196 20.67 32.9096 19.71 29.6396C19.55 29.0696 19.87 28.4696 20.45 28.3096C21.04 28.1396 21.64 28.4596 21.8 29.0396C22.55 31.6096 24.48 34.2596 26.41 34.2596C28.79 34.2596 31.22 30.2796 31.38 27.1896C31.41 26.5896 31.91 26.1296 32.51 26.1596C33.1 26.1896 33.56 26.6996 33.54 27.2896C33.35 30.9296 30.42 36.4196 26.41 36.4196Z" fill="#1F57C3"/>
<path d="M26.61 20.16C23.06 20.16 20.17 23.05 20.17 26.6C20.17 27.22 20.24 27.82 20.35 28.31C22.76 27.95 26.29 26.61 28.06 25.06C28.56 24.63 28.75 24.31 28.81 24.17C29.02 23.7 29.53 23.43 30.03 23.53C30.51 23.63 30.88 24.06 30.9 24.57C30.9 25.09 30.88 25.6 30.86 26.08C30.86 26.27 30.83 26.44 30.81 26.61C31.8 26.38 32.62 26.06 32.99 25.75C32.58 22.59 29.85 20.16 26.61 20.16ZM19.53 30.57C19.07 30.57 18.66 30.27 18.5 29.83C18.27 29.12 18.02 27.9 18.02 26.6C18.02 21.86 21.87 18 26.61 18C31.11 18 34.87 21.51 35.17 25.98C35.19 26.18 35.17 26.37 35.07 26.54C34.13 28.39 30.67 28.89 29.64 28.99C29.27 29.03 28.93 28.89 28.7 28.62C28.47 28.35 28.38 27.98 28.47 27.64C28.47 27.64 28.49 27.56 28.52 27.43C25.95 29.17 22 30.44 19.57 30.56C19.57 30.57 19.55 30.57 19.53 30.57Z" fill="#1F57C3"/>
<path d="M73.2301 53.7597C73.0201 53.7597 72.8101 53.7097 72.6301 53.5897L62.9101 47.3397C62.5601 47.1097 62.3801 46.6897 62.4301 46.2697C62.4501 46.1197 63.0001 42.7297 64.6301 39.3897C65.3201 38.0197 66.0701 36.8497 66.9201 35.8997C67.3101 35.4597 68.0001 35.4097 68.4601 35.8097C68.8901 36.2097 68.9401 36.8897 68.5301 37.3397C67.8401 38.1397 67.1701 39.1497 66.5801 40.3497C65.5001 42.5397 64.9301 44.8197 64.7001 45.9197L73.2301 51.3997L82.1001 45.9097C81.6601 44.0697 80.2701 39.0797 77.2601 36.5297C76.8001 36.1397 76.7301 35.4597 77.1201 34.9997C77.5101 34.5497 78.1801 34.4897 78.6401 34.8797C82.9701 38.5397 84.3001 45.9297 84.3701 46.2497C84.4401 46.6797 84.2501 47.1197 83.8601 47.3497L73.8001 53.5997C73.6201 53.7097 73.4101 53.7597 73.2301 53.7597Z" fill="#1F57C3"/>
<path d="M73.2298 36.4196C69.9898 36.4196 67.4699 32.9096 66.5299 29.6396C66.3699 29.0696 66.6899 28.4696 67.2699 28.3096C67.8399 28.1396 68.4299 28.4596 68.5999 29.0396C69.3499 31.6096 71.2798 34.2596 73.2298 34.2596C75.6098 34.2596 78.0398 30.2796 78.1798 27.1896C78.1998 26.5896 78.7299 26.1296 79.2999 26.1596C79.8999 26.1896 80.3599 26.6996 80.3299 27.2896C80.1499 30.9296 77.2398 36.4196 73.2298 36.4196Z" fill="#1F57C3"/>
<path d="M73.4101 20.16C69.8601 20.16 66.9901 23.05 66.9901 26.6C66.9901 27.22 67.0601 27.82 67.1501 28.31C69.5601 27.95 73.1101 26.61 74.8801 25.06C75.3801 24.63 75.5601 24.31 75.6101 24.16C75.8201 23.7 76.3201 23.43 76.8301 23.53C77.3301 23.63 77.7001 24.06 77.7001 24.57C77.7001 25.09 77.7001 25.6 77.6501 26.08C77.6501 26.27 77.6301 26.44 77.6301 26.61C78.5901 26.38 79.4401 26.06 79.7801 25.75C79.3701 22.59 76.6401 20.16 73.4101 20.16ZM66.3301 30.57C65.8701 30.57 65.4501 30.27 65.3201 29.83C65.0601 29.12 64.8101 27.9 64.8101 26.6C64.8101 21.86 68.6601 18 73.4101 18C77.9001 18 81.6601 21.51 81.9901 25.98C82.0101 26.18 81.9601 26.37 81.8701 26.54C80.9501 28.39 77.4901 28.89 76.4401 28.99C76.0901 29.03 75.7501 28.89 75.5001 28.62C75.2701 28.35 75.2001 27.98 75.2901 27.64C75.2901 27.64 75.3101 27.56 75.3401 27.43C72.7701 29.17 68.8001 30.44 66.3901 30.56C66.3701 30.57 66.3501 30.57 66.3301 30.57Z" fill="#1F57C3"/>
<path d="M49.3603 87.9999C49.1503 87.9999 48.9503 87.9399 48.7603 87.8299L39.0403 81.5799C38.7003 81.3499 38.4903 80.9299 38.5603 80.5099C38.5803 80.3599 39.1303 76.9699 40.7603 73.6299C41.4503 72.2599 42.2003 71.0899 43.0503 70.1399C43.4403 69.6899 44.1303 69.6499 44.5903 70.0499C45.0303 70.4499 45.0703 71.1299 44.6603 71.5799C43.9503 72.3799 43.2803 73.3899 42.7103 74.5899C41.6303 76.7799 41.0603 79.0599 40.8303 80.1499L49.3603 85.6399L58.2103 80.1499C57.8003 78.3099 56.4003 73.3199 53.3703 70.7699C52.9403 70.3799 52.8703 69.6999 53.2603 69.2399C53.6503 68.7899 54.3103 68.7299 54.7703 69.1199C59.1003 72.7699 60.4303 80.1699 60.5003 80.4899C60.5703 80.9199 60.3603 81.3599 60.0003 81.5899L49.9303 87.8399C49.7503 87.9499 49.5403 87.9999 49.3603 87.9999Z" fill="#1F57C3"/>
<path d="M49.3601 70.6698C46.1201 70.6698 43.6001 67.1498 42.6601 63.8798C42.4801 63.3098 42.8201 62.7098 43.4001 62.5398C43.9701 62.3798 44.5701 62.6998 44.7301 63.2798C45.4801 65.8398 47.4101 68.4998 49.3601 68.4998C51.7401 68.4998 54.1501 64.5198 54.3101 61.4298C54.3301 60.8298 54.8401 60.3698 55.4301 60.3998C56.0301 60.4298 56.4901 60.9298 56.4701 61.5298C56.2801 65.1598 53.3701 70.6698 49.3601 70.6698Z" fill="#1F57C3"/>
<path d="M49.5399 54.4002C45.9899 54.4002 43.0999 57.2902 43.0999 60.8402C43.0999 61.4602 43.1899 62.0602 43.2799 62.5502C45.6899 62.1902 49.2199 60.8502 51.0099 59.3002C51.5099 58.8602 51.6999 58.5502 51.7399 58.4002C51.9499 57.9302 52.4499 57.6702 52.9599 57.7602C53.4599 57.8602 53.8299 58.2902 53.8299 58.8102C53.8299 59.3102 53.8299 59.8202 53.7799 60.3202C53.7799 60.5102 53.7599 60.6802 53.7599 60.8402C54.7199 60.6202 55.5699 60.2902 55.9199 59.9902C55.4999 56.8302 52.7699 54.4002 49.5399 54.4002ZM42.4599 64.8002C41.9999 64.8002 41.5899 64.5102 41.4499 64.0702C41.1999 63.3602 40.9399 62.1402 40.9399 60.8402C40.9399 56.1002 44.7999 52.2402 49.5399 52.2402C54.0399 52.2402 57.7999 55.7502 58.1199 60.2202C58.1399 60.4102 58.0899 60.6102 57.9999 60.7802C57.0899 62.6202 53.6199 63.1202 52.5699 63.2302C52.2199 63.2602 51.8599 63.1302 51.6299 62.8602C51.3999 62.5802 51.3299 62.2202 51.4199 61.8802C51.4199 61.8802 51.4399 61.8002 51.4699 61.6702C48.8999 63.4102 44.9299 64.6802 42.5299 64.8002C42.4999 64.8002 42.4799 64.8002 42.4599 64.8002Z" fill="#1F57C3"/>
<path d="M37.3702 29.9705C37.0002 29.9705 36.6302 29.7805 36.4502 29.4405C36.1302 28.9205 36.3102 28.2605 36.8202 27.9505C40.6502 25.6805 45.0502 24.4805 49.5202 24.4805C53.8302 24.4805 58.0902 25.5905 61.8102 27.7005C62.3402 28.0005 62.5202 28.6605 62.2202 29.1705C61.9202 29.7005 61.2602 29.8805 60.7502 29.5805C57.3402 27.6605 53.4602 26.6405 49.5202 26.6405C45.4402 26.6405 41.4302 27.7405 37.9202 29.8205C37.7602 29.9205 37.5502 29.9705 37.3702 29.9705Z" fill="#1F57C3"/>
<path d="M60.8203 71.5498C60.4303 71.5498 60.0703 71.3398 59.8803 70.9798C59.5803 70.4498 59.7903 69.7998 60.3203 69.5098C65.7103 66.6098 69.7603 61.5898 71.4403 55.7198C71.6003 55.1498 72.1903 54.8198 72.7703 54.9798C73.3403 55.1498 73.6803 55.7498 73.5203 56.3198C71.6903 62.7398 67.2403 68.2398 61.3303 71.4198C61.1903 71.5098 61.0103 71.5498 60.8203 71.5498Z" fill="#1F57C3"/>
<path d="M37.8698 71.3403C37.6898 71.3403 37.4998 71.3003 37.3398 71.2103C31.7298 68.0503 27.5798 62.9403 25.6998 56.8103C25.5098 56.2403 25.8299 55.6403 26.4099 55.4603C26.9799 55.2803 27.5799 55.6003 27.7599 56.1703C29.4799 61.7703 33.2598 66.4403 38.3998 69.3203C38.9298 69.6103 39.1098 70.2703 38.8098 70.7903C38.5998 71.1403 38.2398 71.3403 37.8698 71.3403Z" fill="#1F57C3"/>
</svg>
