<svg width="100" height="100" viewBox="0 0 100 100" fill="none" xmlns="http://www.w3.org/2000/svg">
<path d="M50 97.85C63.21 97.85 75.18 92.49 83.83 83.83C92.49 75.18 97.85 63.21 97.85 50C97.85 36.79 92.49 24.82 83.83 16.17C75.18 7.51 63.21 2.15 50 2.15C36.79 2.15 24.82 7.51 16.17 16.17C7.51 24.82 2.15 36.79 2.15 50C2.15 63.21 7.51 75.18 16.17 83.83C24.82 92.49 36.79 97.85 50 97.85ZM85.36 85.36C76.31 94.4 63.81 100 50 100C36.19 100 23.69 94.4 14.64 85.36C5.6 76.31 0 63.81 0 50C0 36.19 5.6 23.69 14.64 14.64C23.69 5.6 36.19 0 50 0C63.81 0 76.31 5.6 85.36 14.64C94.4 23.69 100 36.19 100 50C100 63.81 94.4 76.31 85.36 85.36Z" fill="#1F57C3"/>
<path d="M49.9899 17.37C46.2999 17.37 43.2799 20.38 43.2799 24.08C43.2799 28.1 46.5499 33.28 49.9899 33.28C53.4499 33.28 56.7199 28.1 56.7199 24.08C56.7199 20.38 53.6999 17.37 49.9899 17.37ZM49.9899 35.65C44.7399 35.65 40.9199 28.74 40.9199 24.08C40.9199 19.07 44.9899 15 49.9899 15C55.0099 15 59.0799 19.07 59.0799 24.08C59.0799 28.74 55.2599 35.65 49.9899 35.65Z" fill="#1F57C3"/>
<path d="M59.9601 45.2601C59.3801 45.2601 58.8801 44.8502 58.7801 44.2702C58.6801 43.6202 59.1301 43.0102 59.7601 42.9102L80.5701 39.6201L80.7501 39.0202H49.9901C49.3401 39.0202 48.8101 38.4901 48.8101 37.8401C48.8101 37.1901 49.3401 36.6602 49.9901 36.6602H82.3601C82.7301 36.6602 83.0801 36.8302 83.3101 37.1302C83.5401 37.4402 83.5801 37.8302 83.4801 38.1902L82.6101 41.0202C82.4801 41.4502 82.1001 41.7701 81.6801 41.8401L60.1301 45.2502C60.0801 45.2602 60.0101 45.2601 59.9601 45.2601Z" fill="#1F57C3"/>
<path d="M40.0402 45.2601C39.9902 45.2601 39.9202 45.2602 39.8702 45.2502L18.3502 41.8401C17.9002 41.7701 17.5202 41.4502 17.3902 41.0202L16.5202 38.1902C16.4202 37.8302 16.4602 37.4402 16.6902 37.1302C16.9202 36.8302 17.2702 36.6602 17.6502 36.6602H49.9902C50.6402 36.6602 51.1902 37.1901 51.1902 37.8401C51.1902 38.4901 50.6402 39.0202 49.9902 39.0202H19.2502L19.4302 39.6201L40.2502 42.9102C40.8702 43.0102 41.3202 43.6202 41.2202 44.2702C41.1202 44.8502 40.6202 45.2601 40.0402 45.2601Z" fill="#1F57C3"/>
<path d="M54.3099 84.9999H45.6899C45.0899 84.9999 44.6099 84.5599 44.5099 83.9799L38.8899 44.2499C38.7899 43.5999 39.2399 42.9999 39.8899 42.9099C40.5199 42.8199 41.1199 43.2699 41.2199 43.9099L46.7199 82.6299H53.2799L58.7799 43.9099C58.8799 43.2699 59.4799 42.8199 60.1099 42.9099C60.7599 42.9999 61.2099 43.5999 61.1099 44.2499L55.4899 83.9799C55.3899 84.5599 54.9099 84.9999 54.3099 84.9999Z" fill="#1F57C3"/>
</svg>
