<svg width="100" height="100" viewBox="0 0 100 100" fill="none" xmlns="http://www.w3.org/2000/svg">
<path d="M50 97.85C63.21 97.85 75.18 92.49 83.83 83.83C92.49 75.18 97.85 63.21 97.85 50C97.85 36.79 92.49 24.82 83.83 16.17C75.18 7.51 63.21 2.15 50 2.15C36.79 2.15 24.82 7.51 16.17 16.17C7.51 24.82 2.15 36.79 2.15 50C2.15 63.21 7.51 75.18 16.17 83.83C24.82 92.49 36.79 97.85 50 97.85ZM85.36 85.36C76.31 94.4 63.81 100 50 100C36.19 100 23.69 94.4 14.64 85.36C5.6 76.31 0 63.81 0 50C0 36.19 5.6 23.69 14.64 14.64C23.69 5.6 36.19 0 50 0C63.81 0 76.31 5.6 85.36 14.64C94.4 23.69 100 36.19 100 50C100 63.81 94.4 76.31 85.36 85.36Z" fill="#1F57C3"/>
<path d="M35.1104 76.8399L33.8704 72.9199L32.5704 76.8199L28.4404 76.7799L31.7504 79.2299L30.4304 83.1299L33.7904 80.7399L37.0804 83.1999L35.8704 79.2699L39.2204 76.8799L35.1104 76.8399Z" fill="#1F57C3"/>
<path d="M23.2301 64.9805L21.9701 61.0605L20.7001 64.9805H16.5801L19.9201 67.4005L18.6401 71.3206L21.9701 68.8905L25.3101 71.3206L24.0301 67.4005L27.3501 64.9805H23.2301Z" fill="#1F57C3"/>
<path d="M17.6302 52.7109L20.9702 55.1208L19.6902 51.2209L23.0202 48.7809H18.9102L17.6302 44.8809L16.3702 48.7809H12.2402L15.5802 51.2209L14.3202 55.1208L17.6302 52.7109Z" fill="#1F57C3"/>
<path d="M21.9701 28.6992L20.7001 32.5992H16.5801L19.9201 35.0192L18.6401 38.9392L21.9701 36.5292L25.3101 38.9392L24.0301 35.0192L27.3501 32.5992H23.2301L21.9701 28.6992Z" fill="#1F57C3"/>
<path d="M30.5004 27.0798L33.8104 24.6698L37.1504 27.0798L35.8904 23.1798L39.2004 20.7498H35.0904L33.8104 16.8398L32.5504 20.7498H28.4404L31.7504 23.1798L30.5004 27.0798Z" fill="#1F57C3"/>
<path d="M51.2701 81.1598L50.0101 77.2598L48.7301 81.1598H44.6201L47.9501 83.5998L46.6701 87.4998L50.0101 85.0898L53.3301 87.4998L52.0701 83.5998L55.4001 81.1598H51.2701Z" fill="#1F57C3"/>
<path d="M67.4503 76.8199L66.1303 72.9199L64.9103 76.8399L60.8003 76.8799L64.1503 79.2699L62.9203 83.1999L66.2303 80.7399L69.5903 83.1299L68.2703 79.2299L71.5603 76.7799L67.4503 76.8199Z" fill="#1F57C3"/>
<path d="M79.3304 64.9805L78.0504 61.0605L76.7904 64.9805H72.6504L75.9904 67.4005L74.7104 71.3206L78.0504 68.8905L81.3804 71.3206L80.1004 67.4005L83.4404 64.9805H79.3304Z" fill="#1F57C3"/>
<path d="M87.76 48.7809H83.65L82.39 44.8809L81.11 48.7809H77L80.33 51.2209L79.05 55.1208L82.39 52.7109L85.7 55.1208L84.45 51.2209L87.76 48.7809Z" fill="#1F57C3"/>
<path d="M74.7104 38.9392L78.0504 36.5292L81.3804 38.9392L80.1004 35.0192L83.4404 32.5992H79.3304L78.0504 28.6992L76.7904 32.5992H72.6504L75.9904 35.0192L74.7104 38.9392Z" fill="#1F57C3"/>
<path d="M66.1903 16.8398L64.9303 20.7498H60.8203L64.1303 23.1798L62.8703 27.0798L66.1903 24.6698L69.5303 27.0798L68.2503 23.1798L71.5803 20.7498H67.4703L66.1903 16.8398Z" fill="#1F57C3"/>
<path d="M50.0101 12.5L48.7301 16.42H44.6201L47.9501 18.84L46.6701 22.74L50.0101 20.33L53.3301 22.74L52.0701 18.84L55.4001 16.42H51.2701L50.0101 12.5Z" fill="#1F57C3"/>
<path d="M54.9203 36.8005H56.9104L58.3004 28.7205L56.0103 30.1505L54.9203 36.8005ZM58.9104 38.4005H52.6604C52.2104 38.4005 51.8604 38.0405 51.8604 37.6005C51.8604 37.1605 52.2104 36.8005 52.6604 36.8005H53.3004L54.2303 31.2605L53.7704 31.5305C53.4104 31.7605 52.9103 31.6605 52.6803 31.2805C52.4403 30.9005 52.5703 30.4205 52.9503 30.1905L58.9704 26.4505C59.2404 26.2905 59.5804 26.2905 59.8304 26.4805C60.0804 26.6405 60.2303 26.9605 60.1703 27.2505L58.5303 36.8005H58.9104C59.3504 36.8005 59.7104 37.1605 59.7104 37.6005C59.7104 38.0405 59.3504 38.4005 58.9104 38.4005Z" fill="#1F57C3"/>
<path d="M46.7404 59.3605C46.5504 59.3605 46.3604 59.3005 46.1904 59.1505C45.8804 58.8605 45.8604 58.3505 46.1504 58.0405C47.2404 56.8205 50.3704 55.1005 54.3104 57.2605C54.7104 57.4905 54.8404 57.9705 54.6304 58.3505C54.4204 58.7305 53.9304 58.8805 53.5604 58.6705C49.7204 56.5305 47.3504 59.0605 47.3204 59.0905C47.1604 59.2805 46.9504 59.3605 46.7404 59.3605Z" fill="#1F57C3"/>
<path d="M45.5202 66.0291C45.4402 66.0291 45.3702 66.0291 45.3102 66.0091C44.8902 65.9091 44.6402 65.4891 44.7402 65.0491C44.7602 64.9191 47.9502 51.8891 44.8302 46.6191C44.6202 46.2391 44.7202 45.7791 45.1002 45.5491C45.1402 45.5091 46.4602 44.6891 47.7002 44.5191C49.0002 44.3291 50.1602 44.8991 50.2802 44.9591C50.3902 45.0091 50.4702 45.0891 50.5602 45.1891C55.7002 52.0991 55.0002 64.7491 54.9602 65.2991C54.9402 65.7391 54.5602 66.0491 54.1202 66.0291C53.6802 66.0091 53.3702 65.6291 53.3902 65.1891C53.3902 65.0691 54.0802 52.7891 49.4002 46.3091C49.1302 46.1991 48.5402 45.9891 47.9302 46.0791C47.4902 46.1391 46.9702 46.3491 46.5702 46.5391C49.4002 52.6591 46.4002 64.8991 46.2702 65.4491C46.1902 65.7991 45.8602 66.0291 45.5202 66.0291Z" fill="#1F57C3"/>
<path d="M49.9104 46.4507C49.5304 46.4507 49.2104 46.1807 49.1304 45.8007C49.0704 45.3807 49.3404 44.9607 49.7604 44.8807C49.8404 44.8607 53.2804 44.0407 55.1304 37.3907C55.2404 36.9707 55.6804 36.7207 56.1004 36.8407C56.5204 36.9507 56.7704 37.3907 56.6404 37.8107C54.5004 45.5507 50.2404 46.4106 50.0504 46.4306C50.0104 46.4506 49.9704 46.4507 49.9104 46.4507Z" fill="#1F57C3"/>
<path d="M45.9804 38.0804C45.6904 38.0804 45.3104 38.1604 44.8904 38.3104C43.7604 38.7104 43.7604 39.2104 43.7604 39.4004C43.7804 40.6604 45.6504 42.4704 46.6704 43.1804C47.1404 41.7904 47.4904 39.5104 46.8604 38.5204C46.7404 38.3104 46.5304 38.0804 45.9804 38.0804ZM47.0304 45.0504C45.9804 45.0504 42.6004 42.1304 42.2204 39.8904C42.0804 39.0704 42.1804 37.6004 44.3404 36.8204C46.1304 36.1904 47.4904 36.5304 48.2104 37.6804C49.4604 39.7204 48.3304 43.4904 47.8104 44.5604C47.6604 44.8604 47.3704 45.0504 47.0304 45.0504Z" fill="#1F57C3"/>
<path d="M42.5405 54.0897C42.3105 54.0897 42.0605 53.9897 41.9105 53.7797C41.6405 53.4397 41.7005 52.9397 42.0605 52.6597C44.6805 50.6697 44.7205 46.2597 44.7205 46.1997C44.7205 45.7797 45.0805 45.4297 45.5205 45.4297C45.9405 45.4297 46.3005 45.7797 46.3005 46.2197C46.3005 46.4297 46.2505 51.4697 43.0205 53.9397C42.8805 54.0497 42.7105 54.0897 42.5405 54.0897Z" fill="#1F57C3"/>
<path d="M55.3 71.2809C54.86 71.2809 54.5 70.9209 54.5 70.4809V66.0309H44.83V70.4809C44.83 70.9209 44.47 71.2809 44.03 71.2809C43.61 71.2809 43.25 70.9209 43.25 70.4809V65.2409C43.25 64.8209 43.61 64.4609 44.03 64.4609H55.3C55.74 64.4609 56.1 64.8209 56.1 65.2409V70.4809C56.1 70.9209 55.74 71.2809 55.3 71.2809Z" fill="#1F57C3"/>
<path d="M36.1604 73.6091C35.7204 73.6091 35.3604 73.2491 35.3604 72.8291V67.5891C35.3604 67.1391 35.7204 66.7891 36.1604 66.7891H44.0303C44.4703 66.7891 44.8304 67.1391 44.8304 67.5891C44.8304 68.0291 44.4703 68.3791 44.0303 68.3791H36.9604V72.8291C36.9604 73.2491 36.6004 73.6091 36.1604 73.6091Z" fill="#1F57C3"/>
<path d="M63.36 73.6694C62.92 73.6694 62.56 73.3094 62.56 72.8694V69.7695H56.1V72.8694C56.1 73.3094 55.74 73.6694 55.3 73.6694C54.86 73.6694 54.5 73.3094 54.5 72.8694V68.9895C54.5 68.5495 54.86 68.1895 55.3 68.1895H63.36C63.78 68.1895 64.13 68.5495 64.13 68.9895V72.8694C64.13 73.3094 63.78 73.6694 63.36 73.6694Z" fill="#1F57C3"/>
</svg>
