<svg width="100" height="100" viewBox="0 0 100 100" fill="none" xmlns="http://www.w3.org/2000/svg">
<path d="M50 97.85C63.21 97.85 75.18 92.49 83.83 83.83C92.49 75.18 97.85 63.21 97.85 50C97.85 36.79 92.49 24.82 83.83 16.17C75.18 7.51 63.21 2.15 50 2.15C36.79 2.15 24.82 7.51 16.17 16.17C7.51 24.82 2.15 36.79 2.15 50C2.15 63.21 7.51 75.18 16.17 83.83C24.82 92.49 36.79 97.85 50 97.85ZM85.36 85.36C76.31 94.4 63.81 100 50 100C36.19 100 23.69 94.4 14.64 85.36C5.6 76.31 0 63.81 0 50C0 36.19 5.6 23.69 14.64 14.64C23.69 5.6 36.19 0 50 0C63.81 0 76.31 5.6 85.36 14.64C94.4 23.69 100 36.19 100 50C100 63.81 94.4 76.31 85.36 85.36Z" fill="#1F57C3"/>
<path d="M46.4899 75.11C46.7899 75.11 47.0999 75.22 47.3199 75.46L49.9999 78.13L52.6799 75.46C53.1399 75 53.8899 75 54.3499 75.46L57.0299 78.13L59.6999 75.46C60.1699 75 60.9199 75 61.3799 75.46L64.0599 78.13L66.7299 75.46C67.1899 75 67.9399 75 68.4099 75.46L71.0899 78.13L73.7599 75.46C74.1599 75.06 74.7699 75.01 75.2299 75.29V25.99C75.2299 24.54 74.0599 23.38 72.6199 23.38H27.3899C25.9399 23.38 24.7799 24.54 24.7799 25.99V75.29C25.2299 75 25.8399 75.06 26.2399 75.46L28.9199 78.13L31.5899 75.46C32.0599 75 32.8099 75 33.2699 75.46L35.9499 78.13L38.6199 75.46C39.0799 75 39.8399 75 40.2999 75.46L42.9799 78.13L45.6499 75.46C45.8799 75.22 46.1799 75.11 46.4899 75.11ZM57.0299 81C56.7199 81 56.4199 80.88 56.1899 80.65L53.5099 77.98L50.8399 80.65C50.3799 81.11 49.6299 81.11 49.1599 80.65L46.4899 77.98L43.8099 80.65C43.3499 81.11 42.5999 81.11 42.1399 80.65L39.4599 77.98L36.7899 80.65C36.3199 81.11 35.5699 81.11 35.1099 80.65L32.4299 77.98L29.7599 80.65C29.2899 81.11 28.5399 81.11 28.0799 80.65L25.3999 77.98L24.4199 78.95C24.0899 79.29 23.5799 79.39 23.1299 79.21C22.6899 79.03 22.3999 78.59 22.3999 78.11V25.99C22.3999 23.23 24.6399 21 27.3899 21H72.6199C75.3599 21 77.5999 23.23 77.5999 25.99V78.12C77.5999 78.59 77.3099 79.03 76.8699 79.21C76.4299 79.39 75.9099 79.29 75.5799 78.95L74.5999 77.98L71.9199 80.65C71.4599 81.11 70.7099 81.11 70.2399 80.65L67.5699 77.98L64.8999 80.65C64.4299 81.11 63.6799 81.11 63.2199 80.65L60.5399 77.98L57.8699 80.65C57.6299 80.88 57.3299 81 57.0299 81Z" fill="#1F57C3"/>
<path d="M65.9001 37.0497H31.2901C30.6301 37.0497 30.1001 36.5197 30.1001 35.8597C30.1001 35.2097 30.6301 34.6797 31.2901 34.6797H65.9001C66.5501 34.6797 67.0901 35.2097 67.0901 35.8597C67.0901 36.5197 66.5501 37.0497 65.9001 37.0497Z" fill="#1F57C3"/>
<path d="M55.3501 46.9308H31.2901C30.6301 46.9308 30.1001 46.4008 30.1001 45.7408C30.1001 45.0808 30.6301 44.5508 31.2901 44.5508H55.3501C56.0101 44.5508 56.5401 45.0808 56.5401 45.7408C56.5401 46.4008 56.0101 46.9308 55.3501 46.9308Z" fill="#1F57C3"/>
<path d="M55.3501 56.9696H31.2901C30.6301 56.9696 30.1001 56.4396 30.1001 55.7796C30.1001 55.1296 30.6301 54.5996 31.2901 54.5996H55.3501C56.0101 54.5996 56.5401 55.1296 56.5401 55.7796C56.5401 56.4396 56.0101 56.9696 55.3501 56.9696Z" fill="#1F57C3"/>
<path d="M55.3501 67.0106H31.2901C30.6301 67.0106 30.1001 66.4806 30.1001 65.8306C30.1001 65.1706 30.6301 64.6406 31.2901 64.6406H55.3501C56.0101 64.6406 56.5401 65.1706 56.5401 65.8306C56.5401 66.4806 56.0101 67.0106 55.3501 67.0106Z" fill="#1F57C3"/>
<path d="M68.5398 46.9308H63.2598C62.5998 46.9308 62.0698 46.4008 62.0698 45.7408C62.0698 45.0808 62.5998 44.5508 63.2598 44.5508H68.5398C69.1898 44.5508 69.7298 45.0808 69.7298 45.7408C69.7298 46.4008 69.1898 46.9308 68.5398 46.9308Z" fill="#1F57C3"/>
<path d="M68.5398 56.9696H63.2598C62.5998 56.9696 62.0698 56.4396 62.0698 55.7796C62.0698 55.1296 62.5998 54.5996 63.2598 54.5996H68.5398C69.1898 54.5996 69.7298 55.1296 69.7298 55.7796C69.7298 56.4396 69.1898 56.9696 68.5398 56.9696Z" fill="#1F57C3"/>
<path d="M68.5398 67.0106H63.2598C62.5998 67.0106 62.0698 66.4806 62.0698 65.8306C62.0698 65.1706 62.5998 64.6406 63.2598 64.6406H68.5398C69.1898 64.6406 69.7298 65.1706 69.7298 65.8306C69.7298 66.4806 69.1898 67.0106 68.5398 67.0106Z" fill="#1F57C3"/>
</svg>
