<svg width="100" height="100" viewBox="0 0 100 100" fill="none" xmlns="http://www.w3.org/2000/svg">
<path d="M50 97.85C63.21 97.85 75.18 92.49 83.83 83.83C92.49 75.18 97.85 63.21 97.85 50C97.85 36.79 92.49 24.82 83.83 16.17C75.18 7.51 63.21 2.15 50 2.15C36.79 2.15 24.82 7.51 16.17 16.17C7.51 24.82 2.15 36.79 2.15 50C2.15 63.21 7.51 75.18 16.17 83.83C24.82 92.49 36.79 97.85 50 97.85ZM85.36 85.36C76.31 94.4 63.81 100 50 100C36.19 100 23.69 94.4 14.64 85.36C5.6 76.31 0 63.81 0 50C0 36.19 5.6 23.69 14.64 14.64C23.69 5.6 36.19 0 50 0C63.81 0 76.31 5.6 85.36 14.64C94.4 23.69 100 36.19 100 50C100 63.81 94.4 76.31 85.36 85.36Z" fill="#1F57C3"/>
<path d="M49.9998 86.1803C40.0098 86.1803 30.9598 82.1303 24.4198 75.5803C17.8698 69.0403 13.8198 59.9903 13.8198 50.0003C13.8198 40.0103 17.8698 30.9603 24.4198 24.4203C30.9598 17.8703 40.0098 13.8203 49.9998 13.8203C59.9898 13.8203 69.0398 17.8703 75.5798 24.4203C82.1298 30.9603 86.1798 40.0103 86.1798 50.0003C86.1798 59.9903 82.1298 69.0403 75.5798 75.5803C69.0398 82.1303 59.9898 86.1803 49.9998 86.1803ZM26.0898 73.9103C32.1998 80.0303 40.6598 83.8203 49.9998 83.8203C59.3398 83.8203 67.7998 80.0303 73.9098 73.9103C80.0298 67.8003 83.8198 59.3403 83.8198 50.0003C83.8198 40.6603 80.0298 32.2003 73.9098 26.0903C67.7998 19.9703 59.3398 16.1803 49.9998 16.1803C40.6598 16.1803 32.1998 19.9703 26.0898 26.0903C19.9698 32.2003 16.1798 40.6603 16.1798 50.0003C16.1798 59.3403 19.9698 67.8003 26.0898 73.9103Z" fill="#1F57C3"/>
<path d="M75.5598 26.2612C76.0598 25.8412 76.7998 25.9112 77.2098 26.4112C77.6298 26.9112 77.5598 27.6513 77.0598 28.0713L23.9398 72.3412C23.4398 72.7512 22.6898 72.6912 22.2798 72.1912C21.8598 71.6912 21.9298 70.9412 22.4298 70.5312L75.5598 26.2612Z" fill="#1F57C3"/>
</svg>
