<svg width="100" height="100" viewBox="0 0 100 100" fill="none" xmlns="http://www.w3.org/2000/svg">
<path d="M50 97.85C63.21 97.85 75.18 92.49 83.83 83.83C92.49 75.18 97.85 63.21 97.85 50C97.85 36.79 92.49 24.82 83.83 16.17C75.18 7.51 63.21 2.15 50 2.15C36.79 2.15 24.82 7.51 16.17 16.17C7.51 24.82 2.15 36.79 2.15 50C2.15 63.21 7.51 75.18 16.17 83.83C24.82 92.49 36.79 97.85 50 97.85ZM85.36 85.36C76.31 94.4 63.81 100 50 100C36.19 100 23.69 94.4 14.64 85.36C5.6 76.31 0 63.81 0 50C0 36.19 5.6 23.69 14.64 14.64C23.69 5.6 36.19 0 50 0C63.81 0 76.31 5.6 85.36 14.64C94.4 23.69 100 36.19 100 50C100 63.81 94.4 76.31 85.36 85.36Z" fill="#1F57C3"/>
<path d="M32.4401 73.7285C32.3001 73.7285 32.1601 73.6985 32.0301 73.6385L15.0401 65.5585C14.6601 65.3785 14.4501 64.9685 14.5101 64.5485C14.5501 64.3085 15.4801 58.5085 18.2701 52.8085C19.4101 50.4985 20.7101 48.5085 22.1201 46.9185C22.4701 46.5185 23.0801 46.4885 23.4701 46.8385C23.8601 47.1885 23.9001 47.7885 23.5501 48.1785C22.2401 49.6485 21.0401 51.4885 19.9801 53.6485C17.8601 57.9785 16.8401 62.4685 16.5201 64.1485L32.4401 71.7285L35.5701 70.2985C36.0401 70.0785 36.6101 70.2885 36.8301 70.7685C37.0501 71.2485 36.8401 71.8085 36.3601 72.0285L32.8401 73.6485C32.7101 73.7085 32.5701 73.7285 32.4401 73.7285Z" fill="#1F57C3"/>
<path d="M47.1202 56.229C46.7602 56.229 46.4002 56.019 46.2502 55.659C44.5302 51.699 42.4502 48.679 40.0802 46.679C39.6702 46.339 39.6202 45.739 39.9602 45.339C40.3002 44.929 40.9102 44.879 41.3002 45.219C43.9102 47.409 46.1602 50.669 47.9902 54.899C48.2002 55.379 47.9802 55.939 47.5002 56.149C47.3802 56.199 47.2502 56.229 47.1202 56.229Z" fill="#1F57C3"/>
<path d="M32.4403 46.2686C27.4803 46.2686 23.2503 40.6486 21.6303 35.0986C21.4803 34.5886 21.7703 34.0586 22.2803 33.9186C22.7803 33.7686 23.3103 34.0586 23.4603 34.5586C24.8503 39.3186 28.4703 44.3686 32.4403 44.3686C37.5503 44.3686 41.7803 36.3286 42.0303 31.1086C42.0503 30.5886 42.5003 30.1786 43.0303 30.2086C43.5503 30.2386 43.9603 30.6786 43.9303 31.2086C43.6403 37.1986 38.9103 46.2686 32.4403 46.2686Z" fill="#1F57C3"/>
<path d="M32.7702 17.8592C26.0502 17.8592 20.5902 23.3292 20.5902 30.0492C20.5902 31.5792 20.8302 33.0392 21.1002 34.0692C25.4302 33.6192 32.5102 31.0492 35.9402 28.0592C36.7102 27.3792 37.2402 26.7392 37.4902 26.1492C37.6602 25.7392 38.1102 25.4992 38.5502 25.5892C38.9902 25.6792 39.3102 26.0592 39.3202 26.5092C39.3302 27.3892 39.3102 28.2492 39.2602 29.0792C39.2102 29.9492 39.1202 30.6592 39.0402 31.2092C41.3502 30.8192 44.0802 29.9792 44.8902 28.8692C44.3002 22.6692 39.0302 17.8592 32.7702 17.8592ZM20.4002 36.0292C19.9902 36.0292 19.6302 35.7692 19.5002 35.3892C19.1002 34.2192 18.6802 32.1992 18.6802 30.0492C18.6802 22.2692 25.0002 15.9492 32.7702 15.9492C40.1202 15.9492 46.2902 21.6992 46.8102 29.0292C46.8202 29.1992 46.7902 29.3692 46.7102 29.5192C45.2402 32.4492 38.7002 33.2092 37.9602 33.2892C37.6502 33.3192 37.3402 33.1992 37.1402 32.9592C36.9402 32.7192 36.8602 32.3992 36.9402 32.0892C36.9502 32.0892 37.1902 31.1292 37.3302 29.3692C37.2802 29.4092 37.2402 29.4492 37.1902 29.4992C33.2202 32.9592 25.0702 35.7992 20.4402 36.0292C20.4302 36.0292 20.4102 36.0292 20.4002 36.0292Z" fill="#1F57C3"/>
<path d="M79.1301 78.0501H40.4C37.45 78.0501 35.04 75.6401 35.04 72.6801V59.6901C35.04 56.7301 37.45 54.3301 40.4 54.3301H47.12C47.65 54.3301 48.0701 54.7501 48.0701 55.2801C48.0701 55.8001 47.65 56.2301 47.12 56.2301H40.4C38.5 56.2301 36.94 57.7801 36.94 59.6901V72.6801C36.94 74.5901 38.5 76.1401 40.4 76.1401H79.1301C81.0401 76.1401 82.59 74.5901 82.59 72.6801V59.6901C82.59 57.7801 81.0401 56.2301 79.1301 56.2301H52.2401C51.7101 56.2301 51.29 55.8001 51.29 55.2801C51.29 54.7501 51.7101 54.3301 52.2401 54.3301H79.1301C82.0901 54.3301 84.5 56.7301 84.5 59.6901V72.6801C84.5 75.6401 82.0901 78.0501 79.1301 78.0501Z" fill="#1F57C3"/>
<path d="M70.7703 69.7484C70.5303 69.7484 70.2903 69.6584 70.1003 69.4684C69.7303 69.0984 69.7303 68.4984 70.1003 68.1184L76.1702 62.0584C76.5402 61.6784 77.1402 61.6784 77.5102 62.0584C77.8802 62.4284 77.8802 63.0284 77.5102 63.3984L71.4502 69.4684C71.2602 69.6584 71.0203 69.7484 70.7703 69.7484Z" fill="#1F57C3"/>
<path d="M78.1001 66.7186H69.5201C68.9901 66.7186 68.5601 66.2886 68.5601 65.7586C68.5601 65.2386 68.9901 64.8086 69.5201 64.8086H78.1001C78.6201 64.8086 79.0501 65.2386 79.0501 65.7586C79.0501 66.2886 78.6201 66.7186 78.1001 66.7186Z" fill="#1F57C3"/>
<path d="M76.8402 69.7484C76.6002 69.7484 76.3502 69.6584 76.1702 69.4684L70.1003 63.3984C69.7303 63.0284 69.7303 62.4284 70.1003 62.0584C70.4703 61.6784 71.0702 61.6784 71.4502 62.0584L77.5102 68.1184C77.8802 68.4984 77.8802 69.0984 77.5102 69.4684C77.3302 69.6584 77.0902 69.7484 76.8402 69.7484Z" fill="#1F57C3"/>
<path d="M73.8101 71.0095C73.2801 71.0095 72.8501 70.5795 72.8501 70.0495V61.4695C72.8501 60.9495 73.2801 60.5195 73.8101 60.5195C74.3401 60.5195 74.7601 60.9495 74.7601 61.4695V70.0495C74.7601 70.5795 74.3401 71.0095 73.8101 71.0095Z" fill="#1F57C3"/>
<path d="M56.7402 69.7484C56.4902 69.7484 56.2502 69.6584 56.0602 69.4684C55.6902 69.0984 55.6902 68.4984 56.0602 68.1184L62.1302 62.0584C62.5002 61.6784 63.1102 61.6784 63.4802 62.0584C63.8502 62.4284 63.8502 63.0284 63.4802 63.3984L57.4102 69.4684C57.2202 69.6584 56.9802 69.7484 56.7402 69.7484Z" fill="#1F57C3"/>
<path d="M64.0603 66.7186H55.4803C54.9503 66.7186 54.5303 66.2886 54.5303 65.7586C54.5303 65.2386 54.9503 64.8086 55.4803 64.8086H64.0603C64.5803 64.8086 65.0103 65.2386 65.0103 65.7586C65.0103 66.2886 64.5803 66.7186 64.0603 66.7186Z" fill="#1F57C3"/>
<path d="M62.8002 69.7484C62.5602 69.7484 62.3102 69.6584 62.1302 69.4684L56.0602 63.3984C55.6902 63.0284 55.6902 62.4284 56.0602 62.0584C56.4302 61.6784 57.0402 61.6784 57.4102 62.0584L63.4802 68.1184C63.8502 68.4984 63.8502 69.0984 63.4802 69.4684C63.2902 69.6584 63.0402 69.7484 62.8002 69.7484Z" fill="#1F57C3"/>
<path d="M59.7703 71.0095C59.2403 71.0095 58.8203 70.5795 58.8203 70.0495V61.4695C58.8203 60.9495 59.2403 60.5195 59.7703 60.5195C60.2903 60.5195 60.7203 60.9495 60.7203 61.4695V70.0495C60.7203 70.5795 60.2903 71.0095 59.7703 71.0095Z" fill="#1F57C3"/>
<path d="M42.6902 69.7484C42.4502 69.7484 42.2102 69.6584 42.0202 69.4684C41.6502 69.0984 41.6502 68.4984 42.0202 68.1184L48.0902 62.0584C48.4602 61.6784 49.0602 61.6784 49.4402 62.0584C49.8102 62.4284 49.8102 63.0284 49.4402 63.3984L43.3702 69.4684C43.1802 69.6584 42.9402 69.7484 42.6902 69.7484Z" fill="#1F57C3"/>
<path d="M50.0202 66.7186H41.4402C40.9102 66.7186 40.4902 66.2886 40.4902 65.7586C40.4902 65.2386 40.9102 64.8086 41.4402 64.8086H50.0202C50.5502 64.8086 50.9702 65.2386 50.9702 65.7586C50.9702 66.2886 50.5502 66.7186 50.0202 66.7186Z" fill="#1F57C3"/>
<path d="M48.7602 69.7484C48.5202 69.7484 48.2802 69.6584 48.0902 69.4684L42.0202 63.3984C41.6502 63.0284 41.6502 62.4284 42.0202 62.0584C42.3902 61.6784 43.0002 61.6784 43.3702 62.0584L49.4402 68.1184C49.8102 68.4984 49.8102 69.0984 49.4402 69.4684C49.2502 69.6584 49.0102 69.7484 48.7602 69.7484Z" fill="#1F57C3"/>
<path d="M45.7303 71.0095C45.2003 71.0095 44.7803 70.5795 44.7803 70.0495V61.4695C44.7803 60.9495 45.2003 60.5195 45.7303 60.5195C46.2603 60.5195 46.6803 60.9495 46.6803 61.4695V70.0495C46.6803 70.5795 46.2603 71.0095 45.7303 71.0095Z" fill="#1F57C3"/>
</svg>
