<svg width="100" height="100" viewBox="0 0 100 100" fill="none" xmlns="http://www.w3.org/2000/svg">
<path d="M50 97.85C63.21 97.85 75.18 92.49 83.83 83.83C92.49 75.18 97.85 63.21 97.85 50C97.85 36.79 92.49 24.82 83.83 16.17C75.18 7.51 63.21 2.15 50 2.15C36.79 2.15 24.82 7.51 16.17 16.17C7.51 24.82 2.15 36.79 2.15 50C2.15 63.21 7.51 75.18 16.17 83.83C24.82 92.49 36.79 97.85 50 97.85ZM85.36 85.36C76.31 94.4 63.81 100 50 100C36.19 100 23.69 94.4 14.64 85.36C5.6 76.31 0 63.81 0 50C0 36.19 5.6 23.69 14.64 14.64C23.69 5.6 36.19 0 50 0C63.81 0 76.31 5.6 85.36 14.64C94.4 23.69 100 36.19 100 50C100 63.81 94.4 76.31 85.36 85.36Z" fill="#1F57C3"/>
<path d="M67.4698 83.2007C67.0998 83.2007 66.7498 82.9507 66.6298 82.5607C58.7398 55.1607 53.7098 52.1507 51.8698 52.1507C51.8698 52.1507 51.8698 52.1507 51.8498 52.1507C46.2298 52.2307 39.0898 67.7707 34.8098 82.1807C34.6798 82.6407 34.1898 82.9007 33.7198 82.7707C33.2798 82.6307 32.9998 82.1407 33.1398 81.6807C34.6798 76.4807 42.8198 50.5307 51.8298 50.4007C54.7998 50.3607 57.8798 54.0207 61.2298 61.5907C63.4998 66.7007 65.8698 73.5907 68.2998 82.0807C68.4398 82.5507 68.1898 83.0307 67.7198 83.1607C67.6298 83.1907 67.5598 83.2007 67.4698 83.2007Z" fill="#1F57C3"/>
<path d="M76.66 75.5495C76.31 75.5495 75.96 75.3195 75.85 74.9595C71.79 63.2295 58.21 58.5495 58.07 58.4995C57.61 58.3495 57.37 57.8495 57.51 57.3895C57.67 56.9295 58.16 56.6895 58.63 56.8395C59.21 57.0395 73.16 61.8495 77.49 74.3895C77.66 74.8395 77.4 75.3395 76.96 75.4995C76.87 75.5295 76.75 75.5495 76.66 75.5495Z" fill="#1F57C3"/>
<path d="M30.1698 65.23C29.4998 65.23 28.8298 65.18 28.1498 65.06C24.5598 64.42 21.6498 62.07 19.5198 58.08C19.2898 57.65 19.4498 57.12 19.8898 56.9C20.3098 56.67 20.8398 56.83 21.0698 57.26C22.9298 60.75 25.4198 62.8 28.4598 63.33C35.3898 64.57 43.1498 57.71 43.2198 57.65C43.5898 57.32 44.1198 57.35 44.4498 57.71C44.7698 58.07 44.7498 58.63 44.3798 58.95C44.0698 59.22 37.2698 65.23 30.1698 65.23Z" fill="#1F57C3"/>
<path d="M20.5599 35.9592C20.0799 37.1592 20.0999 42.4492 20.4499 46.9392C20.4699 47.1792 20.3999 47.3992 20.2399 47.5792C20.0999 47.7592 19.8899 47.8692 19.6599 47.8892C19.3799 47.9092 13.1099 48.4592 13.4399 53.0392C13.6899 56.7192 14.9699 56.9892 16.9199 56.9892C17.5899 56.9892 18.3799 56.9292 19.2399 56.8692C19.5399 56.8392 19.8899 56.8192 20.2199 56.7992C21.7499 56.6892 22.7499 56.3092 23.2999 55.6292C24.3699 54.3292 24.0199 51.7392 23.5999 48.4592C23.4399 47.2292 23.2599 45.9492 23.1399 44.5692C22.5799 38.0992 21.3099 36.1392 20.5599 35.9592ZM16.9199 58.7392C13.4899 58.7392 11.9499 57.1192 11.6799 53.1592C11.3699 48.5792 15.6899 46.7192 18.6599 46.2492C17.7999 34.5992 19.3799 34.3392 20.0799 34.2292C20.1899 34.2092 20.3299 34.1992 20.4499 34.1992C22.8399 34.1992 24.2999 37.5392 24.8799 44.4192C25.0199 45.7592 25.1799 47.0192 25.3199 48.2292C25.8099 51.9292 26.1999 54.8592 24.6699 56.7292C23.7899 57.8092 22.3799 58.3992 20.3299 58.5392C20.0099 58.5592 19.6799 58.5892 19.3599 58.6092C18.4999 58.6792 17.6599 58.7392 16.9199 58.7392Z" fill="#1F57C3"/>
<path d="M24.8999 33.3295C24.6999 33.3295 24.5098 33.2695 24.3498 33.1495C23.9798 32.8395 23.9098 32.2895 24.2098 31.9195C27.0198 28.3695 30.4498 25.4595 34.3998 23.2595C34.9798 22.9295 35.5999 22.6195 36.2099 22.3195C36.6499 22.1195 37.1598 22.2895 37.3698 22.7295C37.5798 23.1595 37.4099 23.6895 36.9699 23.8995C36.3899 24.1795 35.8098 24.4795 35.2598 24.7895C31.4998 26.8795 28.2499 29.6395 25.5799 33.0095C25.4199 33.2195 25.1599 33.3295 24.8999 33.3295Z" fill="#1F57C3"/>
<path d="M51.0599 87.4999C35.7699 87.4999 22.2099 77.2299 18.0599 62.5199C17.9399 62.0599 18.1999 61.5799 18.6599 61.4499C19.1199 61.3199 19.6099 61.5899 19.7499 62.0499C23.6699 75.9999 36.5599 85.7499 51.0599 85.7499C68.9999 85.7499 83.5999 71.1599 83.5999 53.2199C83.5999 40.7899 76.6599 29.6299 65.5399 24.0799C65.0999 23.8699 64.9199 23.3399 65.1499 22.9099C65.3599 22.4799 65.8699 22.2999 66.3099 22.5199C78.0499 28.3599 85.3399 40.1199 85.3399 53.2199C85.3399 72.1299 69.9799 87.4999 51.0599 87.4999Z" fill="#1F57C3"/>
<path d="M51.3198 47.3196C45.6798 47.3196 40.8498 40.8596 38.9698 34.4796C38.8298 34.0196 39.1098 33.5296 39.5698 33.3996C40.0398 33.2596 40.5198 33.5296 40.6598 33.9896C42.2898 39.5996 46.5998 45.5696 51.3198 45.5696C57.3998 45.5696 62.4298 36.0696 62.7298 29.9196C62.7298 29.4296 63.1498 29.0596 63.6398 29.0896C64.1298 29.1096 64.4998 29.5196 64.4798 30.0096C64.1298 36.8996 58.7198 47.3196 51.3198 47.3196Z" fill="#1F57C3"/>
<path d="M51.7101 14.25C43.7701 14.25 37.3001 20.71 37.3001 28.66C37.3001 30.57 37.6201 32.39 37.9501 33.6C43.0301 33.13 51.4801 30.08 55.5401 26.53C56.4901 25.72 57.1201 24.94 57.4201 24.22C57.5801 23.84 57.9801 23.63 58.3901 23.71C58.7901 23.79 59.0901 24.14 59.0901 24.56C59.1101 25.55 59.0901 26.55 59.0401 27.52C58.9501 28.71 58.8401 29.64 58.7401 30.31C61.4601 29.88 65.0601 28.86 66.0501 27.36C65.4001 19.99 59.1401 14.25 51.7101 14.25ZM37.3201 35.4C36.9501 35.4 36.6001 35.16 36.4901 34.81C36.0401 33.47 35.5601 31.15 35.5601 28.66C35.5601 19.75 42.8001 12.5 51.7101 12.5C60.1401 12.5 67.2101 19.09 67.8201 27.5C67.8401 27.66 67.7901 27.81 67.7201 27.96C66.0801 31.25 58.5801 32.12 57.7201 32.21C57.4401 32.24 57.1601 32.12 56.9801 31.9C56.7901 31.68 56.7201 31.39 56.7901 31.11C56.7901 31.1 57.1401 29.8 57.2801 27.42C57.2801 27.38 57.2801 27.34 57.3001 27.31C57.0901 27.49 56.9101 27.67 56.7001 27.85C52.1001 31.85 42.7101 35.13 37.3701 35.4C37.3401 35.4 37.3201 35.4 37.3201 35.4Z" fill="#1F57C3"/>
</svg>
