<svg width="100" height="100" viewBox="0 0 100 100" fill="none" xmlns="http://www.w3.org/2000/svg">
<path d="M50 97.85C63.21 97.85 75.18 92.49 83.83 83.83C92.49 75.18 97.85 63.21 97.85 50C97.85 36.79 92.49 24.82 83.83 16.17C75.18 7.51 63.21 2.15 50 2.15C36.79 2.15 24.82 7.51 16.17 16.17C7.51 24.82 2.15 36.79 2.15 50C2.15 63.21 7.51 75.18 16.17 83.83C24.82 92.49 36.79 97.85 50 97.85ZM85.36 85.36C76.31 94.4 63.81 100 50 100C36.19 100 23.69 94.4 14.64 85.36C5.6 76.31 0 63.81 0 50C0 36.19 5.6 23.69 14.64 14.64C23.69 5.6 36.19 0 50 0C63.81 0 76.31 5.6 85.36 14.64C94.4 23.69 100 36.19 100 50C100 63.81 94.4 76.31 85.36 85.36Z" fill="#1F57C3"/>
<path d="M55.8798 81.5006C55.4298 81.5006 55.0298 81.2206 54.8698 80.7906L41.3598 42.7206C41.2298 42.3406 41.3298 41.9006 41.6198 41.6206C41.9098 41.3206 42.3398 41.2306 42.7198 41.3606L80.7898 54.8706C81.2498 55.0306 81.5198 55.4606 81.4998 55.9306C81.4698 56.4006 81.1598 56.8006 80.6798 56.9106L72.0798 59.0306C71.4898 59.1706 70.9298 58.8306 70.7898 58.2506C70.6298 57.6806 70.9898 57.1006 71.5598 56.9606L76.7298 55.6906L44.1198 44.1206L55.6898 76.7306L58.1898 66.5606C58.2398 66.3706 58.3298 66.2006 58.4698 66.0606C58.6798 65.8606 58.9398 65.7506 59.2198 65.7506C59.5098 65.7506 59.7798 65.8606 59.9798 66.0606L72.3898 78.4706L78.4698 72.3906L69.9998 63.9206C69.5898 63.5006 69.5898 62.8306 69.9998 62.4106C70.4298 62.0006 71.1098 62.0006 71.5098 62.4106L80.7298 71.6406C80.9298 71.8306 81.0398 72.1106 81.0398 72.3906C81.0398 72.6706 80.9298 72.9406 80.7298 73.1406L73.1398 80.7306C72.7298 81.1506 72.0498 81.1506 71.6498 80.7306L59.8098 68.9006L56.9098 80.6906C56.7998 81.1506 56.3998 81.4806 55.9298 81.5006C55.9098 81.5006 55.8898 81.5006 55.8798 81.5006Z" fill="#1F57C3"/>
<path d="M42.37 68.23C28.1 68.23 16.5 56.63 16.5 42.37C16.5 28.1 28.1 16.5 42.37 16.5C56.63 16.5 68.24 28.1 68.24 42.37C68.24 42.96 67.76 43.43 67.18 43.43C66.59 43.43 66.11 42.96 66.11 42.37C66.11 29.28 55.45 18.63 42.37 18.63C29.28 18.63 18.63 29.28 18.63 42.37C18.63 55.46 29.28 66.1 42.37 66.1C42.96 66.1 43.43 66.58 43.43 67.17C43.43 67.75 42.96 68.23 42.37 68.23Z" fill="#1F57C3"/>
<path d="M39.0602 56.0907C38.9702 56.0907 38.8702 56.0807 38.7802 56.0607C32.5602 54.4407 28.2202 48.8007 28.2202 42.3707C28.2202 34.5607 34.5602 28.2207 42.3702 28.2207C48.7902 28.2207 54.4202 32.5507 56.0602 38.7607C56.2002 39.3307 55.8702 39.9107 55.2902 40.0607C54.7302 40.2107 54.1402 39.8707 54.0002 39.3007C52.6102 34.0307 47.8302 30.3507 42.3702 30.3507C35.7402 30.3507 30.3502 35.7407 30.3502 42.3707C30.3502 47.8407 34.0402 52.6207 39.3202 54.0007C39.8902 54.1507 40.2302 54.7307 40.0802 55.3007C39.9602 55.7707 39.5302 56.0907 39.0602 56.0907Z" fill="#1F57C3"/>
</svg>
