<svg width="100" height="100" viewBox="0 0 100 100" fill="none" xmlns="http://www.w3.org/2000/svg">
<path d="M50 97.85C63.21 97.85 75.17 92.49 83.83 83.83C92.49 75.17 97.85 63.21 97.85 50C97.85 36.79 92.49 24.83 83.83 16.17C75.17 7.51 63.21 2.15 50 2.15C36.79 2.15 24.83 7.51 16.17 16.17C7.51 24.83 2.15 36.79 2.15 50C2.15 63.21 7.51 75.17 16.17 83.83C24.83 92.49 36.79 97.85 50 97.85ZM85.36 85.36C76.31 94.4 63.81 100 50 100C36.19 100 23.69 94.4 14.64 85.36C5.6 76.31 0 63.81 0 50C0 36.19 5.6 23.69 14.64 14.64C23.69 5.6 36.19 0 50 0C63.81 0 76.31 5.6 85.36 14.64C94.4 23.69 100 36.19 100 50C100 63.81 94.4 76.31 85.36 85.36Z" fill="#1F57C3"/>
<path d="M75.9399 79.0003H24.8599C21.9899 79.0003 19.6699 76.6703 19.6699 73.8103C19.6699 73.2103 20.1499 72.7303 20.7499 72.7303C21.3499 72.7303 21.8299 73.2103 21.8299 73.8103C21.8299 75.4803 23.1899 76.8303 24.8599 76.8303H75.9399C77.5999 76.8303 78.9599 75.4803 78.9599 73.8103V64.6503C78.9599 64.0603 79.4399 63.5703 80.0399 63.5703C80.6399 63.5703 81.1199 64.0603 81.1199 64.6503V73.8103C81.1199 76.6703 78.7999 79.0003 75.9399 79.0003Z" fill="#1F57C3"/>
<path d="M80.0399 48.0298C79.4399 48.0298 78.9599 47.5398 78.9599 46.9498V35.2699C78.9599 33.6099 77.5999 32.2498 75.9399 32.2498H34.1999C33.5999 32.2498 33.1099 31.7698 33.1099 31.1698C33.1099 30.5698 33.5999 30.0898 34.1999 30.0898H75.9399C78.7999 30.0898 81.1199 32.4099 81.1199 35.2699V46.9498C81.1199 47.5398 80.6399 48.0298 80.0399 48.0298Z" fill="#1F57C3"/>
<path d="M20.7499 74.89C20.1499 74.89 19.6699 74.41 19.6699 73.81V28.32C19.6699 24.84 21.3599 19 32.7199 19H65.4499C68.2999 19 70.6299 21.33 70.6299 24.18V31.17C70.6299 31.77 70.1499 32.25 69.5499 32.25C68.9499 32.25 68.4699 31.77 68.4699 31.17V24.18C68.4699 22.52 67.1099 21.17 65.4499 21.17H32.7199C25.4999 21.17 21.8299 23.57 21.8299 28.32V73.81C21.8299 74.41 21.3499 74.89 20.7499 74.89Z" fill="#1F57C3"/>
<path d="M33.7501 32.2506C26.5801 32.2506 25.8101 29.7006 25.8101 28.6006C25.8101 26.2006 29.1301 24.3906 33.5201 24.3906H64.3001C64.9001 24.3906 65.3901 24.8706 65.3901 25.4706C65.3901 26.0706 64.9001 26.5506 64.3001 26.5506H33.5201C29.8601 26.5506 27.9701 27.9906 27.9701 28.6006C27.9701 29.0006 29.3401 30.0906 33.7501 30.0906C34.3501 30.0906 34.8301 30.5706 34.8301 31.1706C34.8301 31.7706 34.3501 32.2506 33.7501 32.2506Z" fill="#1F57C3"/>
<path d="M65.3098 48.0294C63.1998 48.0294 61.4798 49.7494 61.4798 51.8594V54.0494C61.4798 56.1594 63.1998 57.8794 65.3098 57.8794H80.3398C82.4598 57.8794 84.1798 56.1594 84.1798 54.0494V51.8594C84.1798 49.7494 82.4598 48.0294 80.3398 48.0294H65.3098ZM80.3398 60.0494H65.3098C62.0098 60.0494 59.3198 57.3594 59.3198 54.0494V51.8594C59.3198 48.5594 62.0098 45.8594 65.3098 45.8594H80.3398C83.6498 45.8594 86.3398 48.5594 86.3398 51.8594V54.0494C86.3398 57.3594 83.6498 60.0494 80.3398 60.0494Z" fill="#1F57C3"/>
<path d="M65.93 52.4898C65.67 52.4898 65.46 52.6998 65.46 52.9598C65.46 53.2198 65.67 53.4298 65.93 53.4298C66.19 53.4298 66.4 53.2198 66.4 52.9598C66.4 52.6998 66.19 52.4898 65.93 52.4898ZM65.93 54.6498C64.99 54.6498 64.23 53.8898 64.23 52.9598C64.23 52.0198 64.99 51.2598 65.93 51.2598C66.86 51.2598 67.62 52.0198 67.62 52.9598C67.62 53.8898 66.86 54.6498 65.93 54.6498Z" fill="#1F57C3"/>
<path d="M32.5101 38.42H29.9101C29.3101 38.42 28.8301 37.93 28.8301 37.33C28.8301 36.74 29.3101 36.25 29.9101 36.25H32.5101C33.1101 36.25 33.5901 36.74 33.5901 37.33C33.5901 37.93 33.1101 38.42 32.5101 38.42Z" fill="#1F57C3"/>
<path d="M43.8301 38.42H38.1701C37.5701 38.42 37.0801 37.93 37.0801 37.33C37.0801 36.74 37.5701 36.25 38.1701 36.25H43.8301C44.4301 36.25 44.9101 36.74 44.9101 37.33C44.9101 37.93 44.4301 38.42 43.8301 38.42ZM55.1601 38.42H49.4901C48.8901 38.42 48.4101 37.93 48.4101 37.33C48.4101 36.74 48.8901 36.25 49.4901 36.25H55.1601C55.7501 36.25 56.2401 36.74 56.2401 37.33C56.2401 37.93 55.7501 38.42 55.1601 38.42ZM66.4801 38.42H60.8201C60.2201 38.42 59.7401 37.93 59.7401 37.33C59.7401 36.74 60.2201 36.25 60.8201 36.25H66.4801C67.0801 36.25 67.5601 36.74 67.5601 37.33C67.5601 37.93 67.0801 38.42 66.4801 38.42Z" fill="#1F57C3"/>
<path d="M74.7401 41.01C74.1401 41.01 73.6601 40.53 73.6601 39.93V38.42H72.1401C71.5401 38.42 71.0601 37.93 71.0601 37.33C71.0601 36.74 71.5401 36.25 72.1401 36.25H74.7401C75.3401 36.25 75.8201 36.74 75.8201 37.33V39.93C75.8201 40.53 75.3401 41.01 74.7401 41.01Z" fill="#1F57C3"/>
<path d="M74.7402 46.5903C74.1402 46.5903 73.6602 46.1003 73.6602 45.5003V42.9103C73.6602 42.3103 74.1402 41.8203 74.7402 41.8203C75.3402 41.8203 75.8202 42.3103 75.8202 42.9103V45.5003C75.8202 46.1003 75.3402 46.5903 74.7402 46.5903Z" fill="#1F57C3"/>
<path d="M32.5101 73.2501H29.9101C29.3101 73.2501 28.8301 72.7701 28.8301 72.1701C28.8301 71.5701 29.3101 71.0801 29.9101 71.0801H32.5101C33.1101 71.0801 33.5901 71.5701 33.5901 72.1701C33.5901 72.7701 33.1101 73.2501 32.5101 73.2501Z" fill="#1F57C3"/>
<path d="M43.8301 73.2501H38.1701C37.5701 73.2501 37.0801 72.7701 37.0801 72.1701C37.0801 71.5701 37.5701 71.0801 38.1701 71.0801H43.8301C44.4301 71.0801 44.9101 71.5701 44.9101 72.1701C44.9101 72.7701 44.4301 73.2501 43.8301 73.2501ZM55.1601 73.2501H49.4901C48.8901 73.2501 48.4101 72.7701 48.4101 72.1701C48.4101 71.5701 48.8901 71.0801 49.4901 71.0801H55.1601C55.7501 71.0801 56.2401 71.5701 56.2401 72.1701C56.2401 72.7701 55.7501 73.2501 55.1601 73.2501ZM66.4801 73.2501H60.8201C60.2201 73.2501 59.7401 72.7701 59.7401 72.1701C59.7401 71.5701 60.2201 71.0801 60.8201 71.0801H66.4801C67.0801 71.0801 67.5601 71.5701 67.5601 72.1701C67.5601 72.7701 67.0801 73.2501 66.4801 73.2501Z" fill="#1F57C3"/>
<path d="M74.7401 73.2505H72.1401C71.5401 73.2505 71.0601 72.7705 71.0601 72.1705C71.0601 71.5705 71.5401 71.0805 72.1401 71.0805H73.6601V69.5705C73.6601 68.9705 74.1401 68.4805 74.7401 68.4805C75.3401 68.4805 75.8201 68.9705 75.8201 69.5705V72.1705C75.8201 72.7705 75.3401 73.2505 74.7401 73.2505Z" fill="#1F57C3"/>
<path d="M74.7402 68.0202C74.1402 68.0202 73.6602 67.5402 73.6602 66.9402V64.3202C73.6602 63.7202 74.1402 63.2402 74.7402 63.2402C75.3402 63.2402 75.8202 63.7202 75.8202 64.3202V66.9402C75.8202 67.5402 75.3402 68.0202 74.7402 68.0202Z" fill="#1F57C3"/>
<path d="M74.7402 62.7798C74.1402 62.7798 73.6602 62.2898 73.6602 61.6898V59.0998C73.6602 58.4998 74.1402 58.0098 74.7402 58.0098C75.3402 58.0098 75.8202 58.4998 75.8202 59.0998V61.6898C75.8202 62.2898 75.3402 62.7798 74.7402 62.7798Z" fill="#1F57C3"/>
</svg>
