<svg width="100" height="100" viewBox="0 0 100 100" fill="none" xmlns="http://www.w3.org/2000/svg">
<path d="M50 97.85C63.21 97.85 75.18 92.49 83.83 83.83C92.49 75.18 97.85 63.21 97.85 50C97.85 36.79 92.49 24.82 83.83 16.17C75.18 7.51 63.21 2.15 50 2.15C36.79 2.15 24.82 7.51 16.17 16.17C7.51 24.82 2.15 36.79 2.15 50C2.15 63.21 7.51 75.18 16.17 83.83C24.82 92.49 36.79 97.85 50 97.85ZM85.36 85.36C76.31 94.4 63.81 100 50 100C36.19 100 23.69 94.4 14.64 85.36C5.6 76.31 0 63.81 0 50C0 36.19 5.6 23.69 14.64 14.64C23.69 5.6 36.19 0 50 0C63.81 0 76.31 5.6 85.36 14.64C94.4 23.69 100 36.19 100 50C100 63.81 94.4 76.31 85.36 85.36Z" fill="#1F57C3"/>
<path d="M73.8003 30.6797L79.2203 30.8397C78.7503 27.3497 77.5103 23.0897 75.7903 22.8797C75.1703 23.5597 74.4703 26.6797 73.8003 30.6797ZM50.5903 78.8197C50.3903 78.8197 50.2103 78.7497 50.0503 78.6097C49.6903 78.3197 49.6603 77.7797 49.9403 77.4297C51.6503 75.4397 51.9103 71.1997 52.1303 67.4497C52.4303 62.4697 52.7203 57.7697 56.3103 57.7697C59.5103 57.7697 60.3403 61.0797 61.0903 63.9897C61.8803 67.1897 62.5103 69.1197 64.4303 69.1197C64.4803 69.1197 65.7203 69.0297 67.4203 60.9197C68.5103 55.6997 69.4503 48.8997 70.3603 42.3197C70.9903 37.8897 71.4903 34.3197 71.9603 31.4697C71.9603 31.3997 71.9703 31.3297 71.9903 31.2597C73.2703 23.4497 74.1403 21.1797 75.6703 21.1797C79.8303 21.1797 80.8303 29.8897 80.9903 31.6397C81.0303 31.8797 80.9403 32.1197 80.7803 32.2897C80.6003 32.4697 80.3803 32.5697 80.1303 32.5597L73.5203 32.3697C73.0003 35.6097 72.4903 39.2397 72.0503 42.5597C69.3703 61.7597 67.7603 70.8097 64.4303 70.8097C61.0603 70.8097 60.2003 67.4097 59.4403 64.4097C58.6703 61.3197 58.0603 59.4597 56.3103 59.4597C54.3203 59.4597 54.0703 63.3897 53.8103 67.5497C53.5603 71.7597 53.3003 76.1097 51.2303 78.5197C51.0703 78.7197 50.8403 78.8197 50.5903 78.8197Z" fill="#1F57C3"/>
<path d="M38.7901 54.7997C38.7401 54.7997 38.6901 54.7897 38.6301 54.7797C38.1701 54.6997 37.8601 54.2497 37.9501 53.7897C38.8801 48.8197 39.6201 43.3097 40.2601 38.4497C42.0201 25.3997 42.7501 21.1797 44.9001 21.1797H75.6701C76.1301 21.1797 76.5101 21.5597 76.5101 22.0297C76.5101 22.4897 76.1301 22.8697 75.6701 22.8697H45.0101C43.9201 23.8297 42.8301 32.0497 41.9501 38.6797C41.2801 43.5597 40.5501 49.0897 39.6201 54.1097C39.5401 54.5097 39.1901 54.7997 38.7901 54.7997Z" fill="#1F57C3"/>
<path d="M50.5901 78.8195H19.8401C19.5201 78.8195 19.2201 78.6295 19.0701 78.3295C18.9501 78.0295 18.9801 77.6795 19.2001 77.4295C20.9001 75.4395 21.1501 71.1995 21.3901 67.4495C21.6901 62.4695 21.9801 57.7695 25.5601 57.7695C26.0301 57.7695 26.4101 58.1395 26.4101 58.6095C26.4101 59.0795 26.0301 59.4595 25.5601 59.4595C23.5701 59.4595 23.3201 63.3895 23.0701 67.5495C22.8601 71.0395 22.6401 74.6295 21.4001 77.1295H50.5901C51.0501 77.1295 51.4501 77.5095 51.4501 77.9695C51.4501 78.4395 51.0501 78.8195 50.5901 78.8195Z" fill="#1F57C3"/>
<path d="M56.3102 59.4595H25.5602C25.1002 59.4595 24.7202 59.0795 24.7202 58.6095C24.7202 58.1395 25.1002 57.7695 25.5602 57.7695H56.3102C56.7702 57.7695 57.1502 58.1395 57.1502 58.6095C57.1502 59.0795 56.7702 59.4595 56.3102 59.4595Z" fill="#1F57C3"/>
<path d="M63.6002 70.7095H52.8102C52.3402 70.7095 51.9702 70.3295 51.9702 69.8595C51.9702 69.3995 52.3402 69.0195 52.8102 69.0195H63.6002C64.0702 69.0195 64.4402 69.3995 64.4402 69.8595C64.4402 70.3295 64.0702 70.7095 63.6002 70.7095Z" fill="#1F57C3"/>
<path d="M58.21 30.4595H48.1C47.63 30.4595 47.25 30.0795 47.25 29.6095C47.25 29.1495 47.63 28.7695 48.1 28.7695H58.21C58.67 28.7695 59.05 29.1495 59.05 29.6095C59.05 30.0795 58.67 30.4595 58.21 30.4595Z" fill="#1F57C3"/>
<path d="M66.63 35.4088H47.34C46.88 35.4088 46.5 35.0287 46.5 34.5587C46.5 34.0987 46.88 33.7188 47.34 33.7188H66.63C67.1 33.7188 67.47 34.0987 67.47 34.5587C67.47 35.0287 67.1 35.4088 66.63 35.4088Z" fill="#1F57C3"/>
<path d="M65.9901 40.3599H46.7201C46.2501 40.3599 45.8701 39.9799 45.8701 39.5199C45.8701 39.0499 46.2501 38.6699 46.7201 38.6699H65.9901C66.4501 38.6699 66.8501 39.0499 66.8501 39.5199C66.8501 39.9799 66.4501 40.3599 65.9901 40.3599Z" fill="#1F57C3"/>
<path d="M65.36 45.3091H46.09C45.62 45.3091 45.25 44.9291 45.25 44.4691C45.25 43.9991 45.62 43.6191 46.09 43.6191H65.36C65.83 43.6191 66.2 43.9991 66.2 44.4691C66.2 44.9291 65.83 45.3091 65.36 45.3091Z" fill="#1F57C3"/>
<path d="M64.7301 50.2703H45.4401C44.9801 50.2703 44.6001 49.8903 44.6001 49.4203C44.6001 48.9503 44.9801 48.5703 45.4401 48.5703H64.7301C65.2001 48.5703 65.5701 48.9503 65.5701 49.4203C65.5701 49.8903 65.2001 50.2703 64.7301 50.2703Z" fill="#1F57C3"/>
</svg>
