<svg width="100" height="100" viewBox="0 0 100 100" fill="none" xmlns="http://www.w3.org/2000/svg">
<path d="M50 97.85C63.21 97.85 75.18 92.49 83.83 83.83C92.49 75.18 97.85 63.21 97.85 50C97.85 36.79 92.49 24.82 83.83 16.17C75.18 7.51 63.21 2.15 50 2.15C36.79 2.15 24.82 7.51 16.17 16.17C7.51 24.82 2.15 36.79 2.15 50C2.15 63.21 7.51 75.18 16.17 83.83C24.82 92.49 36.79 97.85 50 97.85ZM85.36 85.36C76.31 94.4 63.81 100 50 100C36.19 100 23.69 94.4 14.64 85.36C5.6 76.31 0 63.81 0 50C0 36.19 5.6 23.69 14.64 14.64C23.69 5.6 36.19 0 50 0C63.81 0 76.31 5.6 85.36 14.64C94.4 23.69 100 36.19 100 50C100 63.81 94.4 76.31 85.36 85.36Z" fill="#1F57C3"/>
<path d="M50.5 87.5C50.14 87.5 49.81 87.33 49.59 87.07L42.94 78.2L32.74 82.54C32.43 82.68 32.05 82.66 31.74 82.47C31.43 82.3 31.24 81.99 31.19 81.64L29.86 70.65L18.86 69.31C18.51 69.26 18.2 69.05 18.01 68.76C17.84 68.45 17.82 68.07 17.96 67.76L22.3 57.56L13.43 50.91C13.17 50.69 13 50.36 13 50C13 49.64 13.17 49.31 13.43 49.09L22.3 42.44L17.96 32.24C17.82 31.93 17.84 31.55 18.01 31.24C18.2 30.93 18.51 30.74 18.86 30.69L25.85 29.83C26.47 29.76 27.02 30.19 27.09 30.81C27.16 31.43 26.73 32 26.11 32.07L20.61 32.74L24.71 42.37C24.9 42.85 24.75 43.4 24.35 43.71L15.98 50L24.35 56.29C24.75 56.6 24.9 57.15 24.71 57.63L20.61 67.26L31 68.52C31.5 68.6 31.91 69 31.98 69.5L33.24 79.89L42.87 75.8C43.35 75.58 43.9 75.75 44.21 76.15L50.5 84.52L56.79 76.15C57.1 75.75 57.65 75.58 58.13 75.8L67.76 79.89L69.02 69.5C69.1 69 69.5 68.6 70 68.52L80.4 67.26L76.29 57.63C76.1 57.15 76.25 56.6 76.65 56.29L85.02 50L76.65 43.71C76.25 43.4 76.1 42.85 76.29 42.37L80.4 32.74L70 31.48C69.5 31.4 69.1 31 69.02 30.5L67.76 20.11L58.13 24.2C57.65 24.4 57.1 24.25 56.79 23.85L50.5 15.48L44.21 23.85C43.9 24.25 43.35 24.4 42.87 24.2L33.24 20.11L32.57 25.56C32.5 26.16 31.95 26.61 31.33 26.54C30.71 26.45 30.29 25.9 30.36 25.28L31.19 18.34C31.24 18.01 31.43 17.7 31.74 17.51C32.05 17.34 32.43 17.32 32.74 17.46L42.94 21.8L49.59 12.93C49.81 12.67 50.14 12.5 50.5 12.5C50.86 12.5 51.19 12.67 51.41 12.93L58.06 21.8L68.26 17.46C68.57 17.32 68.95 17.34 69.26 17.51C69.57 17.7 69.76 18.01 69.81 18.34L71.15 29.35L82.16 30.69C82.49 30.74 82.8 30.93 82.99 31.24C83.16 31.55 83.19 31.93 83.04 32.24L78.7 42.44L87.57 49.09C87.86 49.31 88 49.64 88 50C88 50.36 87.86 50.69 87.57 50.91L78.7 57.56L83.04 67.76C83.19 68.07 83.16 68.45 82.99 68.76C82.8 69.05 82.49 69.26 82.16 69.31L71.15 70.65L69.81 81.64C69.76 81.99 69.57 82.3 69.26 82.47C68.95 82.66 68.57 82.68 68.26 82.54L58.06 78.2L51.41 87.07C51.19 87.33 50.86 87.5 50.5 87.5Z" fill="#1F57C3"/>
<path d="M50.4999 65.6599C49.0499 65.6599 47.8599 66.8599 47.8599 68.3099C47.8599 69.7599 49.0499 70.9599 50.4999 70.9599C51.9499 70.9599 53.1499 69.7599 53.1499 68.3099C53.1499 66.8599 51.9499 65.6599 50.4999 65.6599ZM50.4999 73.1999C47.8099 73.1999 45.6099 70.9999 45.6099 68.3099C45.6099 65.6199 47.8099 63.4199 50.4999 63.4199C53.1899 63.4199 55.3899 65.6199 55.3899 68.3099C55.3899 70.9999 53.1899 73.1999 50.4999 73.1999Z" fill="#1F57C3"/>
<path d="M50.4999 30.8598C49.0499 30.8598 47.8599 32.0198 47.8599 33.4998C47.8599 34.6198 49.1899 43.8699 50.4999 52.5499C51.8099 43.8699 53.1499 34.6198 53.1499 33.4998C53.1499 32.0198 51.9499 30.8598 50.4999 30.8598ZM50.4999 61.1599C49.9499 61.1599 49.4799 60.7498 49.3999 60.1998C48.9999 57.6798 45.6099 35.5998 45.6099 33.4998C45.6099 30.7798 47.8099 28.5898 50.4999 28.5898C53.1899 28.5898 55.3899 30.7798 55.3899 33.4998C55.3899 35.5998 51.9999 57.6798 51.6199 60.1998C51.5299 60.7498 51.0499 61.1599 50.4999 61.1599Z" fill="#1F57C3"/>
</svg>
