<svg width="100" height="100" viewBox="0 0 100 100" fill="none" xmlns="http://www.w3.org/2000/svg">
<path d="M50 97.85C63.21 97.85 75.18 92.49 83.83 83.83C92.49 75.18 97.85 63.21 97.85 50C97.85 36.79 92.49 24.82 83.83 16.17C75.18 7.51 63.21 2.15 50 2.15C36.79 2.15 24.82 7.51 16.17 16.17C7.51 24.82 2.15 36.79 2.15 50C2.15 63.21 7.51 75.18 16.17 83.83C24.82 92.49 36.79 97.85 50 97.85ZM85.36 85.36C76.31 94.4 63.81 100 50 100C36.19 100 23.69 94.4 14.64 85.36C5.6 76.31 0 63.81 0 50C0 36.19 5.6 23.69 14.64 14.64C23.69 5.6 36.19 0 50 0C63.81 0 76.31 5.6 85.36 14.64C94.4 23.69 100 36.19 100 50C100 63.81 94.4 76.31 85.36 85.36Z" fill="#1F57C3"/>
<path d="M33.3899 41.05C33.3599 41.05 33.3399 41.04 33.2899 41.04L28.7399 40.7C28.0999 40.65 27.6299 40.09 27.6799 39.46L28.1199 33.1C28.1699 32.5 28.6399 32.04 29.2599 32.02L34.3999 31.88C34.7999 30.74 35.3199 29.63 35.9399 28.58L32.5499 24.62C32.1499 24.16 32.1799 23.49 32.5999 23.05L37.0199 18.47C37.4399 18.05 38.1099 18 38.5799 18.37L42.7599 21.7C43.7699 21.09 44.8099 20.58 45.8999 20.17L45.8799 14.83C45.8499 14.22 46.3199 13.72 46.9099 13.66L53.2399 13C53.8399 12.93 54.3799 13.34 54.5099 13.92L55.5899 19.21C56.7099 19.39 57.8199 19.67 58.9099 20.05L62.3699 15.88C62.7399 15.42 63.4099 15.33 63.8999 15.66L69.1899 19.23C69.6899 19.56 69.8599 20.22 69.5599 20.75L66.9399 25.59C67.2699 25.97 67.5599 26.35 67.8599 26.74L68.0799 27.07C68.3799 27.46 68.6499 27.87 68.8999 28.3L74.3099 27.3C74.9099 27.2 75.4999 27.55 75.6499 28.12L77.3999 34.25C77.5799 34.83 77.2799 35.43 76.7099 35.65L70.8999 37.94C70.3099 38.18 69.6099 37.89 69.3899 37.29C69.1399 36.69 69.4399 36.01 70.0399 35.78L74.8799 33.87L73.6899 29.79L68.5299 30.74C68.0299 30.83 67.5399 30.6 67.2899 30.16C66.9399 29.53 66.5999 28.97 66.1999 28.44L65.9499 28.12C65.5799 27.58 65.1399 27.07 64.6699 26.55C64.3199 26.19 64.2499 25.64 64.4999 25.2L67.0199 20.57L63.4799 18.18L60.1699 22.19C59.8499 22.57 59.2999 22.72 58.8299 22.52C57.4499 21.95 55.9599 21.57 54.4799 21.41C53.9599 21.35 53.5699 20.97 53.4699 20.48L52.4299 15.42L48.1999 15.87L48.2499 20.98C48.2499 21.49 47.9299 21.94 47.4299 22.1C45.9999 22.57 44.6399 23.24 43.3499 24.1C42.9299 24.38 42.3699 24.36 41.9699 24.04L37.9599 20.86L34.9999 23.92L38.2399 27.72C38.5799 28.11 38.6099 28.67 38.3299 29.1C37.4899 30.42 36.8299 31.86 36.3799 33.36C36.2599 33.84 35.8099 34.17 35.2899 34.19L30.3699 34.32L30.0799 38.46L33.4599 38.72C34.1299 38.77 34.5999 39.33 34.5499 39.97C34.4999 40.58 33.9799 41.05 33.3899 41.05Z" fill="#1F57C3"/>
<path d="M43.2099 40.2707C42.6099 40.2707 42.1199 39.8307 42.0399 39.2307C41.6499 35.4907 43.2999 31.8007 46.3499 29.5907C48.6199 27.9407 51.3899 27.2707 54.1799 27.7207C56.9499 28.1507 59.3999 29.6507 61.0599 31.9307C62.3199 33.6807 62.9899 35.5407 63.0399 37.5807C63.0599 38.2307 62.5699 38.7607 61.9199 38.7907C61.2799 38.8207 60.7399 38.3107 60.7099 37.6607C60.6599 36.0907 60.1399 34.6707 59.1499 33.3007C57.8699 31.5207 55.9599 30.3607 53.8099 30.0207C51.6399 29.6707 49.4899 30.1907 47.7099 31.4807C45.3299 33.2007 44.0699 36.0707 44.3699 38.9807C44.4199 39.6207 43.9699 40.2007 43.3299 40.2707C43.2799 40.2707 43.2499 40.2707 43.2099 40.2707Z" fill="#1F57C3"/>
<path d="M40.4898 86.1902C40.4398 86.1902 40.3898 86.1902 40.3598 86.1802C39.7198 86.1202 39.2498 85.5502 39.3198 84.9102L40.2098 76.2502C38.7798 76.1602 37.1198 76.7402 35.5198 77.3102C32.7998 78.2602 29.7098 79.3302 27.4298 77.1302C25.2798 75.0502 25.2798 72.5402 25.2498 69.3702C25.2498 68.0702 25.2498 66.6102 25.1098 64.9302C25.0798 64.6902 25.0298 64.2802 24.8298 64.1202C24.5098 63.8302 23.4198 63.9302 22.5598 64.0202C20.6798 64.1902 17.5398 64.4902 16.5998 61.0502C16.1298 59.2802 17.3698 56.7302 19.4398 52.5002C21.0498 49.2002 23.0498 45.1002 24.8598 40.0802C25.0798 39.4702 25.7498 39.1602 26.3698 39.3702C26.9598 39.5902 27.2798 40.2602 27.0598 40.8602C25.1998 46.0102 23.1798 50.1702 21.5398 53.5302C20.0398 56.6102 18.5998 59.5202 18.8498 60.4402C19.2198 61.7902 19.9598 61.9202 22.3398 61.7002C23.7698 61.5602 25.2498 61.4102 26.3398 62.3302C26.9898 62.8702 27.3598 63.6802 27.4298 64.7402C27.5798 66.5102 27.5798 68.0202 27.5998 69.3602C27.5998 72.6202 27.6798 74.1102 29.0598 75.4502C30.2198 76.5802 31.9798 76.0702 34.7198 75.1102C36.9698 74.3302 39.5198 73.4402 41.8498 74.2102C42.3698 74.3702 42.6898 74.8902 42.6398 75.4302L41.6198 85.1402C41.5698 85.7402 41.0498 86.1902 40.4898 86.1902Z" fill="#1F57C3"/>
<path d="M66.89 82.9296C66.87 82.9296 66.84 82.9296 66.82 82.9196C66.18 82.8896 65.68 82.3296 65.73 81.6896L66.35 71.5496C66.37 71.1896 66.57 70.8696 66.87 70.6596C75.3 64.9096 79.85 54.5396 79.06 42.9296C78.91 40.6296 78.61 38.4596 78.19 36.4796C78.07 35.8496 78.47 35.2296 79.11 35.0896C79.73 34.9696 80.35 35.3696 80.49 35.9896C80.91 38.0796 81.24 40.3596 81.41 42.7796C82.23 54.9996 77.48 65.9796 68.65 72.2596L68.06 81.8296C68.01 82.4496 67.51 82.9296 66.89 82.9296Z" fill="#1F57C3"/>
<path d="M34.8698 87.0107C34.2998 87.0107 33.8098 86.5907 33.7398 86.0107C33.6398 85.3807 34.0798 84.7807 34.6998 84.6907L46.0498 83.0507C46.6898 82.9607 47.2898 83.4007 47.3598 84.0307C47.4598 84.6707 47.0098 85.2607 46.3998 85.3507L35.0498 87.0007C34.9998 87.0107 34.9498 87.0107 34.8698 87.0107Z" fill="#1F57C3"/>
<path d="M66.8896 82.9307C66.2996 82.9307 65.8096 82.4907 65.7296 81.9007C65.6596 81.2607 66.1296 80.6807 66.7496 80.6107L73.0796 79.8607C73.7196 79.7907 74.2896 80.2407 74.3596 80.8807C74.4396 81.5207 73.9896 82.1007 73.3496 82.1707L67.0196 82.9207C66.9696 82.9207 66.9396 82.9307 66.8896 82.9307Z" fill="#1F57C3"/>
<path d="M58.1899 39.0805C57.5999 39.0805 57.0799 38.6205 57.0299 38.0005C56.9799 37.3705 57.4699 36.8005 58.1199 36.7505L79.2599 35.0805C79.8799 35.0405 80.4499 35.5105 80.5199 36.1505C80.5699 36.7905 80.0699 37.3505 79.4299 37.4005L58.2899 39.0805C58.2599 39.0805 58.2399 39.0805 58.1899 39.0805Z" fill="#1F57C3"/>
<path d="M25.9698 41.6406C25.3498 41.6406 24.8298 41.1706 24.8098 40.5606C24.7598 39.9206 25.2298 39.3606 25.8698 39.3106L48.7898 37.4907C49.4098 37.4507 49.9798 37.9206 50.0298 38.5606C50.0798 39.2006 49.6098 39.7607 48.9698 39.8207L26.0398 41.6307C26.0198 41.6407 25.9998 41.6406 25.9698 41.6406Z" fill="#1F57C3"/>
</svg>
