<svg width="100" height="100" viewBox="0 0 100 100" fill="none" xmlns="http://www.w3.org/2000/svg">
<path d="M34.6803 70.6604C34.5303 70.6604 34.3803 70.6304 34.2503 70.5604L26.4903 66.8604C26.0803 66.6704 25.8503 66.2404 25.9103 65.8004C25.9303 65.6904 26.3803 62.9504 27.7003 60.2704C27.9303 59.7704 28.5303 59.5604 29.0403 59.8104C29.5303 60.0504 29.7403 60.6504 29.4903 61.1504C28.7003 62.7704 28.2503 64.4604 28.0403 65.3904L34.7003 68.5504L41.5003 65.4204C40.8203 63.4704 38.9503 58.6104 36.5703 56.6004C36.1603 56.2404 36.1003 55.6104 36.4603 55.1804C36.8203 54.7604 37.4403 54.7104 37.8703 55.0604C41.3303 57.9804 43.6103 65.3504 43.6903 65.6604C43.8403 66.1504 43.6103 66.6604 43.1603 66.8704L35.1003 70.5704C34.9703 70.6304 34.8203 70.6604 34.6803 70.6604Z" fill="#1F57C3"/>
<path d="M34.6799 58.0908C32.0199 58.0908 29.97 55.2309 29.19 52.5709C29.04 52.0409 29.3399 51.4809 29.8699 51.3309C30.3999 51.1709 30.9499 51.4808 31.1199 52.0108C31.6999 54.0108 33.1899 56.0909 34.6799 56.0909C36.4799 56.0909 38.4 52.9209 38.5 50.5609C38.53 50.0109 39.01 49.5809 39.55 49.6109C40.1 49.6409 40.55 50.1109 40.5 50.6609C40.35 53.6909 38.0099 58.0908 34.6799 58.0908Z" fill="#1F57C3"/>
<path d="M34.8201 45.0901C32.0601 45.0901 29.8301 47.3301 29.8301 50.1001C29.8301 50.5301 29.8701 50.9501 29.9301 51.3101C32.0001 50.9601 35.3601 49.7601 36.8201 48.7901C37.1201 48.5801 37.5501 48.5701 37.8701 48.7601C38.2101 48.9501 38.4001 49.3101 38.3801 49.6901C38.3601 49.7701 38.3601 49.8401 38.3601 49.9201C38.9901 49.7601 39.5201 49.5501 39.7801 49.3601C39.4201 46.9401 37.3101 45.0901 34.8201 45.0901ZM29.1701 53.4101C28.7401 53.4101 28.3601 53.1301 28.2301 52.7201C28.0201 52.1401 27.8301 51.1501 27.8301 50.1001C27.8301 46.2301 30.9701 43.0801 34.8201 43.0801C38.5001 43.0801 41.5701 45.9401 41.8201 49.6001C41.8401 49.7701 41.8001 49.9501 41.7201 50.1101C40.9501 51.6501 38.1201 52.0601 37.2701 52.1501C36.9301 52.1801 36.6101 52.0501 36.4001 51.8001C36.2901 51.6801 36.2301 51.5401 36.1901 51.4001C33.9701 52.4101 30.9301 53.3201 29.2301 53.4101C29.2101 53.4101 29.1901 53.4101 29.1701 53.4101Z" fill="#1F57C3"/>
<path d="M80.3601 75.4995H19.6201C19.0601 75.4995 18.6201 75.0495 18.6201 74.4995V31.6895C18.6201 31.1395 19.0601 30.6895 19.6201 30.6895H39.4401C39.9901 30.6895 40.4401 31.1395 40.4401 31.6895C40.4401 32.2495 39.9901 32.6895 39.4401 32.6895H20.6201V73.4895H79.3601V32.6895H65.1101C64.5601 32.6895 64.1101 32.2495 64.1101 31.6895C64.1101 31.1395 64.5601 30.6895 65.1101 30.6895H80.3601C80.9201 30.6895 81.3801 31.1395 81.3801 31.6895V74.4995C81.3801 75.0495 80.9201 75.4995 80.3601 75.4995Z" fill="#1F57C3"/>
<path d="M44.48 28.21C43.93 28.21 43.48 27.76 43.48 27.2V20.5C43.48 17.19 46.16 14.5 49.48 14.5H50.52C53.82 14.5 56.52 17.19 56.52 20.5V23.14C56.52 23.69 56.07 24.14 55.52 24.14C54.97 24.14 54.52 23.69 54.52 23.14V20.5C54.52 18.3 52.71 16.5 50.52 16.5H49.48C47.27 16.5 45.48 18.3 45.48 20.5V27.2C45.48 27.76 45.03 28.21 44.48 28.21Z" fill="#1F57C3"/>
<path d="M49.9901 20.9091C49.8001 20.9091 49.6301 21.0691 49.6301 21.2691C49.6301 21.4691 49.8001 21.6291 49.9901 21.6291C50.2001 21.6291 50.3501 21.4691 50.3501 21.2691C50.3501 21.0691 50.2001 20.9091 49.9901 20.9091ZM49.9901 22.9091C49.1001 22.9091 48.3501 22.1691 48.3501 21.2691C48.3501 20.3591 49.1001 19.6191 49.9901 19.6191C50.9001 19.6191 51.6301 20.3591 51.6301 21.2691C51.6301 22.1691 50.9001 22.9091 49.9901 22.9091Z" fill="#1F57C3"/>
<path d="M76.19 40.1994H23.79C23.23 40.1994 22.79 39.7494 22.79 39.1994C22.79 38.6394 23.23 38.1895 23.79 38.1895H76.19C76.75 38.1895 77.19 38.6394 77.19 39.1994C77.19 39.7494 76.75 40.1994 76.19 40.1994Z" fill="#1F57C3"/>
<path d="M40.4399 33.8992H59.5399V28.2092H40.4399V33.8992ZM60.5599 35.8992H39.4399C38.8899 35.8992 38.4399 35.4492 38.4399 34.8992V27.1992C38.4399 26.6492 38.8899 26.1992 39.4399 26.1992H60.5599C61.1099 26.1992 61.5599 26.6492 61.5599 27.1992V34.8992C61.5599 35.4492 61.1099 35.8992 60.5599 35.8992Z" fill="#1F57C3"/>
<path d="M71.2802 56.3809H49.9902C49.4402 56.3809 48.9902 55.9309 48.9902 55.3809C48.9902 54.8209 49.4402 54.3809 49.9902 54.3809H71.2802C71.8302 54.3809 72.2802 54.8209 72.2802 55.3809C72.2802 55.9309 71.8302 56.3809 71.2802 56.3809Z" fill="#1F57C3"/>
<path d="M71.2802 62.7405H49.9902C49.4402 62.7405 48.9902 62.2905 48.9902 61.7405C48.9902 61.1805 49.4402 60.7305 49.9902 60.7305H71.2802C71.8302 60.7305 72.2802 61.1805 72.2802 61.7405C72.2802 62.2905 71.8302 62.7405 71.2802 62.7405Z" fill="#1F57C3"/>
<path d="M50 97.85C63.21 97.85 75.18 92.49 83.83 83.83C92.49 75.18 97.85 63.21 97.85 50C97.85 36.79 92.49 24.82 83.83 16.17C75.18 7.51 63.21 2.15 50 2.15C36.79 2.15 24.82 7.51 16.17 16.17C7.51 24.82 2.15 36.79 2.15 50C2.15 63.21 7.51 75.18 16.17 83.83C24.82 92.49 36.79 97.85 50 97.85ZM85.36 85.36C76.31 94.4 63.81 100 50 100C36.19 100 23.69 94.4 14.64 85.36C5.6 76.31 0 63.81 0 50C0 36.19 5.6 23.69 14.64 14.64C23.69 5.6 36.19 0 50 0C63.81 0 76.31 5.6 85.36 14.64C94.4 23.69 100 36.19 100 50C100 63.81 94.4 76.31 85.36 85.36Z" fill="#1F57C3"/>
</svg>
