<svg width="100" height="100" viewBox="0 0 100 100" fill="none" xmlns="http://www.w3.org/2000/svg">
<path d="M50 97.85C63.21 97.85 75.18 92.49 83.83 83.83C92.49 75.18 97.85 63.21 97.85 50C97.85 36.79 92.49 24.82 83.83 16.17C75.18 7.51 63.21 2.15 50 2.15C36.79 2.15 24.82 7.51 16.17 16.17C7.51 24.82 2.15 36.79 2.15 50C2.15 63.21 7.51 75.18 16.17 83.83C24.82 92.49 36.79 97.85 50 97.85ZM85.36 85.36C76.31 94.4 63.81 100 50 100C36.19 100 23.69 94.4 14.64 85.36C5.6 76.31 0 63.81 0 50C0 36.19 5.6 23.69 14.64 14.64C23.69 5.6 36.19 0 50 0C63.81 0 76.31 5.6 85.36 14.64C94.4 23.69 100 36.19 100 50C100 63.81 94.4 76.31 85.36 85.36Z" fill="#1F57C3"/>
<path d="M46.57 48.8398C46.28 48.8398 45.99 48.6798 45.83 48.3998C45.6 47.9998 45.74 47.4798 46.14 47.2398C46.3 47.1498 50.28 44.9198 53.48 45.7198C53.93 45.8298 54.23 46.2898 54.11 46.7498C54 47.2098 53.53 47.4898 53.08 47.3698C50.52 46.7398 47.02 48.6998 46.98 48.7198C46.87 48.7998 46.71 48.8398 46.57 48.8398Z" fill="#1F57C3"/>
<path d="M51.5899 56.4098C51.4999 56.4098 51.4299 56.3998 51.3399 56.3798C50.8799 56.2398 50.6399 55.7598 50.7699 55.3098C51.8299 51.8598 53.7999 37.0898 54.1399 34.4598C53.6899 34.0698 52.5599 33.2698 50.3699 33.1098C48.3299 32.9598 47.1799 33.8598 46.6799 34.3698C49.8199 41.1498 45.9399 54.9698 45.7799 55.5698C45.6499 56.0198 45.1699 56.2798 44.7199 56.1498C44.2699 56.0198 43.9999 55.5498 44.1299 55.0998C44.1799 54.9498 48.1999 40.6298 44.9499 34.6798C44.7899 34.4098 44.8099 34.0898 44.9699 33.8298C45.0399 33.7198 46.6399 31.1298 50.4799 31.4098C54.1999 31.6898 55.6499 33.5798 55.7199 33.6598C55.8299 33.8398 55.8999 34.0598 55.8799 34.2798C55.7899 34.9998 53.5999 51.8998 52.3999 55.8098C52.2899 56.1798 51.9499 56.4098 51.5899 56.4098Z" fill="#1F57C3"/>
<path d="M55.02 35.4499C54.7 35.4499 54.41 35.29 54.25 35C54.05 34.59 54.18 34.07 54.61 33.85C54.68 33.81 61.84 29.86 63.03 25.43C63.17 24.97 63.62 24.71 64.07 24.83C64.55 24.95 64.82 25.42 64.68 25.87C63.31 31.01 55.74 35.17 55.42 35.35C55.29 35.41 55.15 35.4499 55.02 35.4499Z" fill="#1F57C3"/>
<path d="M50.25 24.5301C50.05 24.5301 49.82 24.5401 49.6 24.5701C48.27 24.7401 48.15 25.3101 48.11 25.5201C47.81 26.9101 49.46 29.3301 50.41 30.3301C51.29 28.8401 52.22 26.3001 51.68 25.1601C51.59 24.9901 51.36 24.5301 50.25 24.5301ZM50.57 32.3801C49.33 32.3801 46.55 28.4901 46.39 26.0901C46.28 24.3101 47.36 23.1401 49.37 22.8801C49.69 22.8501 49.98 22.8301 50.25 22.8301C52.06 22.8301 52.85 23.6901 53.21 24.4201C54.32 26.7201 52.31 30.7401 51.29 32.0401C51.11 32.2501 50.86 32.3801 50.57 32.3801Z" fill="#1F57C3"/>
<path d="M42.1199 42.8498C41.6899 42.8498 41.3299 42.5398 41.2899 42.1098C40.5899 36.7298 45.0099 33.6898 45.2199 33.5598C45.5999 33.2998 46.1199 33.3998 46.3899 33.7998C46.6599 34.1898 46.5499 34.7198 46.1699 34.9798C46.0099 35.0898 42.4199 37.5798 42.9799 41.8898C43.0299 42.3598 42.7099 42.7798 42.2399 42.8398C42.1899 42.8498 42.1699 42.8498 42.1199 42.8498Z" fill="#1F57C3"/>
<path d="M66.5799 16.3506C66.8299 17.3806 66.6499 18.6706 65.7199 19.2006C65.6299 19.2606 65.4299 19.3806 65.2199 19.5506C65.0399 18.3906 64.6999 17.2306 64.3399 16.4106C64.4599 16.4806 64.5899 16.5506 64.7499 16.6106C65.0199 16.7206 65.3399 16.5806 65.4699 16.3006C65.5599 16.0306 65.4299 15.7106 65.1599 15.5906C65.0699 15.5606 64.6399 15.3706 64.6799 15.1806C64.7299 14.9406 65.1099 14.6906 65.2499 14.7006C65.7899 14.7206 66.3299 15.4006 66.5799 16.3506ZM58.4499 23.2206C57.4999 23.7306 56.3299 23.1806 55.5799 22.4206C54.9099 21.7106 54.6099 20.8906 54.8799 20.4206C54.9499 20.3006 55.3599 20.1006 55.5999 20.1906C55.7899 20.2606 55.7199 20.7306 55.6999 20.8106C55.6299 21.1106 55.8299 21.4006 56.1199 21.4506C56.4399 21.5106 56.7099 21.3106 56.7599 21.0106C56.7999 20.8506 56.7999 20.7006 56.8199 20.5706C57.3199 21.3206 58.1099 22.2106 59.0099 22.9806C58.7399 23.0506 58.5399 23.1706 58.4499 23.2206ZM65.2899 13.6006C64.5899 13.5706 63.7599 14.2306 63.5999 14.9506C63.5999 15.0106 63.5799 15.0906 63.5799 15.1906C63.3299 14.9006 63.0299 14.6506 62.7199 14.4406L56.0099 18.1406C56.0299 18.5106 56.0799 18.8906 56.1899 19.2606C56.0999 19.2206 56.0299 19.1806 55.9699 19.1606C55.2899 18.9106 54.2899 19.2506 53.9299 19.8706C53.4099 20.8006 53.7499 22.1006 54.7899 23.1806C55.8299 24.2406 57.4999 24.9606 58.9699 24.1906C59.3499 23.9706 59.5099 24.0006 59.5799 24.0306C59.6199 24.0506 59.7099 24.1806 59.7799 24.4506C59.8299 24.7506 60.1199 24.9406 60.4099 24.8706C60.4799 24.8606 60.5299 24.8406 60.5699 24.8206C60.7799 24.7106 60.8899 24.5006 60.8699 24.2706C61.5899 24.6506 62.2899 24.8306 62.8499 24.6806C63.4599 24.8006 65.0899 27.5106 64.2999 28.2706C63.3699 29.0306 63.3699 29.5606 63.6399 30.0306L63.0299 30.3606L64.0699 32.2406L70.3299 28.7906L69.2899 26.9106L68.7199 27.2206C68.4499 26.7506 68.0199 26.4606 66.8699 26.8406C65.6999 27.0506 64.5499 24.4106 64.6099 23.7006C65.0399 23.3106 65.2699 22.6206 65.3399 21.8006C65.4899 21.9406 65.7399 21.9606 65.9499 21.8606C65.9899 21.8306 66.0399 21.8006 66.0599 21.7606C66.2899 21.5406 66.2599 21.2006 66.0599 20.9806C65.8599 20.7906 65.7899 20.6506 65.8099 20.5806C65.8099 20.5306 65.8799 20.3806 66.2599 20.1606C67.6899 19.3406 67.9799 17.5206 67.6399 16.0906C67.2799 14.6206 66.3499 13.6506 65.2899 13.6006Z" fill="#1F57C3"/>
<path d="M74.4402 25.8114C74.2302 25.8114 74.0302 25.7314 73.8502 25.5714C72.7202 24.4814 71.5202 23.4614 70.2402 22.5314C69.8502 22.2514 69.7902 21.7214 70.0602 21.3414C70.3302 20.9614 70.8702 20.8814 71.2502 21.1514C72.5902 22.1314 73.8502 23.2014 75.0502 24.3414C75.3902 24.6714 75.3902 25.2114 75.0702 25.5514C74.8902 25.7214 74.6602 25.8114 74.4402 25.8114Z" fill="#1F57C3"/>
<path d="M83.04 38.9911C82.7 38.9911 82.39 38.7711 82.25 38.4311C80.96 34.8611 79.04 31.5511 76.6 28.5611C76.31 28.2011 76.38 27.6711 76.74 27.3711C77.1 27.0711 77.64 27.1211 77.94 27.4911C80.49 30.6111 82.48 34.1011 83.85 37.8511C84.01 38.2911 83.79 38.7711 83.36 38.9411C83.24 38.9711 83.15 38.9911 83.04 38.9911Z" fill="#1F57C3"/>
<path d="M73.5101 77.3914C73.4201 77.3914 73.3301 77.3714 73.2201 77.3414C72.9201 77.2314 72.7201 76.9714 72.6801 76.6614C71.3701 67.9514 65.0001 60.5214 56.4401 57.7414C50.0901 55.6614 43.0701 56.4414 37.1801 59.8714C31.3501 63.2714 27.2401 68.9414 25.9301 75.4214C25.8701 75.7314 25.6401 75.9814 25.3501 76.0614C25.0501 76.1514 24.7101 76.0814 24.4901 75.8514C13.7201 65.0914 10.8901 48.0114 17.6501 34.3214C24.4401 20.4914 39.8901 12.3914 55.2001 14.6014C55.6701 14.6814 55.9901 15.1014 55.9201 15.5714C55.8501 16.0414 55.4201 16.3614 54.9501 16.2914C40.3801 14.1814 25.6601 21.9014 19.1801 35.0714C12.9701 47.6514 15.2501 63.2414 24.6201 73.5314C26.3401 67.2314 30.5401 61.7714 36.3201 58.4014C42.6201 54.7214 50.1601 53.8914 56.9801 56.1114C65.6301 58.9314 72.1801 66.1914 74.0801 74.8514C82.6101 66.4314 86.2201 53.6614 83.3101 41.8914C83.2001 41.4314 83.4701 40.9714 83.9201 40.8614C84.3901 40.7414 84.8501 41.0214 84.9601 41.4814C88.1401 54.3714 83.8801 68.3714 74.0801 77.1714C73.9201 77.3214 73.7101 77.3914 73.5101 77.3914Z" fill="#1F57C3"/>
<path d="M67.5899 76.1208C67.2999 77.5808 66.8899 79.0608 66.3799 80.5408C67.7999 79.7608 69.1799 78.8908 70.4899 77.9108L67.5899 76.1208ZM64.7899 83.1408C64.5699 83.1408 64.3699 83.0608 64.2099 82.9008C63.9399 82.6608 63.8699 82.2908 63.9999 81.9608C65.0399 79.4908 65.7399 77.0108 66.1499 74.6008C66.1699 74.3208 66.3799 74.0808 66.6199 73.9608C66.8899 73.8408 67.1899 73.8608 67.4399 74.0108L72.4299 77.1208C72.6499 77.2608 72.8099 77.5108 72.8299 77.7908C72.8299 78.0708 72.7199 78.3308 72.5199 78.5008C70.2399 80.3108 67.7799 81.8508 65.1599 83.0608C65.0399 83.1208 64.9099 83.1408 64.7899 83.1408Z" fill="#1F57C3"/>
<path d="M67.9102 74.3111L71.9102 76.8011C72.1602 76.6011 72.3802 76.4011 72.6102 76.2111C71.8902 71.9311 70.0302 68.0011 67.2802 64.7711C68.1802 67.4711 68.4102 70.7211 67.9102 74.3111ZM71.9802 78.6911C71.8202 78.6911 71.6602 78.6511 71.5202 78.5611L66.5302 75.4611C66.2402 75.2811 66.0802 74.9411 66.1502 74.6011C67.2102 67.8411 65.5602 62.3811 61.7202 59.9911C61.3202 59.7411 61.2102 59.2211 61.4502 58.8211C61.7002 58.4211 62.2202 58.3011 62.6302 58.5411C62.6302 58.5511 62.6302 58.5511 62.6302 58.5511C68.9702 62.4911 73.2602 69.0111 74.3502 76.4111C74.3902 76.7011 74.3002 76.9811 74.0802 77.1711C73.6002 77.6111 73.0802 78.0411 72.5002 78.5011C72.3602 78.6311 72.1602 78.6911 71.9802 78.6911Z" fill="#1F57C3"/>
<path d="M41.2902 57.7709L46.1702 60.7909C49.1202 58.7609 52.1302 57.5209 54.9702 57.1209C53.1002 56.6509 51.1802 56.4109 49.2402 56.4109C46.5002 56.4109 43.8402 56.8709 41.2902 57.7709ZM29.5002 66.9109L36.3002 71.1309C38.6702 67.4609 41.5402 64.3009 44.6802 61.8709L39.3502 58.5609C35.3302 60.3909 31.9402 63.2609 29.5002 66.9109ZM36.5502 73.1509C36.3902 73.1509 36.2302 73.1109 36.0902 73.0209L27.8502 67.9009C27.4702 67.6509 27.3302 67.1309 27.5802 66.7309C30.3402 62.3109 34.2902 58.8809 39.0502 56.8209H39.0802C42.3002 55.4209 45.7102 54.7109 49.2402 54.7109C53.9302 54.7109 58.5402 56.0209 62.5602 58.5009C62.8302 58.6409 63.0302 58.9309 63.0302 59.2709C63.0302 59.7409 62.6502 60.1109 62.2002 60.1209C62.0402 60.1209 61.8802 60.0809 61.7202 59.9909C61.5702 59.8909 61.4102 59.8009 61.2502 59.7209C59.9602 59.0309 58.4902 58.6909 56.8902 58.6909C53.7302 58.6909 50.2102 60.0009 46.7102 62.4809C46.6802 62.5009 46.6602 62.5109 46.6402 62.5309C43.1002 65.0509 39.8702 68.5809 37.2702 72.7509C37.1602 72.9409 36.9702 73.0809 36.7502 73.1309C36.6802 73.1409 36.6102 73.1509 36.5502 73.1509Z" fill="#1F57C3"/>
<path d="M26.0201 74.9699C27.8501 76.7399 29.8801 78.3098 32.0501 79.6498C32.9101 77.2398 34.0201 74.8699 35.3901 72.5799L28.6001 68.3499C27.4001 70.4299 26.5401 72.6499 26.0201 74.9699ZM32.5301 81.7699C32.3901 81.7699 32.2301 81.7299 32.1201 81.6599C29.3201 80.0599 26.7501 78.0999 24.4901 75.8499C24.2901 75.6499 24.1901 75.3599 24.2601 75.0799C24.8701 72.1199 25.9801 69.3098 27.5801 66.7298C27.8301 66.3298 28.3501 66.1998 28.7601 66.4498L37.0001 71.5699C37.4001 71.8199 37.5201 72.3498 37.2701 72.7498C35.6001 75.4598 34.2701 78.2998 33.3401 81.1798C33.2701 81.4198 33.0901 81.6199 32.8401 81.7099C32.7501 81.7499 32.6401 81.7699 32.5301 81.7699Z" fill="#1F57C3"/>
<path d="M57.2302 67.68L66.3102 73.31C66.9902 67.27 65.3802 62.41 61.9302 60.12L57.2302 67.68ZM66.9902 75.58C66.8302 75.58 66.6702 75.54 66.5302 75.46L55.6002 68.67C55.2202 68.42 55.0802 67.9 55.3302 67.5L60.9102 58.52C61.1602 58.13 61.6602 58 62.0402 58.22C62.2402 58.32 62.4502 58.42 62.6302 58.54C67.0802 61.31 69.0202 67.41 67.8202 74.87C67.7802 75.15 67.5902 75.39 67.3202 75.51C67.2102 75.56 67.1002 75.58 66.9902 75.58Z" fill="#1F57C3"/>
<path d="M33.57 80.5204C37.09 82.4504 40.9 83.7204 44.88 84.3104L47.5 80.1104L36.84 73.4804C35.49 75.7604 34.38 78.1304 33.57 80.5204ZM45.31 86.0904C45.29 86.0904 45.24 86.0804 45.22 86.0804C40.57 85.4604 36.16 83.9804 32.12 81.6604C31.76 81.4604 31.6 81.0504 31.71 80.6604C32.69 77.6504 34.06 74.6804 35.82 71.8504C36.07 71.4504 36.59 71.3304 37 71.5704L49.12 79.1104C49.33 79.2304 49.46 79.4204 49.51 79.6404C49.55 79.8604 49.53 80.0904 49.4 80.2804L46.05 85.6804C45.89 85.9304 45.6 86.0904 45.31 86.0904Z" fill="#1F57C3"/>
<path d="M37.7399 72.0302L48.3999 78.6602L54.8799 68.2202L51.1299 65.8902C50.8799 65.7302 50.7499 65.4502 50.7499 65.1702C50.7499 65.0102 50.7699 64.8602 50.8599 64.7202C51.1099 64.3202 51.6299 64.2002 52.0399 64.4502L55.7899 66.7802L60.4099 59.3302C59.3299 58.9002 58.1599 58.6902 56.8899 58.6902C50.5699 58.6902 42.9599 64.0202 37.7399 72.0302ZM48.6699 80.6802C48.5099 80.6802 48.3599 80.6402 48.2199 80.5602L36.0899 73.0202C35.7099 72.7702 35.5799 72.2502 35.8199 71.8502C41.4499 62.8202 49.7099 56.9902 56.8899 56.9902C58.7899 56.9902 60.4999 57.4002 62.0399 58.2202C62.2399 58.3302 62.3999 58.5202 62.4699 58.7402C62.5399 58.9702 62.4899 59.2202 62.3599 59.4202L56.7799 68.3902V68.4002L49.3999 80.2802C49.2399 80.5402 48.9699 80.6802 48.6699 80.6802Z" fill="#1F57C3"/>
<path d="M49.8499 79.5607L56.9799 83.9907C59.4199 83.4807 61.8399 82.6907 64.1399 81.6507C65.0199 79.4807 65.6499 77.2907 66.0399 75.1507L56.3299 69.1207L49.8499 79.5607ZM56.7999 85.7407C56.6399 85.7407 56.4899 85.6907 56.3499 85.6107L48.2199 80.5607C47.8399 80.3007 47.6999 79.7807 47.9499 79.3807L55.3299 67.5007C55.4499 67.3107 55.6499 67.1707 55.8799 67.1207C56.0799 67.0707 56.3299 67.1107 56.5099 67.2307L67.4399 74.0107C67.7099 74.1907 67.8699 74.5307 67.8199 74.8707C67.4099 77.4107 66.6699 80.0207 65.5899 82.6207C65.4899 82.8107 65.3399 82.9707 65.1599 83.0607C62.5399 84.2707 59.7799 85.1707 56.9799 85.7207C56.9099 85.7307 56.8699 85.7407 56.7999 85.7407Z" fill="#1F57C3"/>
<path d="M46.7499 84.5409C49.3999 84.7909 51.8999 84.7409 54.4299 84.4109L48.9399 81.0009L46.7499 84.5409ZM49.9799 86.4009C48.4499 86.4009 46.8399 86.2909 45.2199 86.0809C44.9199 86.0409 44.6799 85.8609 44.5599 85.6009C44.4299 85.3409 44.4499 85.0309 44.6099 84.7809L47.9499 79.3809C48.1999 78.9809 48.7399 78.8609 49.1199 79.1109L57.2499 84.1609C57.5499 84.3509 57.6999 84.7009 57.6399 85.0409C57.5899 85.3809 57.3199 85.6509 56.9799 85.7209C54.6799 86.1709 52.3099 86.4009 49.9799 86.4009Z" fill="#1F57C3"/>
</svg>
