<svg width="40" height="37" viewBox="0 0 40 37" fill="none" xmlns="http://www.w3.org/2000/svg">
<path d="M19.9998 27.9387C19.2078 27.9387 18.5598 28.5927 18.5598 29.3787C18.5598 30.1707 19.2078 30.8187 19.9998 30.8187C20.7918 30.8187 21.4398 30.1707 21.4398 29.3787C21.4398 28.5927 20.7918 27.9387 19.9998 27.9387ZM19.9998 32.0427C18.5358 32.0427 17.3418 30.8487 17.3418 29.3787C17.3418 27.9147 18.5358 26.7207 19.9998 26.7207C21.4638 26.7207 22.6578 27.9147 22.6578 29.3787C22.6578 30.8487 21.4638 32.0427 19.9998 32.0427Z" fill="#1F57C3"/>
<path d="M19.9998 9.00358C19.2078 9.00358 18.5598 9.63958 18.5598 10.4316C18.5598 11.0496 19.2858 16.0836 19.9998 20.8056C20.7138 16.0836 21.4398 11.0496 21.4398 10.4316C21.4398 9.63958 20.7918 9.00358 19.9998 9.00358ZM19.9998 25.4916C19.6998 25.4916 19.4418 25.2696 19.3878 24.9696C19.1838 23.5956 17.3418 11.5836 17.3418 10.4316C17.3418 8.96158 18.5358 7.76758 19.9998 7.76758C21.4638 7.76758 22.6578 8.96158 22.6578 10.4316C22.6578 11.5836 20.8158 23.5956 20.6118 24.9696C20.5578 25.2696 20.2998 25.4916 19.9998 25.4916Z" fill="#1F57C3"/>
<path d="M35.7504 36.1289H4.25038C2.51038 36.1289 1.20238 35.5169 0.554378 34.3889C-0.0936225 33.2609 0.0203806 31.8209 0.890381 30.3149L8.22238 17.6129C8.39038 17.3189 8.76838 17.2109 9.05038 17.3849C9.35038 17.5529 9.45238 17.9249 9.28438 18.2249L1.95238 30.9269C1.30438 32.0309 1.19038 33.0389 1.61638 33.7769C2.03038 34.5089 2.96638 34.9109 4.25038 34.9109H35.7504C37.0224 34.9109 37.9704 34.5089 38.3844 33.7769C38.8104 33.0389 38.6964 32.0309 38.0484 30.9269L22.2984 3.64494C21.6624 2.54094 20.8464 1.92894 20.0004 1.92894C19.1544 1.92894 18.3384 2.54094 17.6904 3.64494L11.7384 13.9829C11.5704 14.2709 11.1924 14.3729 10.8924 14.2049C10.6104 14.0369 10.5024 13.6589 10.6704 13.3589L16.6404 3.03294C17.5104 1.52694 18.7044 0.710938 20.0004 0.710938C21.2964 0.710938 22.4904 1.52694 23.3604 3.03294L39.1104 30.3149C39.9804 31.8209 40.0944 33.2609 39.4464 34.3889C38.7984 35.5169 37.4904 36.1289 35.7504 36.1289Z" fill="#1F57C3"/>
</svg>
