<svg width="40" height="40" viewBox="0 0 40 40" fill="none" xmlns="http://www.w3.org/2000/svg">
<path d="M20.0058 31.749C16.8798 31.749 12.5058 29.853 12.3258 29.775C12.0798 29.667 11.9238 29.397 11.9658 29.121C11.9898 29.013 12.3918 26.427 13.6518 23.895C14.1558 22.863 14.7378 21.969 15.3738 21.255C15.5958 21.003 15.9858 20.979 16.2318 21.207C16.4898 21.429 16.5018 21.819 16.2858 22.071C15.7278 22.701 15.2058 23.499 14.7378 24.435C13.8858 26.193 13.4418 28.005 13.2618 28.839C14.4438 29.313 17.6838 30.525 20.0058 30.525C22.3398 30.525 25.8438 29.301 27.1038 28.833C26.7918 27.441 25.6998 23.457 23.2878 21.423C23.0418 21.207 23.0058 20.817 23.2218 20.565C23.4438 20.301 23.8218 20.271 24.0798 20.487C27.3618 23.253 28.3758 28.875 28.4118 29.109C28.4658 29.397 28.3098 29.673 28.0338 29.781C27.8418 29.865 23.1198 31.749 20.0058 31.749Z" fill="#1F57C3"/>
<path d="M20.0593 21.2889C17.6713 21.2889 15.8173 18.667 15.1153 16.225C15.0133 15.907 15.2053 15.5649 15.5293 15.4689C15.8533 15.3789 16.1893 15.5649 16.2853 15.8829C16.8793 17.9169 18.3973 20.0649 20.0593 20.0649C22.0453 20.0649 23.9773 16.9029 24.0913 14.4129C24.1033 14.0769 24.4033 13.8129 24.7273 13.8309C25.0633 13.8489 25.3273 14.1309 25.3093 14.4729C25.1833 17.1849 23.0173 21.2889 20.0593 21.2889Z" fill="#1F57C3"/>
<path d="M20.2046 8.77282C17.3486 8.77282 15.0266 11.0948 15.0266 13.9508C15.0266 14.5328 15.1046 15.0908 15.2066 15.5108C17.0906 15.2708 20.0306 14.1908 21.4706 12.9308C21.8726 12.5828 22.0286 12.3188 22.1066 12.1568C22.2146 11.8928 22.4966 11.7428 22.7846 11.7968C23.0666 11.8568 23.2766 12.1028 23.2766 12.3908C23.2886 12.7748 23.2766 13.1648 23.2526 13.5368C23.2346 13.7948 23.2106 14.0288 23.1866 14.2268C24.0566 14.0588 25.0166 13.7528 25.3406 13.3748C25.0526 10.7768 22.8326 8.77282 20.2046 8.77282ZM14.7506 16.7768C14.4926 16.7768 14.2586 16.6148 14.1686 16.3628C14.0006 15.8348 13.8086 14.9228 13.8086 13.9508C13.8086 10.4228 16.6706 7.54883 20.2046 7.54883C23.5346 7.54883 26.3366 10.1588 26.5826 13.4888C26.5826 13.5968 26.5586 13.7108 26.5166 13.8068C25.8326 15.1568 23.0546 15.5108 22.5086 15.5708C22.3046 15.5888 22.1066 15.5108 21.9806 15.3548C21.8486 15.2048 21.7946 14.9948 21.8486 14.8028C21.8486 14.7968 21.9146 14.5568 21.9686 14.1008C20.1086 15.5408 16.7366 16.6808 14.7806 16.7768C14.7806 16.7768 14.7686 16.7768 14.7506 16.7768Z" fill="#1F57C3"/>
<path d="M20.0061 39.1701C9.43407 39.1701 0.830078 30.5661 0.830078 20.0001C0.830078 12.6981 4.89208 6.12208 11.4321 2.85208C11.7441 2.70208 12.1041 2.82207 12.2481 3.12807C12.4041 3.42807 12.2901 3.79408 11.9781 3.94408C5.86408 7.01008 2.06608 13.1601 2.06608 20.0001C2.06608 29.8941 10.1061 37.9461 20.0061 37.9461C29.8941 37.9461 37.9461 29.8941 37.9461 20.0001C37.9461 10.1061 29.8941 2.05407 20.0061 2.05407C19.6701 2.05407 19.3941 1.78408 19.3941 1.44808C19.3941 1.10608 19.6701 0.830078 20.0061 0.830078C30.5661 0.830078 39.1701 9.43408 39.1701 20.0001C39.1701 30.5661 30.5661 39.1701 20.0061 39.1701Z" fill="#1F57C3"/>
<path d="M20.0065 5.97807C19.6705 5.97807 19.3945 5.70808 19.3945 5.37208V1.44808C19.3945 1.10608 19.6705 0.830078 20.0065 0.830078C20.3425 0.830078 20.6185 1.10608 20.6185 1.44808V5.37208C20.6185 5.70808 20.3425 5.97807 20.0065 5.97807Z" fill="#1F57C3"/>
<path d="M38.5581 20.6127H31.5261C31.1901 20.6127 30.9141 20.3367 30.9141 20.0007C30.9141 19.6647 31.1901 19.3887 31.5261 19.3887H38.5581C38.8941 19.3887 39.1701 19.6647 39.1701 20.0007C39.1701 20.3367 38.8941 20.6127 38.5581 20.6127Z" fill="#1F57C3"/>
<path d="M20.0065 39.1701C19.6705 39.1701 19.3945 38.8941 19.3945 38.5581V34.4421C19.3945 34.1061 19.6705 33.8301 20.0065 33.8301C20.3425 33.8301 20.6185 34.1061 20.6185 34.4421V38.5581C20.6185 38.8941 20.3425 39.1701 20.0065 39.1701Z" fill="#1F57C3"/>
<path d="M8.48607 20.6127H1.44208C1.10608 20.6127 0.830078 20.3367 0.830078 20.0007C0.830078 19.6647 1.10608 19.3887 1.44208 19.3887H8.48607C8.82208 19.3887 9.09808 19.6647 9.09808 20.0007C9.09808 20.3367 8.82208 20.6127 8.48607 20.6127Z" fill="#1F57C3"/>
</svg>
