<svg width="38" height="42" viewBox="0 0 38 42" fill="none" xmlns="http://www.w3.org/2000/svg">
<path d="M26.2313 4.76361H16.2713C15.9533 4.76361 15.6953 4.49961 15.6953 4.18161C15.6953 3.85761 15.9533 3.59961 16.2713 3.59961H26.2313C26.5493 3.59961 26.8133 3.85761 26.8133 4.18161C26.8133 4.49961 26.5493 4.76361 26.2313 4.76361Z" fill="#1F57C3"/>
<path d="M8.77145 20.8621C8.44745 20.8621 8.18945 20.6041 8.18945 20.2801V3.39614C8.18945 1.93814 9.37745 0.744141 10.8415 0.744141H31.6615C33.1315 0.744141 34.3135 1.93814 34.3135 3.39614V13.4101C34.3135 13.7341 34.0555 13.9921 33.7315 13.9921C33.4135 13.9921 33.1555 13.7341 33.1555 13.4101V3.39614C33.1555 2.57414 32.4895 1.90814 31.6615 1.90814H10.8415C10.0195 1.90814 9.34746 2.57414 9.34746 3.39614V20.2801C9.34746 20.6041 9.08945 20.8621 8.77145 20.8621Z" fill="#1F57C3"/>
<path d="M31.6615 41.256H10.8415C9.37745 41.256 8.18945 40.062 8.18945 38.598V34.818C8.18945 34.494 8.44745 34.236 8.77145 34.236C9.08945 34.236 9.34746 34.494 9.34746 34.818V38.598C9.34746 39.42 10.0195 40.092 10.8415 40.092H31.6615C32.4895 40.092 33.1555 39.42 33.1555 38.598V34.416C33.1555 34.092 33.4135 33.834 33.7315 33.834C34.0555 33.834 34.3135 34.092 34.3135 34.416V38.598C34.3135 40.062 33.1315 41.256 31.6615 41.256Z" fill="#1F57C3"/>
<path d="M12.4121 19.409C12.0881 19.409 11.8301 19.145 11.8301 18.827V7.457C11.8301 7.139 12.0881 6.875 12.4121 6.875H30.0941C30.4121 6.875 30.6701 7.139 30.6701 7.457V13.409C30.6701 13.733 30.4121 13.991 30.0941 13.991C29.7701 13.991 29.5121 13.733 29.5121 13.409V8.039H12.9881V18.827C12.9881 19.145 12.7301 19.409 12.4121 19.409Z" fill="#1F57C3"/>
<path d="M27.7121 32.0812H12.4121C12.0881 32.0812 11.8301 31.8172 11.8301 31.4992V28.0252C11.8301 27.7072 12.0881 27.4492 12.4121 27.4492C12.7301 27.4492 12.9881 27.7072 12.9881 28.0252V30.9172H27.7121C28.0301 30.9172 28.2881 31.1752 28.2881 31.4992C28.2881 31.8172 28.0301 32.0812 27.7121 32.0812Z" fill="#1F57C3"/>
<path d="M21.2454 34.416C20.3454 34.416 19.6194 35.148 19.6194 36.054C19.6194 36.954 20.3454 37.692 21.2454 37.692C22.1574 37.692 22.8894 36.954 22.8894 36.054C22.8894 35.148 22.1574 34.416 21.2454 34.416ZM21.2454 38.856C19.7034 38.856 18.4434 37.596 18.4434 36.054C18.4434 34.506 19.7034 33.252 21.2454 33.252C22.7994 33.252 24.0474 34.506 24.0474 36.054C24.0474 37.596 22.7994 38.856 21.2454 38.856Z" fill="#1F57C3"/>
<path d="M28.4515 16.5604C27.4255 16.5604 26.6035 17.3884 26.6035 18.4084C26.6035 19.4284 27.4255 20.2564 28.4515 20.2564H33.2755C34.2895 20.2564 35.1175 19.4284 35.1175 18.4084C35.1175 17.3884 34.2895 16.5604 33.2755 16.5604H28.4515ZM33.2755 21.4204H28.4515C26.7895 21.4204 25.4395 20.0704 25.4395 18.4084C25.4395 16.7464 26.7895 15.3964 28.4515 15.3964H33.2755C34.9315 15.3964 36.2875 16.7464 36.2875 18.4084C36.2875 20.0704 34.9315 21.4204 33.2755 21.4204Z" fill="#1F57C3"/>
<path d="M28.8714 21.4199C27.8454 21.4199 27.0234 22.2479 27.0234 23.2679C27.0234 24.2879 27.8454 25.1159 28.8714 25.1159H34.1034C35.1294 25.1159 35.9574 24.2879 35.9574 23.2679C35.9574 22.2479 35.1294 21.4199 34.1034 21.4199H28.8714ZM34.1034 26.2799H28.8714C27.2034 26.2799 25.8594 24.9299 25.8594 23.2679C25.8594 21.6059 27.2034 20.2559 28.8714 20.2559H34.1034C35.7714 20.2559 37.1154 21.6059 37.1154 23.2679C37.1154 24.9299 35.7714 26.2799 34.1034 26.2799Z" fill="#1F57C3"/>
<path d="M28.8714 26.2794C27.8454 26.2794 27.0234 27.1074 27.0234 28.1274C27.0234 29.1474 27.8454 29.9754 28.8714 29.9754H33.6834C34.7094 29.9754 35.5374 29.1474 35.5374 28.1274C35.5374 27.1074 34.7094 26.2794 33.6834 26.2794H28.8714ZM33.6834 31.1394H28.8714C27.2034 31.1394 25.8594 29.7894 25.8594 28.1274C25.8594 26.4654 27.2034 25.1154 28.8714 25.1154H33.6834C35.3514 25.1154 36.6954 26.4654 36.6954 28.1274C36.6954 29.7894 35.3514 31.1394 33.6834 31.1394Z" fill="#1F57C3"/>
<path d="M29.3859 31.1408C28.6239 31.1408 27.9939 31.7708 27.9939 32.5388C27.9939 33.3128 28.6239 33.9428 29.3859 33.9428H33.0939C33.8679 33.9428 34.4979 33.3128 34.4979 32.5388C34.4979 31.7708 33.8679 31.1408 33.0939 31.1408H29.3859ZM33.0939 35.1068H29.3859C27.9819 35.1068 26.8359 33.9548 26.8359 32.5388C26.8359 31.1288 27.9819 29.9768 29.3859 29.9768H33.0939C34.5099 29.9768 35.6559 31.1288 35.6559 32.5388C35.6559 33.9548 34.5099 35.1068 33.0939 35.1068Z" fill="#1F57C3"/>
<path d="M4.48675 41.0158C4.41475 41.0158 4.34275 41.0038 4.27675 40.9798C4.10275 40.9138 3.97075 40.7698 3.92275 40.5958L2.81275 36.6898C2.72275 36.3778 2.89675 36.0538 3.21475 35.9698C3.52675 35.8798 3.84475 36.0598 3.93475 36.3658L4.83475 39.5338L8.18875 37.4338V34.8178C8.18875 34.6678 8.25475 34.5178 8.35075 34.4098C8.38675 34.3798 11.3267 31.2778 13.0247 23.7478C13.0667 23.5498 13.2107 23.3938 13.4087 23.3278C17.4827 21.9658 18.9887 19.3318 18.7547 17.8978C18.6767 17.4538 18.4547 17.2138 18.1007 17.1718L7.73275 21.3238C5.79475 22.0618 6.55075 26.0098 6.90475 27.9058C6.97075 28.2298 7.01875 28.5058 7.05475 28.7278C7.10275 29.0398 6.89275 29.3338 6.57475 29.3878C6.26275 29.4478 5.96875 29.2378 5.90875 28.9318L5.56075 27.2158L1.91875 29.2978L2.69875 32.0398C2.78275 32.3458 2.60275 32.6698 2.29075 32.7598C1.98475 32.8438 1.66075 32.6638 1.57675 32.3578L0.67675 29.1838C0.59875 28.9258 0.712753 28.6498 0.946753 28.5178L5.39875 25.9618C5.12875 23.6878 5.20675 21.0478 7.31275 20.2378L17.7768 16.0498C17.8548 16.0198 17.9268 16.0078 17.9988 16.0078C18.9888 16.0078 19.7267 16.6798 19.9007 17.7118C20.2487 19.8118 18.3107 22.7998 14.0867 24.3238C12.5087 31.0498 10.0188 34.2658 9.34675 35.0398V37.7578C9.34675 37.9558 9.25075 38.1418 9.07675 38.2498L4.79875 40.9258C4.69675 40.9858 4.58875 41.0158 4.48675 41.0158Z" fill="#1F57C3"/>
</svg>
