<svg width="43" height="31" viewBox="0 0 43 31" fill="none" xmlns="http://www.w3.org/2000/svg">
<path d="M32.0282 26.4577C31.8602 26.4577 31.7042 26.3857 31.5842 26.2657L28.0862 22.5397C27.8522 22.2937 27.8642 21.9097 28.1102 21.6757C28.3562 21.4477 28.7462 21.4597 28.9802 21.7057L32.0162 24.9277L37.9802 17.9977C38.1902 17.7457 38.5802 17.7157 38.8382 17.9377C39.0962 18.1597 39.1262 18.5437 38.9042 18.7957L32.4962 26.2417C32.3762 26.3797 32.2082 26.4517 32.0402 26.4577C32.0402 26.4577 32.0402 26.4577 32.0282 26.4577Z" fill="#1F57C3"/>
<path d="M33.4801 30.3454C28.9681 30.3454 25.1281 26.8773 24.7501 22.3053C24.3841 18.1113 27.0721 14.2533 31.1221 13.1193C31.4461 13.0353 31.7821 13.2214 31.8721 13.5454C31.9621 13.8694 31.7701 14.2114 31.4461 14.2954C27.9661 15.2734 25.6561 18.5973 25.9681 22.2034C26.3041 26.3493 29.9641 29.4394 34.1161 29.0974C36.1261 28.9234 37.9441 27.9814 39.2521 26.4454C40.5541 24.9034 41.1721 22.9473 41.0041 20.9373C40.7221 17.4633 38.1121 14.6494 34.6621 14.1154C34.3261 14.0614 34.1041 13.7434 34.1581 13.4134C34.2061 13.0774 34.5181 12.8553 34.8541 12.9033C38.8501 13.5333 41.8861 16.7974 42.2221 20.8354C42.4201 23.1694 41.7061 25.4434 40.1881 27.2314C38.6701 29.0254 36.5581 30.1174 34.2181 30.3154C33.9721 30.3334 33.7261 30.3454 33.4801 30.3454Z" fill="#1F57C3"/>
<path d="M1.52997 25.9239C1.18797 25.9239 0.917969 25.6479 0.917969 25.3119V0.609912C0.917969 0.273912 1.18797 0.00390625 1.52997 0.00390625H37.8C38.136 0.00390625 38.412 0.273912 38.412 0.609912V14.6919C38.412 15.0339 38.136 15.3039 37.8 15.3039C37.464 15.3039 37.188 15.0339 37.188 14.6919V1.22191H2.13597V25.3119C2.13597 25.6479 1.86597 25.9239 1.52997 25.9239Z" fill="#1F57C3"/>
<path d="M22.83 25.9239H1.52997C1.18797 25.9239 0.917969 25.6479 0.917969 25.3119C0.917969 24.9699 1.18797 24.6999 1.52997 24.6999H22.83C23.166 24.6999 23.442 24.9699 23.442 25.3119C23.442 25.6479 23.166 25.9239 22.83 25.9239Z" fill="#1F57C3"/>
<path d="M19.6623 14.7634C19.5483 14.7634 19.4343 14.7334 19.3263 14.6614L4.78225 4.83337C4.51225 4.64737 4.43425 4.26937 4.63225 3.98737C4.81225 3.70537 5.20225 3.63337 5.47225 3.81937L19.6623 13.4194L33.8582 3.81937C34.1402 3.63337 34.5182 3.70537 34.7162 3.98737C34.8962 4.26937 34.8183 4.64737 34.5423 4.83337L20.0162 14.6614C19.8962 14.7334 19.7823 14.7634 19.6623 14.7634Z" fill="#1F57C3"/>
<path d="M5.13546 22.2042C4.95546 22.2042 4.78146 22.1322 4.65546 21.9822C4.44546 21.7242 4.48746 21.3402 4.74546 21.1242L16.2115 11.6202C16.4755 11.4042 16.8595 11.4402 17.0815 11.6982C17.2915 11.9562 17.2615 12.3462 17.0035 12.5622L5.52546 22.0662C5.40546 22.1622 5.26146 22.2042 5.13546 22.2042Z" fill="#1F57C3"/>
<path d="M27.5644 16.5644C27.4204 16.5644 27.2944 16.5224 27.1744 16.4204L22.7284 12.6524C22.4824 12.4304 22.4404 12.0464 22.6624 11.7884C22.8844 11.5304 23.2744 11.5004 23.5324 11.7164L27.9664 15.4904C28.2244 15.7124 28.2544 16.0964 28.0324 16.3544C27.9184 16.4924 27.7324 16.5644 27.5644 16.5644Z" fill="#1F57C3"/>
</svg>
