<svg width="30" height="41" viewBox="0 0 30 41" fill="none" xmlns="http://www.w3.org/2000/svg">
<path d="M2.00329 20.684L2.7773 36.59C2.7773 36.59 2.7773 36.602 2.7773 36.614C2.7773 37.976 3.88729 39.092 5.25529 39.092H24.7433C26.1113 39.092 27.2213 37.976 27.2213 36.614C27.2213 36.602 27.2213 36.59 27.2273 36.59L27.9953 20.684C27.9893 19.322 26.8793 18.224 25.5173 18.224H4.4813C3.1193 18.224 2.00929 19.322 2.00329 20.684ZM24.7433 40.316H5.25529C3.21529 40.316 1.55929 38.666 1.55329 36.632L0.779297 20.726C0.779297 20.726 0.779297 20.714 0.779297 20.702C0.779297 18.662 2.4413 17 4.4813 17H25.5173C27.5573 17 29.2193 18.662 29.2193 20.702C29.2193 20.714 29.2193 20.726 29.2193 20.726L28.4453 36.632C28.4393 38.666 26.7833 40.316 24.7433 40.316Z" fill="#1F57C3"/>
<path d="M12.5389 34.1351H17.4589C17.2669 32.9591 16.8229 30.5051 16.2469 28.4951C16.1749 28.2491 16.2709 27.9911 16.4809 27.8351C17.1589 27.3551 17.5669 26.5751 17.5669 25.7471C17.5669 24.3311 16.4149 23.1731 14.9989 23.1731C13.5829 23.1731 12.4369 24.3311 12.4369 25.7471C12.4369 26.5751 12.8389 27.3551 13.5169 27.8351C13.7269 27.9911 13.8229 28.2491 13.7509 28.4951C13.1749 30.5051 12.7369 32.9591 12.5389 34.1351ZM18.1789 35.3591H11.8249C11.6449 35.3591 11.4769 35.2811 11.3569 35.1491C11.2429 35.0051 11.1949 34.8371 11.2189 34.6571C11.2369 34.5131 11.7169 31.2971 12.4669 28.5491C11.6689 27.8351 11.2129 26.8211 11.2129 25.7471C11.2129 23.6531 12.9109 21.9551 14.9989 21.9551C17.0869 21.9551 18.7849 23.6531 18.7849 25.7471C18.7849 26.8211 18.3289 27.8351 17.5309 28.5491C18.2869 31.2971 18.7609 34.5131 18.7789 34.6571C18.8089 34.8371 18.7549 35.0051 18.6409 35.1491C18.5269 35.2811 18.3529 35.3591 18.1789 35.3591Z" fill="#1F57C3"/>
<path d="M25.5715 18.2241C25.2355 18.2241 24.9595 17.9481 24.9595 17.6121V11.7741C24.9595 7.89806 23.7475 1.39406 15.6055 1.39406C7.45748 1.39406 6.24549 7.89806 6.24549 11.7741V13.0581C6.24549 13.3941 5.96949 13.6701 5.63349 13.6701C5.29749 13.6701 5.02148 13.3941 5.02148 13.0581V11.7741C5.02148 4.39406 8.87948 0.164062 15.6055 0.164062C22.3255 0.164062 26.1835 4.39406 26.1835 11.7741V17.6121C26.1835 17.9481 25.9075 18.2241 25.5715 18.2241Z" fill="#1F57C3"/>
</svg>
