<svg width="26" height="40" viewBox="0 0 26 40" fill="none" xmlns="http://www.w3.org/2000/svg">
<path d="M13.0001 39.4168C12.7901 39.4168 12.5981 39.3088 12.4841 39.1348C11.9861 38.3608 0.328125 20.0428 0.328125 13.2748C0.328125 6.27277 6.01012 0.584778 13.0001 0.584778C18.9341 0.584778 24.0161 4.62278 25.3481 10.4068C25.5641 11.3428 25.6721 12.3028 25.6721 13.2748C25.6721 13.8688 25.5821 14.5708 25.4081 15.3628C25.0181 17.1328 24.1781 19.4248 22.9181 22.1908C22.7801 22.4968 22.4141 22.6348 22.1081 22.4968C21.8021 22.3528 21.6641 21.9868 21.8021 21.6808C23.0321 18.9928 23.8361 16.7848 24.2141 15.0988C24.3701 14.3968 24.4481 13.7788 24.4481 13.2748C24.4481 12.3988 24.3521 11.5288 24.1541 10.6828C22.9541 5.45678 18.3641 1.80878 13.0001 1.80878C6.68812 1.80878 1.55212 6.95077 1.55212 13.2748C1.55212 18.9148 10.7081 33.9748 13.0001 37.6588C14.2361 35.6788 17.4521 30.4108 20.1461 25.1068C20.3021 24.8008 20.6681 24.6808 20.9681 24.8368C21.2681 24.9868 21.3941 25.3588 21.2381 25.6588C17.8121 32.3968 13.5581 39.0688 13.5161 39.1348C13.4021 39.3088 13.2101 39.4168 13.0001 39.4168Z" fill="#1F57C3"/>
<path fill-rule="evenodd" clip-rule="evenodd" d="M7.99609 10.5203V18.3983V19.1363V19.8443C7.99609 21.2183 10.1021 21.5663 10.1021 19.5803C10.1021 19.3643 10.1081 19.0043 10.1141 18.5363C10.1141 18.3203 10.1201 18.0863 10.1261 17.8283C10.1621 15.1223 10.2161 10.5203 9.88009 9.95034C9.36409 9.07434 7.99609 9.42834 7.99609 10.5203Z" fill="#1F57C3"/>
<path fill-rule="evenodd" clip-rule="evenodd" d="M12.2012 10.5207V17.5587V18.2547V19.8447C12.2012 21.2187 14.3012 21.5667 14.3012 19.5807V18.2547V17.5587V16.8267C16.4372 16.8267 18.0632 16.6467 19.1072 14.8047C20.3612 12.6087 18.6392 9.47071 16.1372 9.47071C14.0612 9.47071 12.2012 9.07471 12.2012 10.5207ZM14.3012 11.4387C15.3932 11.4387 17.4512 11.3067 17.4512 13.0167C17.4512 14.0427 16.7732 14.7207 15.7472 14.7207H14.3012V11.4387Z" fill="#1F57C3"/>
</svg>
