<svg width="37" height="34" viewBox="0 0 37 34" fill="none" xmlns="http://www.w3.org/2000/svg">
<path d="M2.92254 29.7677C2.14854 29.6657 1.51254 29.3597 1.03254 28.8557C0.132541 27.9137 0.144539 26.6117 0.144539 26.4257V3.66766C0.144539 3.33766 0.414541 3.06766 0.750541 3.06766C1.08054 3.06766 1.35054 3.33766 1.35054 3.66766V26.4677C1.35054 26.4737 1.32054 27.4217 1.90854 28.0337C2.16054 28.2917 2.49654 28.4657 2.91054 28.5437C2.90454 28.9577 2.91054 29.3657 2.92254 29.7677ZM27.7145 20.1917V6.68566H3.16254C2.83254 6.68566 2.56254 6.41566 2.56254 6.08566C2.56254 5.74966 2.83254 5.47966 3.16254 5.47966H28.3145C28.6445 5.47966 28.9145 5.74966 28.9145 6.08566V20.2097L27.8225 20.1977L27.7145 20.1917ZM24.4145 16.5677C23.9285 16.5677 23.5325 16.9637 23.5325 17.4497C23.5325 17.9357 23.9285 18.3317 24.4145 18.3317C24.9005 18.3317 25.2905 17.9357 25.2905 17.4497C25.2905 16.9637 24.9005 16.5677 24.4145 16.5677ZM24.4145 19.5317C23.2685 19.5317 22.3325 18.5957 22.3325 17.4497C22.3325 16.2977 23.2685 15.3677 24.4145 15.3677C25.5605 15.3677 26.4965 16.2977 26.4965 17.4497C26.4965 18.5957 25.5605 19.5317 24.4145 19.5317ZM22.7825 6.68566H8.98854C8.65254 6.68566 8.38254 6.41566 8.38254 6.08566C8.38254 5.74966 8.65254 5.47966 8.98854 5.47966H22.1825V1.84966H3.42654C3.09054 1.84966 2.82654 1.57966 2.82654 1.24966C2.82654 0.919658 3.09054 0.649658 3.42654 0.649658H22.7825C23.1125 0.649658 23.3825 0.919658 23.3825 1.24966V6.08566C23.3825 6.41566 23.1125 6.68566 22.7825 6.68566ZM3.16254 6.68566C1.50054 6.68566 0.144539 5.32966 0.144539 3.66766C0.144539 2.00566 1.50054 0.649658 3.16254 0.649658C3.49854 0.649658 3.76854 0.919658 3.76854 1.24966C3.76854 1.57966 3.49854 1.84966 3.16254 1.84966C2.16654 1.84966 1.35054 2.66566 1.35054 3.66766C1.35054 4.66966 2.16654 5.47966 3.16254 5.47966C3.49854 5.47966 3.76854 5.74966 3.76854 6.08566C3.76854 6.41566 3.49854 6.68566 3.16254 6.68566Z" fill="#1F57C3"/>
<path fill-rule="evenodd" clip-rule="evenodd" d="M5.27336 27.4055C5.27336 26.2115 5.54336 25.3115 6.14936 24.4715C6.20336 24.3995 6.25136 24.3335 6.30536 24.2735C6.64736 23.8775 6.77336 23.7095 7.27136 23.3675C7.58936 23.1455 7.85336 22.9956 8.22536 22.8456C8.41137 22.7676 8.84336 22.6176 9.05336 22.5936C9.18536 22.5816 9.28736 22.5935 9.42536 22.5755C10.0074 22.4855 10.9674 22.5875 11.5974 22.5515L26.8494 22.5155C27.0114 22.5155 26.8314 22.5336 26.9754 22.5276C27.4374 22.5096 27.2694 22.5455 27.5694 22.5575C27.8754 22.5635 28.0434 22.4915 28.3554 22.5215C29.2014 22.5935 30.6594 22.5275 31.5954 22.5515C31.9374 22.5575 32.6034 22.8575 32.8554 22.9835C34.2234 23.6735 35.3934 25.1135 35.4834 27.0875C35.5314 28.1135 35.3514 28.8456 34.8714 29.7456C34.4334 30.5556 33.5274 31.4075 32.6694 31.7555C31.9554 32.0435 32.1354 31.9955 31.3554 32.0915C31.1334 32.1215 30.7674 32.1156 30.5454 32.1456C30.1434 32.1996 14.1834 32.1575 13.7574 32.1575C13.2054 32.1575 12.6534 32.1575 12.1014 32.1575L9.01736 32.0735C8.80736 32.0435 8.57936 31.9415 8.39336 31.8755C7.86536 31.6775 7.20536 31.3115 6.82736 30.9215C6.50936 30.6095 6.28737 30.4235 6.04137 30.0215C5.80137 29.6315 5.64536 29.3315 5.48936 28.8815C5.33336 28.4135 5.27336 28.0235 5.27336 27.4055ZM4.19336 27.0815C4.19336 28.2215 4.24736 28.6775 4.69136 29.6735C5.00936 30.3815 5.26136 30.7655 5.81936 31.3175C6.08936 31.5875 6.57536 32.0855 6.90536 32.2835C7.05536 32.3795 7.20536 32.4755 7.35536 32.5535L8.31536 32.9616C8.53136 33.0336 9.20336 33.2315 9.44336 33.2315H31.0914C31.2414 33.2315 31.2534 33.2195 31.3734 33.1895C31.8174 33.0815 31.8414 33.2316 32.7714 32.8296C32.8794 32.7816 32.9214 32.7695 33.0234 32.7215C33.8514 32.3195 33.9774 32.2235 34.6974 31.5875C34.7634 31.5335 34.8174 31.4735 34.8774 31.4075C34.9554 31.3295 34.9554 31.3115 35.0214 31.2335C35.4594 30.7115 35.6694 30.6335 36.0234 29.7515C36.1614 29.4215 36.3174 29.1275 36.4134 28.7375C36.5574 28.1915 36.5574 27.6695 36.5574 27.0815C36.5574 25.5035 35.6934 24.0815 34.8954 23.2835C33.9714 22.3595 33.5994 22.1555 32.3994 21.6815C32.1174 21.5675 31.6554 21.4355 31.2714 21.4355C25.8174 21.4715 20.3034 21.4355 14.8374 21.4355C14.0754 21.4355 9.22736 21.4355 8.90936 21.5135C8.72936 21.5615 8.56136 21.5915 8.38736 21.6755C7.91936 21.9095 7.67936 21.8676 6.98936 22.3296C6.02336 22.9776 5.24336 23.8175 4.74536 24.8675C4.40936 25.5635 4.19336 26.2475 4.19336 27.0815Z" fill="#1F57C3"/>
<path fill-rule="evenodd" clip-rule="evenodd" d="M27.9298 25.7192C27.5098 25.7192 27.4258 26.0252 27.4258 26.3312C27.4258 26.6012 27.9778 26.8772 28.2298 27.0032C28.5838 27.1772 28.8898 27.3392 29.2258 27.5132C29.1958 27.6272 28.9978 27.8972 28.9198 28.0052C28.8598 28.0892 28.8118 28.1492 28.7458 28.2272C28.6198 28.3772 27.9298 29.3252 27.9298 29.4212C27.9298 29.7152 28.3918 30.4472 28.9798 29.7152C29.1118 29.5472 29.2258 29.4032 29.3578 29.2292C29.4838 29.0612 29.5798 28.9292 29.7178 28.7612L30.0838 28.2692C30.2158 28.3592 31.0438 29.4752 31.2118 29.6672C31.3018 29.7692 31.4578 30.0332 31.7038 30.0332C32.0458 30.0332 32.2438 29.8112 32.2438 29.4572C32.2438 29.1092 31.0558 27.8132 30.9838 27.5132L32.4358 26.7392C33.1198 26.3732 32.6698 25.7192 32.3158 25.7192C32.1058 25.7192 31.6498 25.9412 31.4758 26.0312C31.3018 26.1152 30.8338 26.3852 30.6598 26.4032C30.6598 26.0672 30.6598 25.7312 30.6598 25.3952C30.6598 25.1372 30.7438 24.6152 30.6178 24.4292C30.5158 24.2792 30.2098 24.0332 30.0058 24.0932C29.9098 24.1172 29.7778 24.2252 29.6998 24.2912C29.5678 24.3992 29.5438 24.4052 29.5438 24.6392L29.5498 26.1512C29.5498 26.3852 29.5498 26.4452 29.3578 26.3492C29.1358 26.2352 28.1218 25.7192 27.9298 25.7192Z" fill="#1F57C3"/>
<path fill-rule="evenodd" clip-rule="evenodd" d="M10.0908 26.4039C9.7368 26.3739 8.78279 25.6239 8.32079 25.7499C8.02679 25.8279 7.9668 26.0859 7.9668 26.3679C7.9668 26.5839 8.1528 26.6499 8.3148 26.7399L9.2748 27.2559C9.4548 27.3459 9.6108 27.4119 9.7668 27.5139C9.7368 27.6399 9.68279 27.6819 9.62279 27.7659C9.56279 27.8499 9.52679 27.9099 9.45479 27.9999C9.28079 28.2339 8.47079 29.3079 8.47079 29.4579C8.47079 29.5719 8.80679 30.6759 9.70679 29.4759C9.77879 29.3799 9.8208 29.3199 9.8928 29.2299L10.6308 28.2699C10.7388 28.3479 10.8048 28.4559 10.8828 28.5579C10.9668 28.6719 11.0508 28.7739 11.1348 28.8819L11.7348 29.6499C11.7888 29.7219 11.7948 29.7399 11.8608 29.8119C11.9568 29.9139 12.0408 29.9979 12.2208 30.0219C12.5208 30.0519 12.7848 29.7879 12.7848 29.4939C12.7848 29.2299 12.3288 28.6719 12.1848 28.4799C12.0528 28.2999 11.5668 27.6759 11.5248 27.5139L12.9768 26.7339C13.3308 26.5299 13.3248 26.4759 13.3248 26.1519C13.3248 25.8819 12.9888 25.7199 12.8568 25.7199C12.5088 25.7199 11.4348 26.3799 11.2068 26.4039V24.6759C11.2068 24.4959 11.2308 24.4839 11.1468 24.3759C10.9608 24.1419 10.6608 23.9979 10.3848 24.1779C10.0068 24.4359 10.0908 24.4539 10.0908 24.9639C10.0908 25.4439 10.0908 25.9239 10.0908 26.4039Z" fill="#1F57C3"/>
<path fill-rule="evenodd" clip-rule="evenodd" d="M23.0763 26.4032C22.6503 26.3672 21.5163 25.3832 21.0903 25.8512C20.9163 26.0432 20.9523 26.1872 20.9523 26.4392C20.9523 26.6372 22.0743 27.1532 22.2843 27.2612L22.7523 27.5492C22.5363 27.8732 22.2963 28.1792 22.0683 28.4852C21.8223 28.8092 21.4563 29.2352 21.4563 29.6012C21.4563 29.6612 21.7143 30.0332 21.9963 30.0332C22.4463 30.0332 23.2923 28.5212 23.6103 28.3052C23.7483 28.3952 24.0363 28.8092 24.1683 28.9772C24.3843 29.2532 24.8823 30.0332 25.2303 30.0332C25.5063 30.0332 25.7703 29.7692 25.7703 29.4932C25.7703 29.2352 25.0263 28.2752 24.8103 28.0112C24.7443 27.9272 24.7083 27.8612 24.6483 27.7772C24.5823 27.6932 24.5043 27.6212 24.4743 27.5132C25.0683 27.2012 25.3803 27.0992 25.9803 26.7152C26.2263 26.5592 26.3103 26.5292 26.3103 26.1872C26.3103 25.9832 26.1243 25.7972 25.9563 25.7432C25.5963 25.6352 24.5403 26.3252 24.2223 26.4032C24.2103 26.2412 24.1863 26.1512 24.1863 25.9352L24.1503 24.3512C23.9043 24.2852 24.0243 24.0992 23.5743 24.0992C23.0223 24.0992 23.1123 24.7952 23.1003 25.0592C23.0883 25.3712 23.0763 25.9292 23.0763 26.4032Z" fill="#1F57C3"/>
<path fill-rule="evenodd" clip-rule="evenodd" d="M16.6014 24.3513L16.5594 25.3593C16.5594 25.5333 16.5594 25.7193 16.5654 25.8993C16.5654 26.1213 16.5294 26.2353 16.5294 26.4033C16.3194 26.3553 15.1914 25.7193 14.9094 25.7193C14.6154 25.7193 14.4414 25.9773 14.4414 26.3313C14.4414 26.5473 14.6454 26.6373 14.7954 26.7333C15.2814 27.0393 15.7974 27.2613 16.2774 27.5133C16.2474 27.6153 16.1874 27.6753 16.1214 27.7593C15.8574 28.1013 14.9814 29.1633 14.9814 29.5653C14.9814 29.8353 15.3414 30.0573 15.5874 30.0273C15.7074 30.0093 15.8274 29.8953 15.9054 29.8113L16.6254 28.9053C16.7154 28.7913 17.0694 28.3893 17.0994 28.2693C17.2014 28.2993 17.1954 28.3173 17.3094 28.4613C17.6694 28.9233 18.3534 30.0333 18.7914 30.0333C18.9594 30.0333 19.2954 29.7573 19.2954 29.4933C19.2954 29.2173 18.2514 27.9213 17.9994 27.5493C18.1014 27.4833 18.1074 27.4653 18.2394 27.3933L19.5414 26.6853C20.1114 26.3493 19.7274 25.8213 19.4394 25.7493C18.9714 25.6293 18.2154 26.2773 17.6754 26.4033C17.6754 25.6953 17.6394 25.3293 17.6454 24.6393C17.6454 24.3513 17.6034 24.2193 17.2374 24.1053C16.8954 23.9973 16.8114 24.2913 16.6014 24.3513Z" fill="#1F57C3"/>
</svg>
