<svg width="201" height="201" viewBox="0 0 201 201" fill="none" xmlns="http://www.w3.org/2000/svg">
<g clip-path="url(#clip0_57_10208)">
<path fill-rule="evenodd" clip-rule="evenodd" d="M67.3203 11.9099C67.3203 14.6899 68.1503 16.5299 69.2403 18.2799L71.1503 20.4299C74.2603 22.8299 76.2203 23.2799 80.8003 23.2799C109.7 23.2599 138.85 23.4299 167.7 23.2799C171.15 23.2599 173.97 24.9399 176.01 27.4799C177.15 28.9099 178.26 31.1599 178.26 33.6699V167.84C178.26 172.29 175.29 176.02 171.49 177.64C169.25 178.59 167.03 178.4 163.97 178.4C139.12 178.4 114.26 178.4 89.4103 178.4C84.3403 178.4 77.4403 177.76 73.8703 179.42C63.0003 184.48 66.4803 200.81 78.6903 200.81H177.77C184 200.81 189.85 198.57 194.14 194.28C196.08 192.34 197.6 190 198.73 187.5C199.91 184.9 200.68 181.7 200.68 177.91V23.4399C200.68 19.7899 199.9 16.9099 198.8 14.2799C195.6 6.62988 187.37 0.859863 179.07 0.859863H78.0403C76.6503 0.859863 74.7203 1.41989 73.7403 1.91989C69.9703 3.81989 67.3203 7.46988 67.3203 11.9099Z" fill="#5F5F69"/>
<path fill-rule="evenodd" clip-rule="evenodd" d="M81.6196 53.6498C81.6196 59.6598 84.2796 61.6098 87.6696 64.9798L100.4 78.0798C100.42 78.0998 100.45 78.1398 100.47 78.1598L100.62 78.3398C100.64 78.3698 100.67 78.4098 100.69 78.4298C100.72 78.4698 100.81 78.5698 100.84 78.6098C102.33 80.3498 104.08 81.8798 105.7 83.4998L106.4 84.2498C107.88 85.8498 110.62 88.1498 111.67 89.7098H13.0696C8.1496 89.7098 5.38962 90.8698 2.64962 94.5598C-1.95038 100.76 2.00958 109.83 9.16958 111.64C11.6696 112.28 17.5996 111.97 20.3796 111.97H111.5L111.12 112.56C110.38 113.48 109.43 114.23 108.62 115.09C108.42 115.31 108.36 115.38 108.16 115.6L94.6496 129.71C94.2096 130.15 94.0996 130.41 93.6796 130.85C92.9796 131.57 92.3596 132.17 91.6496 132.88L87.6596 137.02C86.6096 138.09 84.5496 140.19 83.7996 141.27C77.9096 149.76 85.8096 161.14 96.0396 158.39C98.5196 157.72 99.7796 156.58 101.39 154.97C103.27 153.09 105.19 151.31 106.95 149.31L112.11 144.09C112.5 143.7 112.79 143.43 113.17 143.03L121.88 134.04C121.9 134.01 121.93 133.97 121.96 133.95C123.98 131.74 126.25 129.8 128.27 127.6C130.92 124.7 133.85 121.98 136.5 119.1L137.86 117.69C139.66 115.89 141.63 114.17 143.27 112.22C145.52 109.52 148.42 107.06 150.85 104.37C151.75 103.38 152.11 101.96 152.11 100.43C152.11 97.5698 148.19 94.4798 145.9 92.1898L140.27 86.4398C136.32 82.1298 131.8 78.3298 127.88 73.9798L112.49 58.3498C112.47 58.3298 112.43 58.2898 112.41 58.2698L109.84 55.6398C107.72 53.5198 100.96 46.3898 98.8396 44.8798C94.0596 41.4998 86.8196 43.0998 83.5896 47.8298C83.1896 48.4298 82.9896 48.7898 82.6396 49.4798C82.0696 50.6298 81.6196 51.9998 81.6196 53.6498Z" fill="#5F5F69"/>
</g>
<defs>
<clipPath id="clip0_57_10208">
<rect width="201" height="201" fill="white"/>
</clipPath>
</defs>
</svg>
