<svg width="18" height="18" viewBox="0 0 18 18" fill="none" xmlns="http://www.w3.org/2000/svg">
<path d="M16.284 18C15.852 18 15.438 17.826 15.132 17.52L11.496 13.884C8.544 15.732 4.68001 15.3 2.20201 12.822C0.780008 11.406 0 9.51601 0 7.50601C0 5.50201 0.780008 3.61801 2.20201 2.20201C3.61801 0.780008 5.50199 0 7.51199 0C9.52199 0 11.406 0.780008 12.828 2.20201C15.36 4.74001 15.75 8.73599 13.746 11.712C13.65 11.85 13.464 11.88 13.32 11.79C13.182 11.694 13.14 11.508 13.236 11.358C15.078 8.64 14.724 4.96801 12.39 2.63401C11.088 1.33201 9.35399 0.611993 7.51199 0.611993C5.66999 0.611993 3.93601 1.33201 2.63401 2.63401C1.33201 3.93601 0.611993 5.67001 0.611993 7.50601C0.611993 9.35401 1.33201 11.094 2.63401 12.39C4.96201 14.724 8.634 15.084 11.364 13.236C11.484 13.158 11.646 13.17 11.754 13.278L15.564 17.088C15.756 17.28 16.014 17.388 16.284 17.388C16.56 17.388 16.812 17.28 17.004 17.088L17.088 17.004C17.484 16.608 17.484 15.96 17.088 15.57L14.37 12.846C14.25 12.726 14.25 12.54 14.37 12.414C14.49 12.294 14.682 12.294 14.802 12.414L17.52 15.132C17.832 15.438 18 15.852 18 16.284C18 16.722 17.832 17.13 17.52 17.436L17.436 17.52C17.13 17.826 16.722 18 16.284 18Z" fill="white"/>
</svg>
