<svg width="36" height="33" viewBox="0 0 36 33" fill="none" xmlns="http://www.w3.org/2000/svg">
<path d="M10.5443 31.2824C10.4123 31.2824 10.2803 31.2296 10.1813 31.1306C9.97995 30.9293 9.97995 30.5993 10.1813 30.398L29.9881 10.5944C30.1894 10.3865 30.5161 10.3865 30.7207 10.5944C30.922 10.7924 30.922 11.1224 30.7207 11.3204L10.9106 31.1306C10.8083 31.2296 10.6763 31.2824 10.5443 31.2824Z" fill="#1F57C3"/>
<path d="M10.8015 19.8886C10.6695 19.8886 10.5375 19.8358 10.4352 19.7368C10.2339 19.5388 10.2339 19.2121 10.4352 19.0042L24.4208 5.01862C24.6221 4.82062 24.9488 4.82062 25.1501 5.01862C25.3547 5.22652 25.3547 5.55653 25.1501 5.75123L11.1678 19.7368C11.0655 19.8358 10.9335 19.8886 10.8015 19.8886Z" fill="#1F57C3"/>
<path d="M19.1112 28.1997C18.9792 28.1997 18.8472 28.1535 18.7482 28.0512C18.5436 27.8499 18.5436 27.5199 18.7482 27.3186L32.5952 13.4683C32.7965 13.2736 33.1232 13.2736 33.3278 13.4683C33.5258 13.6795 33.5258 13.9963 33.3278 14.2042L19.4775 28.0512C19.3785 28.1535 19.2432 28.1997 19.1112 28.1997Z" fill="#1F57C3"/>
<path d="M2.17271 23.0346C2.044 23.0346 1.912 22.9851 1.8097 22.8828C1.6051 22.6815 1.6051 22.3548 1.8097 22.1535L21.544 2.42253C21.7453 2.21463 22.072 2.21463 22.2733 2.42253C22.4746 2.62053 22.4746 2.94724 22.2733 3.14524L2.53901 22.8828C2.44001 22.9851 2.30801 23.0346 2.17271 23.0346Z" fill="#1F57C3"/>
<path d="M6.39301 32.9994C4.75289 32.9994 3.11607 32.3757 1.86865 31.1316C-0.622884 28.6367 -0.622884 24.581 1.86865 22.0895C2.07325 21.8882 2.39996 21.8882 2.60126 22.0895C2.80256 22.2908 2.80256 22.6175 2.60126 22.8221C0.509033 24.9077 0.509033 28.31 2.60126 30.399C4.69019 32.4912 8.08924 32.4912 10.1815 30.399C10.3828 30.1977 10.7095 30.1977 10.9108 30.399C11.1121 30.6003 11.1121 30.9303 10.9108 31.1316C9.66336 32.3757 8.02984 32.9994 6.39301 32.9994Z" fill="#1F57C3"/>
<path d="M32.933 14.3783C32.8043 14.3783 32.6723 14.3222 32.57 14.2265C32.3687 14.0285 32.3687 13.6985 32.57 13.5005C33.9494 12.1211 34.7084 10.2895 34.7084 8.33921C34.7084 6.38889 33.9494 4.55736 32.57 3.17794C31.1939 1.79852 29.3591 1.03951 27.4087 1.03951C25.4584 1.03951 23.6269 1.79852 22.2475 3.17794C22.0462 3.37595 21.7195 3.37595 21.5182 3.17794C21.3169 2.97004 21.3169 2.64004 21.5182 2.44534C23.0923 0.877813 25.1845 0 27.4087 0C29.633 0 31.7285 0.877813 33.2993 2.44534C34.8767 4.02276 35.7414 6.10508 35.7414 8.33921C35.7414 10.5634 34.8767 12.659 33.2993 14.2265C33.2003 14.3222 33.0683 14.3783 32.933 14.3783Z" fill="#1F57C3"/>
<path d="M30.1934 11.6381C30.0614 11.6381 29.9294 11.582 29.8271 11.483C29.6258 11.2883 29.6258 10.9583 29.8271 10.7504C30.4739 10.1036 30.8303 9.24884 30.8303 8.33803C30.8303 7.41731 30.4739 6.5626 29.8271 5.91579C28.4939 4.57927 26.3224 4.57927 24.9892 5.91579C24.7879 6.1138 24.4612 6.1138 24.2599 5.91579C24.0553 5.70789 24.0553 5.39108 24.2599 5.18318C25.9957 3.45066 28.8206 3.45066 30.5564 5.18318C31.3979 6.02469 31.8632 7.14341 31.8632 8.33803C31.8632 9.52274 31.3979 10.6415 30.5564 11.483C30.4574 11.582 30.3254 11.6381 30.1934 11.6381Z" fill="#1F57C3"/>
</svg>
