<svg width="31" height="31" viewBox="0 0 31 31" fill="none" xmlns="http://www.w3.org/2000/svg">
<path d="M4.76802 27.5145L5.18577 30.0079L7.69218 29.5901C7.69218 28.3108 8.61902 27.1751 9.92443 26.9532C10.068 26.9271 10.2247 26.914 10.3683 26.914C11.5301 26.914 12.5353 27.6451 12.9008 28.7025L14.9895 28.35C14.9895 27.0707 15.9163 25.935 17.2217 25.7131C17.3784 25.687 17.535 25.6739 17.6786 25.6739C18.8404 25.6739 19.8325 26.4049 20.2111 27.4623L22.2998 27.1098C22.2998 26.5616 22.4564 26.0264 22.7958 25.5695C23.2005 24.982 23.8271 24.5904 24.532 24.4729C24.6756 24.4468 24.8323 24.4338 24.9759 24.4338C26.1377 24.4338 27.1429 25.1648 27.5215 26.2222L30.0017 25.8044L29.584 23.3111C28.2655 23.3111 27.169 22.3712 26.9471 21.0788C26.7251 19.7734 27.4953 18.5202 28.6963 18.0894L28.3438 16.0138C27.0384 16.0008 25.9288 15.0609 25.7069 13.7685C25.485 12.4631 26.2552 11.2099 27.4562 10.7921L27.1037 8.70347C25.7983 8.70347 24.6887 7.76359 24.4668 6.47123C24.2449 5.16581 25.015 3.9126 26.2291 3.48181L25.7983 0.988502L23.3049 1.4062C23.3049 1.96753 23.1352 2.50276 22.8089 2.95965C22.4042 3.54709 21.7776 3.92566 21.0727 4.0562C20.916 4.06925 20.7724 4.09536 20.6158 4.09536C19.467 4.09536 18.4619 3.36436 18.0833 2.29392L16.0077 2.64637C15.9946 3.92567 15.0678 5.06137 13.7754 5.28329C13.6188 5.3094 13.4621 5.32245 13.3185 5.32245C12.1567 5.32245 11.1515 4.59143 10.786 3.53404L8.69734 3.88653C8.69734 5.16583 7.7705 6.30153 6.46509 6.52345C6.30844 6.54956 6.16483 6.56261 6.00818 6.56261C4.85942 6.56261 3.85425 5.83159 3.47567 4.7742L0.995393 5.19194L1.41314 7.68525C2.71855 7.68525 3.82814 8.62515 4.05006 9.93057C4.27198 11.236 3.50179 12.4761 2.30081 12.9069L2.65326 14.9956C3.95867 14.9956 5.0683 15.9355 5.29022 17.2279C5.49909 18.5333 4.74194 19.7865 3.5279 20.2173L3.88035 22.2929C5.18577 22.3059 6.30845 23.2458 6.51732 24.5382C6.64786 25.2431 6.47815 25.948 6.06041 26.5355C5.73406 26.9924 5.29019 27.3318 4.76802 27.5145ZM4.80718 31C4.59832 31 4.40251 30.8433 4.36335 30.6214L3.78896 27.2535C3.77591 27.136 3.80201 27.0054 3.86728 26.914C3.94561 26.8096 4.05006 26.7443 4.16754 26.7182C4.63749 26.6399 5.04218 26.3919 5.31632 26.0002C5.59045 25.6217 5.69489 25.1517 5.60351 24.6818C5.47297 23.8333 4.74191 23.2197 3.86728 23.2197C3.7759 23.2197 3.67151 23.2197 3.58013 23.2458C3.46264 23.2589 3.33209 23.2328 3.24071 23.1675C3.13628 23.0892 3.07099 22.9847 3.05793 22.8672L2.54884 19.9562C2.50968 19.6951 2.67937 19.4601 2.94045 19.421C3.8934 19.2513 4.54612 18.3375 4.37642 17.3845C4.23282 16.536 3.5018 15.9094 2.64023 15.9094C2.54885 15.9094 2.43135 15.9224 2.33997 15.9355C2.22248 15.9616 2.09193 15.9355 2.00055 15.8572C1.89612 15.7919 1.83087 15.6744 1.81781 15.5569L1.30868 12.6459C1.29563 12.5284 1.32173 12.3978 1.387 12.3064C1.46533 12.202 1.58284 12.1367 1.70033 12.1106C2.65328 11.954 3.30596 11.0402 3.13625 10.0742C2.99266 9.22567 2.26164 8.61213 1.40007 8.61213C1.30869 8.61213 1.20424 8.6121 1.09981 8.62515C0.851779 8.67737 0.6168 8.50767 0.564583 8.25964L0.00326378 4.89168C-0.00979038 4.7742 0.0163147 4.6567 0.0815855 4.55226C0.146856 4.44783 0.264358 4.38257 0.381846 4.35646L3.7498 3.79514C3.86729 3.76903 3.98479 3.79514 4.08922 3.87346C4.1806 3.93873 4.25894 4.05623 4.272 4.17372C4.4156 5.02224 5.14661 5.63578 6.00818 5.63578C6.11262 5.63578 6.21707 5.63575 6.30844 5.60965C7.27445 5.453 7.92714 4.53922 7.75744 3.58627C7.71827 3.32518 7.88799 3.0902 8.13602 3.05104L11.0471 2.55498C11.3082 2.51581 11.5301 2.68553 11.5693 2.93356C11.7259 3.78208 12.4569 4.40869 13.3185 4.40869C13.4099 4.40869 13.5143 4.39561 13.6187 4.38255C14.5717 4.21285 15.2244 3.29906 15.0547 2.34611C15.0155 2.09808 15.1853 1.85004 15.4464 1.81088L18.3574 1.31486C18.4618 1.3018 18.5924 1.32791 18.6968 1.39318C18.7882 1.4715 18.8535 1.57591 18.8796 1.6934C19.0232 2.54192 19.7542 3.16852 20.6158 3.16852C20.7202 3.16852 20.8247 3.15548 20.9161 3.14243C21.386 3.06411 21.7906 2.803 22.0648 2.42443C22.3389 2.04586 22.4434 1.57593 22.365 1.10598C22.3259 0.857956 22.4956 0.622976 22.7436 0.57076L26.0986 0.00944031C26.3596 -0.0427763 26.5946 0.126899 26.6337 0.387982L27.2081 3.74291C27.2212 3.8604 27.1951 3.99093 27.1298 4.09536C27.0515 4.18674 26.9471 4.25203 26.8296 4.27814C26.3596 4.35646 25.9549 4.60447 25.6808 4.9961C25.4067 5.37467 25.3022 5.84463 25.3806 6.31458C25.5241 7.1631 26.2552 7.78971 27.1168 7.78971C27.2212 7.78971 27.3256 7.77667 27.417 7.76361C27.5345 7.73751 27.665 7.76361 27.7564 7.84194C27.8609 7.90721 27.9261 8.01164 27.9522 8.12913L28.4483 11.0532C28.4874 11.3013 28.3177 11.5362 28.0697 11.5754C27.1037 11.7451 26.451 12.6589 26.6207 13.6119C26.7513 14.4734 27.4953 15.087 28.3569 15.087C28.4613 15.087 28.5527 15.0739 28.6441 15.0609C28.9052 15.0217 29.1402 15.1914 29.1924 15.4394L29.6754 18.3505C29.7276 18.5985 29.5448 18.8466 29.3099 18.8857C28.3439 19.0424 27.6912 19.9562 27.8478 20.9222C27.9914 21.7707 28.7355 22.3973 29.584 22.3973C29.7015 22.3973 29.7929 22.3842 29.8843 22.3712C30.0017 22.3451 30.1323 22.3712 30.2367 22.4495C30.3281 22.5148 30.3934 22.6192 30.4195 22.7498L30.9939 26.1047C31.033 26.3527 30.8633 26.6008 30.6153 26.6399L27.2604 27.2012C27.1298 27.2273 27.0123 27.2012 26.9079 27.1229C26.8035 27.0576 26.7382 26.9532 26.7121 26.8357C26.5815 25.9741 25.8505 25.3606 24.9759 25.3606C24.8845 25.3606 24.7801 25.3606 24.6887 25.3867C24.2187 25.4651 23.814 25.7131 23.5399 26.1047C23.2658 26.4833 23.1614 26.9532 23.2397 27.4232C23.2658 27.5407 23.2266 27.6581 23.1614 27.7626C23.083 27.867 22.9786 27.9323 22.8611 27.9453L19.95 28.4414C19.8195 28.4675 19.702 28.4414 19.6106 28.3631C19.5062 28.2978 19.4278 28.1934 19.4148 28.0628C19.2712 27.2143 18.5402 26.6008 17.6786 26.6008C17.5742 26.6008 17.4828 26.6007 17.3783 26.6138C16.4123 26.7835 15.7727 27.6973 15.9424 28.6503C15.9815 28.9114 15.8119 29.1463 15.5638 29.1855L12.6527 29.6815C12.3917 29.7207 12.1567 29.551 12.1175 29.303C11.9609 28.4545 11.2429 27.8278 10.3683 27.8278C10.2769 27.8278 10.1725 27.8409 10.0811 27.8539C9.11507 28.0236 8.47543 28.9374 8.63208 29.8904C8.67125 30.1384 8.50153 30.3864 8.2535 30.4256L4.88555 31C4.87249 31 4.83329 31 4.80718 31Z" fill="#1F57C3"/>
<path d="M8.56732 25.7123C8.3454 25.7123 8.1496 25.5557 8.12349 25.3338L5.68237 11.0264C5.6432 10.7784 5.81289 10.5434 6.07398 10.5042C6.322 10.452 6.55701 10.6217 6.59617 10.8697L8.94591 24.7202L24.7284 22.0572L22.0523 6.27469L7.96684 8.66358C7.70576 8.70275 7.47078 8.53307 7.43162 8.28504C7.39246 8.03701 7.56217 7.78898 7.8102 7.74982L22.3525 5.28256C22.47 5.26951 22.6006 5.29561 22.6919 5.36088C22.7964 5.43921 22.8616 5.54365 22.8877 5.66114L25.7074 22.3574C25.7466 22.6054 25.5899 22.8404 25.3289 22.8796L8.64565 25.7123C8.61954 25.7123 8.59343 25.7123 8.56732 25.7123Z" fill="#1F57C3"/>
<path d="M20.2121 21.4558C19.9902 21.4558 19.7944 21.2992 19.7552 21.0772L19.455 19.2758C19.4289 19.1583 19.468 19.0278 19.5333 18.9364C19.6116 18.8319 19.703 18.7666 19.8336 18.7405L23.2537 18.1662L18.5804 10.2945L16.4395 19.3149L17.6535 19.1191C17.9146 19.0669 18.1496 19.2366 18.1887 19.4846C18.2409 19.7457 18.0713 19.9807 17.8102 20.0199L15.9042 20.3462C15.7476 20.3723 15.604 20.3201 15.4865 20.2026C15.3821 20.0982 15.3429 19.9285 15.3821 19.7849L17.9668 8.97605C18.006 8.7933 18.1626 8.64967 18.3454 8.62357C18.5151 8.59746 18.6978 8.68885 18.8023 8.8455L24.3894 18.2706C24.4678 18.4011 24.4678 18.5578 24.4156 18.7014C24.3503 18.845 24.2198 18.9364 24.0762 18.9625L20.4471 19.576L20.669 20.9206C20.7082 21.1686 20.5385 21.4036 20.2905 21.4428C20.2643 21.4558 20.2382 21.4558 20.2121 21.4558Z" fill="#1F57C3"/>
<path d="M12.2227 10.9229C12.1182 10.9229 12.0268 10.936 11.9224 10.949C11.4786 11.0273 11.0739 11.2754 10.8128 11.6409C10.5517 12.0195 10.4473 12.4764 10.5256 12.9202C10.6561 13.7557 11.3741 14.3562 12.2096 14.3562C12.314 14.3562 12.4054 14.3431 12.5098 14.3301C12.9537 14.2518 13.3453 14.0037 13.6064 13.6382C13.8805 13.2596 13.9719 12.8027 13.8936 12.3458C13.763 11.5234 13.0451 10.9229 12.2227 10.9229ZM12.2096 15.27C10.9172 15.27 9.82069 14.3562 9.61182 13.0769C9.49433 12.385 9.66403 11.6801 10.0557 11.1187C10.4734 10.5313 11.0739 10.1527 11.7658 10.0353C11.9224 10.0091 12.0791 9.99609 12.2227 9.99609C13.515 9.99609 14.5985 10.9229 14.8074 12.2022C14.9248 12.8941 14.7682 13.586 14.3635 14.1604C13.9588 14.7348 13.3453 15.1133 12.6534 15.2308C12.5098 15.2569 12.3532 15.27 12.2096 15.27Z" fill="#1F57C3"/>
<path d="M7.63935 20.2427C7.53492 20.2427 7.43049 20.2166 7.35216 20.1383C7.15635 19.9686 7.1172 19.6814 7.28691 19.4855C7.36523 19.4072 9.17974 17.3186 12.5347 16.6789C15.981 16.0393 16.5945 17.1619 16.6859 17.3969C16.7642 17.6319 16.6467 17.893 16.4117 17.9843C16.1768 18.0757 15.9287 17.9713 15.8374 17.7494C15.6938 17.5666 14.8975 17.175 12.7044 17.5797C9.67581 18.154 8.00486 20.073 7.9918 20.086C7.90042 20.1905 7.7699 20.2427 7.63935 20.2427Z" fill="#1F57C3"/>
</svg>
