<svg width="70" height="70" viewBox="0 0 70 70" fill="none" xmlns="http://www.w3.org/2000/svg">
					<path d="M35.6 24.2116C35.86 24.2216 36.2 24.2317 36.57 24.2317C39.43 24.2317 41.5 23.8516 42.25 23.1816C42.96 22.5616 43.35 21.7416 43.35 20.8716C43.35 20.0016 42.96 19.1816 42.25 18.5516C41.52 17.9116 40.54 17.5516 39.5 17.5516C38.45 17.5516 37.47 17.9116 36.74 18.5516C35.75 19.4316 35.52 22.2716 35.6 24.2116ZM36.57 25.6017C35.61 25.6017 34.94 25.5616 34.91 25.5616C34.57 25.5416 34.3 25.2716 34.27 24.9316C34.22 24.3516 33.85 19.2616 35.83 17.5216C36.81 16.6616 38.12 16.1816 39.5 16.1816C40.88 16.1816 42.18 16.6616 43.16 17.5216C44.17 18.4116 44.73 19.6016 44.73 20.8716C44.73 22.1416 44.17 23.3316 43.16 24.2216C42.12 25.1416 39.9 25.6017 36.57 25.6017Z" fill="#1F57C3"/>
					<path d="M29.81 16.5009C28.61 16.5009 27.48 16.9109 26.64 17.6609C25.82 18.3809 25.37 19.3309 25.37 20.3409C25.37 21.3509 25.82 22.3009 26.64 23.0309C27.5 23.7909 29.87 24.2309 33.12 24.2309C33.59 24.2309 33.99 24.2208 34.3 24.2108C34.38 22.3408 34.26 18.7809 32.99 17.6609C32.15 16.9109 31.02 16.5009 29.81 16.5009ZM33.12 25.6009C30.55 25.6009 27.18 25.3409 25.73 24.0609C24.61 23.0709 23.99 21.7509 23.99 20.3409C23.99 18.9309 24.61 17.6209 25.73 16.6309C26.82 15.6609 28.27 15.1309 29.81 15.1309C31.35 15.1309 32.8 15.6609 33.9 16.6309C36.1 18.5709 35.69 24.2809 35.63 24.9209C35.6 25.2709 35.33 25.5308 34.99 25.5508C34.96 25.5608 34.21 25.6009 33.12 25.6009Z" fill="#1F57C3"/>
					<path d="M29.2301 38.751C28.9601 38.751 28.7001 38.591 28.5901 38.321C28.4901 38.071 26.1401 32.131 28.5601 27.941C29.7501 25.871 31.8701 24.611 34.8601 24.191C34.9801 24.181 35.1001 24.191 35.2101 24.241C35.5301 24.371 43.0001 27.501 42.9201 34.031C42.9201 34.411 42.6101 34.701 42.2301 34.701C41.8401 34.701 41.5401 34.391 41.5501 34.011C41.6101 28.891 35.9101 26.061 34.8601 25.581C32.4101 25.961 30.7001 26.991 29.7501 28.621C27.6701 32.231 29.8501 37.751 29.8701 37.811C30.0101 38.161 29.8401 38.561 29.4901 38.701C29.4001 38.741 29.3201 38.751 29.2301 38.751Z" fill="#1F57C3"/>
					<path d="M54.1601 33.6116H22.4401C22.0601 33.6116 21.7501 33.3017 21.7501 32.9217C21.7501 32.5417 22.0601 32.2317 22.4401 32.2317H53.4701V25.5516H16.4201V32.2317H19.5901C19.9701 32.2317 20.2801 32.5417 20.2801 32.9217C20.2801 33.3017 19.9701 33.6116 19.5901 33.6116H15.7301C15.3501 33.6116 15.05 33.3017 15.05 32.9217V24.8716C15.05 24.4916 15.3501 24.1816 15.7301 24.1816H54.1601C54.5401 24.1816 54.8501 24.4916 54.8501 24.8716V32.9217C54.8501 33.3017 54.5401 33.6116 54.1601 33.6116Z" fill="#1F57C3"/>
					<path d="M52.5 56.1605H17.39C17.02 56.1605 16.71 55.8505 16.71 55.4705V32.9205C16.71 32.5405 17.02 32.2305 17.39 32.2305C17.77 32.2305 18.08 32.5405 18.08 32.9205V54.7905H51.81V32.9205C51.81 32.5405 52.12 32.2305 52.5 32.2305C52.88 32.2305 53.19 32.5405 53.19 32.9205V55.4705C53.19 55.8505 52.88 56.1605 52.5 56.1605Z" fill="#1F57C3"/>
					<path d="M35.0001 56.1605C34.6201 56.1605 34.3101 55.8505 34.3101 55.4705V24.9205C34.3101 24.5405 34.6201 24.2305 35.0001 24.2305C35.3801 24.2305 35.6901 24.5405 35.6901 24.9205V55.4705C35.6901 55.8505 35.3801 56.1605 35.0001 56.1605Z" fill="#1F57C3"/>
					<path d="M35 68.39C44.22 68.39 52.57 64.65 58.61 58.61C64.65 52.57 68.39 44.22 68.39 35C68.39 25.78 64.65 17.43 58.61 11.39C52.57 5.35001 44.22 1.60999 35 1.60999C25.78 1.60999 17.43 5.35001 11.39 11.39C5.35001 17.43 1.60999 25.78 1.60999 35C1.60999 44.22 5.35001 52.57 11.39 58.61C17.43 64.65 25.78 68.39 35 68.39ZM59.75 59.75C53.42 66.08 44.66 70 35 70C25.34 70 16.58 66.08 10.25 59.75C3.92 53.42 0 44.66 0 35C0 25.34 3.92 16.58 10.25 10.25C16.58 3.92 25.34 0 35 0C44.66 0 53.42 3.92 59.75 10.25C66.08 16.58 70 25.34 70 35C70 44.66 66.08 53.42 59.75 59.75Z" fill="#213479"/>
					</svg>