<svg width="70" height="70" viewBox="0 0 70 70" fill="none" xmlns="http://www.w3.org/2000/svg">
					<path d="M24.7901 34.2088C24.6501 34.2088 24.5001 34.1488 24.3901 34.0388C24.1701 33.8188 24.1701 33.4588 24.3901 33.2388L43.5401 14.0888C43.7601 13.8688 44.1201 13.8688 44.3401 14.0888C44.5601 14.3188 44.5601 14.6688 44.3401 14.8888L25.1901 34.0388C25.0801 34.1488 24.9301 34.2088 24.7901 34.2088Z" fill="#1F57C3"/>
					<path d="M16.2301 53.1901C15.4301 53.1901 15.0201 52.9601 14.7601 52.6901C14.0901 52.0201 13.5701 50.3801 16.8101 43.8501C18.5101 40.4001 20.5001 37.1701 20.5101 37.1401C20.5401 37.1001 20.5701 37.0601 20.6001 37.0401L25.0101 32.6201C25.2301 32.4001 25.5901 32.4001 25.8101 32.6201C26.0301 32.8401 26.0301 33.2001 25.8101 33.4201L21.4501 37.7901C21.1801 38.2301 19.3801 41.2101 17.8201 44.3601C14.7301 50.5901 15.4001 51.7301 15.5601 51.8901C15.7301 52.0601 16.8601 52.7201 23.1001 49.6301C26.2501 48.0701 29.2201 46.2801 29.6701 46.0101L32.0001 43.6801C32.2201 43.4501 32.5801 43.4501 32.8001 43.6801C33.0201 43.8901 33.0201 44.2601 32.8001 44.4701L30.4201 46.8501C30.3901 46.8901 30.3501 46.9101 30.3101 46.9401C30.2801 46.9601 27.0501 48.9401 23.6001 50.6401C19.6301 52.6101 17.4601 53.1901 16.2301 53.1901Z" fill="#1F57C3"/>
					<path d="M32.8101 44.2298C32.6601 44.2298 32.5201 44.1798 32.4101 44.0698C32.1901 43.8398 32.1901 43.4898 32.4101 43.2698L52.5601 23.1198C52.7801 22.8898 53.1401 22.8898 53.3601 23.1198C53.5801 23.3398 53.5801 23.6998 53.3601 23.9198L33.2101 44.0698C33.1001 44.1798 32.9501 44.2298 32.8101 44.2298Z" fill="#1F57C3"/>
					<path d="M20.8701 51.16C20.6401 51.16 20.4201 51.01 20.3401 50.77C20.3301 50.76 19.93 49.6 19.05 48.71C18.14 47.81 16.9201 47.35 16.9001 47.35C16.6101 47.24 16.4601 46.92 16.5701 46.62C16.6701 46.33 17.0001 46.18 17.2901 46.29C17.3501 46.31 18.7701 46.83 19.8401 47.91C20.9301 48.99 21.3901 50.36 21.4101 50.41C21.5101 50.71 21.35 51.03 21.05 51.13C20.99 51.15 20.9301 51.16 20.8701 51.16Z" fill="#1F57C3"/>
					<path d="M29.78 46.6698C29.59 46.6698 29.4 46.5698 29.3 46.3998C29.28 46.3798 27.88 44.1398 25.78 42.0498C23.68 39.9498 21.31 38.4098 21.29 38.3898C21.02 38.2198 20.95 37.8698 21.12 37.6098C21.29 37.3398 21.64 37.2698 21.9 37.4398C22 37.4998 24.39 39.0598 26.58 41.2498C28.77 43.4398 30.2 45.6998 30.26 45.7998C30.42 46.0598 30.34 46.4098 30.07 46.5798C29.98 46.6398 29.88 46.6698 29.78 46.6698Z" fill="#1F57C3"/>
					<path d="M52.9601 24.0799C52.7801 24.0799 52.6001 23.9899 52.4901 23.8399C52.4701 23.8099 50.6601 21.1699 48.4701 18.9799C46.2801 16.7899 43.6501 14.9799 43.6201 14.9599C43.3601 14.7799 43.2901 14.4299 43.4701 14.1799C43.6501 13.9199 44.0001 13.8499 44.2601 14.0299C44.3701 14.0999 47.0101 15.9099 49.2701 18.1799C51.5401 20.4499 53.3501 23.0899 53.4301 23.1999C53.6001 23.4499 53.5401 23.8099 53.2801 23.9799C53.1801 24.0499 53.0701 24.0799 52.9601 24.0799Z" fill="#1F57C3"/>
					<path d="M49.62 27.41C49.44 27.41 49.27 27.33 49.16 27.17C49.14 27.14 47.3301 24.5 45.1401 22.31C42.9501 20.12 40.31 18.31 40.28 18.3C40.03 18.12 39.9601 17.77 40.1401 17.51C40.3101 17.25 40.6601 17.18 40.9201 17.36C41.0301 17.44 43.67 19.25 45.94 21.51C48.21 23.78 50.02 26.42 50.09 26.53C50.27 26.79 50.2 27.14 49.94 27.32C49.85 27.38 49.74 27.41 49.62 27.41Z" fill="#1F57C3"/>
					<path d="M52.6901 22.9594C52.5501 22.9594 52.4001 22.9094 52.2901 22.7994C52.0701 22.5794 52.0701 22.2194 52.2901 21.9994C53.4801 20.8094 53.9901 19.6794 53.8601 18.5394C53.7401 17.5194 53.0801 16.4294 51.8701 15.2194C49.3701 12.7194 47.5001 12.6394 45.2201 14.9194C45.0001 15.1494 44.6401 15.1494 44.4201 14.9194C44.2001 14.7094 44.2001 14.3394 44.4201 14.1294C47.9801 10.5594 50.8301 12.5894 52.6701 14.4194C54.0701 15.8194 54.8301 17.1294 54.9801 18.4094C55.1601 19.9094 54.5501 21.3494 53.0901 22.7994C52.9801 22.9094 52.8401 22.9594 52.6901 22.9594Z" fill="#1F57C3"/>
					<path d="M29.7701 41.1993C29.6301 41.1993 29.4801 41.1393 29.3701 41.0293C29.1501 40.8093 29.1501 40.4493 29.3701 40.2293L44.0301 25.5693C44.2501 25.3493 44.6101 25.3493 44.8301 25.5693C45.0501 25.7993 45.0501 26.1493 44.8301 26.3693L30.1701 41.0293C30.0601 41.1393 29.9201 41.1993 29.7701 41.1993Z" fill="#1F57C3"/>
					<path d="M26.5301 37.9491C26.3801 37.9491 26.2401 37.8991 26.1301 37.7891C25.9101 37.5591 25.9101 37.2091 26.1301 36.9891L40.7901 22.3291C41.0101 22.1091 41.3701 22.1091 41.5901 22.3291C41.8101 22.5491 41.8101 22.9091 41.5901 23.1291L26.9301 37.7891C26.8201 37.8991 26.6701 37.9491 26.5301 37.9491Z" fill="#1F57C3"/>
					<path d="M35 68.39C44.22 68.39 52.57 64.65 58.61 58.61C64.65 52.57 68.39 44.22 68.39 35C68.39 25.78 64.65 17.43 58.61 11.39C52.57 5.35001 44.22 1.60999 35 1.60999C25.78 1.60999 17.43 5.35001 11.39 11.39C5.35001 17.43 1.60999 25.78 1.60999 35C1.60999 44.22 5.35001 52.57 11.39 58.61C17.43 64.65 25.78 68.39 35 68.39ZM59.75 59.75C53.42 66.08 44.66 70 35 70C25.34 70 16.58 66.08 10.25 59.75C3.92 53.42 0 44.66 0 35C0 25.34 3.92 16.58 10.25 10.25C16.58 3.92 25.34 0 35 0C44.66 0 53.42 3.92 59.75 10.25C66.08 16.58 70 25.34 70 35C70 44.66 66.08 53.42 59.75 59.75Z" fill="#1F57C3"/>
					</svg>