<svg width="70" height="70" viewBox="0 0 70 70" fill="none" xmlns="http://www.w3.org/2000/svg">
					<path d="M35 68.39C44.22 68.39 52.57 64.65 58.61 58.61C64.65 52.57 68.39 44.22 68.39 35C68.39 25.78 64.65 17.43 58.61 11.39C52.57 5.35001 44.22 1.60999 35 1.60999C25.78 1.60999 17.43 5.35001 11.39 11.39C5.35001 17.43 1.60999 25.78 1.60999 35C1.60999 44.22 5.35001 52.57 11.39 58.61C17.43 64.65 25.78 68.39 35 68.39ZM59.75 59.75C53.42 66.08 44.66 70 35 70C25.34 70 16.58 66.08 10.25 59.75C3.92 53.42 0 44.66 0 35C0 25.34 3.92 16.58 10.25 10.25C16.58 3.92 25.34 0 35 0C44.66 0 53.42 3.92 59.75 10.25C66.08 16.58 70 25.34 70 35C70 44.66 66.08 53.42 59.75 59.75Z" fill="#213479"/>
					<path fill-rule="evenodd" clip-rule="evenodd" d="M49.2101 53.7999H44.3501V29.2099H49.4301V53.5899C49.4301 53.7499 49.3801 53.7999 49.2101 53.7999ZM42.6301 28.8499V54.0899C42.6301 54.9099 43.3601 55.5199 44.2101 55.5199H49.6401C50.4301 55.5199 51.1401 54.8099 51.1401 54.0099V28.9199C51.1401 28.0699 50.3901 27.4199 49.5001 27.4199H44.1401C43.3701 27.4199 42.6301 28.0799 42.6301 28.8499Z" fill="#1F57C3"/>
					<path fill-rule="evenodd" clip-rule="evenodd" d="M39.8501 15.3405C39.8501 15.6905 40.0201 15.9304 40.2601 16.0804C40.5001 16.2304 40.8701 16.2604 41.1501 16.3304L45.8201 17.3705C46.1201 17.4405 46.5101 17.5505 46.7801 17.5605C46.6701 17.6505 46.7501 17.5905 46.6101 17.6805C44.8101 18.8605 41.5601 20.7405 39.7101 21.8505C38.5201 22.5605 37.3501 23.2805 36.1401 24.0105L20.1401 33.6605C19.2501 34.1905 18.6201 34.3805 18.6201 35.1405C18.6201 35.5605 18.9901 35.9305 19.5501 35.9305C19.8201 35.9305 20.2401 35.6204 20.4601 35.4904C20.7801 35.3004 21.0401 35.1405 21.3501 34.9405L26.5601 31.8004C27.7401 31.0904 28.8701 30.4005 30.0401 29.7005C30.6401 29.3405 31.1901 29.0105 31.7801 28.6505L45.7801 20.2104C46.3801 19.8604 46.9601 19.4505 47.5701 19.1305C47.4401 19.6705 47.1801 20.3404 47.0001 20.8604L45.8201 24.3905C45.3801 25.8105 47.0501 26.1704 47.4401 25.0804L49.2701 19.4805C49.6801 18.2505 50.5801 16.6404 49.3401 16.3604C48.8801 16.2604 48.5301 16.2104 48.0901 16.1104L40.7001 14.4805C40.2401 14.4805 39.8501 14.8805 39.8501 15.3405Z" fill="#1F57C3"/>
					<path fill-rule="evenodd" clip-rule="evenodd" d="M30.6301 36.8597V42.0797C30.8601 42.0797 31.7001 42.4197 32.1601 42.1097C32.2101 42.0697 32.1901 42.0897 32.2301 42.0397C32.3701 41.8997 32.3401 42.1397 32.3401 41.8597V37.1397H37.4201V53.7997H32.3401V45.7197C32.0801 45.6997 31.7301 45.2497 30.6301 45.5097C30.6301 46.8997 30.5401 53.0897 30.6301 54.1597C30.6901 54.9297 31.3601 55.5197 32.2001 55.5197H37.6301C38.4201 55.5197 39.1301 54.8197 39.1301 54.0097V36.9297C39.1301 36.0797 38.4101 35.4297 37.4901 35.4297H32.2701C31.3901 35.4297 30.6301 35.9897 30.6301 36.8597Z" fill="#1F57C3"/>
					<path fill-rule="evenodd" clip-rule="evenodd" d="M20.26 44.5813H25.34V53.8013H20.26V44.5813ZM18.54 44.2213V54.0913C18.54 54.9013 19.28 55.5213 20.12 55.5213H25.55C26.34 55.5213 27.05 54.8114 27.05 54.0114V44.4413C27.05 43.9613 26.92 43.6413 26.68 43.3813C26.49 43.1813 26.11 42.8613 25.76 42.8613H19.9C19.2 42.8613 18.54 43.5113 18.54 44.2213Z" fill="#1F57C3"/>
					</svg>