<svg width="70" height="70" viewBox="0 0 70 70" fill="none" xmlns="http://www.w3.org/2000/svg">
					<path d="M35 68.39C44.22 68.39 52.57 64.65 58.61 58.61C64.65 52.57 68.39 44.22 68.39 35C68.39 25.78 64.65 17.43 58.61 11.39C52.57 5.35001 44.22 1.60999 35 1.60999C25.78 1.60999 17.43 5.35001 11.39 11.39C5.35001 17.43 1.60999 25.78 1.60999 35C1.60999 44.22 5.35001 52.57 11.39 58.61C17.43 64.65 25.78 68.39 35 68.39ZM59.75 59.75C53.42 66.08 44.66 70 35 70C25.34 70 16.58 66.08 10.25 59.75C3.92 53.42 0 44.66 0 35C0 25.34 3.92 16.58 10.25 10.25C16.58 3.92 25.34 0 35 0C44.66 0 53.42 3.92 59.75 10.25C66.08 16.58 70 25.34 70 35C70 44.66 66.08 53.42 59.75 59.75Z" fill="#213479"/>
					<path d="M25.4899 14.1094H44.8699C45.6499 14.1094 46.3499 14.4294 46.8699 14.9394C47.3799 15.4594 47.6999 16.1594 47.6999 16.9394V52.3094C47.6999 53.0894 47.3799 53.7894 46.8699 54.3094C46.3499 54.8194 45.6499 55.1394 44.8699 55.1394H25.4899C24.7099 55.1394 24.0099 54.8194 23.4899 54.3094C22.9799 53.7894 22.6599 53.0894 22.6599 52.3094V16.9394C22.6599 16.1594 22.9799 15.4494 23.4899 14.9394C24.0099 14.4294 24.7099 14.1094 25.4899 14.1094ZM44.8699 15.6894H25.4899C25.1399 15.6894 24.8299 15.8294 24.6099 16.0494H24.5999C24.3799 16.2794 24.2399 16.5894 24.2399 16.9394V52.3094C24.2399 52.6594 24.3799 52.9694 24.5999 53.1894L24.6099 53.1994C24.8299 53.4194 25.1399 53.5594 25.4899 53.5594H44.8699C45.2199 53.5594 45.5299 53.4194 45.7599 53.1994V53.1894C45.9799 52.9694 46.1199 52.6594 46.1199 52.3094V16.9394C46.1199 16.5894 45.9799 16.2794 45.7599 16.0494C45.5299 15.8194 45.2199 15.6894 44.8699 15.6894Z" fill="#213479"/>
					<path d="M43.9299 43.2799C43.9299 43.6999 43.5799 44.0399 43.1599 44.0399C42.7399 44.0399 42.3999 43.6999 42.3999 43.2799V25.1999H27.9599V45.4899H40.9799C41.4 45.4899 41.7399 45.8399 41.7399 46.2599C41.7399 46.6799 41.4 47.0199 40.9799 47.0199H27.2C26.78 47.0199 26.4299 46.6799 26.4299 46.2599V24.4399C26.4299 24.0199 26.78 23.6699 27.2 23.6699H43.1599C43.5799 23.6699 43.9299 24.0199 43.9299 24.4399V43.2799Z" fill="#1F57C3"/>
					<path d="M30.3799 21.2902C29.9499 21.2902 29.5898 20.9402 29.5898 20.5002C29.5898 20.0702 29.9398 19.7201 30.3698 19.7101L39.9799 19.6602C40.4099 19.6602 40.7698 20.0102 40.7698 20.4402C40.7698 20.8802 40.4198 21.2302 39.9898 21.2302L30.3799 21.2902Z" fill="#1F57C3"/>
					<path d="M30.03 30.6909C29.75 30.3609 29.79 29.8709 30.11 29.5809C30.45 29.3009 30.94 29.3409 31.23 29.6709L34.05 32.9609C34.34 33.2909 34.3 33.7909 33.97 34.0709C33.64 34.3509 33.14 34.3109 32.86 33.9809L30.03 30.6909Z" fill="#1F57C3"/>
					<path d="M37.5901 34.0007C37.3201 34.3407 36.8201 34.3907 36.4801 34.1207C36.1501 33.8407 36.0901 33.3407 36.3701 33.0107L39.1201 29.6507C39.4001 29.3107 39.8901 29.2607 40.2301 29.5407C40.5701 29.8107 40.6201 30.3107 40.3401 30.6507L37.5901 34.0007Z" fill="#1F57C3"/>
					<path d="M29.95 38.431C29.59 38.181 29.5 37.691 29.75 37.331C30 36.971 30.49 36.891 30.84 37.131C32.88 38.541 34.1 39.231 35.2 39.201C36.3 39.171 37.4999 38.421 39.4899 36.941C39.8399 36.681 40.34 36.761 40.59 37.101C40.85 37.451 40.7799 37.951 40.4299 38.211C38.1699 39.881 36.7699 40.731 35.2399 40.771C33.7099 40.821 32.27 40.031 29.95 38.431Z" fill="#1F57C3"/>
					</svg>