<svg width="70" height="70" viewBox="0 0 70 70" fill="none" xmlns="http://www.w3.org/2000/svg">
					<path d="M35 68.39C44.22 68.39 52.57 64.65 58.61 58.61C64.65 52.57 68.39 44.22 68.39 35C68.39 25.78 64.65 17.43 58.61 11.39C52.57 5.35001 44.22 1.60999 35 1.60999C25.78 1.60999 17.43 5.35001 11.39 11.39C5.35001 17.43 1.60999 25.78 1.60999 35C1.60999 44.22 5.35001 52.57 11.39 58.61C17.43 64.65 25.78 68.39 35 68.39ZM59.75 59.75C53.42 66.08 44.66 70 35 70C25.34 70 16.58 66.08 10.25 59.75C3.92 53.42 0 44.66 0 35C0 25.34 3.92 16.58 10.25 10.25C16.58 3.92 25.34 0 35 0C44.66 0 53.42 3.92 59.75 10.25C66.08 16.58 70 25.34 70 35C70 44.66 66.08 53.42 59.75 59.75Z" fill="#213479"/>
					<path d="M15.3399 22.5795C15.4199 22.5295 15.4999 22.4995 15.5899 22.4895C18.8999 21.8295 21.3799 21.3295 23.8599 20.8295C31.2999 19.3295 38.7799 17.8295 46.1299 16.5795C46.4999 16.5095 46.7899 16.4595 47.2599 16.3895C47.6499 16.3295 47.9999 16.2695 48.3799 16.2195C48.5799 16.1895 48.7799 16.2395 48.9499 16.3495V16.3395C49.3499 16.4895 49.9399 16.7195 49.9799 17.4295C50.0499 18.6395 49.9999 21.3395 49.9699 22.4695H54.1899C54.5899 22.4695 54.9599 22.6395 55.2299 22.8995C55.4899 23.1595 55.6599 23.5295 55.6599 23.9295V49.6195C55.6599 50.0195 55.4899 50.3895 55.2299 50.6595C54.9599 50.9195 54.5899 51.0895 54.1899 51.0895H15.8899C15.4799 51.0895 15.1199 50.9195 14.8499 50.6595C14.8299 50.6395 14.8099 50.6095 14.7899 50.5895C14.5599 50.3295 14.4199 49.9895 14.4199 49.6195V23.9295C14.4199 23.5295 14.5899 23.1695 14.8499 22.8995C14.9899 22.7595 15.1599 22.6495 15.3399 22.5795ZM24.1799 22.4295L23.9999 22.4695H48.3399C48.3599 21.4795 48.4099 19.1695 48.3699 17.8695C48.0199 17.9195 47.7499 17.9595 47.5199 17.9995L46.3999 18.1895C38.9799 19.4495 31.5599 20.9495 24.1799 22.4295ZM48.9499 16.3495L48.9599 16.3595L48.9499 16.3395V16.3495ZM54.0199 24.1095H16.0599V36.7795C18.8899 34.9595 21.6599 33.2795 24.5999 31.9195C27.8199 30.4395 31.2099 29.3695 35.0099 28.9595C37.3499 28.6995 38.2699 29.2095 38.3699 30.0995C38.4499 30.8995 37.5399 31.8395 36.4799 32.6995C36.6999 32.6695 36.9199 32.6395 37.1299 32.6195C40.4299 32.2995 43.3299 32.5095 46.1599 33.1195C48.7499 33.6895 51.2899 34.5895 54.0199 35.7195V24.1095ZM54.0199 49.4495V37.4895C51.1399 36.2795 48.5099 35.3095 45.8099 34.7195C43.1399 34.1395 40.3999 33.9395 37.2899 34.2495C36.7099 34.2995 36.0399 34.4295 35.3899 34.5495C34.6799 34.6895 33.9899 34.8095 33.4099 34.8595V34.8495C33.1599 34.8695 32.8999 34.7695 32.7299 34.5695C32.4399 34.2295 32.4799 33.7095 32.8199 33.4195C33.0899 33.1995 33.4799 32.9095 33.9199 32.5895L33.9699 32.5495C35.1499 31.6895 36.7699 30.5095 36.7399 30.2695C36.7299 30.1895 36.3399 30.4595 35.1799 30.5895C31.5699 30.9795 28.3499 31.9995 25.2799 33.4095C22.1899 34.8295 19.2399 36.6595 16.1899 38.6495C16.1499 38.6795 16.1099 38.6995 16.0599 38.7195V49.4495H54.0199Z" fill="#1F57C3"/>
					</svg>