<svg width="70" height="70" viewBox="0 0 70 70" fill="none" xmlns="http://www.w3.org/2000/svg">
					<path d="M35 68.39C44.22 68.39 52.57 64.65 58.61 58.61C64.65 52.57 68.39 44.22 68.39 35C68.39 25.78 64.65 17.43 58.61 11.39C52.57 5.35001 44.22 1.60999 35 1.60999C25.78 1.60999 17.43 5.35001 11.39 11.39C5.35001 17.43 1.60999 25.78 1.60999 35C1.60999 44.22 5.35001 52.57 11.39 58.61C17.43 64.65 25.78 68.39 35 68.39ZM59.75 59.75C53.42 66.08 44.66 70 35 70C25.34 70 16.58 66.08 10.25 59.75C3.92 53.42 0 44.66 0 35C0 25.34 3.92 16.58 10.25 10.25C16.58 3.92 25.34 0 35 0C44.66 0 53.42 3.92 59.75 10.25C66.08 16.58 70 25.34 70 35C70 44.66 66.08 53.42 59.75 59.75Z" fill="#213479"/>
					<path fill-rule="evenodd" clip-rule="evenodd" d="M43.68 43.7592C43.71 43.6792 43.76 43.6091 43.82 43.5492C43.84 43.5392 43.8499 43.5292 43.8599 43.5092C43.7999 43.5692 43.74 43.6992 43.68 43.7592ZM43.82 44.5892C43.68 44.4492 43.54 44.3092 43.39 44.1592C43.43 44.1192 43.47 44.0692 43.51 44.0292C43.53 43.9992 43.54 43.9692 43.57 43.9392C43.63 43.8792 43.62 43.8092 43.68 43.7592C43.55 44.0292 43.59 44.3692 43.82 44.5892ZM44.29 45.0592C44.14 44.9092 43.98 44.7492 43.82 44.5892C43.98 44.7492 44.14 44.8992 44.29 45.0592ZM44.75 43.4592C44.48 43.2792 44.1099 43.2992 43.8599 43.5092C43.9199 43.4592 44.02 43.4191 44.08 43.3591C44.1299 43.3091 44.2 43.3092 44.28 43.2592C44.33 43.2292 44.38 43.1792 44.43 43.1392C44.53 43.2392 44.64 43.3492 44.75 43.4592ZM45.34 44.0392C45.14 43.8492 44.94 43.6492 44.75 43.4592C44.79 43.4792 44.8299 43.5091 44.8599 43.5492C45.0199 43.7092 45.18 43.8692 45.34 44.0392ZM23.26 17.5392C29.8 13.4692 38.22 14.3692 43.74 19.7592C46.93 22.8492 48.72 26.9992 48.78 31.4492C48.83 35.8792 47.15 40.0792 44.04 43.2692C37.61 49.8392 27.03 49.9692 20.44 43.5592C14.71 37.9892 13.76 29.1292 18.16 22.4892C18.39 22.1492 18.3 21.6892 17.96 21.4792C17.62 21.2392 17.16 21.3392 16.94 21.6792C12.14 28.9092 13.18 38.5592 19.41 44.6192C22.94 48.0392 27.52 49.7492 32.09 49.7492C36.47 49.7492 40.85 48.1792 44.29 45.0592C47.23 47.9992 50.18 50.9392 53.12 53.8692C53.28 54.0292 53.44 54.1892 53.6 54.3492C53.89 54.6392 54.36 54.6392 54.64 54.3492C54.93 54.0692 54.93 53.5992 54.64 53.3092C54.49 53.1492 54.33 52.9992 54.17 52.8392C51.23 49.9092 48.29 46.9692 45.35 44.0292C48.57 40.5992 50.3 36.1492 50.25 31.4392C50.19 26.5992 48.24 22.0692 44.77 18.6992C38.76 12.8592 29.6 11.8592 22.48 16.2892C22.14 16.5092 22.03 16.9592 22.25 17.3092C22.46 17.6492 22.92 17.7592 23.26 17.5392Z" fill="#1F57C3"/>
					<path fill-rule="evenodd" clip-rule="evenodd" d="M37.1001 31.6499C37.1001 28.9099 34.8601 26.6699 32.1001 26.6699C29.3401 26.6699 27.1001 28.9099 27.1001 31.6499C27.1001 34.3999 29.3401 36.6399 32.1001 36.6399C34.8601 36.6399 37.1001 34.3999 37.1001 31.6499ZM32.1001 27.8399C34.2101 27.8399 35.9201 29.5599 35.9201 31.6499C35.9201 33.7499 34.2101 35.4599 32.1001 35.4599C29.9901 35.4599 28.2801 33.7499 28.2801 31.6499C28.2801 29.5599 29.9901 27.8399 32.1001 27.8399Z" fill="#1F57C3"/>
					<path fill-rule="evenodd" clip-rule="evenodd" d="M32.23 25.0685C37.96 25.1785 42.78 30.5884 44.1 32.2184C42.69 33.6684 37.68 38.3584 31.97 38.2484C26.25 38.1284 21.44 33.2484 20.09 31.7384C21.47 30.1584 26.5 24.9485 32.23 25.0685ZM32.17 39.6484C39.45 39.6484 45.31 32.9984 45.55 32.7084C45.77 32.4684 45.78 32.0984 45.59 31.8484C45.35 31.5184 39.67 23.7984 32.26 23.6484C32.19 23.6484 32.12 23.6484 32.04 23.6484C24.74 23.6484 18.86 30.9984 18.61 31.3084C18.41 31.5584 18.41 31.9184 18.61 32.1784C18.85 32.4684 24.55 39.5084 31.94 39.6484C32.02 39.6484 32.1 39.6484 32.17 39.6484Z" fill="#1F57C3"/>
					</svg>