<svg width="70" height="70" viewBox="0 0 70 70" fill="none" xmlns="http://www.w3.org/2000/svg">
					<path d="M34.96 14.8993C28.28 14.8993 22.2 18.2793 18.69 23.9393C13.12 32.9093 15.89 44.7293 24.84 50.2993C27.88 52.1893 31.36 53.1893 34.93 53.1893C41.61 53.1893 47.69 49.8093 51.2 44.1393C56.77 35.1793 54.01 23.3593 45.05 17.7893C42.01 15.8993 38.51 14.8993 34.96 14.8993ZM34.93 54.5593C31.11 54.5593 27.37 53.4893 24.11 51.4693C14.52 45.4993 11.55 32.8193 17.52 23.2193C21.29 17.1493 27.81 13.5293 34.96 13.5293C38.79 13.5293 42.52 14.5993 45.78 16.6193C55.37 22.5893 58.34 35.2593 52.37 44.8693C48.6 50.9393 42.08 54.5593 34.93 54.5593Z" fill="#1F57C3"/>
					<path d="M41.1501 16.7394C35.9101 16.7394 29.5401 21.2894 25.3401 28.0694C22.6001 32.4594 21.0701 37.2294 21.0201 41.4794C20.9801 45.6094 22.3301 48.7394 24.8401 50.2994C25.9701 50.9994 27.2801 51.3494 28.7401 51.3494C33.9801 51.3494 40.3401 46.7994 44.5601 40.0194C47.2901 35.6194 48.8201 30.8594 48.8701 26.6094C48.9101 22.4794 47.5601 19.3494 45.0501 17.7894C43.9201 17.0894 42.6101 16.7394 41.1501 16.7394ZM28.7401 52.7294C27.0101 52.7294 25.4601 52.2994 24.1101 51.4694C21.1801 49.6394 19.6001 46.0894 19.6601 41.4694C19.7101 36.9594 21.3101 31.9494 24.1701 27.3494C28.7001 20.0594 35.3601 15.3594 41.1501 15.3594C42.8701 15.3594 44.4301 15.7794 45.7801 16.6194C48.7101 18.4494 50.2901 21.9994 50.2401 26.6194C50.1801 31.1194 48.5801 36.1394 45.7201 40.7394C41.1901 48.0194 34.5301 52.7294 28.7401 52.7294Z" fill="#1F57C3"/>
					<path d="M54.7502 33.7586C54.6302 33.7586 54.5002 33.7186 54.3902 33.6486L36.5102 22.5486C36.1802 22.3486 36.0902 21.9186 36.2902 21.5986C36.4902 21.2786 36.9101 21.1786 37.2401 21.3786L55.1202 32.4886C55.4302 32.6886 55.5402 33.1086 55.3402 33.4386C55.2102 33.6386 54.9702 33.7586 54.7502 33.7586Z" fill="#1F57C3"/>
					<path d="M32.5101 19.9394C32.4001 19.9394 32.2701 19.9094 32.1401 19.8394L26.6801 16.4394C26.3501 16.2394 26.2601 15.8194 26.4601 15.4994C26.6601 15.1694 27.0801 15.0794 27.4101 15.2794L32.8701 18.6694C33.2001 18.8694 33.2901 19.2894 33.0901 19.6194C32.9601 19.8294 32.7401 19.9394 32.5101 19.9394Z" fill="#1F57C3"/>
					<path d="M42.56 53.0387C42.45 53.0387 42.32 52.9987 42.21 52.9287L36.78 49.5687C36.48 49.3687 36.37 48.9487 36.57 48.6287C36.77 48.3087 37.2 48.2087 37.51 48.3987L42.92 51.7587C43.25 51.9687 43.34 52.3887 43.14 52.7087C43.01 52.9187 42.79 53.0387 42.56 53.0387Z" fill="#1F57C3"/>
					<path d="M32.7399 46.9399C32.6299 46.9399 32.5099 46.8999 32.3999 46.8299L14.7899 35.8999C14.4799 35.7099 14.3799 35.2799 14.5799 34.9599C14.7799 34.6399 15.1999 34.5399 15.5199 34.7399L33.1099 45.6699C33.4399 45.8699 33.5299 46.2899 33.3299 46.6099C33.1999 46.8199 32.9799 46.9399 32.7399 46.9399Z" fill="#1F57C3"/>
					<path d="M48.7999 43.3397C48.6699 43.3397 48.5399 43.2997 48.4399 43.2397L17.7399 24.1597C17.4199 23.9597 17.3199 23.5397 17.5199 23.2197C17.7299 22.8997 18.1399 22.7997 18.4699 22.9997L49.1599 42.0697C49.4699 42.2697 49.5799 42.6897 49.3799 43.0097C49.2599 43.2197 49.0199 43.3397 48.7999 43.3397Z" fill="#1F57C3"/>
					<path d="M24.0601 51.309C23.9301 51.309 23.8101 51.279 23.7001 51.209C23.3701 51.009 23.2801 50.579 23.4801 50.259L44.3901 16.599C44.6001 16.269 45.0101 16.179 45.3401 16.379C45.6701 16.579 45.7601 16.999 45.5601 17.319L24.6401 50.989C24.5201 51.199 24.3001 51.309 24.0601 51.309Z" fill="#1F57C3"/>
					<path d="M35 68.39C44.22 68.39 52.57 64.65 58.61 58.61C64.65 52.57 68.39 44.22 68.39 35C68.39 25.78 64.65 17.43 58.61 11.39C52.57 5.35001 44.22 1.60999 35 1.60999C25.78 1.60999 17.43 5.35001 11.39 11.39C5.35001 17.43 1.60999 25.78 1.60999 35C1.60999 44.22 5.35001 52.57 11.39 58.61C17.43 64.65 25.78 68.39 35 68.39ZM59.75 59.75C53.42 66.08 44.66 70 35 70C25.34 70 16.58 66.08 10.25 59.75C3.92 53.42 0 44.66 0 35C0 25.34 3.92 16.58 10.25 10.25C16.58 3.92 25.34 0 35 0C44.66 0 53.42 3.92 59.75 10.25C66.08 16.58 70 25.34 70 35C70 44.66 66.08 53.42 59.75 59.75Z" fill="#213479"/>
					</svg>